<?xml version="1.0" standalone="no"?>
<!DOCTYPE svg PUBLIC "-//W3C//DTD SVG 20010904//EN"
 "http://www.w3.org/TR/2001/REC-SVG-20010904/DTD/svg10.dtd">
<svg version="1.0" xmlns="http://www.w3.org/2000/svg"
 width="758.000000pt" height="758.000000pt" viewBox="0 0 758.000000 758.000000"
 preserveAspectRatio="xMidYMid meet">
<metadata>
Created by potrace 1.11, written by Peter Selinger 2001-2013
</metadata>
<g transform="translate(0.000000,758.000000) scale(0.100000,-0.100000)"
fill="#000000" stroke="none">
<path d="M3635 7574 c-584 -33 -1057 -155 -1538 -395 -1076 -539 -1828 -1541
-2041 -2719 -13 -74 -27 -161 -31 -192 l-6 -58 1520 0 1520 0 -131 228 c-73
125 -284 490 -470 812 l-337 585 22 18 c133 105 537 332 579 325 12 -2 177
-278 482 -807 l463 -804 -130 -226 c-72 -124 -210 -363 -307 -531 l-176 -305
-1522 -3 -1522 -2 0 -28 c0 -59 32 -284 61 -427 198 -989 777 -1849 1625
-2413 506 -336 1076 -541 1696 -608 183 -20 559 -23 733 -5 266 27 566 87 800
161 108 34 355 128 368 140 8 7 -1497 2623 -1511 2627 -4 1 -216 -360 -471
-803 -255 -442 -467 -806 -471 -809 -12 -7 -228 98 -345 167 -60 36 -145 91
-187 123 -74 53 -77 58 -65 79 6 13 217 377 467 810 l454 786 619 -2 619 -3
757 -1312 c416 -722 759 -1312 763 -1313 15 0 246 180 370 289 367 322 690
749 904 1196 189 394 308 819 356 1275 15 148 15 572 0 720 -81 762 -353 1427
-829 2020 -169 212 -458 491 -659 639 l-41 31 -757 -1310 c-416 -721 -756
-1313 -756 -1315 0 -3 420 -5 934 -5 l934 0 6 -22 c18 -71 27 -339 16 -495 -6
-90 -14 -171 -17 -179 -4 -12 -138 -14 -938 -14 l-933 0 -307 532 c-257 446
-305 535 -297 552 5 12 345 603 756 1313 410 711 746 1297 746 1303 0 10 -37
28 -185 90 -326 137 -724 236 -1090 269 -126 11 -411 20 -500 15z"/>
</g>
</svg>
