<?xml version="1.0" encoding="utf-8"?>
<!-- Generator: Adobe Illustrator 16.0.0, SVG Export Plug-In . SVG Version: 6.00 Build 0)  -->
<!DOCTYPE svg PUBLIC "-//W3C//DTD SVG 1.1//EN" "http://www.w3.org/Graphics/SVG/1.1/DTD/svg11.dtd">
<svg version="1.1" id="Layer_1" xmlns="http://www.w3.org/2000/svg" xmlns:xlink="http://www.w3.org/1999/xlink" x="0px" y="0px"
	 width="582.291px" height="158.158px" viewBox="50.07 32.922 582.291 158.158"
	 enable-background="new 50.07 32.922 582.291 158.158" xml:space="preserve">
<g id="LOGOS">
	<g>
		<path fill="#FFFFFF" d="M265.506,80.003c10.536,0,18.858,4.1,22.876,10.947l-9.347,6.682c-2.05-3.033-6.273-6.887-13.201-6.887
			c-6.232,0-10.496,3.115-10.496,7.256c0,3.895,3.239,6.191,9.635,7.912l7.215,1.928c11.479,3.156,17.179,8.732,17.179,17.791
			c0,11.562-10.208,18.818-24.394,18.818c-10.454,0-19.063-3.607-23.573-11.191l9.676-6.887c2.05,3.073,6.437,7.174,13.733,7.174
			c6.683,0,11.766-3.035,11.766-7.461c0-3.854-3.484-6.479-10.084-8.362l-7.871-2.052c-10.619-2.91-16.154-8.404-16.154-17.506
			C242.465,88.325,252.264,80.003,265.506,80.003z"/>
		<path fill="#FFFFFF" d="M331.916,144.327c-7.994,0-13.529-3.443-17.342-8.854l-0.779,7.707h-11.191V58.315h12.668v29.602
			c3.771-4.879,9.061-7.955,16.48-7.955c14.964,0,24.312,13.16,24.312,31.691C356.062,130.555,346.593,144.327,331.916,144.327z
			 M328.227,91.155c-9.266,0-13.364,8.609-13.897,16.029c-0.533,2.951-0.533,7.953,0,10.576c0.738,6.93,5.166,15.744,14.391,15.744
			c9.674,0,14.554-9.84,14.554-21.852C343.271,100.708,338.639,91.155,328.227,91.155z"/>
		<path fill="#FFFFFF" d="M385.248,91.36v51.82H372.58V91.36h-9.716V80.905h9.716v-4.51c0-12.463,8.691-19.227,20.335-19.227
			c2.582,0,4.796,0.369,6.354,0.82V68.4c-1.312-0.205-1.929-0.369-4.552-0.369c-3.977,0-9.471,1.928-9.471,8.363v4.51h13.364
			L398.49,91.36H385.248z"/>
		<path fill="#FFFFFF" d="M404.473,111.981c0-19.719,12.014-32.02,28.288-32.02c16.439,0,28.452,11.439,28.452,32.02
			c0,20.99-12.013,32.387-28.452,32.387C416.484,144.368,404.473,132.438,404.473,111.981z M448.176,111.981
			c0-13.816-5.822-21.277-15.415-21.277c-9.225,0-15.497,8.281-15.497,21.277c0,12.914,5.78,21.523,15.497,21.523
			C442.354,133.505,448.176,125.962,448.176,111.981z"/>
		<path fill="#FFFFFF" d="M495.604,143.917c-8.854,0-17.629-5.125-17.629-16.89V91.36h-9.389V80.905h9.389V66.804h12.668v14.102
			h12.301V91.36h-12.301v33.166c0,7.625,4.635,8.199,8.568,8.199c1.764,0,2.623-0.164,4.141-0.328v10.496
			C501.179,143.632,499.539,143.917,495.604,143.917z"/>
		<path fill="#FFFFFF" d="M511.262,111.981c0-19.719,12.014-32.02,28.287-32.02c16.44,0,28.453,11.439,28.453,32.02
			c0,20.99-12.013,32.387-28.453,32.387C523.273,144.368,511.262,132.438,511.262,111.981z M554.964,111.981
			c0-13.816-5.821-21.277-15.415-21.277c-9.225,0-15.496,8.281-15.496,21.277c0,12.914,5.779,21.523,15.496,21.523
			C549.143,133.505,554.964,125.962,554.964,111.981z"/>
		<path fill="#FFFFFF" d="M593.537,143.182h-12.668V80.905h11.971l0.205,9.102h0.656c3.156-5.781,9.347-10.045,18.038-10.045
			c11.644,0,20.621,7.135,20.621,23.779v39.438h-12.669v-38.784c0-8.281-5.328-13.242-12.26-13.242
			c-7.174,0-13.896,5.738-13.896,16.398L593.537,143.182L593.537,143.182z"/>
	</g>
	<path fill="#009CDE" d="M129.148,32.922c-43.673,0-79.078,35.405-79.078,79.079c0,43.675,35.405,79.079,79.078,79.079
		c43.675,0,79.08-35.404,79.08-79.079C208.229,68.327,172.823,32.922,129.148,32.922z M171.83,174.518L141.412,122H116.66
		l-18.768,32.336c1.701,1.336,3.49,2.48,5.355,3.596l1.215,0.658c1.866,1.045,3.801,1.951,5.803,2.754l18.77-32.519l30.305,52.479
		c-9.279,4.062-19.527,6.377-30.305,6.377C89.251,187.682,56.643,157,53.64,118h60.835l12.377-21.492l-18.77-32.54
		c-2.004,0.803-3.941,1.719-5.807,2.764l-1.202,0.686c-1.869,1.115-3.661,2.339-5.364,3.677l18.766,32.5L53.88,103.6
		c4.182-37.809,36.231-67.221,75.155-67.219c11.678,0,22.734,2.648,32.607,7.373l-30.424,52.753L143.595,118h37.533
		c0.331-2,0.505-4.777,0.507-7.203c0-2.424-0.176-4.836-0.508-7.17l-37.533-0.016l30.299-52.484
		c18.66,13.771,30.765,35.991,30.766,60.961C204.657,137.967,191.654,160.885,171.83,174.518z"/>
</g>
</svg>
