<?xml version="1.0" encoding="utf-8"?>
<!-- Generator: Adobe Illustrator 16.0.0, SVG Export Plug-In . SVG Version: 6.00 Build 0)  -->
<!DOCTYPE svg PUBLIC "-//W3C//DTD SVG 1.1//EN" "http://www.w3.org/Graphics/SVG/1.1/DTD/svg11.dtd">
<svg version="1.1" id="Layer_1" xmlns="http://www.w3.org/2000/svg" xmlns:xlink="http://www.w3.org/1999/xlink" x="0px" y="0px"
	 width="578.72px" height="151.247px" viewBox="53.64 36.378 578.72 151.247" enable-background="new 53.64 36.378 578.72 151.247"
	 xml:space="preserve">
<g id="Fundo">
</g>
<g id="LOGOS">
	<g>
		<path fill="#009CDE" d="M129.035,128.812l-18.77,32.511c-2.002-0.804-3.937-1.73-5.803-2.775l-1.215-0.698
			c-1.865-1.115-3.654-2.343-5.355-3.679l18.768-32.504h24.752l30.418,52.687c19.824-13.633,32.827-36.474,32.828-62.353
			c-0.001-24.971-12.105-47.111-30.766-60.883l-30.299,52.477l37.533,0.002c0.332,2.334,0.508,4.719,0.508,7.143
			c-0.002,2.426-0.176,4.811-0.507,7.146h-37.533l-12.376-21.438l30.424-52.697c-9.873-4.725-20.93-7.373-32.607-7.373
			c-38.924-0.002-70.974,29.41-75.155,67.219l60.595-0.004L95.709,71.091c1.703-1.338,3.495-2.566,5.364-3.682l1.202-0.693
			c1.865-1.045,3.803-1.975,5.807-2.777l18.77,32.512l-12.377,21.436H53.64c3.003,39.014,35.611,69.738,75.396,69.738
			c10.777,0,21.025-2.26,30.305-6.324L129.035,128.812z"/>
		<g>
			<path d="M265.506,80.003c10.536,0,18.858,4.1,22.876,10.947l-9.347,6.682c-2.05-3.033-6.273-6.887-13.201-6.887
				c-6.232,0-10.496,3.115-10.496,7.256c0,3.895,3.239,6.191,9.635,7.912l7.215,1.928c11.479,3.156,17.179,8.732,17.179,17.791
				c0,11.562-10.208,18.818-24.394,18.818c-10.454,0-19.063-3.607-23.573-11.191l9.676-6.887c2.05,3.073,6.437,7.174,13.733,7.174
				c6.683,0,11.766-3.035,11.766-7.461c0-3.854-3.484-6.479-10.084-8.362l-7.871-2.052c-10.619-2.91-16.154-8.404-16.154-17.506
				C242.465,88.325,252.264,80.003,265.506,80.003z"/>
			<path d="M331.916,144.327c-7.994,0-13.529-3.443-17.342-8.854l-0.779,7.707h-11.191V58.315h12.668v29.602
				c3.771-4.879,9.06-7.955,16.48-7.955c14.964,0,24.312,13.16,24.312,31.691C356.062,130.555,346.593,144.327,331.916,144.327z
				 M328.227,91.155c-9.266,0-13.365,8.609-13.898,16.029c-0.533,2.951-0.533,7.953,0,10.576c0.738,6.93,5.166,15.744,14.391,15.744
				c9.674,0,14.554-9.84,14.554-21.852C343.272,100.708,338.639,91.155,328.227,91.155z"/>
			<path d="M385.248,91.36v51.82H372.58V91.36h-9.716V80.905h9.716v-4.51c0-12.463,8.691-19.227,20.335-19.227
				c2.582,0,4.796,0.369,6.354,0.82V68.4c-1.312-0.205-1.929-0.369-4.552-0.369c-3.977,0-9.471,1.928-9.471,8.363v4.51h13.364
				L398.49,91.36H385.248z"/>
			<path d="M404.473,111.981c0-19.719,12.012-32.02,28.288-32.02c16.439,0,28.452,11.439,28.452,32.02
				c0,20.99-12.013,32.387-28.452,32.387C416.484,144.368,404.473,132.438,404.473,111.981z M448.176,111.981
				c0-13.816-5.822-21.277-15.415-21.277c-9.225,0-15.497,8.281-15.497,21.277c0,12.914,5.78,21.523,15.497,21.523
				C442.354,133.505,448.176,125.962,448.176,111.981z"/>
			<path d="M495.604,143.917c-8.854,0-17.629-5.125-17.629-16.89V91.36h-9.389V80.905h9.389V66.804h12.668v14.102h12.3V91.36h-12.3
				v33.166c0,7.625,4.634,8.199,8.568,8.199c1.764,0,2.623-0.164,4.141-0.328v10.496
				C501.179,143.632,499.539,143.917,495.604,143.917z"/>
			<path d="M511.262,111.981c0-19.719,12.012-32.02,28.287-32.02c16.44,0,28.453,11.439,28.453,32.02
				c0,20.99-12.013,32.387-28.453,32.387C523.273,144.368,511.262,132.438,511.262,111.981z M554.964,111.981
				c0-13.816-5.821-21.277-15.415-21.277c-9.225,0-15.496,8.281-15.496,21.277c0,12.914,5.779,21.523,15.496,21.523
				C549.143,133.505,554.964,125.962,554.964,111.981z"/>
			<path d="M593.537,143.182h-12.668V80.905h11.971l0.205,9.102h0.656c3.156-5.781,9.347-10.045,18.038-10.045
				c11.644,0,20.621,7.135,20.621,23.779v39.438h-12.669v-38.783c0-8.281-5.328-13.242-12.259-13.242
				c-7.174,0-13.896,5.738-13.896,16.398V143.182z"/>
		</g>
	</g>
</g>
</svg>
