<?xml version="1.0" encoding="utf-8"?>
<!-- Generator: Adobe Illustrator 16.0.0, SVG Export Plug-In . SVG Version: 6.00 Build 0)  -->
<!DOCTYPE svg PUBLIC "-//W3C//DTD SVG 1.1//EN" "http://www.w3.org/Graphics/SVG/1.1/DTD/svg11.dtd">
<svg version="1.1" id="Layer_1" xmlns="http://www.w3.org/2000/svg" xmlns:xlink="http://www.w3.org/1999/xlink" x="0px" y="0px"
	 width="663.271px" height="663.258px" viewBox="0 0 663.271 663.258" enable-background="new 0 0 663.271 663.258"
	 xml:space="preserve">
<g>
	<path fill="#FFD4D5" d="M331.636,663.258c-88.583-0.001-171.864-34.497-234.502-97.135C34.496,503.485,0,420.205,0,331.623
		c0.002-88.58,34.5-171.857,97.137-234.493C159.775,34.496,243.055,0,331.636,0c88.584-0.001,171.865,34.494,234.502,97.129
		c62.639,62.636,97.134,145.916,97.134,234.499s-34.496,171.863-97.137,234.5C503.498,628.763,420.217,663.258,331.636,663.258z
		 M331.636,3C243.856,3,161.33,37.183,99.258,99.252C37.188,161.32,3.002,243.845,3,331.623c0,87.78,34.184,170.308,96.256,232.379
		c62.071,62.07,144.599,96.255,232.38,96.256c87.78,0,170.308-34.183,232.378-96.252c62.072-62.069,96.258-144.597,96.258-232.378
		S626.088,161.32,564.017,99.251C501.947,37.182,419.418,2.999,331.636,3z"/>
	<path fill="#FFD4D5" d="M333.14,658.314l-3.001-0.004c-86.705-0.389-168.157-34.334-229.508-95.684
		C38.924,500.924,4.942,418.885,4.943,331.624c0.002-87.26,33.985-169.296,95.689-230.998S244.375,4.943,331.636,4.943
		c87.264-0.001,169.304,33.979,231.007,95.682c61.704,61.702,95.687,143.741,95.686,231.003c0,87.257-33.983,169.294-95.692,231
		c-61.353,61.351-142.802,95.296-229.494,95.685v0.002H333.14z M331.636,7.943c-86.46,0-167.745,33.669-228.882,94.804
		C41.616,163.882,7.945,245.165,7.943,331.624c-0.001,86.46,33.669,167.746,94.808,228.883
		c61.138,61.137,142.424,94.808,228.885,94.808h0.002c86.453,0,167.735-33.67,228.875-94.808
		c61.143-61.14,94.813-142.424,94.813-228.879c0.001-86.461-33.668-167.747-94.806-228.882
		C499.385,41.61,418.099,7.942,331.636,7.943z"/>
	<path fill="#FFD4D5" d="M331.636,653.372c-85.942-0.001-166.74-33.469-227.511-94.238C43.353,498.362,9.885,417.564,9.886,331.623
		c0.002-85.939,33.471-166.734,94.241-227.502S245.695,9.886,331.636,9.886c85.942-0.001,166.741,33.465,227.513,94.234
		c60.771,60.769,94.237,141.566,94.236,227.508c0.001,85.942-33.468,166.74-94.24,227.51
		C498.375,619.905,417.577,653.372,331.636,653.372z M331.636,12.886c-85.14,0-165.184,33.155-225.388,93.356
		c-60.204,60.202-93.36,140.244-93.362,225.381c-0.001,85.141,33.155,165.185,93.359,225.389
		c60.205,60.203,140.25,93.359,225.39,93.36c85.14,0,165.185-33.154,225.389-93.356c60.205-60.203,93.361-140.247,93.36-225.388
		c0.001-85.141-33.153-165.185-93.357-225.387C496.823,46.039,416.778,12.885,331.636,12.886z"/>
	<path fill="#FFD4D5" d="M333.14,648.429l-3.003-0.004c-84.063-0.388-163.035-33.305-222.518-92.786
		c-59.838-59.837-92.792-139.394-92.79-224.015c0.001-84.619,32.956-164.173,92.793-224.008
		c59.837-59.834,139.393-92.787,224.014-92.787c84.622-0.001,164.181,32.951,224.018,92.786
		c59.837,59.835,92.79,139.391,92.788,224.013c0,84.617-32.955,164.173-92.797,224.011
		c-59.484,59.483-138.452,92.399-222.505,92.787V648.429L333.14,648.429z M331.636,17.829c-83.819,0-162.622,32.641-221.892,91.909
		c-59.27,59.267-91.913,138.068-91.914,221.886c-0.001,83.82,32.64,162.624,91.911,221.894
		c59.271,59.271,138.075,91.911,221.895,91.911h0.002c83.812,0,162.613-32.642,221.886-91.912
		c59.273-59.271,91.918-138.073,91.918-221.89c0.001-83.82-32.642-162.623-91.911-221.891
		C494.261,50.468,415.458,17.828,331.636,17.829z"/>
	<path fill="#FFD4D5" d="M333.14,643.486l-3.003-0.004c-82.747-0.387-160.472-32.788-219.022-91.34
		C52.21,493.24,19.771,414.924,19.772,331.623c0.001-83.299,32.442-161.612,91.345-220.513
		c58.903-58.901,137.219-91.339,220.52-91.339c83.302-0.001,161.618,32.437,220.521,91.337
		c58.902,58.902,91.342,137.216,91.341,220.517c0,83.298-32.441,161.612-91.351,220.518
		c-58.553,58.552-136.273,90.954-219.009,91.34V643.486L333.14,643.486z M331.637,22.771c-82.5,0-160.062,32.126-218.397,90.46
		c-58.336,58.334-90.465,135.894-90.466,218.392c-0.001,82.5,32.125,160.062,90.463,218.398
		c58.337,58.337,135.9,90.465,218.4,90.465h0.002c82.492,0,160.051-32.128,218.39-90.465
		c58.341-58.339,90.471-135.899,90.471-218.396c0.001-82.5-32.125-160.061-90.463-218.396
		C491.7,54.896,414.137,22.771,331.637,22.771z"/>
	<path fill="#FFD4D5" d="M333.138,638.543l-2.999-0.004c-81.424-0.387-157.914-32.275-215.53-89.891
		c-57.971-57.971-89.896-135.045-89.895-217.025c0.001-81.979,31.928-159.05,89.897-217.018
		c57.969-57.968,135.044-89.892,217.024-89.892c81.981-0.001,159.057,31.922,217.025,89.89
		c57.971,57.968,89.896,135.042,89.895,217.022c0,81.978-31.928,159.05-89.899,217.021
		c-57.618,57.615-134.104,89.505-215.518,89.892V638.543L333.138,638.543z M331.636,635.543h0.003
		c81.17,0,157.49-31.613,214.895-89.017c57.405-57.405,89.021-133.726,89.021-214.9c0.001-81.179-31.611-157.499-89.016-214.9
		c-57.402-57.401-133.724-89.013-214.904-89.012c-81.179,0-157.5,31.613-214.903,89.013
		c-57.403,57.401-89.018,133.719-89.019,214.896c-0.001,81.179,31.611,157.5,89.016,214.904
		C174.134,603.93,250.456,635.543,331.636,635.543L331.636,635.543z"/>
	<path fill="#FFD4D5" d="M333.137,633.601l-2.998-0.004c-80.102-0.388-155.354-31.762-212.035-88.441
		c-57.038-57.037-88.448-132.87-88.446-213.53c0.001-80.658,31.413-156.489,88.449-213.523
		c57.036-57.034,132.869-88.444,213.529-88.444c80.661-0.001,156.494,31.408,213.53,88.442
		c57.037,57.035,88.447,132.866,88.446,213.526c0,80.658-31.413,156.49-88.452,213.528
		c-56.688,56.685-131.927,88.059-212.023,88.442V633.601z M331.636,630.601h0.003c79.852,0,154.927-31.1,211.4-87.568
		c56.473-56.472,87.573-131.55,87.573-211.406c0.001-79.858-31.099-154.937-87.567-211.405
		c-56.469-56.468-131.548-87.564-211.408-87.563c-79.859,0-154.938,31.098-211.408,87.565
		c-56.47,56.467-87.57,131.544-87.571,211.401c-0.002,79.859,31.097,154.938,87.567,211.408
		C176.696,599.502,251.776,630.601,331.636,630.601L331.636,630.601z"/>
	<path fill="#FFD4D5" d="M333.138,628.657l-3-0.004c-78.786-0.386-152.789-31.245-208.54-86.994
		c-56.104-56.104-87-130.695-86.998-210.035c0.001-79.338,30.899-153.928,87.001-210.028c56.103-56.1,130.694-86.997,210.034-86.997
		c79.341-0.001,153.934,30.895,210.035,86.995c56.104,56.101,86.999,130.691,86.998,210.031c0,79.337-30.898,153.928-87.005,210.032
		c-55.751,55.75-129.752,86.609-208.525,86.996V628.657L333.138,628.657z M331.636,625.657h0.003
		c78.532,0,152.368-30.585,207.905-86.121c55.539-55.538,86.126-129.375,86.126-207.911c0.001-78.538-30.583-152.375-86.119-207.91
		c-55.536-55.534-129.374-86.117-207.914-86.116c-78.539,0-152.377,30.584-207.913,86.118
		c-55.536,55.534-86.122,129.37-86.123,207.907c-0.002,78.539,30.582,152.378,86.12,207.914
		C179.257,595.073,253.096,625.657,331.636,625.657L331.636,625.657z"/>
	<path fill="#FFD4D5" d="M331.641,623.714v-1.5l-0.003,1.5c-78.022,0-151.374-30.382-206.543-85.55
		c-55.17-55.169-85.553-128.521-85.55-206.54c0.001-78.018,30.384-151.366,85.553-206.533s128.519-85.549,206.539-85.549
		c78.021-0.001,151.371,30.38,206.54,85.547c55.17,55.167,85.552,128.517,85.552,206.536c0,78.017-30.386,151.367-85.558,206.538
		C483,593.331,409.653,623.714,331.641,623.714z M331.636,42.542c-77.219,0-149.815,30.07-204.418,84.67
		c-54.602,54.601-84.673,127.195-84.674,204.412c-0.002,77.219,30.068,149.816,84.671,204.418
		c54.603,54.603,127.201,84.672,204.42,84.672h0.005c77.21,0,149.805-30.071,204.409-84.673
		c54.604-54.604,84.678-127.2,84.678-204.417c0.001-77.218-30.068-149.813-84.672-204.415
		C481.453,72.61,408.854,42.541,331.636,42.542z"/>
	<path fill="#FFD4D5" d="M331.641,618.771v-1.5l-0.003,1.5c-76.703,0-148.812-29.868-203.048-84.104
		c-54.237-54.235-84.105-126.345-84.102-203.045c0.001-76.698,29.87-148.805,84.105-203.038
		c54.235-54.233,126.344-84.101,203.044-84.101c76.7-0.001,148.81,29.866,203.044,84.099
		c54.236,54.234,84.104,126.342,84.104,203.041c-0.001,76.698-29.871,148.806-84.109,203.042
		C480.439,588.902,408.333,618.771,331.641,618.771z M331.636,47.485c-75.898,0-147.254,29.556-200.923,83.223
		c-53.668,53.667-83.226,125.02-83.227,200.917c-0.003,75.898,29.553,147.255,83.223,200.924
		c53.669,53.668,125.026,83.225,200.925,83.225h0.005c75.891,0,147.244-29.558,200.914-83.227
		c53.671-53.67,83.229-125.024,83.23-200.921c0.001-75.897-29.557-147.252-83.226-200.919S407.536,47.484,331.636,47.485z"/>
	<path fill="#FFD4D5" d="M331.641,613.829v-1.5l-0.003,1.5c-75.382,0-146.251-29.354-199.553-82.654
		c-53.303-53.303-82.657-124.171-82.654-199.55c0.001-75.378,29.356-146.244,82.658-199.543
		c53.302-53.299,124.17-82.653,199.55-82.653c75.379-0.001,146.247,29.351,199.548,82.651
		c53.304,53.3,82.656,124.167,82.655,199.545c0,75.378-29.355,146.245-82.66,199.549
		C477.878,584.475,407.013,613.829,331.641,613.829z M331.637,52.428c-74.579,0-144.693,29.042-197.428,81.775
		C81.474,186.936,52.431,257.048,52.43,331.625c-0.003,74.579,29.039,144.693,81.775,197.428
		c52.736,52.735,122.852,81.776,197.43,81.776h0.005c74.572,0,144.683-29.043,197.418-81.777
		c52.736-52.736,81.781-122.852,81.781-197.428c0.001-74.577-29.041-144.69-81.775-197.424
		C476.33,81.467,406.215,52.426,331.637,52.428z"/>
	<path fill="#FFD4D5" d="M331.641,608.886v-1.5l-0.003,1.5c-74.062,0.001-143.689-28.839-196.058-81.206
		c-52.37-52.368-81.209-121.995-81.206-196.055c0-74.057,28.841-143.682,81.21-196.048c52.368-52.366,121.995-81.206,196.054-81.206
		c74.059-0.001,143.686,28.837,196.054,81.204c52.368,52.367,81.209,121.992,81.208,196.05
		c-0.001,74.058-28.844,143.684-81.213,196.053C475.317,580.045,405.694,608.886,331.641,608.886z M331.637,57.371
		c-73.258,0-142.131,28.528-193.933,80.328C85.902,189.498,57.373,258.37,57.373,331.626
		C57.37,404.883,85.897,473.757,137.7,525.559c51.802,51.802,120.676,80.328,193.935,80.327h0.005
		c73.251,0,142.122-28.527,193.924-80.33s80.332-120.676,80.334-193.932c0-73.257-28.526-142.128-80.329-193.928
		C473.768,85.896,404.896,57.37,331.637,57.371z"/>
	<path fill="#FFD4D5" d="M331.642,603.942v-1.5l-0.004,1.5c-72.743,0.001-141.129-28.324-192.564-79.759
		c-51.436-51.436-79.761-119.82-79.758-192.56c0-72.737,28.327-141.121,79.761-192.553c51.435-51.433,119.82-79.758,192.56-79.758
		c72.739-0.001,141.124,28.323,192.56,79.756c51.435,51.433,79.761,119.817,79.76,192.554
		c-0.001,72.738-28.328,141.123-79.765,192.559C472.756,575.616,404.375,603.942,331.642,603.942z M331.635,600.942h0.007
		c71.931,0,139.56-28.016,190.428-78.883c50.869-50.868,78.885-118.501,78.886-190.438c0.001-71.936-28.013-139.566-78.882-190.433
		c-50.867-50.866-118.5-78.879-190.438-78.877c-71.938,0-139.57,28.013-190.438,78.879
		c-50.868,50.866-78.882,118.497-78.882,190.432c-0.003,71.938,28.01,139.57,78.879,190.438
		C192.063,572.931,259.696,600.943,331.635,600.942z"/>
	<path fill="#FFD4D5" d="M331.644,598.999v-1.5l-0.004,1.5c-71.424,0.002-138.569-27.809-189.071-78.31
		c-50.503-50.501-78.314-117.646-78.311-189.064c0-71.417,27.813-138.56,78.314-189.059c50.501-50.5,117.646-78.311,189.065-78.311
		c71.418-0.001,138.562,27.809,189.063,78.308c50.501,50.5,78.312,117.642,78.312,189.059
		c-0.001,71.418-27.813,138.562-78.314,189.063S403.056,598.999,331.644,598.999z M331.637,67.256
		c-70.618,0-137.009,27.499-186.943,77.432C94.759,194.62,67.259,261.009,67.258,331.625
		c-0.003,70.617,27.496,137.009,77.432,186.943c49.936,49.934,116.327,77.433,186.945,77.431h0.009
		c70.61,0,136.997-27.5,186.932-77.434c49.935-49.937,77.436-116.326,77.437-186.943c0.001-70.616-27.497-137.004-77.434-186.938
		C468.645,94.753,402.254,67.254,331.637,67.256z"/>
	<path fill="#FFD4D5" d="M331.644,594.057v-1.5l-0.004,1.5c-70.104,0.002-136.008-27.295-185.576-76.861
		c-49.569-49.567-76.866-115.472-76.862-185.569c0-70.092,27.3-135.992,76.87-185.56c49.216-49.214,114.53-76.475,184.062-76.862
		V69.2l3.001,0.004c69.54,0.386,134.855,27.645,184.069,76.856c49.566,49.565,76.865,115.467,76.864,185.563
		c-0.001,70.098-27.302,136-76.868,185.569C467.635,566.759,401.735,594.057,331.644,594.057z M331.636,72.199
		c-69.292,0-134.44,26.986-183.443,75.987S72.202,262.334,72.202,331.625c-0.004,69.297,26.981,134.447,75.983,183.448
		c49.001,49.001,114.152,75.984,183.45,75.982h0.009c69.292,0,134.437-26.985,183.437-75.985
		c49.001-49.002,75.988-114.151,75.989-183.448c0.001-69.295-26.984-134.443-75.986-183.442
		C466.083,99.182,400.935,72.198,331.636,72.199L331.636,72.199z"/>
	<path fill="#FFD4D5" d="M331.644,589.113v-1.5l-0.004,1.5c-68.784,0.002-133.446-26.78-182.081-75.414
		c-48.636-48.634-75.418-113.296-75.414-182.075c0-68.776,26.784-133.436,75.418-182.068
		c48.634-48.632,113.296-75.415,182.075-75.415c68.777-0.001,133.439,26.781,182.073,75.412
		c48.635,48.632,75.418,113.292,75.417,182.068c-0.001,68.778-26.786,133.439-75.42,182.075
		C465.074,562.33,400.416,589.113,331.644,589.113z M331.637,77.141c-67.978,0-131.886,26.471-179.953,74.537
		c-48.067,48.065-74.54,111.972-74.54,179.947c-0.004,67.977,26.466,131.886,74.535,179.954
		c48.068,48.065,111.979,74.537,179.955,74.535h0.009c67.969,0,131.875-26.473,179.942-74.538
		c48.067-48.068,74.54-111.978,74.541-179.954c0.001-67.975-26.47-131.881-74.538-179.947
		C463.521,103.609,399.613,77.14,331.637,77.141z"/>
	<path fill="#FFD4D5" d="M331.643,584.171v-1.5l-0.004,1.5c-67.463,0.002-130.885-26.267-178.586-73.966
		c-47.702-47.701-73.97-111.122-73.966-178.58c0-67.452,26.271-130.869,73.974-178.57c47.347-47.346,110.183-73.578,177.073-73.966
		v-0.004l3.002,0.004c66.896,0.387,129.732,26.617,177.078,73.96c47.701,47.699,73.972,111.117,73.97,178.573
		c0,67.458-26.271,130.878-73.973,178.58C462.512,557.901,399.095,584.171,331.643,584.171z M331.636,82.084
		c-66.652,0-129.317,25.958-176.453,73.092c-47.136,47.134-73.095,109.798-73.095,176.449
		c-0.004,66.657,25.952,129.324,73.087,176.458c47.135,47.134,109.803,73.09,176.46,73.088h0.009
		c66.65,0,129.314-25.957,176.447-73.091c47.134-47.135,73.093-109.802,73.095-176.458c0-66.654-25.957-129.319-73.092-176.452
		C460.959,108.039,398.292,82.083,331.636,82.084L331.636,82.084z"/>
	<path fill="#FFD4D5" d="M331.645,579.229v-1.5l-0.005,1.5c-66.144,0.002-128.324-25.753-175.092-72.519
		c-46.769-46.768-72.522-108.946-72.518-175.084c0-66.136,25.755-128.313,72.521-175.079c46.767-46.765,108.946-72.52,175.085-72.52
		c66.137-0.001,128.315,25.752,175.082,72.517c46.769,46.765,72.522,108.942,72.521,175.078
		c-0.002,66.139-25.759,128.317-72.523,175.085C459.952,553.472,397.776,579.229,331.645,579.229z M331.637,87.026
		c-65.337,0-126.764,25.443-172.963,71.642c-46.2,46.199-71.643,107.623-71.643,172.958
		c-0.005,65.336,25.437,126.762,71.639,172.963c46.201,46.199,107.627,71.642,172.964,71.639h0.011
		c65.331,0,126.751-25.442,172.951-71.643c46.198-46.201,71.644-107.627,71.646-172.964c0.001-65.334-25.441-126.758-71.644-172.956
		C458.398,112.467,396.972,87.025,331.637,87.026z"/>
	<path fill="#FFD4D5" d="M331.645,574.285v-1.5l-0.005,1.5c-64.824,0.002-125.763-25.237-171.597-71.07
		c-45.835-45.833-71.075-106.771-71.07-171.589c0-64.812,25.243-125.748,71.078-171.581
		c45.479-45.479,105.833-70.683,170.084-71.071V88.97l3.001,0.004c64.256,0.387,124.609,25.589,170.088,71.064
		c45.834,45.832,71.075,106.768,71.074,171.583c-0.002,64.818-25.244,125.757-71.076,171.59S396.457,574.285,331.645,574.285z
		 M331.635,91.97c-64.012,0-124.195,24.93-169.463,70.197S91.973,267.616,91.973,331.626
		c-0.005,64.017,24.923,124.201,70.191,169.468s105.453,70.193,169.47,70.191h0.011c64.011,0,124.19-24.93,169.457-70.195
		c45.266-45.266,70.194-105.452,70.196-169.469c0.001-64.014-24.929-124.196-70.194-169.461
		c-45.267-45.265-105.452-70.192-169.467-70.19H331.635L331.635,91.97z"/>
	<path fill="#FFD4D5" d="M331.641,569.342c-63.505,0.003-123.203-24.723-168.103-69.621
		c-44.901-44.899-69.627-104.598-69.622-168.095c0-63.496,24.727-123.19,69.626-168.089
		c44.899-44.898,104.597-69.625,168.095-69.625c63.495-0.001,123.191,24.724,168.092,69.622
		c44.9,44.898,69.627,104.592,69.627,168.086c-0.002,63.498-24.729,123.196-69.629,168.096
		c-44.898,44.9-104.591,69.626-168.082,69.626v-1.5L331.641,569.342z M331.637,96.912c-62.697,0-121.641,24.415-165.974,68.746
		C121.33,209.99,96.915,268.931,96.916,331.625c-0.005,62.697,24.408,121.64,68.743,165.973
		c44.333,44.333,103.278,68.746,165.975,68.743h0.011c62.69,0,121.629-24.415,165.96-68.747
		c44.332-44.333,68.748-103.276,68.75-165.975c0-62.693-24.414-121.634-68.748-165.965
		C453.274,121.324,394.332,96.911,331.637,96.912z"/>
	<path fill="#FFD4D5" d="M331.641,564.399C269.456,564.402,211,540.19,167.033,496.226c-43.968-43.967-68.179-102.423-68.174-164.6
		c0-62.171,24.213-120.625,68.181-164.591c43.614-43.612,101.482-67.789,163.094-68.175v-0.005l3.001,0.005
		c61.617,0.385,119.485,24.559,163.099,68.168c43.967,43.965,68.18,102.418,68.178,164.592
		c-0.002,62.178-24.216,120.635-68.181,164.601c-43.965,43.967-102.415,68.18-164.586,68.18v-1.5L331.641,564.399z M331.636,101.855
		c-61.372,0-119.073,23.901-162.474,67.301c-43.401,43.4-67.303,101.1-67.303,162.47c-0.005,61.376,23.894,119.078,67.295,162.478
		C212.551,537.5,270.251,561.4,331.623,561.4c0.003,0,0.007,0,0.011,0h0.011c61.37,0,119.068-23.9,162.465-67.301
		c43.397-43.398,67.3-101.103,67.302-162.479c0.002-61.373-23.898-119.072-67.299-162.47
		C450.713,125.752,393.011,101.854,331.636,101.855L331.636,101.855z"/>
	<path fill="#FFD4D5" d="M331.628,559.456c-60.861,0-118.07-23.696-161.101-66.726c-43.034-43.032-66.731-100.247-66.726-161.104
		c0-60.851,23.699-118.063,66.734-161.096c42.68-42.678,99.308-66.34,159.599-66.727v-0.005l3.001,0.005
		c60.296,0.386,116.924,24.045,159.604,66.721c43.033,43.031,66.73,100.242,66.729,161.096
		c-0.002,60.857-23.7,118.074-66.731,161.105c-43.029,43.032-100.239,66.73-161.091,66.73v-1.5l-0.005,1.5
		C331.638,559.456,331.632,559.456,331.628,559.456z M331.636,106.798c-60.052,0-116.511,23.387-158.979,65.854
		c-42.468,42.467-65.855,98.925-65.855,158.975c-0.006,60.056,23.379,116.518,65.847,158.983
		c42.461,42.46,98.924,65.847,158.972,65.847c0.007,0,0.005,0,0.013,0h0.013c60.049,0,116.507-23.387,158.97-65.852
		c42.464-42.467,65.852-98.929,65.854-158.985c0.001-60.052-23.386-116.51-65.852-158.974
		C448.151,130.181,391.69,106.796,331.636,106.798L331.636,106.798z"/>
	<path fill="#FFD4D5" d="M331.63,554.514c-59.541,0-115.51-23.183-157.607-65.277c-42.101-42.101-65.283-98.073-65.277-157.609
		c-0.001-59.531,23.185-115.501,65.285-157.601c41.746-41.745,97.133-64.893,156.104-65.28v-0.005l3.001,0.005
		c58.977,0.386,114.362,23.531,156.107,65.273c42.1,42.098,65.284,98.068,65.283,157.601
		c-0.003,59.538-23.188,115.513-65.285,157.61c-42.097,42.1-98.064,65.283-157.596,65.283v-1.5l-0.005,1.5
		C331.638,554.514,331.634,554.514,331.63,554.514z M331.636,111.74c-58.73,0-113.95,22.873-155.484,64.406
		c-41.534,41.533-64.408,96.75-64.407,155.479c-0.006,58.735,22.865,113.955,64.399,155.488
		c41.528,41.525,96.75,64.398,155.478,64.398c0.007,0,0.003,0,0.011,0h0.013c58.729,0,113.945-22.873,155.475-64.403
		c41.53-41.532,64.402-96.753,64.406-155.49c0.001-58.732-22.871-113.949-64.404-155.479
		C445.589,134.61,390.371,111.739,331.636,111.74L331.636,111.74L331.636,111.74z"/>
	<path fill="#FFD4D5" d="M331.629,549.57c-58.221,0.001-112.947-22.668-154.111-63.83c-41.167-41.166-63.836-95.898-63.83-154.114
		c-0.001-58.211,22.67-112.94,63.837-154.106c40.813-40.812,94.958-63.445,152.609-63.832v-0.005l3.001,0.005
		c57.655,0.385,111.801,23.017,152.612,63.826c41.166,41.164,63.836,95.893,63.835,154.105
		c-0.003,58.218-22.674,112.951-63.837,154.116c-41.162,41.163-95.891,63.835-154.101,63.835v-1.5l-0.004,1.5
		C331.638,549.57,331.632,549.57,331.629,549.57z M331.636,116.683c-57.412,0-111.389,22.359-151.989,62.958
		c-40.601,40.599-62.96,94.575-62.959,151.985c-0.006,57.415,22.351,111.394,62.951,151.993
		c40.595,40.593,94.574,62.951,151.981,62.951c0.007,0,0.006,0,0.013,0h0.013c57.41,0,111.383-22.358,151.979-62.956
		c40.596-40.6,62.955-94.578,62.958-151.995c0.001-57.412-22.356-111.387-62.957-151.984
		C443.028,139.038,389.05,116.682,331.636,116.683L331.636,116.683L331.636,116.683z"/>
	<path fill="#FFD4D5" d="M331.628,544.628c-56.9,0.001-110.385-22.153-150.615-62.382c-40.234-40.232-62.388-93.724-62.382-150.62
		c-0.001-56.891,22.155-110.379,62.389-150.611c40.233-40.232,93.723-62.389,150.616-62.389l0,0l0,0
		c56.896-0.002,110.384,22.152,150.617,62.382c40.233,40.23,62.389,93.718,62.388,150.61
		c-0.002,56.897-22.158,110.391-62.389,150.622c-40.229,40.23-93.715,62.388-150.605,62.388v-1.5l-0.004,1.5
		C331.638,544.628,331.632,544.628,331.628,544.628z M331.636,121.626c-56.092,0-108.828,21.845-148.495,61.51
		c-39.667,39.666-61.511,92.4-61.51,148.49c-0.006,56.095,21.836,108.833,61.503,148.498c39.661,39.66,92.399,61.504,148.486,61.504
		c0.007,0,0.006,0,0.013,0h0.013c115.786,0,209.989-94.21,209.994-210.01c0.001-56.091-21.843-108.825-61.509-148.489
		c-39.666-39.663-92.401-61.505-148.494-61.503H331.636L331.636,121.626z"/>
	<path fill="#FFD4D5" d="M331.619,539.685c-55.573,0.001-107.814-21.639-147.111-60.934c-39.3-39.299-60.94-91.549-60.934-147.125
		c-0.001-55.574,21.64-107.822,60.938-147.119c39.298-39.297,91.548-60.939,147.125-60.939
		c55.573-0.001,107.821,21.639,147.12,60.935c39.3,39.296,60.941,91.543,60.94,147.115
		c-0.006,114.729-93.337,208.065-208.05,208.065v-1.5l-0.015,1.5C331.63,539.685,331.622,539.685,331.619,539.685z M331.638,126.568
		c-54.776,0-106.273,21.33-145.004,60.06c-38.731,38.73-60.061,90.225-60.059,144.998c-0.006,54.775,21.321,106.271,60.055,145.004
		c38.728,38.727,90.222,60.055,144.99,60.055c0.007,0,0.008,0,0.015,0h0.015c113.059,0,205.044-91.991,205.05-205.065
		c0.001-54.771-21.329-106.264-60.062-144.994C437.904,147.896,386.41,126.567,331.638,126.568z"/>
	<path fill="#FFD4D5" d="M331.617,534.741c-54.252,0.002-105.251-21.124-143.614-59.485
		c-38.367-38.365-59.492-89.374-59.485-143.629c-0.001-54.25,21.127-105.256,59.493-143.621
		c38.366-38.365,89.374-59.494,143.626-59.494l0,0l0,0c54.254-0.002,105.261,21.124,143.625,59.486
		c38.365,38.363,59.493,89.368,59.492,143.619c-0.006,112.003-91.118,203.124-203.105,203.124h-0.016
		C331.63,534.741,331.62,534.741,331.617,534.741z M331.636,131.512c-53.451,0-103.705,20.816-141.504,58.615
		c-37.799,37.799-58.616,88.051-58.614,141.5c-0.007,53.455,20.807,103.709,58.607,141.508
		c37.794,37.792,88.045,58.606,141.493,58.606c0.006,0,0.009,0,0.016,0h0.016c110.333,0,200.099-89.775,200.105-200.124
		c0.001-53.45-20.813-103.701-58.613-141.498c-37.799-37.796-88.052-58.61-141.503-58.608L331.636,131.512L331.636,131.512z"/>
	<path fill="#FFD4D5" d="M331.617,529.799c-52.932,0.002-102.689-20.608-140.119-58.037
		c-37.434-37.432-58.045-87.198-58.038-140.135c-0.001-52.93,20.612-102.695,58.044-140.127
		c37.433-37.432,87.198-58.046,140.131-58.046l0,0l0,0c52.935-0.001,102.701,20.61,140.131,58.039
		c37.434,37.43,58.047,87.193,58.045,140.124c-0.007,109.276-88.901,198.182-198.163,198.182h-0.016
		C331.63,529.799,331.62,529.799,331.617,529.799z M331.636,136.454c-52.131,0-101.144,20.302-138.009,57.167
		c-36.866,36.865-57.167,85.876-57.166,138.005c-0.007,52.134,20.292,101.148,57.159,138.013
		c36.861,36.859,85.871,57.159,137.998,57.159c0.006,0,0.01,0,0.016,0h0.016c107.606,0,195.156-87.559,195.163-195.182
		c0.002-52.129-20.301-101.14-57.166-138.002c-36.863-36.862-85.876-57.162-138.007-57.161L331.636,136.454L331.636,136.454z"/>
	<path fill="#FFD4D5" d="M331.616,524.856c-51.612,0-100.127-20.097-136.624-56.591c-36.5-36.498-56.597-85.023-56.59-136.64
		c-0.001-51.61,20.098-100.134,56.596-136.632c36.499-36.498,85.023-56.598,136.635-56.598
		c51.615-0.002,100.141,20.096,136.639,56.591c36.498,36.495,56.598,85.018,56.597,136.628
		c-0.006,106.553-86.686,193.24-193.221,193.24l-0.015-1.5v1.5C331.63,524.856,331.62,524.856,331.616,524.856z M331.633,521.856
		v1.5l0.012-1.5c104.885,0,190.218-85.342,190.224-190.24c0.001-50.809-19.786-98.578-55.718-134.507
		c-35.933-35.929-83.703-55.714-134.514-55.712h-0.003c-50.811,0-98.582,19.788-134.513,55.719
		c-35.932,35.932-55.719,83.702-55.718,134.511c-0.007,50.814,19.778,98.587,55.711,134.52
		c35.927,35.926,83.695,55.711,134.503,55.711C331.623,521.856,331.626,521.856,331.633,521.856z"/>
	<path fill="#FFD4D5" d="M331.616,519.913c-50.292,0.002-97.566-19.581-133.128-55.144c-35.566-35.563-55.149-82.849-55.141-133.144
		c-0.002-50.29,19.583-97.572,55.148-133.137c35.565-35.565,82.848-55.15,133.14-55.15c50.296-0.001,97.578,19.582,133.144,55.144
		c35.564,35.562,55.149,82.843,55.148,133.133c-0.007,103.827-84.467,188.297-188.276,188.297h-0.018
		C331.629,519.913,331.619,519.913,331.616,519.913z M331.634,146.339c-49.491,0-96.021,19.274-131.019,54.272
		c-34.998,34.998-54.271,81.526-54.271,131.016c-0.007,49.493,19.263,96.024,54.262,131.022
		c34.994,34.991,81.521,54.264,131.008,54.264c0.006,0,0.01,0,0.016,0h0.018c102.155,0,185.269-83.124,185.276-185.297
		c0.001-49.489-19.271-96.016-54.271-131.012C427.656,165.609,381.126,146.337,331.634,146.339L331.634,146.339L331.634,146.339z"/>
	<path fill="#FFD4D5" d="M331.614,514.97c-48.968,0-95.005-19.067-129.632-53.692c-34.633-34.632-53.701-80.676-53.693-129.65
		c-0.002-48.97,19.069-95.011,53.701-129.642c34.631-34.63,80.674-53.703,129.646-53.703l0.002,1.378v-1.378
		c48.97-0.001,95.013,19.068,129.644,53.696s53.702,80.668,53.7,129.638c-0.007,101.102-82.248,183.354-183.332,183.354h-0.018
		C331.626,514.97,331.62,514.97,331.614,514.97z M331.638,151.282c-48.173,0-93.462,18.76-127.527,52.824
		c-34.064,34.064-52.824,79.352-52.822,127.521c-0.008,48.174,18.749,93.464,52.814,127.527
		c34.058,34.057,79.347,52.814,127.511,52.814c0.009,0,0.009,0,0.018,0h0.018c99.429,0,180.325-80.905,180.333-180.354
		c0.001-48.168-18.759-93.455-52.822-127.516C425.096,170.038,379.808,151.281,331.638,151.282z"/>
	<path fill="#FFD4D5" d="M331.651,510.027l-0.038-1.5l0.02-1.5c96.721,0,175.4-78.689,175.408-175.412
		c0.001-46.848-18.244-90.893-51.375-124.021c-33.131-33.128-77.178-51.371-124.027-51.37c-46.853,0-90.901,18.246-124.032,51.377
		c-33.131,33.13-51.376,77.177-51.374,124.026c-0.008,46.85,18.232,90.897,51.36,124.027
		c33.126,33.129,77.171,51.374,124.021,51.373v3c-47.651,0.001-92.449-18.557-126.143-52.252
		c-33.694-33.696-52.247-78.497-52.238-126.148c-0.002-47.649,18.555-92.45,52.253-126.147
		c33.698-33.697,78.499-52.255,126.151-52.255l0.002,1.421v-1.421c47.65-0.001,92.451,18.554,126.148,52.249
		c33.698,33.695,52.255,78.493,52.254,126.142C510.033,429.992,430.007,510.027,331.651,510.027z"/>
	<path fill="#FFD4D5" d="M331.652,505.084v-1.5l-0.005,1.5c-46.366,0.001-89.923-18.042-122.682-50.804
		c-32.761-32.764-50.799-76.322-50.791-122.654c-0.002-46.329,18.041-89.888,50.804-122.651
		c32.764-32.763,76.324-50.807,122.656-50.807c46.333-0.002,89.893,18.039,122.656,50.8c32.765,32.762,50.808,76.319,50.806,122.647
		C505.089,427.267,427.282,505.084,331.652,505.084z M331.635,161.168c-45.531,0-88.338,17.732-120.535,49.929
		c-32.197,32.197-49.927,75.002-49.925,120.53c-0.008,45.53,17.717,88.336,49.912,120.532
		c32.193,32.194,74.997,49.926,120.526,49.925h0.04c93.976,0,170.437-76.472,170.445-170.469
		c0.002-45.527-17.729-88.331-49.927-120.526c-32.197-32.194-75.003-49.923-120.532-49.921H331.635L331.635,161.168z"/>
	<path fill="#FFD4D5" d="M331.65,500.142l-0.038-1.5l0.02-1.5c91.271,0,165.515-74.255,165.521-165.526
		c0.002-44.207-17.216-85.769-48.479-117.03c-31.263-31.261-72.827-48.476-117.036-48.474c-44.213,0-85.779,17.218-117.042,48.481
		c-31.264,31.264-48.479,72.828-48.478,117.036c-0.008,44.21,17.203,85.775,48.464,117.038
		c31.259,31.262,72.822,48.478,117.031,48.477v3c-45.011,0.001-87.326-17.526-119.152-49.354
		c-31.827-31.829-49.351-74.147-49.342-119.159c-0.002-45.009,17.526-87.327,49.356-119.157c31.831-31.83,74.15-49.36,119.162-49.36
		c45.013-0.002,87.329,17.525,119.16,49.353c31.83,31.828,49.359,74.144,49.357,119.152
		C500.146,424.541,424.555,500.142,331.65,500.142z"/>
	<path fill="#FFD4D5" d="M331.652,495.198l-0.042-1.5l0.021-1.5c88.544,0,160.57-72.038,160.579-160.584
		c0.001-42.886-16.701-83.207-47.032-113.535c-30.329-30.327-70.653-47.028-113.542-47.026c-42.894,0-83.218,16.704-113.548,47.034
		s-47.032,70.653-47.029,113.541c-0.009,42.89,16.688,83.213,47.015,113.542c30.325,30.328,70.646,47.029,113.536,47.028v3
		c-43.691,0.001-84.765-17.014-115.657-47.907c-30.893-30.896-47.902-71.972-47.893-115.664
		c-0.002-43.689,17.011-84.765,47.908-115.662c30.896-30.896,71.974-47.912,115.666-47.912
		c43.692-0.002,84.77,17.011,115.666,47.905c30.897,30.894,47.912,71.968,47.911,115.656
		C495.203,421.814,421.831,495.198,331.652,495.198z"/>
	<path fill="#FFD4D5" d="M331.652,490.256v-1.5l-0.003,1.5c-42.407,0.001-82.24-16.499-112.199-46.459
		c-29.96-29.963-46.455-69.798-46.446-112.169c-0.002-42.369,16.498-82.204,46.46-112.167s69.799-46.464,112.171-46.464
		c42.373-0.002,82.208,16.497,112.17,46.457c29.964,29.96,46.465,69.793,46.463,112.161
		C490.26,419.089,419.104,490.256,331.652,490.256z M331.635,175.996c-41.571,0-80.654,16.189-110.05,45.585
		s-45.583,68.478-45.581,110.046c-0.009,41.569,16.174,80.651,45.568,110.047c29.392,29.396,68.472,45.582,110.041,45.581h0.04
		c85.799,0,155.608-69.82,155.617-155.642c0.002-41.566-16.188-80.646-45.585-110.04c-29.395-29.392-68.473-45.578-110.038-45.578
		h-0.014L331.635,175.996L331.635,175.996z"/>
	<path fill="#FFD4D5" d="M331.654,485.312h-0.021c-41.072,0.002-79.664-15.983-108.688-45.012
		c-29.026-29.028-45.006-67.623-44.997-108.674c-0.003-41.049,15.982-79.643,45.011-108.672
		c29.029-29.029,67.624-45.017,108.676-45.017c0.002,0,0.006,0,0.008,0c41.049,0,79.641,15.984,108.667,45.009
		c29.03,29.027,45.018,67.619,45.017,108.666C485.317,416.363,416.38,485.312,331.654,485.312z M331.634,180.939
		c-40.251,0-78.093,15.675-106.555,44.138s-44.135,66.303-44.132,106.551c-0.009,40.25,15.659,78.091,44.118,106.553
		c28.458,28.46,66.297,44.135,106.546,44.132h0.043c83.072,0,150.664-67.604,150.672-150.698
		c0.001-40.246-15.674-78.083-44.137-106.544c-28.46-28.457-66.3-44.128-106.542-44.13L331.634,180.939L331.634,180.939z"/>
	<path fill="#FFD4D5" d="M331.653,480.37h-0.022c-39.751,0.002-77.102-15.469-105.193-43.562
		c-28.092-28.096-43.558-65.448-43.548-105.18c-0.003-39.729,15.467-77.082,43.562-105.177
		c28.095-28.095,65.449-43.568,105.181-43.568c0.002,0,0.007,0,0.009,0c39.729,0,77.077,15.47,105.172,43.561
		c28.097,28.093,43.568,65.444,43.566,105.17C480.374,413.638,413.653,480.37,331.653,480.37z M331.634,185.882
		c-38.931,0-75.532,15.161-103.06,42.69c-27.528,27.529-42.688,64.128-42.684,103.056c-0.009,38.93,15.145,75.53,42.67,103.058
		c27.524,27.527,64.121,42.688,103.049,42.686h0.044c80.346,0,145.72-65.387,145.729-145.757
		c0.002-38.925-15.158-75.522-42.688-103.049c-27.526-27.523-64.124-42.681-103.046-42.682L331.634,185.882L331.634,185.882z"/>
	<path fill="#FFD4D5" d="M331.599,475.427c-38.407,0-74.511-14.956-101.667-42.114c-27.158-27.161-42.11-63.273-42.1-101.685
		c-0.003-38.409,14.954-74.52,42.116-101.682c27.162-27.162,63.274-42.121,101.687-42.121c0.002,0,0.006,0,0.008,0
		c38.408,0,74.516,14.956,101.677,42.113c27.163,27.16,42.121,63.269,42.12,101.675c-0.011,79.3-64.513,143.813-143.788,143.813
		l-0.045-1.5v1.5C331.606,475.427,331.602,475.427,331.599,475.427z M331.635,190.824c-37.611,0-72.97,14.647-99.565,41.242
		c-26.595,26.596-41.24,61.954-41.237,99.562c-0.009,37.609,14.63,72.969,41.221,99.563c26.587,26.59,61.942,41.234,99.545,41.234
		c0.005,0,0.004,0,0.009,0h0.003c77.664,0,140.819-63.169,140.83-140.813c0.001-37.604-14.646-72.96-41.241-99.553
		c-26.593-26.589-61.95-41.233-99.552-41.235H331.635z"/>
	<path fill="#FFD4D5" d="M331.595,470.483c-37.087,0-71.947-14.44-98.168-40.666c-26.224-26.229-40.661-61.1-40.651-98.19
		c-0.003-37.088,14.439-71.959,40.668-98.188c26.228-26.229,61.1-40.673,98.192-40.673c0.002,0,0.005,0,0.008,0
		c37.087,0,71.955,14.442,98.181,40.666c26.229,26.227,40.674,61.094,40.673,98.18c-0.01,76.573-62.294,138.871-138.841,138.871
		l-0.049-1.5v1.5C331.604,470.483,331.597,470.483,331.595,470.483z M331.646,195.767c-0.004,0-0.003,0-0.007,0
		c-36.293,0-70.412,14.133-96.074,39.795s-39.792,59.779-39.789,96.066c-0.01,36.29,14.115,70.408,39.772,96.068
		c25.653,25.656,59.764,39.787,96.047,39.787c0.005,0,0.007,0,0.012,0h0.004c74.938,0,135.876-60.951,135.886-135.871
		c0.001-36.284-14.131-70.398-39.794-96.059C402.043,209.898,367.926,195.767,331.646,195.767z"/>
	<path fill="#FFD4D5" d="M331.594,465.541c-35.767,0-69.385-13.927-94.673-39.218c-25.291-25.295-39.213-58.925-39.203-94.695
		c-0.003-35.768,13.925-69.397,39.22-94.692c25.294-25.295,58.925-39.226,94.697-39.226c0.002,0,0.006,0,0.008,0
		c35.768,0,69.392,13.927,94.686,39.218c25.296,25.293,39.226,58.919,39.224,94.686c-0.009,73.849-60.075,133.929-133.898,133.929
		l-0.049-1.5v1.5C331.604,465.541,331.596,465.541,331.594,465.541z M331.646,200.709c-0.004,0-0.004,0-0.008,0
		c-34.973,0-67.851,13.619-92.579,38.347c-24.728,24.729-38.344,57.604-38.341,92.572c-0.01,34.969,13.601,67.846,38.325,92.574
		c24.72,24.723,57.588,38.339,92.551,38.339c0.004,0,0.007,0,0.012,0h0.006c72.212,0,130.933-58.734,130.941-130.929
		c0.002-34.964-13.615-67.837-38.345-92.563C399.483,214.326,366.608,200.709,331.646,200.709z"/>
	<path fill="#FFD4D5" d="M331.594,460.599c-34.444,0-66.825-13.413-91.178-37.771c-24.357-24.36-37.765-56.749-37.754-91.2
		c-0.003-34.448,13.411-66.836,37.771-91.198c24.361-24.362,56.75-37.778,91.202-37.778c0.002,0,0.006,0,0.008,0
		c34.448,0,66.833,13.413,91.192,37.77c24.362,24.359,37.778,56.744,37.776,91.189c-0.011,71.124-57.86,128.986-128.958,128.986
		l-0.047-1.5v1.5C331.602,460.599,331.598,460.599,331.594,460.599z M331.646,205.652c-0.004,0-0.004,0-0.008,0
		c-33.654,0-65.29,13.104-89.084,36.899c-23.794,23.795-36.896,55.43-36.893,89.077c-0.01,33.649,13.086,65.284,36.876,89.078
		c23.785,23.789,55.416,36.892,89.056,36.892c0.006,0,0.006,0,0.013,0h0.006c69.485,0,125.989-56.518,126-125.986
		c0.002-33.644-13.103-65.275-36.897-89.067C396.92,218.755,365.288,205.652,331.646,205.652z"/>
	<path fill="#FFD4D5" d="M331.655,455.655l-0.049-1.5l0.025-1.5c66.741,0,121.027-54.3,121.037-121.044
		c0.002-32.323-12.588-62.713-35.45-85.572c-22.857-22.855-53.25-35.444-85.571-35.444c-0.004,0-0.004,0-0.008,0
		c-32.335,0-62.729,12.59-85.59,35.452c-22.86,22.861-35.447,53.254-35.444,85.582c-0.011,32.326,12.572,62.719,35.43,85.579
		c22.856,22.858,53.246,35.447,85.572,35.447v3c-33.127,0-64.271-12.9-87.693-36.326c-23.425-23.427-36.319-54.573-36.309-87.701
		c-0.003-33.128,12.896-64.275,36.323-87.703c23.427-23.428,54.575-36.33,87.707-36.33c0.002,0,0.006,0,0.008,0
		c33.127,0,64.27,12.899,87.696,36.322c23.429,23.426,36.331,54.569,36.329,87.694C455.658,400.01,400.026,455.655,331.655,455.655z
		"/>
	<path fill="#FFD4D5" d="M331.657,450.712l-0.052-1.5l0.026-1.5c64.015,0,116.083-52.083,116.094-116.102
		c0.002-31.002-12.073-60.151-34.003-82.076c-21.925-21.922-51.074-33.996-82.075-33.996c-0.004,0-0.005,0-0.009,0
		c-31.015,0-60.168,12.076-82.095,34.004c-21.926,21.927-34,51.08-33.996,82.087c-0.011,31.007,12.057,60.158,33.981,82.085
		c21.922,21.925,51.07,33.999,82.076,33.998v3c-31.807,0.001-61.709-12.386-84.198-34.877
		c-22.49-22.494-34.871-52.397-34.859-84.207c-0.004-31.808,12.381-61.714,34.875-84.208c22.494-22.494,52.4-34.882,84.212-34.882
		c0.002,0,0.007,0,0.009,0c31.808,0,61.708,12.384,84.201,34.875c22.495,22.492,34.883,52.394,34.881,84.198
		C450.714,397.283,397.3,450.712,331.657,450.712z"/>
	<path fill="#FFD4D5" d="M331.657,445.77l-0.053-1.5l0.027-1.5c61.29,0,111.141-49.865,111.151-111.159
		c0.002-29.683-11.56-57.589-32.555-78.582c-20.992-20.989-48.899-32.548-78.581-32.548c-0.004,0-0.005,0-0.009,0
		c-29.694,0-57.606,11.562-78.6,32.556c-20.993,20.994-32.552,48.905-32.548,78.592c-0.011,29.688,11.543,57.597,32.533,78.59
		c20.988,20.992,48.896,32.553,78.581,32.551v3c-30.487,0.002-59.147-11.87-80.703-33.43c-21.557-21.56-33.423-50.224-33.412-80.711
		c-0.004-30.488,11.867-59.152,33.427-80.713s50.226-33.435,80.717-33.435c0.001,0,0.007,0,0.009,0
		c30.487,0,59.145,11.87,80.705,33.427c21.562,21.559,33.437,50.22,33.435,80.703C445.771,394.558,394.575,445.77,331.657,445.77z"
		/>
	<path fill="#FFD4D5" d="M331.599,440.827c-29.165,0-56.582-11.357-77.202-31.981c-20.623-20.627-31.975-48.05-31.963-77.217
		c-0.004-29.167,11.353-56.591,31.978-77.218c20.626-20.627,48.051-31.987,77.222-31.987c0.002,0,0.008,0,0.01,0
		c29.167,0,56.583,11.355,77.208,31.979c20.63,20.625,31.988,48.045,31.986,77.208c-0.012,60.223-48.99,109.217-109.183,109.217
		l-0.052-1.5l0.026-1.5c58.562,0,106.197-47.648,106.209-106.217c0.002-28.361-11.046-55.027-31.107-75.086
		c-20.059-20.055-46.724-31.1-75.083-31.1c-0.003,0-0.006,0-0.01,0c-28.375,0-55.047,11.048-75.106,31.108
		c-20.059,20.06-31.104,46.729-31.1,75.097c-0.011,28.366,11.029,55.036,31.085,75.096c20.052,20.057,46.719,31.104,75.081,31.104
		c0.003,0,0.001,0,0.005,0v3C331.602,440.827,331.6,440.827,331.599,440.827z"/>
	<path fill="#FFD4D5" d="M331.594,435.884c-27.844,0-54.017-10.843-73.704-30.532c-19.688-19.692-30.525-45.875-30.514-73.723
		c-0.004-27.847,10.838-54.03,30.53-73.723c19.692-19.694,45.875-30.54,73.727-30.54c0.001,0,0.007,0,0.009,0
		c27.848,0,54.022,10.842,73.714,30.531c19.694,19.691,30.54,45.869,30.538,73.712c-0.012,57.497-46.772,104.273-104.24,104.273
		l-0.054-1.5l0.028-1.5c55.838,0,101.254-45.432,101.266-101.274c0.002-27.041-10.53-52.465-29.659-71.59
		c-19.125-19.122-44.549-29.652-71.588-29.652c-0.003,0-0.006,0-0.009,0c-27.056,0-52.485,10.534-71.611,29.661
		c-19.125,19.126-29.656,44.555-29.651,71.602c-0.011,27.047,10.514,52.477,29.635,71.603
		c19.119,19.121,44.541,29.652,71.582,29.652c0.003,0,0.005,0,0.008,0v3C331.601,435.884,331.596,435.884,331.594,435.884z"/>
	<path fill="#FFD4D5" d="M331.657,430.94l-0.058-1.5l0.03-1.5c53.114,0,96.312-43.215,96.324-96.332
		c0.002-25.722-10.019-49.904-28.212-68.095c-18.191-18.188-42.374-28.205-68.094-28.205c-0.003,0-0.006,0-0.009,0
		c-25.734,0-49.923,10.02-68.116,28.213c-18.192,18.193-28.208,42.381-28.204,68.107c-0.012,25.725,9.999,49.911,28.188,68.104
		c18.187,18.189,42.37,28.208,68.092,28.208v3c-26.524,0-51.46-10.33-70.214-29.088c-18.756-18.76-29.079-43.698-29.066-70.225
		c-0.004-26.527,10.324-51.468,29.083-70.229c18.758-18.76,43.701-29.092,70.232-29.092c0.001,0,0.007,0,0.009,0
		c26.527,0,51.46,10.328,70.218,29.083c18.763,18.758,29.094,43.695,29.092,70.217C430.942,386.381,386.397,430.94,331.657,430.94z"
		/>
	<path fill="#FFD4D5" d="M331.658,425.998l-0.058-1.5l0.03-1.5c50.389,0,91.369-40.997,91.38-91.39
		c0.002-24.4-9.503-47.342-26.764-64.601c-17.261-17.257-40.198-26.807-64.607-26.757c-24.415,0-47.363,9.505-64.621,26.766
		c-17.258,17.259-26.76,40.206-26.756,64.612c-0.012,24.405,9.485,47.35,26.74,64.609c17.253,17.257,40.194,26.761,64.598,26.76v3
		c-25.205,0.001-48.899-9.815-66.719-27.639c-17.822-17.826-27.63-41.524-27.618-66.73c-0.004-25.207,9.81-48.907,27.634-66.734
		c17.825-17.827,41.526-27.644,66.738-27.644c0.001,0,0.007,0,0.009,0c25.207,0,48.897,9.813,66.724,27.636
		c17.826,17.824,27.645,41.521,27.643,66.723C425.999,383.655,383.671,425.998,331.658,425.998z"/>
	<path fill="#FFD4D5" d="M331.658,421.055l-0.058-1.5l0.03-1.5c47.662,0,86.426-38.779,86.438-86.446
		c0.002-23.078-8.987-44.778-25.312-61.102c-16.324-16.323-38.025-25.312-61.106-25.312c-23.105,0-44.812,8.991-61.136,25.317
		c-16.324,16.326-25.312,38.031-25.308,61.117c-0.012,23.085,8.97,44.789,25.292,61.114c16.32,16.323,38.02,25.312,61.103,25.312v3
		c-23.884,0.001-46.338-9.3-63.225-26.189c-16.888-16.894-26.182-39.351-26.17-63.236c-0.004-23.887,9.295-46.345,26.186-63.238
		s39.351-26.196,63.243-26.196c23.896,0,46.35,9.301,63.242,26.191c16.893,16.89,26.194,39.343,26.192,63.224
		C421.055,380.93,380.946,421.055,331.658,421.055z"/>
	<path fill="#FFD4D5" d="M331.594,416.112c-22.562,0-43.771-8.786-59.725-24.742c-15.955-15.959-24.734-37.175-24.722-59.741
		c-0.005-22.566,8.781-43.784,24.738-59.743c15.958-15.959,37.177-24.749,59.749-24.749c22.575,0,43.788,8.787,59.746,24.743
		c15.958,15.957,24.746,37.168,24.744,59.729c-0.012,46.596-37.903,84.504-84.465,84.504l-0.06-1.5l0.03-1.5
		c44.938,0,81.483-36.562,81.495-81.505c0.002-21.759-8.475-42.216-23.865-57.605s-35.852-23.865-57.611-23.865
		c-21.783,0-42.249,8.478-57.64,23.87c-15.391,15.392-23.865,35.856-23.86,57.622c-0.012,21.765,8.456,42.229,23.843,57.62
		c15.384,15.388,35.843,23.863,57.603,23.863c0.002,0,0.003,0,0.005,0v3C331.599,416.112,331.596,416.112,331.594,416.112z"/>
	<path fill="#FFD4D5" d="M331.661,411.169l-0.063-1.5l0.032-1.5c42.212,0,76.539-34.346,76.551-76.562
		c0.002-20.438-7.959-39.654-22.416-54.11c-14.459-14.456-33.678-22.417-54.117-22.417c-20.464,0-39.688,7.963-54.146,22.422
		c-14.457,14.458-22.416,33.682-22.411,54.127c-0.013,20.444,7.941,39.665,22.396,54.123c14.453,14.456,33.669,22.417,54.111,22.417
		v3c-21.243,0-41.214-8.272-56.233-23.296c-15.021-15.025-23.287-35-23.273-56.244c-0.005-21.246,8.266-41.223,23.29-56.248
		c15.024-15.026,35.001-23.301,56.253-23.301c21.256,0,41.227,8.273,56.251,23.295c15.025,15.023,23.298,34.994,23.296,56.232
		C411.168,375.478,375.496,411.169,331.661,411.169z"/>
	<path fill="#FFD4D5" d="M331.591,406.226c-19.922,0-38.648-7.759-52.733-21.848c-14.087-14.091-21.837-32.824-21.824-52.749
		c-0.005-19.926,7.752-38.661,21.842-52.753s32.827-21.853,52.758-21.853c19.936,0,38.666,7.759,52.756,21.848
		c14.092,14.089,21.852,32.818,21.85,52.737c-0.014,41.145-33.471,74.618-74.578,74.618l-0.065-1.5l0.034-1.5
		c39.486,0,71.596-32.128,71.609-71.618c0.002-19.117-7.445-37.092-20.971-50.615c-13.523-13.522-31.5-20.969-50.621-20.969
		c-19.145,0-37.127,7.449-50.651,20.975c-13.523,13.525-20.968,31.507-20.963,50.632c-0.013,19.125,7.426,37.104,20.946,50.628
		c13.517,13.521,31.492,20.968,50.611,20.968c0.002,0,0.002,0,0.004,0v3C331.595,406.226,331.592,406.226,331.591,406.226z"/>
	<path fill="#FFD4D5" d="M331.589,401.283c-18.601,0-36.086-7.244-49.236-20.398c-13.153-13.158-20.39-30.649-20.376-49.255
		c-0.005-18.605,7.237-36.1,20.394-49.259c13.157-13.159,30.652-20.406,49.264-20.406c18.613,0,36.104,7.245,49.259,20.4
		c13.158,13.156,20.403,30.644,20.401,49.242c-0.013,38.419-31.251,69.676-69.635,69.676l-0.065-1.5l0.033-1.5
		c36.762,0,66.654-29.911,66.667-66.678c0.002-17.797-6.931-34.53-19.522-47.12c-12.59-12.589-29.325-19.521-47.125-19.521
		c-17.822,0-34.564,6.935-47.155,19.527c-12.59,12.592-19.521,29.333-19.516,47.138c-0.013,17.805,6.912,34.543,19.498,47.134
		c12.583,12.587,29.316,19.521,47.114,19.521c0.003,0,0.003,0,0.006,0v3C331.593,401.283,331.591,401.283,331.589,401.283z"/>
	<path fill="#FFD4D5" d="M331.59,396.34c-17.281,0-33.525-6.729-45.742-18.952c-12.219-12.224-18.941-28.475-18.928-45.758
		c-0.005-17.286,6.724-33.539,18.946-45.764c12.223-12.225,28.477-18.958,45.768-18.958c17.294,0,33.542,6.73,45.766,18.952
		c12.225,12.222,18.955,28.469,18.953,45.748c-0.014,35.693-29.033,64.732-64.689,64.732l-0.069-1.5l0.035-1.5
		c34.037,0,61.71-27.692,61.724-61.733c0.002-16.477-6.416-31.97-18.074-43.625c-11.656-11.655-27.151-18.073-43.63-18.073
		c-16.504,0-32.004,6.42-43.661,18.079c-11.656,11.658-18.072,27.158-18.067,43.643c-0.013,16.483,6.397,31.98,18.05,43.637
		c11.649,11.654,27.142,18.073,43.62,18.073c0.002,0,0.002,0,0.004,0v3C331.593,396.34,331.591,396.34,331.59,396.34z"/>
	<path fill="#FFD4D5" d="M331.593,391.397c-15.961,0-30.966-6.218-42.25-17.506c-11.287-11.291-17.495-26.301-17.48-42.264
		c-0.005-15.965,6.209-30.977,17.498-42.268c11.289-11.291,26.302-17.51,42.272-17.51c15.976,0,30.981,6.216,42.271,17.504
		c11.291,11.289,17.508,26.294,17.506,42.251c-0.014,32.969-26.816,59.791-59.748,59.791l-0.069-1.5l0.035-1.5
		c31.312,0,56.769-25.477,56.781-56.791c0.002-15.156-5.903-29.408-16.628-40.129c-10.723-10.721-24.977-16.625-40.134-16.625
		c-15.183,0-29.442,5.906-40.165,16.631s-16.625,24.982-16.62,40.148c-0.013,15.163,5.883,29.418,16.602,40.143
		c10.717,10.722,24.969,16.626,40.128,16.626v2.999H331.593z"/>
	<path fill="#FFD4D5" d="M331.662,386.454l-0.071-1.5l0.037-1.5c28.585,0,51.824-23.26,51.839-51.851
		c0.002-13.834-5.389-26.845-15.179-36.632c-9.789-9.788-22.803-15.178-36.64-15.178c-13.864,0-26.882,5.393-36.672,15.184
		c-9.789,9.791-15.177,22.808-15.171,36.652c-0.013,13.842,5.368,26.855,15.154,36.646c9.783,9.787,22.793,15.179,36.632,15.179v3
		c-14.641,0-28.404-5.703-38.754-16.059c-10.352-10.356-16.046-24.125-16.032-38.768c-0.005-14.644,5.694-28.415,16.05-38.772
		c10.356-10.358,24.127-16.063,38.777-16.063c14.656,0,28.421,5.702,38.777,16.056c10.355,10.354,16.06,24.119,16.058,38.756
		C386.453,361.85,361.867,386.454,331.662,386.454z"/>
	<path fill="#FFD4D5" d="M331.663,381.512l-0.069-1.5l0.035-1.5c25.859,0,46.881-21.043,46.896-46.908
		c0.002-12.514-4.875-24.282-13.731-33.137c-8.854-8.854-20.626-13.73-33.144-13.73c-12.544,0-24.321,4.878-33.177,13.736
		c-8.855,8.857-13.729,20.633-13.723,33.158c-0.014,12.518,4.85,24.287,13.696,33.143c8.851,8.859,20.624,13.738,33.148,13.738v3
		c-13.327,0.001-25.853-5.19-35.271-14.619c-9.413-9.423-14.588-21.945-14.574-35.263c-0.006-13.324,5.18-25.853,14.602-35.278
		c9.422-9.425,21.953-14.615,35.282-14.615c13.334,0,25.858,5.188,35.281,14.609c9.424,9.42,14.611,21.943,14.609,35.26
		C381.509,359.124,359.142,381.512,331.663,381.512z"/>
	<path fill="#FFD4D5" d="M331.589,376.568c-12.005,0-23.287-4.678-31.771-13.17c-8.479-8.489-13.141-19.772-13.126-31.771
		c-0.006-12.003,4.665-23.292,13.153-31.782c8.489-8.491,19.778-13.167,31.788-13.167c12.013,0,23.296,4.674,31.786,13.161
		c8.49,8.488,13.165,19.771,13.163,31.766c-0.015,24.793-20.165,44.963-44.918,44.963l-0.072-1.5l0.037-1.5
		c23.136,0,41.94-18.825,41.954-41.965c0.002-11.193-4.359-21.721-12.284-29.643c-7.923-7.92-18.452-12.283-29.649-12.283
		c-11.224,0-21.759,4.364-29.681,12.289c-7.921,7.924-12.281,18.458-12.275,29.662c-0.014,11.199,4.336,21.728,12.249,29.649
		c7.916,7.925,18.446,12.29,29.648,12.29c0.001,0,0.001,0,0.002,0v3C331.591,376.568,331.589,376.568,331.589,376.568z"/>
	<path fill="#FFD4D5" d="M331.588,371.626c-10.685,0-20.726-4.163-28.275-11.723c-7.546-7.557-11.693-17.598-11.679-28.274
		c-0.006-10.683,4.151-20.729,11.706-28.287c7.555-7.558,17.603-11.72,28.292-11.72c10.696,0,20.737,4.16,28.292,11.713
		c7.558,7.554,11.718,17.594,11.714,28.271c-0.016,22.067-17.947,40.021-39.975,40.021l-0.072-1.5l0.037-1.5
		c20.41,0,36.997-16.608,37.01-37.021c0.002-9.874-3.846-19.16-10.835-26.147s-16.276-10.834-26.153-10.834
		c-9.906,0-19.2,3.85-26.188,10.84c-6.988,6.99-10.833,16.283-10.827,26.167c-0.014,9.879,3.822,19.166,10.801,26.153
		c6.982,6.992,16.271,10.843,26.153,10.843c0.001,0,0.002,0,0.003,0v3C331.591,371.626,331.589,371.626,331.588,371.626z"/>
	<path fill="#FFD4D5" d="M331.587,366.683c-9.364,0-18.164-3.647-24.78-10.274c-6.611-6.622-10.244-15.422-10.229-24.778
		c-0.006-9.362,3.637-18.168,10.258-24.792c6.621-6.625,15.427-10.273,24.796-10.273c9.375,0,18.176,3.646,24.797,10.265
		c6.622,6.621,10.27,15.419,10.268,24.775c-0.018,19.343-15.731,35.077-35.033,35.077l-0.074-1.5l0.038-1.5
		c17.685,0,32.054-14.391,32.069-32.079c0.002-8.554-3.332-16.599-9.389-22.651c-6.056-6.053-14.103-9.387-22.659-9.387
		c-8.584,0-16.637,3.336-22.692,9.394c-6.054,6.057-9.385,14.109-9.379,22.672c-0.014,8.559,3.307,16.604,9.352,22.658
		c6.049,6.058,14.096,9.395,22.657,9.395c0.001,0,0.001,0,0.002,0v3C331.589,366.683,331.587,366.683,331.587,366.683z"/>
	<path fill="#FFD4D5" d="M331.587,361.74c-8.044,0-15.603-3.135-21.286-8.828c-5.678-5.689-8.796-13.248-8.781-21.284
		c-0.006-8.042,3.122-15.606,8.81-21.296c5.688-5.691,13.254-8.825,21.304-8.825c8.053,0,15.611,3.131,21.299,8.818
		c5.689,5.688,8.822,13.245,8.819,21.278c-0.017,16.618-13.515,30.137-30.089,30.137l-0.074-1.5l0.038-1.5
		c14.958,0,27.11-12.174,27.125-27.139c0.002-7.231-2.817-14.034-7.94-19.155c-5.121-5.12-11.928-7.939-19.163-7.939
		c-7.264,0-14.076,2.822-19.197,7.945s-7.938,11.934-7.932,19.178c-0.014,7.237,2.793,14.042,7.904,19.162
		c5.116,5.126,11.921,7.948,19.162,7.948c0.001,0,0.001,0,0.002,0L331.587,361.74C331.589,361.74,331.587,361.74,331.587,361.74z"/>
	<path fill="#FFD4D5" d="M331.587,356.797c-6.725,0-13.043-2.621-17.792-7.382c-4.744-4.755-7.348-11.072-7.332-17.787
		c-0.006-6.721,2.608-13.044,7.362-17.801s11.078-7.377,17.808-7.377c6.733,0,13.05,2.618,17.806,7.37
		c4.756,4.754,7.373,11.068,7.371,17.783c-0.018,13.894-11.297,25.193-25.145,25.193l-0.078-1.5l0.039-1.5
		c12.234,0,22.168-9.957,22.184-22.196c0.002-5.91-2.305-11.473-6.492-15.658c-4.188-4.187-9.754-6.492-15.668-6.492
		c-5.944,0-11.514,2.308-15.702,6.498c-4.188,4.189-6.49,9.759-6.484,15.683c-0.014,5.918,2.278,11.479,6.455,15.667
		c4.183,4.191,9.747,6.5,15.669,6.5V356.797z"/>
	<path fill="#FFD4D5" d="M331.629,351.854h-0.004c-5.406,0-10.486-2.102-14.303-5.918c-3.819-3.817-5.92-8.898-5.916-14.307
		c0.009-11.159,9.083-20.237,20.227-20.237c5.413,0,10.488,2.104,14.31,5.923c3.822,3.819,5.928,8.895,5.925,14.287
		C351.851,342.769,342.771,351.853,331.629,351.854z M331.65,314.393c-9.508,0-17.235,7.734-17.244,17.24
		c-0.004,4.604,1.785,8.932,5.037,12.183c3.251,3.25,7.577,5.04,12.182,5.04v1.5l0.003-1.5c9.491-0.003,17.225-7.742,17.238-17.255
		c0.002-4.59-1.789-8.909-5.044-12.163S336.245,314.393,331.65,314.393z"/>
	<path fill="#FFD4D5" d="M331.629,346.911h-0.004c-4.091,0-7.933-1.591-10.817-4.479c-2.88-2.884-4.464-6.72-4.459-10.802
		c0.01-8.433,6.866-15.294,15.283-15.294c4.094,0,7.928,1.589,10.815,4.474c2.889,2.888,4.479,6.721,4.476,10.794
		C346.906,340.043,340.045,346.909,331.629,346.911z M331.65,319.335c-6.783,0-12.293,5.517-12.301,12.298
		c-0.004,3.279,1.268,6.361,3.582,8.678c2.318,2.321,5.406,3.601,8.695,3.601v1.5l0.003-1.5c6.767-0.002,12.281-5.524,12.295-12.312
		c0.002-3.27-1.274-6.348-3.597-8.668C338.005,320.613,334.924,319.335,331.65,319.335z"/>
	<path fill="#FFD4D5" d="M331.629,341.969h-0.004c-2.77,0-5.37-1.076-7.321-3.031c-1.947-1.95-3.017-4.547-3.011-7.309
		c0.011-5.707,4.649-10.35,10.34-10.35c2.777,0,5.373,1.078,7.328,3.035c1.95,1.952,3.022,4.542,3.021,7.289
		C341.961,337.318,337.317,341.967,331.629,341.969z M331.651,324.278c-4.059,0-7.351,3.3-7.359,7.355
		c-0.004,1.959,0.754,3.801,2.134,5.185c1.385,1.387,3.23,2.149,5.198,2.149v1.5l0.003-1.5c4.041-0.002,7.339-3.309,7.353-7.372
		c0.002-1.942-0.759-3.777-2.143-5.164C335.45,325.043,333.608,324.278,331.651,324.278z"/>
	<path fill="#FFD4D5" d="M331.585,337.025c-1.447,0-2.804-0.567-3.819-1.6c-1.009-1.024-1.553-2.381-1.531-3.817
		c-0.009-1.412,0.546-2.771,1.563-3.796c1.021-1.027,2.382-1.593,3.834-1.593c1.457,0,2.812,0.564,3.833,1.588
		c1.019,1.021,1.575,2.368,1.572,3.796c-0.022,2.993-2.433,5.421-5.372,5.421L331.585,337.025L331.585,337.025z M331.65,329.221
		c-0.665,0-1.271,0.251-1.724,0.707c-0.45,0.453-0.696,1.056-0.691,1.694c-0.01,0.66,0.228,1.252,0.669,1.699
		c0.447,0.454,1.044,0.704,1.682,0.704v1.5l0.027-1.5c1.374,0,2.415-1.069,2.425-2.436c0.001-0.618-0.246-1.212-0.695-1.663
		C332.887,329.472,332.286,329.221,331.65,329.221z"/>
</g>
</svg>
