<?xml version="1.0" encoding="utf-8"?>
<!-- Generator: Adobe Illustrator 16.0.0, SVG Export Plug-In . SVG Version: 6.00 Build 0)  -->
<!DOCTYPE svg PUBLIC "-//W3C//DTD SVG 1.1//EN" "http://www.w3.org/Graphics/SVG/1.1/DTD/svg11.dtd">
<svg version="1.1" id="Layer_1" xmlns="http://www.w3.org/2000/svg" xmlns:xlink="http://www.w3.org/1999/xlink" x="0px" y="0px"
	 width="79.543px" height="28.39px" viewBox="0 0 79.543 28.39" enable-background="new 0 0 79.543 28.39" xml:space="preserve">
<path fill="#F7941E" d="M60.524,14.62C55.435,7.433,50.172,0.001,39.769,0.001c-10.405,0-15.669,7.433-20.759,14.62
	c-4.996,7.056-9.72,13.717-19.014,13.77H79.54C70.245,28.338,65.521,21.676,60.524,14.62z M39.769,2.001
	c8.427,0,13.107,5.416,17.613,11.66c-4.292-4.584-9.317-8.498-17.613-8.498s-13.323,3.912-17.614,8.495
	C26.661,7.416,31.342,2.001,39.769,2.001z M39.769,7.163c9.227,0,13.962,5.243,18.861,10.899c-4.596-4.024-9.758-7.737-18.861-7.737
	s-14.266,3.71-18.861,7.734C25.807,12.404,30.542,7.163,39.769,7.163z M20.495,21.104c5.024-4.515,9.769-8.779,19.274-8.779
	c9.502,0,14.247,4.264,19.27,8.778c0.29,0.261,0.58,0.521,0.872,0.781c-4.961-3.182-10.188-6.396-20.142-6.396
	c-9.955,0-15.182,3.213-20.142,6.394C19.917,21.623,20.207,21.363,20.495,21.104z M20.367,23.784
	c5.043-3.238,9.807-6.296,19.402-6.296c9.592,0,14.355,3.058,19.398,6.295c0.606,0.389,1.214,0.779,1.833,1.165
	c-0.311-0.119-0.622-0.238-0.933-0.358c-5.027-1.937-10.225-3.938-20.294-3.938c-0.003,0-0.004,0-0.008,0
	c-10.072,0-15.271,2.003-20.299,3.939c-0.312,0.12-0.622,0.239-0.933,0.358C19.152,24.563,19.761,24.173,20.367,23.784z
	 M59.835,27.112c-4.972-0.639-10.112-1.299-20.055-1.299c-0.003,0-0.008,0-0.011,0c-9.953,0-15.096,0.66-20.07,1.299
	c-0.619,0.08-1.242,0.159-1.875,0.238c0.802-0.295,1.585-0.595,2.362-0.894c5.08-1.957,9.878-3.806,19.58-3.806
	c0.003-0.001,0.005-0.001,0.008,0c9.696,0,14.496,1.849,19.576,3.805c0.778,0.3,1.562,0.6,2.365,0.895
	C61.079,27.272,60.456,27.192,59.835,27.112z"/>
</svg>
