<?xml version="1.0" encoding="utf-8"?>
<!-- Generator: Adobe Illustrator 16.0.0, SVG Export Plug-In . SVG Version: 6.00 Build 0)  -->
<!DOCTYPE svg PUBLIC "-//W3C//DTD SVG 1.1//EN" "http://www.w3.org/Graphics/SVG/1.1/DTD/svg11.dtd">
<svg version="1.1" id="Layer_1" xmlns="http://www.w3.org/2000/svg" xmlns:xlink="http://www.w3.org/1999/xlink" x="0px" y="0px"
	 width="106px" height="98px" viewBox="0 0 106 98" enable-background="new 0 0 106 98" xml:space="preserve">
<g opacity="0.2">
	<path fill="#FFFFFF" d="M6.363,38.23c-4.617-0.596-9.356-1.205-16.347-1.512v4.382c6.978-0.306,11.713-0.913,16.327-1.507
		l0.019-0.002c1.576-0.203,3.512-0.453,5.551-0.68C9.924,38.689,8.04,38.446,6.363,38.23z"/>
	<path fill="#FFFFFF" d="M-9.983,30.226v4.387c7.118,0.308,11.929,0.926,16.614,1.531c1.525,0.197,3.237,0.418,5.05,0.624
		c-1.857-0.621-3.561-1.272-5.56-2.047C1.367,32.881-3.211,31.117-9.983,30.226z"/>
	<path fill="#FFFFFF" d="M6.628,41.676c-4.688,0.604-9.499,1.221-16.612,1.529v4.389c6.769-0.892,11.346-2.654,16.098-4.493
		c1.674-0.648,3.552-1.375,5.563-2.049C9.864,41.259,8.153,41.479,6.628,41.676z"/>
	<path fill="#FFFFFF" d="M6.872,45.062C2.125,46.897-2.749,48.772-9.983,49.7v4.372c6.675-1.483,11.207-4.396,15.913-7.432
		c1.53-0.986,3.248-2.093,5.061-3.129C9.633,43.996,8.312,44.504,6.872,45.062z"/>
	<path fill="#FFFFFF" d="M-9.983,23.747v4.371c7.235,0.928,12.11,2.805,16.857,4.642c1.259,0.486,2.667,1.031,4.121,1.55
		c-1.847-1.057-3.617-2.199-5.062-3.131C1.225,28.143-3.308,25.229-9.983,23.747z"/>
	<path fill="#FFFFFF" d="M7.061,48.411c-4.792,3.09-9.713,6.245-17.044,7.795v4.337c6.599-2.076,11.1-6.128,15.776-10.35
		c1.401-1.265,2.687-2.417,4.03-3.538C8.851,47.259,7.899,47.87,7.061,48.411z"/>
	<path fill="#FFFFFF" d="M58.928,29.411c6.687-4.314,13.602-8.773,27.02-8.784h0.003c0.017,0,0.031-0.001,0.047-0.001h0.05v0.002
		c13.414,0.011,20.33,4.469,27.016,8.782c0.878,0.567,1.806,1.163,2.762,1.757c-1.344-1.122-2.629-2.273-4.027-3.536
		c-6.718-6.065-13.062-11.794-25.8-11.794h-0.034c-12.716,0.011-19.057,5.733-25.768,11.791c-1.348,1.218-2.671,2.405-4.031,3.541
		C57.116,30.577,58.047,29.979,58.928,29.411z"/>
	<path fill="#FFFFFF" d="M112.59,21.903c-0.316-0.447-0.632-0.893-0.946-1.339c-6.709-9.52-13.045-18.513-25.646-18.513h-0.021
		c-12.584,0.011-18.919,8.996-25.626,18.51c-0.315,0.447-0.629,0.893-0.945,1.338c6.502-7.53,13.425-15.038,26.542-15.057V6.841
		h0.022c0.01,0,0.019-0.001,0.027-0.001h0.05v0.003C99.165,6.862,106.088,14.372,112.59,21.903z"/>
	<path fill="#FFFFFF" d="M-9.983,10.812V15.1c7.41,2.169,12.362,6.615,17.182,10.966c0.4,0.361,0.759,0.684,1.09,0.98
		c-0.885-0.993-1.758-2.001-2.581-2.957C1.047,18.68-3.439,13.484-9.983,10.812z"/>
	<path fill="#FFFFFF" d="M-9.983,4.353v4.223c7.112,2.651,11.954,7.976,16.573,13.325c-0.316-0.446-0.631-0.892-0.945-1.337
		C0.995,13.965-3.481,7.626-9.983,4.353z"/>
	<path fill="#FFFFFF" d="M-9.983,17.276v4.336c7.334,1.55,12.256,4.707,17.047,7.797c0.84,0.542,1.793,1.155,2.761,1.756
		c-1.346-1.124-2.629-2.274-4.026-3.535C1.121,23.407-3.383,19.352-9.983,17.276z"/>
	<path fill="#FFFFFF" d="M58.794,26.067c6.709-6.057,13.646-12.317,27.154-12.333v0h0.017c0.011,0,0.021-0.001,0.033-0.001h0.05
		v0.002c13.508,0.016,20.443,6.275,27.148,12.331c0.365,0.329,0.729,0.656,1.092,0.981c-0.891-1-1.762-2.006-2.581-2.958
		c-6.712-7.79-13.05-15.146-25.709-15.146h-0.026c-12.645,0.011-18.979,7.361-25.685,15.145c-0.779,0.904-1.663,1.927-2.577,2.954
		C58.048,26.739,58.407,26.417,58.794,26.067z"/>
	<path fill="#FFFFFF" d="M5.964,75.068c6.717-6.065,13.661-12.335,27.204-12.335c13.54,0,20.483,6.271,27.199,12.335
		c0.366,0.329,0.729,0.656,1.093,0.982c-0.885-0.994-1.759-2.003-2.583-2.96c-6.709-7.789-13.047-15.147-25.709-15.147
		s-19,7.357-25.71,15.146c-0.94,1.093-1.762,2.04-2.576,2.953C5.209,75.748,5.565,75.428,5.964,75.068z"/>
	<path fill="#FFFFFF" d="M59.533,87.229c-6.539-0.844-13.294-1.715-26.355-1.715h-0.021c-13.081,0-19.832,0.873-26.361,1.717
		c-1.823,0.236-3.622,0.467-5.543,0.681c1.876,0.209,3.63,0.433,5.545,0.68c6.534,0.843,13.291,1.714,26.371,1.714
		c13.074,0,19.83-0.871,26.363-1.714c1.911-0.247,3.661-0.47,5.551-0.68C63.12,87.692,61.269,87.455,59.533,87.229z"/>
	<path fill="#FFFFFF" d="M86.079,86.856c0.028,0.002,0.058,0.004,0.088,0.004c12.596,0,18.933-8.991,25.642-18.51
		c1.364-1.936,2.738-3.883,4.176-5.76v-7.815c-0.882,1.211-1.756,2.448-2.636,3.696c-6.715,9.527-13.655,19.373-27.301,19.398v0.002
		h-0.05c-0.015,0-0.028-0.001-0.043-0.001h-0.007C72.293,77.846,65.353,67.997,58.64,58.47
		c-6.708-9.518-13.044-18.508-25.642-18.508c-12.602,0-18.94,8.992-25.65,18.513C2.501,65.351-2.464,72.393-9.983,75.788v8.847
		c6.589-3.248,11.104-9.632,15.793-16.284c6.722-9.539,13.673-19.402,27.357-19.402c13.682,0,20.633,9.863,27.356,19.402
		c6.678,9.474,12.985,18.422,25.474,18.502h0.002h0.049v0.002C86.059,86.855,86.068,86.855,86.079,86.856z"/>
	<path fill="#FFFFFF" d="M112.534,90.677l-0.175-0.022c-1.564-0.2-3.177-0.407-4.878-0.6c2.004,0.67,3.886,1.397,5.559,2.045
		c0.981,0.38,1.957,0.755,2.944,1.122v-2.109C114.808,90.969,113.666,90.822,112.534,90.677z"/>
	<path fill="#FFFFFF" d="M108.168,92.512c1.693,0.968,3.303,1.996,5.062,3.131c0.928,0.599,1.841,1.179,2.755,1.747v-1.933
		c-1.269-0.459-2.491-0.929-3.696-1.396C110.842,93.502,109.519,92.994,108.168,92.512z"/>
	<path fill="#FFFFFF" d="M7.195,51.755C2.374,56.106-2.577,60.55-9.983,62.719v4.287c6.542-2.673,11.027-7.866,15.686-13.273
		c0.781-0.906,1.667-1.933,2.579-2.955C7.948,51.076,7.591,51.396,7.195,51.755z"/>
	<path fill="#FFFFFF" d="M-9.983,69.241v4.224c6.499-3.273,10.973-9.608,15.622-16.204c0.317-0.45,0.634-0.899,0.952-1.349
		C1.971,61.263-2.872,66.59-9.983,69.241z"/>
	<path fill="#FFFFFF" d="M33.167,55.841c13.146,0,20.08,7.522,26.594,15.063c-0.316-0.447-0.632-0.894-0.947-1.342
		c-6.711-9.52-13.05-18.512-25.647-18.512c-12.601,0-18.939,8.993-25.648,18.514c-0.344,0.489-0.653,0.928-0.942,1.335
		C13.086,63.359,20.018,55.841,33.167,55.841z"/>
	<path fill="#FFFFFF" d="M6.529,85.146l0.025-0.003c6.596-0.851,13.416-1.729,26.603-1.729h0.022
		c13.211,0,20.029,0.881,26.622,1.732c1.525,0.196,3.237,0.417,5.048,0.624c-2.01-0.674-3.888-1.4-5.558-2.047
		c-6.775-2.623-13.175-5.101-26.119-5.101c-12.956,0-19.356,2.478-26.132,5.101c-1.67,0.646-3.546,1.373-5.557,2.046
		C3.292,85.562,5.003,85.342,6.529,85.146z"/>
	<path fill="#FFFFFF" d="M6.287,81.761c6.656-2.576,13.538-5.24,26.876-5.24h0.008c13.333,0,20.215,2.664,26.872,5.24
		c1.438,0.558,2.758,1.064,4.123,1.552c-1.826-1.044-3.539-2.148-5.064-3.133c-6.737-4.346-13.101-8.451-25.934-8.451
		c-12.84,0-19.202,4.106-25.938,8.453c-1.526,0.983-3.238,2.087-5.059,3.128C3.553,82.815,4.909,82.295,6.287,81.761z"/>
	<path fill="#FFFFFF" d="M6.098,78.411c6.699-4.32,13.623-8.785,27.07-8.785c13.447,0,20.37,4.465,27.065,8.783
		c0.972,0.627,1.868,1.203,2.764,1.76c-1.455-1.215-2.869-2.49-4.03-3.538c-6.72-6.067-13.065-11.795-25.8-11.795
		c-12.741,0-19.086,5.73-25.803,11.796c-1.161,1.048-2.574,2.322-4.028,3.537C4.262,79.594,5.173,79.008,6.098,78.411z"/>
	<path fill="#FFFFFF" d="M6.536,90.677l-0.167-0.021c-1.567-0.201-3.183-0.408-4.886-0.602c2.001,0.67,3.884,1.397,5.559,2.045
		c6.784,2.624,13.184,5.1,26.127,5.1c12.947,0,19.345-2.478,26.119-5.1c1.666-0.645,3.539-1.369,5.555-2.044
		c-1.809,0.206-3.52,0.427-5.044,0.623c-6.594,0.85-13.413,1.729-26.63,1.729C19.96,92.407,13.136,91.527,6.536,90.677z"/>
	<path fill="#FFFFFF" d="M59.361,36.144l0.014-0.001c6.591-0.85,13.407-1.729,26.573-1.731h0.05h0.05
		c13.179,0.002,19.993,0.882,26.582,1.732c1.038,0.134,2.168,0.279,3.354,0.423v-0.39c-1.378-0.495-2.676-0.996-3.864-1.456
		c-6.777-2.622-13.179-5.099-26.122-5.099c-12.95,0-19.351,2.478-26.127,5.1c-1.997,0.774-3.699,1.425-5.555,2.045
		C56.091,36.565,57.751,36.351,59.361,36.144z"/>
	<path fill="#FFFFFF" d="M59.629,39.59c6.541,0.844,13.297,1.715,26.369,1.715c13.059,0,19.813-0.87,26.346-1.711l0.017-0.002
		c1.291-0.167,2.458-0.315,3.624-0.456v-0.45c-1.279-0.154-2.501-0.311-3.623-0.456c-6.532-0.844-13.288-1.716-26.363-1.716
		c-13.079,0-19.835,0.872-26.37,1.716c-1.574,0.203-3.505,0.453-5.545,0.681C55.985,39.122,57.728,39.344,59.629,39.59z"/>
	<path fill="#FFFFFF" d="M115.984,88.995v-2.168c-1.085,0.133-2.142,0.269-3.189,0.404c-1.822,0.236-3.62,0.467-5.544,0.681
		c1.879,0.209,3.631,0.433,5.546,0.68C113.844,88.727,114.9,88.862,115.984,88.995z"/>
	<path fill="#FFFFFF" d="M110.886,1.785c0.909,1.021,1.792,2.042,2.569,2.945c0.845,0.98,1.684,1.954,2.529,2.907V6.289
		c-1.38-1.154-2.706-2.348-4.021-3.535C111.604,2.429,111.245,2.106,110.886,1.785z"/>
	<path fill="#FFFFFF" d="M112.527,85.146l0.025-0.003c1.126-0.146,2.262-0.291,3.432-0.434V82.6
		c-0.987,0.367-1.964,0.743-2.946,1.123c-1.667,0.646-3.541,1.371-5.557,2.046C109.29,85.562,111.003,85.342,112.527,85.146z"/>
	<path fill="#FFFFFF" d="M113.519,8.257c0.823,1.168,1.642,2.328,2.466,3.465v-0.975c-1.168-1.252-2.299-2.54-3.413-3.831
		c0.249,0.352,0.498,0.704,0.746,1.056L113.519,8.257z"/>
	<path fill="#FFFFFF" d="M33.168,21.978c-13.155,0-20.086-7.521-26.596-15.062C6.889,7.363,7.205,7.811,7.52,8.257
		c6.708,9.52,13.045,18.512,25.648,18.512c12.595,0,18.931-8.99,25.639-18.508c0.314-0.446,0.63-0.894,0.947-1.34
		C53.243,14.46,46.312,21.978,33.168,21.978z"/>
	<path fill="#FFFFFF" d="M7.354,19.348c6.709,9.52,13.047,18.511,25.643,18.511s18.933-8.991,25.643-18.51
		C65.34,9.843,72.269,0.014,85.867-0.05h0.081h0.1h0.037c13.625,0.041,20.561,9.881,27.268,19.398
		c0.879,1.246,1.751,2.482,2.632,3.691V15.23c-1.437-1.876-2.812-3.824-4.175-5.759c-2.157-3.061-4.602-6.531-7.205-9.438
		l-0.075-0.083h7.447l0.014,0.013l0.419,0.374c0.319,0.285,0.639,0.569,0.954,0.854c0.875,0.79,1.744,1.573,2.621,2.34V1.848
		c-0.975-0.583-1.938-1.186-2.905-1.806l-0.144-0.092h3.049v-9.239H-9.983V2.033C-2.46,5.428,2.507,12.472,7.354,19.348z
		 M19.115-0.05h28.104l0.01,0.099C42.985,0.891,38.386,1.3,33.168,1.3c-5.22,0-9.82-0.409-14.063-1.251L19.115-0.05z M10.889-0.05
		L10.9-0.043c6.085,3.681,12.2,6.133,22.268,6.133c10.062,0,16.176-2.452,22.261-6.133l0.012-0.007h3.95l-0.144,0.092
		c-6.946,4.459-13.703,8.15-26.079,8.15c-12.38,0-19.139-3.691-26.087-8.15L6.938-0.05H10.889z M5.977-0.05l0.376,0.335
		C6.691,0.587,7.03,0.888,7.365,1.19c6.716,6.064,13.06,11.792,25.804,11.792c12.735,0,19.078-5.727,25.793-11.79
		c0.347-0.313,0.698-0.625,1.049-0.938l0.342-0.305h7.446l-0.075,0.083c-2.594,2.899-4.94,6.226-7.209,9.442
		c-6.72,9.536-13.668,19.396-27.348,19.396c-13.686,0-20.636-9.862-27.356-19.399C3.653,6.411,1.208,2.941-1.395,0.033L-1.47-0.05
		H5.977z"/>
	<path fill="#FFFFFF" d="M113.092,98.05l-0.013-0.008c-0.328-0.21-0.656-0.421-0.982-0.632c-0.976-0.629-1.874-1.205-2.768-1.76
		c0.954,0.798,1.869,1.606,2.659,2.312l0.098,0.087h-7.467l-0.015-0.017c-5.616-6.272-11.303-9.069-18.437-9.069
		c-0.031,0-0.061,0.002-0.089,0.004c-0.011,0.001-0.021,0.001-0.031,0.002v0.002h-0.049h-0.003
		c-7.062,0.045-12.698,2.841-18.271,9.062L67.71,98.05h-7.469l0.098-0.087c0.79-0.706,1.705-1.514,2.658-2.311
		c-0.88,0.546-1.756,1.108-2.769,1.76c-0.324,0.21-0.652,0.42-0.979,0.63l-0.012,0.008h-3.959l0.153-0.093
		c1.202-0.728,2.372-1.479,3.667-2.314c1.757-1.133,3.365-2.159,5.06-3.129c-1.353,0.482-2.674,0.991-4.117,1.55
		c-3.767,1.457-7.663,2.965-12.808,3.985L19.109,98.05c-5.159-1.022-9.054-2.53-12.821-3.988c-1.444-0.559-2.767-1.067-4.12-1.55
		c1.692,0.968,3.302,1.995,5.062,3.131c1.296,0.836,2.466,1.587,3.668,2.314l0.153,0.093H7.093l-0.012-0.008
		c-0.328-0.21-0.656-0.421-0.982-0.632c-0.854-0.55-1.803-1.161-2.768-1.76c0.937,0.783,1.827,1.569,2.659,2.312l0.098,0.087H-1.38
		l-0.015-0.017c-2.789-3.115-5.596-5.371-8.588-6.855v16.112h125.968v-9.24H113.092z"/>
	<path fill="#FFFFFF" d="M33.168,19.875c12.659,0,18.994-7.355,25.702-15.143c0.78-0.905,1.665-1.929,2.576-2.951
		c-0.384,0.344-0.742,0.666-1.083,0.975c-6.714,6.062-13.656,12.33-27.194,12.33c-13.546,0-20.489-6.269-27.204-12.332
		c-0.36-0.326-0.72-0.649-1.08-0.971c0.894,1.003,1.756,2,2.571,2.947C14.165,12.519,20.5,19.875,33.168,19.875z"/>
	<path fill="#FFFFFF" d="M111.964,75.068c1.314-1.188,2.641-2.381,4.021-3.535v-1.35c-0.846,0.953-1.685,1.927-2.529,2.907
		c-0.821,0.953-1.688,1.956-2.574,2.95C111.241,75.719,111.602,75.395,111.964,75.068z"/>
	<path fill="#FFFFFF" d="M112.286,81.761c1.212-0.47,2.434-0.941,3.698-1.399v-1.935c-0.923,0.574-1.837,1.161-2.756,1.755
		c-1.522,0.981-3.231,2.083-5.059,3.128C109.559,82.813,110.911,82.293,112.286,81.761z"/>
	<path fill="#FFFFFF" d="M115.984,43.882c-1.015,0.374-2.03,0.76-3.114,1.18c-6.646,2.571-13.521,5.229-26.822,5.236v0.001h-0.05
		h-0.05v-0.001c-13.308-0.008-20.183-2.665-26.83-5.237c-1.38-0.534-2.736-1.056-4.117-1.55c1.822,1.043,3.534,2.146,5.059,3.129
		c6.728,4.34,13.085,8.438,25.888,8.45h0.05c12.83,0,19.194-4.104,25.931-8.449c1.243-0.802,2.614-1.681,4.056-2.539V43.882z"/>
	<path fill="#FFFFFF" d="M113.06,48.411c-6.686,4.311-13.6,8.768-27.012,8.78v0.002h-0.05c-0.016,0-0.03-0.001-0.047-0.001h-0.003
		c-13.416-0.013-20.331-4.47-27.017-8.781c-1.008-0.65-1.888-1.214-2.761-1.756c1.342,1.12,2.626,2.271,4.024,3.534
		c6.717,6.062,13.055,11.782,25.77,11.793h0.034c12.735,0,19.078-5.727,25.794-11.789c1.403-1.267,2.69-2.42,4.03-3.539
		C114.852,47.258,113.898,47.87,113.06,48.411z"/>
	<path fill="#FFFFFF" d="M113.193,51.755c-6.708,6.056-13.642,12.312-27.146,12.329v0.002h-0.05c-0.012,0-0.021-0.001-0.033-0.001
		h-0.017v-0.001c-13.507-0.017-20.44-6.271-27.144-12.322l-0.01-0.009c-0.399-0.361-0.756-0.682-1.085-0.977
		c0.914,1.024,1.798,2.049,2.577,2.953c6.707,7.785,13.04,15.134,25.686,15.145h0.026c12.659,0,18.995-7.355,25.703-15.142
		c0.939-1.091,1.762-2.038,2.58-2.955C113.926,51.096,113.562,51.422,113.193,51.755z"/>
	<path fill="#FFFFFF" d="M59.118,32.76c6.649-2.574,13.526-5.234,26.83-5.241v0h0.05h0.05v0c13.305,0.007,20.179,2.667,26.824,5.24
		c0.962,0.372,2.024,0.776,3.112,1.178v-0.219c-1.31-0.78-2.597-1.601-4.053-2.54c-6.74-4.346-13.104-8.449-25.934-8.449H85.95
		c-12.805,0.011-19.162,4.11-25.89,8.45c-1.825,1.177-3.382,2.171-5.06,3.13C56.346,33.829,57.67,33.32,59.118,32.76z"/>
	<path fill="#FFFFFF" d="M112.097,78.411c1.273-0.821,2.555-1.647,3.888-2.447v-1.672c-0.878,0.767-1.747,1.551-2.622,2.341
		c-1.405,1.269-2.694,2.423-4.025,3.535C110.277,79.583,111.211,78.983,112.097,78.411z"/>
	<path fill="#FFFFFF" d="M59.404,55.918c0.31,0.438,0.626,0.885,0.945,1.339c6.707,9.516,13.04,18.5,25.628,18.511h0.021
		c12.597-0.001,18.933-8.991,25.641-18.508c0.316-0.448,0.632-0.896,0.949-1.345c-6.503,7.531-13.427,15.041-26.54,15.061v0.003
		h-0.05c-0.009,0-0.018-0.001-0.027-0.001h-0.022v-0.001C72.829,70.956,65.906,63.447,59.404,55.918z"/>
	<path fill="#FFFFFF" d="M86.048,43.407h-0.05h-0.05c-13.171-0.004-19.988-0.881-26.579-1.73c-1.532-0.197-3.245-0.418-5.054-0.624
		c2,0.67,3.882,1.397,5.556,2.045c6.786,2.625,13.185,5.1,26.127,5.1c12.939,0,19.339-2.476,26.114-5.097
		c1.195-0.462,2.498-0.964,3.872-1.458v-0.39c-1.188,0.145-2.318,0.289-3.356,0.423C106.033,42.525,99.217,43.403,86.048,43.407z"/>
	<path fill="#FFFFFF" d="M112.573,70.901c1.114-1.29,2.243-2.577,3.411-3.829v-0.974c-0.825,1.137-1.644,2.297-2.467,3.466
		C113.203,70.011,112.889,70.456,112.573,70.901z"/>
</g>
</svg>
