<?xml version="1.0" encoding="utf-8"?>
<!-- Generator: Adobe Illustrator 16.0.0, SVG Export Plug-In . SVG Version: 6.00 Build 0)  -->
<!DOCTYPE svg PUBLIC "-//W3C//DTD SVG 1.1//EN" "http://www.w3.org/Graphics/SVG/1.1/DTD/svg11.dtd">
<svg version="1.1" id="Layer_1" xmlns="http://www.w3.org/2000/svg" xmlns:xlink="http://www.w3.org/1999/xlink" x="0px" y="0px"
	 width="100.01px" height="106.346px" viewBox="-8.631 -30.811 100.01 106.346"
	 enable-background="new -8.631 -30.811 100.01 106.346" xml:space="preserve">
<g opacity="0.1">
	<path d="M91.452,77.167c-0.034-0.537-0.073-1.072-0.073-1.634c0-5.064,1.453-9.111,3.788-12.588v-9.694
		c-0.142,0.247-0.291,0.479-0.431,0.73c0.14-0.401,0.287-0.792,0.431-1.187v-5.661c-0.185,0.484-0.37,0.969-0.558,1.454
		c-0.747,1.938-1.499,3.902-2.193,6.032c0.216-1.946,0.447-3.757,0.677-5.546c0.851-6.621,1.729-13.467,1.729-26.712
		c0-13.251-0.88-20.098-1.73-26.719c-0.229-1.788-0.461-3.598-0.676-5.542c0.693,2.129,1.445,4.091,2.192,6.029
		c0.188,0.486,0.374,0.971,0.559,1.456v-5.662c-0.144-0.395-0.29-0.784-0.43-1.186c0.14,0.25,0.288,0.482,0.43,0.729v-9.691
		c-2.335-3.477-3.788-7.523-3.788-12.587c0-1.177,0.102-2.282,0.25-3.355h-2.5c0.148,1.073,0.25,2.179,0.25,3.355v0
		c0,12.666-8.988,19.029-18.504,25.766C61.361,1.691,51.523,8.657,51.522,22.363c0,13.696,9.836,20.661,19.348,27.396
		c9.519,6.739,18.509,13.104,18.509,25.774c0,0.562-0.039,1.097-0.073,1.634H91.452z M72.026,48.126
		c-9.516-6.737-18.504-13.101-18.504-25.763c0-12.672,8.99-19.037,18.509-25.775c0.732-0.519,1.467-1.039,2.198-1.563
		c-7.78,6.733-15.822,13.699-15.823,27.339C58.407,35.996,66.45,42.96,74.23,49.694C73.497,49.168,72.761,48.646,72.026,48.126z
		 M75.545,48.187c-7.785-6.738-15.139-13.102-15.139-25.824c0-12.732,7.355-19.097,15.143-25.836
		c1.211-1.048,2.426-2.105,3.618-3.188c-0.521,0.588-1.046,1.175-1.575,1.764c-6.048,6.73-12.302,13.688-12.303,27.26
		c0.001,13.563,6.253,20.52,12.3,27.249c0.529,0.589,1.054,1.176,1.574,1.764C77.971,50.292,76.756,49.235,75.545,48.187z
		 M79.077,48.275c-6.062-6.745-11.788-13.116-11.788-25.912c0-12.805,5.728-19.177,11.79-25.923
		c1.344-1.495,2.694-3.006,3.988-4.595c-0.693,1.139-1.408,2.258-2.132,3.386c-4.308,6.711-8.762,13.65-8.763,27.132
		c0.001,13.473,4.454,20.411,8.761,27.121c0.725,1.128,1.44,2.249,2.133,3.388C81.772,51.283,80.422,49.771,79.077,48.275z
		 M82.617,48.404c-4.343-6.765-8.444-13.154-8.444-26.041c0-12.895,4.103-19.286,8.446-26.052c1.154-1.797,2.315-3.616,3.401-5.568
		c-0.553,1.59-1.14,3.121-1.735,4.668c-2.571,6.675-5.229,13.577-5.229,26.95c0.001,13.366,2.658,20.267,5.229,26.941
		c0.597,1.549,1.184,3.082,1.737,4.673C84.935,52.023,83.771,50.203,82.617,48.404z M86.15,48.584
		c-2.62-6.803-5.095-13.228-5.095-26.222c0-13.001,2.476-19.428,5.096-26.231c0.746-1.938,1.498-3.9,2.192-6.029
		c-0.216,1.945-0.446,3.755-0.676,5.542c-0.85,6.621-1.729,13.468-1.729,26.719c0,13.244,0.878,20.09,1.728,26.71
		c0.229,1.788,0.46,3.598,0.676,5.542C87.648,52.486,86.896,50.523,86.15,48.584z M87.939,22.363c0-13.124,0.87-19.906,1.712-26.465
		c0.248-1.932,0.498-3.889,0.729-6.013c0.23,2.124,0.48,4.081,0.729,6.013c0.843,6.559,1.714,13.341,1.714,26.464
		c0,13.117-0.871,19.898-1.714,26.457c-0.248,1.934-0.498,3.892-0.729,6.018c-0.23-2.126-0.48-4.084-0.729-6.018
		C88.81,42.261,87.939,35.479,87.939,22.363z"/>
	<path d="M35.958-34.167c-0.012,1.024-0.02,2.075-0.02,3.186c0.001,13.243,0.879,20.088,1.728,26.708
		c0.229,1.788,0.46,3.598,0.676,5.543c-0.694-2.128-1.445-4.09-2.191-6.028c-2.62-6.803-5.094-13.229-5.094-26.224
		c0-1.114,0.024-2.164,0.059-3.186h-2c-0.035,1.025-0.06,2.076-0.06,3.186c0,13.367,2.658,20.268,5.228,26.942
		c0.596,1.548,1.183,3.08,1.737,4.671c-1.087-1.953-2.25-3.773-3.404-5.572c-4.342-6.765-8.443-13.155-8.443-26.042
		c0-1.114,0.041-2.164,0.1-3.186h-2.001c-0.058,1.025-0.098,2.076-0.098,3.186c0,13.474,4.454,20.413,8.76,27.123
		c0.725,1.129,1.44,2.249,2.133,3.389c-1.294-1.589-2.645-3.101-3.99-4.597C23.015-11.812,17.29-18.183,17.29-30.98
		c0-1.115,0.058-2.165,0.141-3.186h-2.005c-0.08,1.025-0.136,2.076-0.136,3.186c0,13.564,6.252,20.521,12.299,27.25
		c0.529,0.589,1.054,1.176,1.575,1.764c-1.193-1.084-2.407-2.141-3.619-3.189c-7.785-6.738-15.139-13.102-15.139-25.826
		c0-1.114,0.075-2.164,0.183-3.185H8.58c-0.102,1.025-0.173,2.075-0.173,3.185c0,13.634,8.042,20.599,15.823,27.332
		c-0.733-0.525-1.469-1.047-2.203-1.566C12.511-11.954,3.523-18.317,3.523-30.981c0-1.115,0.093-2.164,0.226-3.186H1.717
		c-0.123,1.022-0.193,2.08-0.193,3.186c0,13.698,9.835,20.663,19.347,27.397c9.511,6.735,18.495,13.098,18.506,25.751
		c0,0.008,0,0.016,0,0.024s0,0.016,0,0.024c-0.012,12.65-8.994,19.011-18.503,25.744C11.36,54.695,1.522,61.66,1.521,75.365
		c0,0.615,0.027,1.213,0.065,1.802h2.016c-0.042-0.59-0.081-1.183-0.081-1.802c0.001-12.671,8.991-19.035,18.508-25.773
		c0.732-0.519,1.466-1.039,2.198-1.563c-7.78,6.733-15.822,13.698-15.822,27.337c0,0.619,0.035,1.21,0.067,1.802h1.999
		c-0.034-0.59-0.066-1.183-0.066-1.802c0-12.731,7.355-19.096,15.143-25.834c1.21-1.048,2.425-2.104,3.617-3.188
		c-0.521,0.587-1.044,1.174-1.574,1.763c-6.048,6.729-12.302,13.688-12.303,27.259c0,0.619,0.027,1.21,0.053,1.802h1.999
		c-0.026-0.59-0.051-1.183-0.051-1.802c0.001-12.805,5.728-19.176,11.79-25.922c1.344-1.496,2.695-3.007,3.989-4.596
		c-0.693,1.139-1.409,2.259-2.133,3.387c-4.308,6.71-8.762,13.65-8.762,27.13c0,0.619,0.019,1.21,0.038,1.802h1.999
		c-0.019-0.591-0.036-1.182-0.036-1.802c0-12.894,4.103-19.284,8.445-26.05c1.154-1.798,2.316-3.617,3.403-5.569
		c-0.554,1.591-1.14,3.122-1.736,4.67c-2.57,6.675-5.229,13.577-5.229,26.949c0,0.619,0.012,1.21,0.022,1.802h1.999
		c-0.011-0.591-0.021-1.182-0.021-1.802c0-13.001,2.475-19.427,5.095-26.23c0.746-1.937,1.498-3.898,2.191-6.026
		c-0.215,1.944-0.446,3.753-0.675,5.541c-0.849,6.62-1.728,13.467-1.728,26.716c0,0.619,0.004,1.21,0.008,1.802h2
		c-0.004-0.591-0.008-1.183-0.008-1.802c0-13.121,0.871-19.903,1.712-26.461c0.248-1.935,0.498-3.894,0.729-6.022
		c0.23,2.126,0.481,4.085,0.729,6.019c0.842,6.559,1.714,13.341,1.713,26.464c0,0.619-0.004,1.211-0.007,1.802h2
		c0.003-0.592,0.007-1.183,0.007-1.802c0-13.251-0.879-20.098-1.73-26.719c-0.229-1.788-0.461-3.597-0.676-5.542
		c0.694,2.129,1.446,4.091,2.192,6.029c2.622,6.805,5.097,13.231,5.097,26.231c0,0.62-0.011,1.211-0.021,1.802h1.999
		c0.011-0.592,0.022-1.183,0.022-1.802c0-13.372-2.659-20.274-5.23-26.95c-0.596-1.548-1.184-3.08-1.737-4.67
		c1.087,1.952,2.25,3.772,3.404,5.57c4.344,6.767,8.447,13.158,8.447,26.05c0,0.62-0.018,1.211-0.036,1.802h1.999
		c0.018-0.592,0.037-1.183,0.037-1.802c0-13.479-4.455-20.419-8.764-27.13c-0.725-1.128-1.44-2.249-2.133-3.388
		c1.294,1.588,2.645,3.1,3.989,4.596c6.064,6.748,11.792,13.121,11.792,25.922c0,0.619-0.024,1.212-0.051,1.802h1.998
		c0.025-0.592,0.053-1.183,0.053-1.802c0-13.568-6.255-20.528-12.304-27.259c-0.529-0.589-1.054-1.176-1.574-1.764
		c1.192,1.083,2.407,2.141,3.618,3.189c7.787,6.74,15.144,13.106,15.144,25.834c0,0.619-0.032,1.212-0.065,1.802h1.998
		c0.033-0.592,0.067-1.183,0.067-1.802c0-13.64-8.048-20.606-15.831-27.343c0.733,0.526,1.47,1.048,2.205,1.569
		c9.519,6.74,18.509,13.107,18.509,25.774c0,0.619-0.039,1.212-0.081,1.802h2.016c0.039-0.589,0.065-1.187,0.065-1.802
		c0-13.701-9.839-20.669-19.354-27.406c-9.517-6.739-18.506-13.105-18.506-25.768c0-12.663,8.989-19.029,18.507-25.769
		c9.515-6.737,19.353-13.704,19.352-27.403c0-1.106-0.07-2.165-0.193-3.187H77.01c0.134,1.022,0.227,2.072,0.227,3.187
		c0.001,12.664-8.989,19.03-18.508,25.771c-0.734,0.521-1.471,1.042-2.205,1.569c7.783-6.736,15.831-13.703,15.83-27.339
		c0-1.11-0.071-2.161-0.174-3.187h-2.01c0.108,1.022,0.184,2.072,0.184,3.187c0.001,12.724-7.354,19.09-15.142,25.83
		c-1.213,1.049-2.429,2.108-3.623,3.193c0.522-0.59,1.048-1.178,1.579-1.769c6.049-6.73,12.304-13.689,12.303-27.254
		c0-1.11-0.057-2.161-0.137-3.186h-2.005c0.084,1.021,0.142,2.071,0.142,3.186c0,12.798-5.727,19.171-11.79,25.917
		c-1.345,1.496-2.696,3.009-3.99,4.598c0.693-1.14,1.409-2.261,2.134-3.39c4.308-6.711,8.764-13.65,8.763-27.125
		c0-1.11-0.041-2.161-0.099-3.186h-2.001c0.059,1.022,0.1,2.072,0.1,3.186c0,12.888-4.103,19.279-8.446,26.045
		c-1.155,1.799-2.318,3.62-3.406,5.573c0.554-1.592,1.142-3.125,1.739-4.674c2.571-6.675,5.23-13.577,5.23-26.944
		c0-1.11-0.024-2.161-0.06-3.186h-2c0.035,1.022,0.06,2.072,0.06,3.186c0,12.995-2.476,19.421-5.097,26.225
		c-0.747,1.939-1.5,3.902-2.194,6.033c0.216-1.946,0.447-3.757,0.677-5.546c0.851-6.621,1.73-13.467,1.73-26.712
		c0-1.111-0.008-2.162-0.021-3.186h-2c0.012,1.024,0.021,2.075,0.021,3.186c0,13.117-0.871,19.899-1.713,26.457
		c-0.249,1.935-0.499,3.893-0.73,6.02c-0.23-2.128-0.48-4.087-0.729-6.022c-0.841-6.558-1.711-13.339-1.712-26.454
		c0-1.111,0.008-2.162,0.021-3.186H35.958z"/>
	<path d="M-10.88-34.167c0.148,1.073,0.25,2.178,0.25,3.354v0c0,3.31-0.625,6.182-1.702,8.75v14.111
		c0.227-0.637,0.45-1.282,0.667-1.948c-0.213,1.919-0.44,3.706-0.667,5.471v53.572c0.227,1.766,0.455,3.554,0.667,5.474
		c-0.217-0.666-0.44-1.311-0.667-1.948v14.111c1.077,2.569,1.702,5.442,1.702,8.754c0,0.561-0.039,1.095-0.073,1.632h2.146
		c-0.035-0.537-0.073-1.071-0.073-1.632c0-12.664,8.99-19.03,18.508-25.771c9.514-6.738,19.352-13.705,19.352-27.403
		c0-13.702-9.839-20.669-19.354-27.407C0.359-11.785-8.63-18.15-8.631-30.813c0-1.176,0.102-2.281,0.25-3.354H-10.88z M8.72-3.413
		c9.519,6.74,18.509,13.107,18.51,25.774c0,12.665-8.99,19.031-18.508,25.771c-0.735,0.521-1.472,1.043-2.206,1.569
		c7.783-6.736,15.83-13.703,15.831-27.34c0-13.64-8.048-20.607-15.832-27.344C7.248-4.456,7.984-3.934,8.72-3.413z M5.202-3.473
		c7.788,6.74,15.144,13.106,15.144,25.834c0,12.725-7.355,19.09-15.143,25.83c-1.212,1.049-2.428,2.107-3.622,3.192
		c0.522-0.59,1.048-1.178,1.579-1.769c6.048-6.73,12.302-13.689,12.303-27.254c0-13.569-6.255-20.528-12.304-27.259
		C2.629-5.487,2.105-6.074,1.584-6.661C2.777-5.578,3.991-4.521,5.202-3.473z M1.671-3.561c6.063,6.747,11.791,13.12,11.792,25.922
		c0,12.798-5.727,19.17-11.791,25.917c-1.344,1.496-2.695,3.008-3.989,4.596c0.693-1.14,1.409-2.26,2.133-3.388
		C4.125,42.776,8.58,35.836,8.58,22.361C8.58,8.882,4.124,1.942-0.185-4.77c-0.725-1.128-1.44-2.248-2.133-3.388
		C-1.024-6.568,0.327-5.057,1.671-3.561z M-1.868-3.689C2.477,3.078,6.58,9.469,6.58,22.361c0,12.888-4.103,19.279-8.447,26.045
		c-1.155,1.799-2.318,3.619-3.405,5.573c0.554-1.592,1.142-3.124,1.738-4.673c2.571-6.675,5.23-13.578,5.23-26.945
		c0-13.373-2.659-20.275-5.23-26.951C-4.13-6.137-4.717-7.668-5.271-9.259C-4.185-7.307-3.022-5.487-1.868-3.689z M-5.401-3.871
		c2.622,6.805,5.097,13.231,5.097,26.232c0,12.996-2.476,19.422-5.096,26.226c-0.747,1.939-1.5,3.903-2.194,6.033
		c0.216-1.946,0.447-3.757,0.677-5.546c0.85-6.621,1.729-13.467,1.729-26.713c0-13.251-0.879-20.098-1.73-26.72
		c-0.229-1.788-0.46-3.597-0.676-5.542C-6.899-7.771-6.147-5.809-5.401-3.871z M-7.188,22.361c0,13.118-0.871,19.9-1.713,26.458
		c-0.248,1.934-0.499,3.891-0.729,6.017c-0.23-2.127-0.48-4.085-0.729-6.02c-0.841-6.558-1.711-13.339-1.711-26.455
		c0-13.122,0.87-19.903,1.712-26.462c0.248-1.934,0.498-3.892,0.729-6.018c0.23,2.125,0.481,4.082,0.729,6.015
		C-8.059,2.456-7.188,9.238-7.188,22.361z"/>
</g>
</svg>
