<?xml version="1.0" encoding="utf-8"?>
<!-- Generator: Adobe Illustrator 16.0.0, SVG Export Plug-In . SVG Version: 6.00 Build 0)  -->
<!DOCTYPE svg PUBLIC "-//W3C//DTD SVG 1.1//EN" "http://www.w3.org/Graphics/SVG/1.1/DTD/svg11.dtd">
<svg version="1.1" id="Layer_1" xmlns="http://www.w3.org/2000/svg" xmlns:xlink="http://www.w3.org/1999/xlink" x="0px" y="0px"
	 width="79.543px" height="28.39px" viewBox="0 0 79.543 28.39" enable-background="new 0 0 79.543 28.39" xml:space="preserve">
<path fill="#FFD4D5" d="M19.012,13.771c5.089,7.188,10.353,14.619,20.755,14.619c10.405,0,15.669-7.433,20.759-14.62
	C65.522,6.714,70.246,0.053,79.54,0H-0.003C9.292,0.053,14.015,6.715,19.012,13.771z M39.767,26.39
	c-8.427,0-13.107-5.416-17.613-11.66c4.292,4.584,9.317,8.498,17.613,8.498s13.323-3.912,17.614-8.495
	C52.875,20.975,48.194,26.39,39.767,26.39z M39.767,21.228c-9.227,0-13.962-5.243-18.861-10.899
	c4.596,4.024,9.758,7.737,18.861,7.737s14.266-3.71,18.861-7.734C53.729,15.986,48.994,21.228,39.767,21.228z M59.042,7.286
	c-5.024,4.515-9.769,8.779-19.274,8.779c-9.502,0-14.247-4.264-19.27-8.778c-0.29-0.261-0.58-0.521-0.872-0.781
	c4.961,3.182,10.188,6.396,20.142,6.396c9.955,0,15.182-3.213,20.142-6.394C59.619,6.768,59.33,7.027,59.042,7.286z M59.169,4.606
	c-5.043,3.238-9.807,6.296-19.402,6.296c-9.592,0-14.355-3.058-19.398-6.295c-0.606-0.389-1.214-0.779-1.833-1.165
	c0.311,0.119,0.622,0.238,0.933,0.358c5.027,1.937,10.225,3.938,20.294,3.938c0.003,0,0.004,0,0.008,0
	c10.072,0,15.271-2.003,20.299-3.939c0.312-0.12,0.622-0.239,0.933-0.358C60.384,3.827,59.775,4.218,59.169,4.606z M19.701,1.278
	c4.972,0.639,10.112,1.299,20.055,1.299c0.003,0,0.008,0,0.011,0c9.953,0,15.096-0.66,20.07-1.299
	c0.619-0.08,1.242-0.159,1.875-0.238c-0.802,0.295-1.585,0.595-2.362,0.894c-5.08,1.957-9.878,3.806-19.58,3.806
	c-0.003,0.001-0.005,0.001-0.008,0c-9.696,0-14.496-1.849-19.576-3.805c-0.778-0.3-1.562-0.6-2.365-0.895
	C18.457,1.118,19.08,1.198,19.701,1.278z"/>
</svg>
