<?xml version="1.0" encoding="utf-8"?>
<!-- Generator: Adobe Illustrator 16.0.0, SVG Export Plug-In . SVG Version: 6.00 Build 0)  -->
<!DOCTYPE svg PUBLIC "-//W3C//DTD SVG 1.1//EN" "http://www.w3.org/Graphics/SVG/1.1/DTD/svg11.dtd">
<svg version="1.1" id="Layer_1" xmlns="http://www.w3.org/2000/svg" xmlns:xlink="http://www.w3.org/1999/xlink" x="0px" y="0px"
	 width="1920px" height="1080px" viewBox="0 0 1920 1080" enable-background="new 0 0 1920 1080" xml:space="preserve">
<g>
	<path fill="none" stroke="#FFD4D5" stroke-width="3.0369" stroke-miterlimit="10" d="M1351.744,631.338
		c-276.678-9.968-492.898-242.333-482.934-519.014c9.969-276.667,242.342-492.879,519.018-482.911
		c276.679,9.963,492.898,242.325,482.931,519.004C1860.796,425.103,1628.414,641.306,1351.744,631.338z"/>
	<path fill="none" stroke="#FFD4D5" stroke-width="3.0369" stroke-miterlimit="10" d="M1352.059,622.629
		c-274.13-9.877-488.359-240.101-478.486-514.231c9.879-274.119,240.109-488.338,514.236-478.465
		c274.129,9.873,488.355,240.096,478.482,514.226C1856.418,418.294,1626.176,632.502,1352.059,622.629z"/>
	<path fill="none" stroke="#FFD4D5" stroke-width="3.0369" stroke-miterlimit="10" d="M1352.372,613.92
		c-271.579-9.785-483.815-237.866-474.034-509.45c9.785-271.57,237.877-483.797,509.453-474.016
		c271.581,9.781,483.814,237.864,474.033,509.444C1852.043,411.483,1623.942,623.703,1352.372,613.92z"/>
	<path fill="none" stroke="#FFD4D5" stroke-width="3.0369" stroke-miterlimit="10" d="M1352.686,605.209
		c-269.03-9.692-479.276-235.636-469.586-504.666c9.695-269.022,235.645-479.256,504.67-469.566
		c269.034,9.689,479.275,235.63,469.584,504.659C1847.664,404.674,1621.704,614.898,1352.686,605.209z"/>
	<path fill="none" stroke="#FFD4D5" stroke-width="3.0369" stroke-miterlimit="10" d="M1352.999,596.498
		c-266.479-9.6-474.732-233.401-465.135-499.884c9.603-266.473,233.411-474.714,499.888-465.117
		c266.482,9.599,474.732,233.397,465.132,499.879C1843.287,397.864,1619.471,606.098,1352.999,596.498z"/>
	<path fill="none" stroke="#FFD4D5" stroke-width="3.0369" stroke-miterlimit="10" d="M1353.312,587.788
		C1089.382,578.279,883.12,356.62,892.628,92.687c9.511-263.925,231.177-470.174,495.107-460.665
		c263.931,9.505,470.188,231.161,460.68,495.093C1838.911,391.053,1617.236,597.294,1353.312,587.788z"/>
	<path fill="none" stroke="#FFD4D5" stroke-width="3.0369" stroke-miterlimit="10" d="M1353.627,579.075
		c-261.38-9.418-465.649-228.933-456.236-490.318c9.421-261.373,228.944-465.633,490.322-456.217
		c261.384,9.414,465.651,228.932,456.234,490.313C1834.533,384.244,1615,588.492,1353.627,579.075z"/>
	<path fill="none" stroke="#FFD4D5" stroke-width="3.0369" stroke-miterlimit="10" d="M1353.939,570.365
		c-258.831-9.324-461.107-226.7-451.783-485.536c9.326-258.824,226.71-461.088,485.539-451.765
		c258.834,9.322,461.108,226.698,451.783,485.528C1830.156,377.435,1612.763,579.689,1353.939,570.365z"/>
	<path fill="none" stroke="#FFD4D5" stroke-width="3.0369" stroke-miterlimit="10" d="M1354.254,561.654
		c-256.283-9.231-456.567-224.467-447.332-480.753c9.232-256.275,224.477-456.547,480.756-447.316
		c256.285,9.229,456.564,224.465,447.332,480.748C1825.779,370.621,1610.528,570.885,1354.254,561.654z"/>
	<path fill="none" stroke="#FFD4D5" stroke-width="3.0369" stroke-miterlimit="10" d="M1354.567,552.946
		c-253.733-9.142-452.024-222.236-442.886-475.974c9.144-253.725,222.244-452.005,475.977-442.865
		c253.735,9.136,452.025,222.231,442.883,475.964C1821.402,363.813,1608.293,562.084,1354.567,552.946z"/>
	<path fill="none" stroke="#FFD4D5" stroke-width="3.0369" stroke-miterlimit="10" d="M1354.881,544.235
		c-251.184-9.049-447.482-220.003-438.435-471.191c9.052-251.176,220.013-447.463,471.193-438.418
		c251.187,9.048,447.481,220,438.435,471.183C1817.025,357.004,1606.059,553.283,1354.881,544.235z"/>
	<path fill="none" stroke="#FFD4D5" stroke-width="3.0369" stroke-miterlimit="10" d="M1355.195,535.523
		c-248.635-8.954-442.943-217.77-433.984-466.407c8.96-248.626,217.779-442.922,466.411-433.967
		c248.636,8.953,442.94,217.768,433.983,466.4C1812.649,350.195,1603.822,544.481,1355.195,535.523z"/>
	<path fill="none" stroke="#FFD4D5" stroke-width="3.0369" stroke-miterlimit="10" d="M1355.509,526.815
		c-246.086-8.865-438.401-215.538-429.535-461.625c8.868-246.078,215.545-438.384,461.628-429.52
		c246.086,8.863,438.4,215.534,429.532,461.618C1808.272,343.383,1601.587,535.679,1355.509,526.815z"/>
	<path fill="none" stroke="#FFD4D5" stroke-width="3.0369" stroke-miterlimit="10" d="M1355.824,518.102
		c-243.536-8.771-433.861-213.301-425.086-456.842c8.775-243.527,213.311-433.841,456.846-425.067
		c243.537,8.77,433.856,213.3,425.083,456.834C1803.895,336.573,1599.352,526.878,1355.824,518.102z"/>
	<path fill="none" stroke="#FFD4D5" stroke-width="3.0369" stroke-miterlimit="10" d="M1356.136,509.394
		c-240.987-8.68-429.314-211.07-420.634-452.062c8.683-240.977,211.08-429.299,452.062-420.618
		c240.988,8.678,429.316,211.067,420.633,452.054C1799.519,329.765,1597.114,518.074,1356.136,509.394z"/>
	<path fill="none" stroke="#FFD4D5" stroke-width="3.0369" stroke-miterlimit="10" d="M1356.451,500.682
		c-238.439-8.586-424.775-208.836-416.185-447.275c8.589-238.43,208.846-424.757,447.28-416.171
		c238.438,8.588,424.773,208.838,416.182,447.271C1795.143,322.954,1594.879,509.271,1356.451,500.682z"/>
	<path fill="none" stroke="#FFD4D5" stroke-width="3.0369" stroke-miterlimit="10" d="M1356.765,491.972
		c-235.888-8.495-420.235-206.606-411.735-442.497c8.5-235.88,206.612-420.216,442.496-411.719
		c235.889,8.494,420.232,206.602,411.732,442.488C1790.764,316.143,1592.644,500.47,1356.765,491.972z"/>
	<path fill="none" stroke="#FFD4D5" stroke-width="3.0369" stroke-miterlimit="10" d="M1357.077,483.266
		C1123.738,474.86,941.385,278.89,949.791,45.548c8.408-233.33,204.383-415.673,437.719-407.269
		c233.338,8.403,415.688,204.37,407.281,437.704C1786.387,309.333,1590.409,491.669,1357.077,483.266z"/>
	<path fill="none" stroke="#FFD4D5" stroke-width="3.0369" stroke-miterlimit="10" d="M1357.39,474.552
		c-230.788-8.31-411.149-202.138-402.833-432.931c8.314-230.782,202.146-411.132,432.934-402.818
		c230.79,8.31,411.146,202.135,402.834,432.92C1782.011,302.523,1588.172,482.867,1357.39,474.552z"/>
	<path fill="none" stroke="#FFD4D5" stroke-width="3.0369" stroke-miterlimit="10" d="M1357.703,465.843
		c-228.238-8.221-406.605-199.908-398.383-428.15c8.224-228.233,199.914-406.592,428.15-398.371
		c228.24,8.22,406.606,199.904,398.386,428.141C1777.633,295.712,1585.936,474.066,1357.703,465.843z"/>
	<path fill="none" stroke="#FFD4D5" stroke-width="3.0369" stroke-miterlimit="10" d="M1358.02,457.131
		c-225.69-8.126-402.068-197.675-393.936-423.366c8.133-225.685,197.681-402.052,423.369-393.924
		c225.689,8.129,402.065,197.671,393.932,423.36C1773.256,288.899,1583.701,465.264,1358.02,457.131z"/>
	<path fill="none" stroke="#FFD4D5" stroke-width="3.0369" stroke-miterlimit="10" d="M1358.333,448.421
		c-223.142-8.035-397.526-195.441-389.486-418.586c8.039-223.131,195.449-397.508,418.585-389.471
		c223.143,8.038,397.524,195.439,389.485,418.577C1768.879,282.09,1581.465,456.46,1358.333,448.421z"/>
	<path fill="none" stroke="#FFD4D5" stroke-width="3.0369" stroke-miterlimit="10" d="M1358.646,439.714
		c-220.591-7.947-392.984-193.211-385.035-413.806c7.948-220.584,193.215-392.967,413.805-385.021
		c220.591,7.944,392.981,193.203,385.032,413.794C1764.502,275.282,1579.229,447.659,1358.646,439.714z"/>
	<path fill="none" stroke="#FFD4D5" stroke-width="3.0369" stroke-miterlimit="10" d="M1358.962,431.002
		c-218.045-7.853-388.447-190.978-380.587-409.021c7.856-218.033,190.98-388.426,409.021-380.57
		c218.042,7.852,388.438,190.968,380.585,409.008C1760.125,268.472,1576.994,438.857,1358.962,431.002z"/>
	<path fill="none" stroke="#FFD4D5" stroke-width="3.0369" stroke-miterlimit="10" d="M1359.274,422.29
		c-215.493-7.76-383.902-188.743-376.137-404.24c7.767-215.482,188.749-383.883,404.24-376.12
		c215.491,7.759,383.898,188.739,376.132,404.229C1755.748,261.661,1574.758,430.054,1359.274,422.29z"/>
	<path fill="none" stroke="#FFD4D5" stroke-width="3.0369" stroke-miterlimit="10" d="M1359.586,413.581
		c-212.941-7.67-379.357-186.513-371.685-399.457c7.671-212.936,186.517-379.343,399.458-371.673
		c212.942,7.669,379.355,186.507,371.684,399.446C1751.371,254.852,1572.522,421.254,1359.586,413.581z"/>
	<path fill="none" stroke="#FFD4D5" stroke-width="3.0369" stroke-miterlimit="10" d="M1359.9,404.872
		c-210.394-7.58-374.817-184.279-367.236-394.677c7.58-210.386,184.283-374.799,394.676-367.222
		c210.393,7.578,374.813,184.272,367.233,394.664C1746.994,248.042,1570.287,412.452,1359.9,404.872z"/>
	<path fill="none" stroke="#FFD4D5" stroke-width="3.0369" stroke-miterlimit="10" d="M1360.213,396.161
		c-207.842-7.486-370.273-182.044-362.784-389.895c7.489-207.836,182.05-370.257,389.894-362.771
		c207.844,7.484,370.271,182.04,362.783,389.882C1742.619,241.231,1568.051,403.648,1360.213,396.161z"/>
	<path fill="none" stroke="#FFD4D5" stroke-width="3.0369" stroke-miterlimit="10" d="M1360.528,387.447
		c-205.296-7.392-365.733-179.81-358.337-385.108c7.396-205.288,179.818-365.718,385.109-358.322
		c205.296,7.393,365.732,179.806,358.338,385.101C1738.241,234.423,1565.816,394.845,1360.528,387.447z"/>
	<path fill="none" stroke="#FFD4D5" stroke-width="3.0369" stroke-miterlimit="10" d="M1360.842,378.74
		c-202.746-7.304-361.194-177.579-353.885-380.328c7.305-202.74,177.583-361.176,380.328-353.872
		c202.745,7.301,361.188,177.572,353.885,380.315C1733.864,227.612,1563.582,386.046,1360.842,378.74z"/>
	<path fill="none" stroke="#FFD4D5" stroke-width="3.0369" stroke-miterlimit="10" d="M1361.156,370.028
		c-200.196-7.208-356.652-175.346-349.435-375.544c7.212-200.191,175.349-356.637,375.544-349.423
		c200.194,7.208,356.646,175.34,349.434,375.531C1729.486,220.802,1561.346,377.241,1361.156,370.028z"/>
	<path fill="none" stroke="#FFD4D5" stroke-width="3.0369" stroke-miterlimit="10" d="M1361.469,361.317
		c-197.647-7.117-352.11-173.112-344.986-370.762c7.122-197.642,173.119-352.092,370.764-344.975
		c197.646,7.119,352.104,173.108,344.986,370.753C1725.109,213.991,1559.109,368.441,1361.469,361.317z"/>
	<path fill="none" stroke="#FFD4D5" stroke-width="3.0369" stroke-miterlimit="10" d="M1361.783,352.605
		c-195.098-7.024-347.568-170.878-340.535-365.979c7.029-195.09,170.885-347.552,365.98-340.523
		c195.096,7.026,347.562,170.873,340.532,365.97C1720.732,207.178,1556.875,359.635,1361.783,352.605z"/>
	<path fill="none" stroke="#FFD4D5" stroke-width="3.0369" stroke-miterlimit="10" d="M1362.097,343.897
		c-192.548-6.936-343.027-168.646-336.087-361.197c6.939-192.542,168.652-343.012,361.2-336.074
		c192.545,6.935,343.021,168.642,336.084,361.186C1716.355,200.371,1554.64,350.834,1362.097,343.897z"/>
	<path fill="none" stroke="#FFD4D5" stroke-width="3.0369" stroke-miterlimit="10" d="M1362.409,335.187
		c-189.996-6.841-338.484-166.412-331.636-356.416c6.848-189.992,166.419-338.467,356.418-331.623
		c189.998,6.841,338.479,166.41,331.634,356.405C1711.979,193.561,1552.402,342.034,1362.409,335.187z"/>
	<path fill="none" stroke="#FFD4D5" stroke-width="3.0369" stroke-miterlimit="10" d="M1362.725,326.476
		c-187.451-6.75-333.942-164.179-327.186-351.633c6.752-187.443,164.185-333.926,351.634-327.174
		c187.445,6.749,333.937,164.175,327.183,351.622C1707.602,186.751,1550.167,333.23,1362.725,326.476z"/>
	<path fill="none" stroke="#FFD4D5" stroke-width="3.0369" stroke-miterlimit="10" d="M1363.039,317.766
		c-184.902-6.66-329.403-161.947-322.736-346.853c6.66-184.893,161.951-329.385,346.85-322.725
		c184.899,6.66,329.398,161.943,322.736,346.84C1703.224,179.939,1547.931,324.428,1363.039,317.766z"/>
	<path fill="none" stroke="#FFD4D5" stroke-width="3.0369" stroke-miterlimit="10" d="M1363.353,309.054
		C1181,302.489,1038.49,149.341,1045.066-33.013c6.568-182.346,159.719-324.847,342.069-318.276
		c182.347,6.565,324.856,159.711,318.284,342.057C1698.849,173.128,1545.695,315.628,1363.353,309.054z"/>
	<path fill="none" stroke="#FFD4D5" stroke-width="3.0369" stroke-miterlimit="10" d="M1363.665,300.345
		c-179.799-6.475-320.319-157.48-313.837-337.286c6.479-179.794,157.486-320.303,337.287-313.825
		c179.8,6.475,320.314,157.479,313.835,337.276C1694.471,166.32,1543.459,306.824,1363.665,300.345z"/>
	<path fill="none" stroke="#FFD4D5" stroke-width="3.0369" stroke-miterlimit="10" d="M1363.979,291.633
		c-177.252-6.381-315.778-155.247-309.386-332.502c6.383-177.245,155.252-315.761,332.504-309.376
		c177.25,6.382,315.771,155.244,309.383,332.49C1690.094,159.509,1541.225,298.021,1363.979,291.633z"/>
	<path fill="none" stroke="#FFD4D5" stroke-width="3.0369" stroke-miterlimit="10" d="M1364.292,282.923
		c-174.702-6.291-311.235-153.016-304.935-327.719c6.291-174.697,153.021-311.222,327.72-304.928
		c174.702,6.29,311.231,153.01,304.935,327.708C1685.718,152.698,1538.99,289.219,1364.292,282.923z"/>
	<path fill="none" stroke="#FFD4D5" stroke-width="3.0369" stroke-miterlimit="10" d="M1364.605,274.212
		c-172.154-6.198-306.691-150.781-300.484-322.938c6.2-172.148,150.787-306.679,322.938-300.478s306.688,150.779,300.484,322.929
		C1681.339,145.889,1536.754,280.416,1364.605,274.212z"/>
	<path fill="none" stroke="#FFD4D5" stroke-width="3.0369" stroke-miterlimit="10" d="M1364.922,265.502
		c-169.606-6.106-302.155-148.548-296.037-318.154c6.107-169.6,148.551-302.138,318.156-296.027
		c169.602,6.107,302.146,148.546,296.033,318.142C1676.963,139.078,1534.519,271.614,1364.922,265.502z"/>
	<path fill="none" stroke="#FFD4D5" stroke-width="3.0369" stroke-miterlimit="10" d="M1365.234,256.79
		c-167.055-6.011-297.612-146.314-291.586-313.371c6.018-167.049,146.32-297.595,313.373-291.578
		c167.052,6.016,297.604,146.313,291.586,313.362C1672.587,132.269,1532.281,262.812,1365.234,256.79z"/>
	<path fill="none" stroke="#FFD4D5" stroke-width="3.0369" stroke-miterlimit="10" d="M1365.549,248.08
		c-164.505-5.921-293.072-144.082-287.137-308.591c5.926-164.499,144.087-293.053,308.591-287.128
		c164.502,5.923,293.063,144.083,287.136,308.581C1668.208,125.457,1530.046,254.009,1365.549,248.08z"/>
	<path fill="none" stroke="#FFD4D5" stroke-width="3.0369" stroke-miterlimit="10" d="M1365.862,239.37
		c-161.956-5.829-288.526-141.85-282.688-303.809c5.835-161.95,141.854-288.513,303.81-282.679
		c161.953,5.832,288.521,141.85,282.686,303.798C1663.83,118.647,1527.812,245.208,1365.862,239.37z"/>
	<path fill="none" stroke="#FFD4D5" stroke-width="3.0369" stroke-miterlimit="10" d="M1366.174,230.661
		c-159.406-5.738-283.984-139.616-278.234-299.027c5.742-159.399,139.62-283.97,299.027-278.228
		c159.402,5.739,283.979,139.615,278.234,299.013C1659.455,111.839,1525.576,236.405,1366.174,230.661z"/>
	<path fill="none" stroke="#FFD4D5" stroke-width="3.0369" stroke-miterlimit="10" d="M1366.488,221.947
		c-156.856-5.645-279.443-137.38-273.786-294.239c5.649-156.854,137.39-279.43,294.245-273.781
		c156.854,5.649,279.436,137.382,273.784,294.235C1655.08,105.028,1523.34,227.601,1366.488,221.947z"/>
	<path fill="none" stroke="#FFD4D5" stroke-width="3.0369" stroke-miterlimit="10" d="M1366.801,213.237
		c-154.307-5.553-274.899-135.149-269.334-289.46c5.559-154.301,135.154-274.886,289.461-269.329
		c154.304,5.557,274.896,135.146,269.338,289.45C1650.701,98.218,1521.104,218.802,1366.801,213.237z"/>
	<path fill="none" stroke="#FFD4D5" stroke-width="3.0369" stroke-miterlimit="10" d="M1367.115,204.528
		c-151.757-5.463-270.359-132.916-264.885-284.68c5.466-151.753,132.92-270.346,284.678-264.878
		c151.757,5.464,270.354,132.916,264.887,284.665C1646.325,91.407,1518.869,209.997,1367.115,204.528z"/>
	<path fill="none" stroke="#FFD4D5" stroke-width="3.0369" stroke-miterlimit="10" d="M1367.43,195.818
		c-149.21-5.372-265.82-130.685-260.437-279.896c5.375-149.205,130.688-265.806,279.897-260.43
		c149.205,5.373,265.812,130.682,260.438,279.887C1641.945,84.599,1516.633,201.197,1367.43,195.818z"/>
	<path fill="none" stroke="#FFD4D5" stroke-width="3.0369" stroke-miterlimit="10" d="M1367.744,187.107
		c-146.66-5.278-261.28-128.452-255.988-275.115c5.283-146.653,128.457-261.261,275.115-255.979
		c146.657,5.283,261.273,128.452,255.986,275.104C1637.57,77.788,1514.4,192.394,1367.744,187.107z"/>
	<path fill="none" stroke="#FFD4D5" stroke-width="3.0369" stroke-miterlimit="10" d="M1368.057,178.396
		c-144.109-5.186-256.734-126.218-251.536-270.332c5.19-144.106,126.222-256.722,270.333-251.531
		c144.107,5.19,256.729,126.217,251.535,270.321C1633.195,70.978,1512.161,183.591,1368.057,178.396z"/>
	<path fill="none" stroke="#FFD4D5" stroke-width="3.0369" stroke-miterlimit="10" d="M1368.369,169.687
		c-141.56-5.096-252.193-123.983-247.084-265.55c5.098-141.557,123.988-252.18,265.549-247.081
		c141.558,5.1,252.188,123.986,247.087,265.539C1628.814,64.167,1509.926,174.79,1368.369,169.687z"/>
	<path fill="none" stroke="#FFD4D5" stroke-width="3.0369" stroke-miterlimit="10" d="M1368.684,160.974
		c-139.009-5.001-247.651-121.749-242.637-260.766c5.006-139.007,121.758-247.637,260.768-242.63
		c139.008,5.007,247.646,121.751,242.638,260.757C1624.438,57.358,1507.689,165.989,1368.684,160.974z"/>
	<path fill="none" stroke="#FFD4D5" stroke-width="3.0369" stroke-miterlimit="10" d="M1368.998,152.264
		c-136.462-4.909-243.111-119.518-238.186-255.983c4.914-136.457,119.523-243.096,255.982-238.182
		c136.46,4.915,243.105,119.521,238.188,255.973C1620.062,50.546,1505.455,157.185,1368.998,152.264z"/>
	<path fill="none" stroke="#FFD4D5" stroke-width="3.0369" stroke-miterlimit="10" d="M1369.311,143.556
		c-133.91-4.819-238.568-117.287-233.736-251.203c4.823-133.908,117.292-238.554,251.205-233.73
		c133.907,4.822,238.561,117.285,233.734,251.189C1615.686,43.737,1503.219,148.383,1369.311,143.556z"/>
	<path fill="none" stroke="#FFD4D5" stroke-width="3.0369" stroke-miterlimit="10" d="M1369.624,134.843
		c-131.362-4.725-234.026-115.051-229.284-246.418c4.73-131.358,115.057-234.013,246.42-229.282
		c131.358,4.731,234.019,115.054,229.287,246.409C1611.309,36.928,1500.982,139.581,1369.624,134.843z"/>
	<path fill="none" stroke="#FFD4D5" stroke-width="3.0369" stroke-miterlimit="10" d="M1369.938,126.133
		c-128.812-4.633-229.484-112.817-224.835-241.635c4.639-128.812,112.823-229.474,241.64-224.834
		c128.809,4.639,229.477,112.821,224.836,241.627C1606.932,30.116,1498.746,130.777,1369.938,126.133z"/>
	<path fill="none" stroke="#FFD4D5" stroke-width="3.0369" stroke-miterlimit="10" d="M1370.252,117.423
		c-126.265-4.543-224.944-110.587-220.385-236.853c4.545-126.26,110.592-224.932,236.855-220.384
		c126.261,4.547,224.938,110.587,220.389,236.844C1602.555,23.307,1496.513,121.977,1370.252,117.423z"/>
	<path fill="none" stroke="#FFD4D5" stroke-width="3.0369" stroke-miterlimit="10" d="M1370.566,108.711
		c-123.715-4.452-220.402-108.353-215.936-232.069c4.455-123.714,108.355-220.389,232.072-215.934
		c123.71,4.455,220.394,108.354,215.936,232.062C1598.177,16.496,1494.277,113.174,1370.566,108.711z"/>
	<path fill="none" stroke="#FFD4D5" stroke-width="3.0369" stroke-miterlimit="10" d="M1370.881,100.001
		c-121.166-4.357-215.862-106.119-211.485-227.289c4.362-121.162,106.124-215.846,227.288-211.482
		c121.162,4.362,215.854,106.122,211.487,227.279C1593.801,9.685,1492.042,104.372,1370.881,100.001z"/>
	<path fill="none" stroke="#FFD4D5" stroke-width="3.0369" stroke-miterlimit="10" d="M1371.193,91.291
		c-118.615-4.267-211.32-103.886-207.035-222.506c4.271-118.613,103.891-211.306,222.508-207.032
		c118.612,4.271,211.31,103.887,207.035,222.494C1589.424,2.875,1489.805,95.568,1371.193,91.291z"/>
	<path fill="none" stroke="#FFD4D5" stroke-width="3.0369" stroke-miterlimit="10" d="M1371.506,82.582
		c-116.064-4.176-206.775-101.654-202.585-217.725c4.179-116.065,101.659-206.765,217.728-202.583
		c116.061,4.18,206.766,101.653,202.586,217.713C1585.047-3.936,1487.571,86.767,1371.506,82.582z"/>
	<path fill="none" stroke="#FFD4D5" stroke-width="3.0369" stroke-miterlimit="10" d="M1371.82,73.869
		c-113.517-4.08-202.234-99.421-198.137-212.94c4.09-113.515,99.426-202.223,212.944-198.133
		c113.514,4.087,202.228,99.422,198.138,212.932C1580.669-10.746,1485.334,77.964,1371.82,73.869z"/>
	<path fill="none" stroke="#FFD4D5" stroke-width="3.0369" stroke-miterlimit="10" d="M1372.135,65.158
		c-110.968-3.988-197.693-97.186-193.686-208.159c3.994-110.961,97.191-197.681,208.16-193.686
		c110.963,3.996,197.686,97.191,193.687,208.152C1576.291-17.555,1483.099,69.162,1372.135,65.158z"/>
	<path fill="none" stroke="#FFD4D5" stroke-width="3.0369" stroke-miterlimit="10" d="M1372.447,56.448
		c-108.418-3.899-193.152-94.953-189.235-203.375c3.903-108.415,94.958-193.141,203.379-189.235
		c108.415,3.903,193.144,94.955,189.238,203.365C1571.917-24.365,1480.863,60.359,1372.447,56.448z"/>
	<path fill="none" stroke="#FFD4D5" stroke-width="3.0369" stroke-miterlimit="10" d="M1372.762,47.737
		c-105.868-3.806-188.612-92.719-184.785-198.595c3.81-105.865,92.723-188.597,198.597-184.784
		c105.864,3.813,188.603,92.724,184.786,198.585C1567.539-31.175,1478.627,51.558,1372.762,47.737z"/>
	<path fill="none" stroke="#FFD4D5" stroke-width="3.0369" stroke-miterlimit="10" d="M1373.076,39.028
		c-103.32-3.715-184.07-90.487-180.338-193.812c3.72-103.316,90.492-184.057,193.815-180.334
		c103.314,3.72,184.06,90.488,180.337,193.8C1563.162-37.984,1476.395,42.756,1373.076,39.028z"/>
	<path fill="none" stroke="#FFD4D5" stroke-width="3.0369" stroke-miterlimit="10" d="M1373.389,30.317
		c-100.77-3.624-179.527-88.256-175.883-189.029c3.625-100.768,88.258-179.515,189.029-175.885
		c100.765,3.629,179.518,88.259,175.887,189.018C1558.785-44.794,1474.157,33.953,1373.389,30.317z"/>
	<path fill="none" stroke="#FFD4D5" stroke-width="3.0369" stroke-miterlimit="10" d="M1373.705,21.606
		c-98.222-3.529-174.987-86.021-171.438-184.248c3.535-98.218,86.027-174.973,184.249-171.436
		c98.216,3.537,174.978,86.026,171.437,184.236C1554.407-51.604,1471.921,25.149,1373.705,21.606z"/>
	<path fill="none" stroke="#FFD4D5" stroke-width="3.0369" stroke-miterlimit="10" d="M1374.016,12.895
		c-95.67-3.438-170.443-83.788-166.986-179.464c3.445-95.668,83.793-170.431,179.467-166.984
		c95.667,3.445,170.435,83.79,166.99,179.455C1550.031-58.416,1469.686,16.351,1374.016,12.895z"/>
	<path fill="none" stroke="#FFD4D5" stroke-width="3.0369" stroke-miterlimit="10" d="M1374.328,4.185
		c-93.119-3.346-165.901-81.555-162.533-174.681c3.354-93.118,81.561-165.892,174.683-162.538
		c93.118,3.354,165.895,81.561,162.54,174.674C1545.652-65.226,1467.449,7.546,1374.328,4.185z"/>
	<path fill="none" stroke="#FFD4D5" stroke-width="3.0369" stroke-miterlimit="10" d="M1374.645-4.524
		c-90.573-3.255-161.363-79.322-158.087-169.899c3.26-90.569,79.329-161.349,169.903-158.087
		c90.564,3.262,161.351,79.326,158.084,169.89C1541.278-72.034,1465.215-1.255,1374.645-4.524z"/>
	<path fill="none" stroke="#FFD4D5" stroke-width="3.0369" stroke-miterlimit="10" d="M1374.958-13.235
		c-88.022-3.165-156.821-77.09-153.634-165.117c3.166-88.021,77.094-156.808,165.119-153.637
		c88.016,3.171,156.808,77.095,153.637,165.107C1536.899-78.847,1462.978-10.058,1374.958-13.235z"/>
	<path fill="none" stroke="#FFD4D5" stroke-width="3.0369" stroke-miterlimit="10" d="M1375.273-21.946
		c-85.475-3.071-152.28-74.856-149.186-160.334c3.075-85.473,74.859-152.266,160.336-149.188
		c85.467,3.077,152.266,74.859,149.188,160.324C1532.523-85.656,1460.745-18.86,1375.273-21.946z"/>
	<path fill="none" stroke="#FFD4D5" stroke-width="3.0369" stroke-miterlimit="10" d="M1375.586-30.658
		c-82.926-2.978-147.737-72.622-144.736-155.551c2.984-82.921,72.629-147.724,155.555-144.736
		c82.919,2.985,147.727,72.626,144.738,155.542C1528.145-92.466,1458.507-27.662,1375.586-30.658z"/>
	<path fill="none" stroke="#FFD4D5" stroke-width="3.0369" stroke-miterlimit="10" d="M1375.898-39.367
		c-80.373-2.888-143.193-70.392-140.284-150.769c2.892-80.372,70.394-143.185,150.771-140.289
		c80.369,2.894,143.186,70.396,140.287,150.76C1523.77-99.275,1456.271-36.465,1375.898-39.367z"/>
	<path fill="none" stroke="#FFD4D5" stroke-width="3.0369" stroke-miterlimit="10" d="M1376.213-48.077
		c-77.824-2.798-138.654-68.158-135.836-145.989c2.801-77.822,68.162-138.641,145.99-135.837
		c77.818,2.801,138.643,68.162,135.838,145.979C1519.393-106.087,1454.036-45.269,1376.213-48.077z"/>
	<path fill="none" stroke="#FFD4D5" stroke-width="3.0369" stroke-miterlimit="10" d="M1376.525-56.788
		c-75.274-2.705-134.111-65.924-131.385-141.205c2.708-75.275,65.928-134.1,141.205-131.388
		c75.271,2.71,134.104,65.929,131.39,141.192C1515.017-112.897,1451.801-54.069,1376.525-56.788z"/>
	<path fill="none" stroke="#FFD4D5" stroke-width="3.0369" stroke-miterlimit="10" d="M1376.842-65.501
		c-72.727-2.609-129.572-63.689-126.938-136.421c2.617-72.724,63.696-129.557,136.424-126.938
		c72.722,2.617,129.561,63.695,126.939,136.413C1510.639-119.708,1449.564-62.873,1376.842-65.501z"/>
	<path fill="none" stroke="#FFD4D5" stroke-width="3.0369" stroke-miterlimit="10" d="M1377.153-74.21
		c-70.177-2.521-125.026-61.456-122.485-131.639c2.524-70.176,61.463-125.018,131.643-122.489
		c70.17,2.526,125.017,61.463,122.487,131.63C1506.26-126.518,1447.33-71.674,1377.153-74.21z"/>
	<path fill="none" stroke="#FFD4D5" stroke-width="3.0369" stroke-miterlimit="10" d="M1377.469-82.92
		c-67.629-2.427-120.488-59.226-118.036-126.858c2.431-67.625,59.229-120.474,126.86-118.037
		c67.619,2.433,120.475,59.229,118.038,126.847C1501.883-133.327,1445.094-80.478,1377.469-82.92z"/>
	<path fill="none" stroke="#FFD4D5" stroke-width="3.0369" stroke-miterlimit="10" d="M1377.782-91.632
		c-65.078-2.336-115.946-56.99-113.587-122.073c2.34-65.078,56.995-115.935,122.078-113.59
		c65.072,2.343,115.933,56.997,113.587,122.063C1497.506-140.138,1442.857-89.278,1377.782-91.632z"/>
	<path fill="none" stroke="#FFD4D5" stroke-width="3.0369" stroke-miterlimit="10" d="M1378.095-100.341
		c-62.528-2.244-111.403-54.76-109.137-117.293c2.25-62.525,54.765-111.394,117.296-109.141
		c62.523,2.251,111.391,54.765,109.139,117.283C1493.131-146.947,1440.622-98.081,1378.095-100.341z"/>
	<path fill="none" stroke="#FFD4D5" stroke-width="3.0369" stroke-miterlimit="10" d="M1378.41-109.053
		c-59.98-2.15-106.864-52.524-104.688-112.511c2.155-59.977,52.529-106.851,112.514-104.688
		c59.97,2.158,106.849,52.529,104.687,112.498C1488.753-153.759,1438.387-106.886,1378.41-109.053z"/>
	<path fill="none" stroke="#FFD4D5" stroke-width="3.0369" stroke-miterlimit="10" d="M1378.723-117.763
		c-57.432-2.061-102.322-50.293-100.237-107.727c2.066-57.43,50.298-102.312,107.731-100.242
		c57.424,2.068,102.31,50.3,100.237,107.719C1484.375-160.568,1436.151-115.686,1378.723-117.763z"/>
	<path fill="none" stroke="#FFD4D5" stroke-width="3.0369" stroke-miterlimit="10" d="M1379.035-126.473
		c-54.879-1.968-97.777-48.06-95.784-102.944c1.974-54.881,48.064-97.769,102.946-95.79c54.875,1.974,97.768,48.063,95.789,102.933
		C1479.998-167.379,1433.916-124.487,1379.035-126.473z"/>
	<path fill="none" stroke="#FFD4D5" stroke-width="3.0369" stroke-miterlimit="10" d="M1379.351-135.184
		c-52.331-1.877-93.238-45.826-91.335-98.163c1.879-52.33,45.828-93.225,98.162-91.34c52.326,1.884,93.229,45.832,91.341,98.152
		C1475.621-174.188,1431.682-133.291,1379.351-135.184z"/>
	<path fill="none" stroke="#FFD4D5" stroke-width="3.0369" stroke-miterlimit="10" d="M1379.664-143.894
		c-49.783-1.784-88.696-43.594-86.886-93.382c1.788-49.778,43.597-88.684,93.382-86.89c49.773,1.794,88.683,43.602,86.887,93.371
		C1471.244-180.999,1429.445-142.092,1379.664-143.894z"/>
	<path fill="none" stroke="#FFD4D5" stroke-width="3.0369" stroke-miterlimit="10" d="M1379.977-152.606
		c-47.23-1.691-84.153-41.358-82.435-88.596c1.696-47.231,41.365-84.145,88.601-82.441c47.226,1.699,84.142,41.366,82.438,88.588
		C1466.867-187.81,1427.209-150.894,1379.977-152.606z"/>
	<path fill="none" stroke="#FFD4D5" stroke-width="3.0369" stroke-miterlimit="10" d="M1380.291-161.314
		c-44.684-1.601-79.613-39.128-77.986-83.815c1.605-44.68,39.133-79.602,83.818-77.99c44.676,1.605,79.6,39.132,77.988,83.805
		C1462.49-194.619,1424.973-159.696,1380.291-161.314z"/>
	<path fill="none" stroke="#FFD4D5" stroke-width="3.0369" stroke-miterlimit="10" d="M1380.604-170.026
		c-42.132-1.508-75.07-36.893-73.533-79.031c1.51-42.134,36.898-75.061,79.033-73.541c42.125,1.516,75.061,36.9,73.539,79.021
		C1458.114-201.428,1422.736-168.499,1380.604-170.026z"/>
	<path fill="none" stroke="#FFD4D5" stroke-width="3.0369" stroke-miterlimit="10" d="M1380.918-178.738
		c-39.586-1.416-70.529-34.66-69.084-74.25c1.42-39.582,34.664-70.518,74.252-69.089c39.576,1.422,70.518,34.666,69.089,74.238
		C1453.736-208.239,1420.502-177.302,1380.918-178.738z"/>
	<path fill="none" stroke="#FFD4D5" stroke-width="3.0369" stroke-miterlimit="10" d="M1381.231-187.446
		c-37.034-1.324-65.985-32.427-64.636-69.469c1.329-37.034,32.434-65.975,69.471-64.642c37.027,1.333,65.975,32.436,64.639,69.458
		C1449.359-215.05,1418.266-186.104,1381.231-187.446z"/>
	<path fill="none" stroke="#FFD4D5" stroke-width="3.0369" stroke-miterlimit="10" d="M1381.545-196.157
		c-34.485-1.233-61.444-30.195-60.186-64.686c1.238-34.485,30.2-61.435,64.688-60.193c34.478,1.242,61.436,30.205,60.19,64.677
		C1444.982-221.859,1416.03-194.905,1381.545-196.157z"/>
	<path fill="none" stroke="#FFD4D5" stroke-width="3.0369" stroke-miterlimit="10" d="M1381.857-204.867
		c-31.935-1.142-56.902-27.962-55.735-59.904c1.146-31.935,27.968-56.893,59.905-55.741c31.928,1.146,56.893,27.969,55.742,59.893
		C1440.605-228.669,1413.795-203.708,1381.857-204.867z"/>
	<path fill="none" stroke="#FFD4D5" stroke-width="3.0369" stroke-miterlimit="10" d="M1382.173-213.579
		c-29.388-1.047-52.362-25.729-51.286-55.12c1.053-29.386,25.732-52.353,55.125-51.292c29.379,1.057,52.35,25.736,51.288,55.11
		C1436.229-235.48,1411.56-212.511,1382.173-213.579z"/>
	<path fill="none" stroke="#FFD4D5" stroke-width="3.0369" stroke-miterlimit="10" d="M1382.486-222.29
		c-26.837-0.956-47.82-23.495-46.834-50.338c0.959-26.838,23.499-47.811,50.339-46.843c26.83,0.967,47.808,23.504,46.84,50.327
		C1431.852-242.29,1409.324-221.313,1382.486-222.29z"/>
	<path fill="none" stroke="#FFD4D5" stroke-width="3.0369" stroke-miterlimit="10" d="M1382.8-230.999
		c-24.288-0.865-43.278-21.264-42.385-45.559c0.868-24.286,21.267-43.268,45.558-42.393c24.281,0.874,43.267,21.271,42.389,45.546
		C1427.476-249.1,1407.088-230.116,1382.8-230.999z"/>
	<path fill="none" stroke="#FFD4D5" stroke-width="3.0369" stroke-miterlimit="10" d="M1383.115-239.711
		c-21.739-0.772-38.738-19.029-37.938-40.772c0.777-21.738,19.035-38.727,40.777-37.945c21.729,0.784,38.723,19.037,37.939,40.763
		C1423.098-255.91,1404.852-238.917,1383.115-239.711z"/>
	<path fill="none" stroke="#FFD4D5" stroke-width="3.0369" stroke-miterlimit="10" d="M1383.428-248.42
		c-19.188-0.683-34.195-16.798-33.484-35.991c0.685-19.189,16.801-34.186,35.992-33.494c19.181,0.688,34.184,16.804,33.489,35.98
		C1418.721-262.72,1402.616-247.72,1383.428-248.42z"/>
	<path fill="none" stroke="#FFD4D5" stroke-width="3.0369" stroke-miterlimit="10" d="M1383.741-257.132
		c-16.64-0.59-29.655-14.562-29.036-31.208c0.596-16.641,14.568-29.643,31.211-29.044c16.633,0.598,29.641,14.571,29.041,31.197
		C1414.344-269.53,1400.381-256.521,1383.741-257.132z"/>
	<path fill="none" stroke="#FFD4D5" stroke-width="3.0369" stroke-miterlimit="10" d="M1384.055-265.843
		c-14.09-0.496-25.111-12.328-24.585-26.426c0.501-14.088,12.333-25.104,26.429-24.594c14.084,0.506,25.101,12.338,24.59,26.417
		C1409.968-276.341,1398.146-265.324,1384.055-265.843z"/>
	<path fill="none" stroke="#FFD4D5" stroke-width="3.0369" stroke-miterlimit="10" d="M1384.368-274.554
		c-11.542-0.403-20.571-10.096-20.135-21.643c0.409-11.541,10.101-20.561,21.645-20.145c11.532,0.414,20.56,10.106,20.14,21.633
		C1405.591-283.149,1395.911-274.126,1384.368-274.554z"/>
	<path fill="none" stroke="#FFD4D5" stroke-width="3.0369" stroke-miterlimit="10" d="M1384.684-283.263
		c-8.992-0.312-16.031-7.865-15.686-16.863c0.316-8.991,7.867-16.021,16.861-15.693c8.984,0.322,16.018,7.872,15.691,16.852
		C1401.214-289.96,1393.674-282.93,1384.684-283.263z"/>
	<path fill="none" stroke="#FFD4D5" stroke-width="3.0369" stroke-miterlimit="10" d="M1384.996-291.975
		c-6.441-0.219-11.486-5.631-11.236-12.079c0.227-6.441,5.636-11.478,12.082-11.244c6.434,0.23,11.473,5.64,11.24,12.068
		C1396.837-296.772,1391.439-291.733,1384.996-291.975z"/>
	<path fill="none" stroke="#FFD4D5" stroke-width="3.0369" stroke-miterlimit="10" d="M1385.311-300.685
		c-3.893-0.14-6.935-3.396-6.785-7.296c0.146-3.893,3.4-6.937,7.299-6.796c3.885,0.138,6.932,3.406,6.787,7.287
		C1392.459-303.581,1389.203-300.544,1385.311-300.685z"/>
	<path fill="none" stroke="#FFD4D5" stroke-width="3.0369" stroke-miterlimit="10" d="M1385.624-309.396
		c1.346,0.06,2.46-0.994,2.521-2.355c0.049-1.33-1.005-2.456-2.34-2.502c-1.348-0.051-2.475,1.002-2.516,2.346
		C1383.221-310.56,1384.28-309.433,1385.624-309.396z"/>
</g>
</svg>
