<?xml version="1.0" encoding="utf-8"?>
<!-- Generator: Adobe Illustrator 16.0.0, SVG Export Plug-In . SVG Version: 6.00 Build 0)  -->
<!DOCTYPE svg PUBLIC "-//W3C//DTD SVG 1.1//EN" "http://www.w3.org/Graphics/SVG/1.1/DTD/svg11.dtd">
<svg version="1.1" id="Layer_1" xmlns="http://www.w3.org/2000/svg" xmlns:xlink="http://www.w3.org/1999/xlink" x="0px" y="0px"
	 width="1920px" height="1080px" viewBox="0 0 1920 1080" enable-background="new 0 0 1920 1080" xml:space="preserve">
<g>
	<path fill="none" stroke="#FFD4D5" stroke-width="3.0369" stroke-miterlimit="10" d="M568.255,442.28
		c276.679,9.968,492.899,242.343,482.934,519.023c-9.969,276.667-242.342,492.879-519.017,482.911
		c-276.679-9.963-492.898-242.325-482.931-519.004C59.204,648.525,291.585,432.312,568.255,442.28z"/>
	<path fill="none" stroke="#FFD4D5" stroke-width="3.0369" stroke-miterlimit="10" d="M567.941,450.989
		c274.13,9.877,488.36,240.11,478.487,514.241c-9.879,274.119-240.11,488.338-514.236,478.465
		C258.062,1433.822,43.835,1203.6,53.709,929.47C63.582,655.334,293.824,441.116,567.941,450.989z"/>
	<path fill="none" stroke="#FFD4D5" stroke-width="3.0369" stroke-miterlimit="10" d="M567.628,459.698
		c271.579,9.785,483.815,237.876,474.034,509.46c-9.785,271.57-237.877,483.797-509.453,474.016
		c-271.582-9.781-483.815-237.864-474.034-509.444C67.958,662.145,296.058,449.915,567.628,459.698z"/>
	<path fill="none" stroke="#FFD4D5" stroke-width="3.0369" stroke-miterlimit="10" d="M567.315,468.409
		c269.03,9.692,479.276,235.646,469.585,504.676c-9.695,269.022-235.645,479.256-504.67,469.566
		c-269.034-9.689-479.275-235.63-469.583-504.659C72.335,668.954,298.296,458.72,567.315,468.409z"/>
	<path fill="none" stroke="#FFD4D5" stroke-width="3.0369" stroke-miterlimit="10" d="M567.001,477.12
		c266.479,9.6,474.732,233.411,465.135,499.894c-9.603,266.473-233.411,474.714-499.888,465.117
		c-266.481-9.599-474.732-233.397-465.131-499.879C76.713,675.764,300.529,467.521,567.001,477.12z"/>
	<path fill="none" stroke="#FFD4D5" stroke-width="3.0369" stroke-miterlimit="10" d="M566.688,485.83
		c263.931,9.509,470.192,231.178,460.685,495.111c-9.511,263.925-231.176,470.174-495.107,460.665
		c-263.931-9.505-470.188-231.161-460.68-495.093C81.089,682.575,302.764,476.324,566.688,485.83z"/>
	<path fill="none" stroke="#FFD4D5" stroke-width="3.0369" stroke-miterlimit="10" d="M566.373,494.543
		c261.38,9.418,465.649,228.942,456.236,490.328c-9.421,261.373-228.944,465.633-490.323,456.217
		c-261.383-9.414-465.651-228.932-456.233-490.313C85.467,689.384,305,485.126,566.373,494.543z"/>
	<path fill="none" stroke="#FFD4D5" stroke-width="3.0369" stroke-miterlimit="10" d="M566.061,503.253
		c258.831,9.324,461.107,226.71,451.783,485.546c-9.326,258.824-226.71,461.088-485.539,451.765
		c-258.834-9.322-461.109-226.698-451.783-485.528C89.843,696.193,307.237,493.929,566.061,503.253z"/>
	<path fill="none" stroke="#FFD4D5" stroke-width="3.0369" stroke-miterlimit="10" d="M565.746,511.964
		c256.283,9.231,456.567,224.477,447.332,480.763c-9.232,256.275-224.477,456.547-480.756,447.316
		c-256.285-9.229-456.564-224.465-447.332-480.748C94.22,703.007,309.472,502.733,565.746,511.964z"/>
	<path fill="none" stroke="#FFD4D5" stroke-width="3.0369" stroke-miterlimit="10" d="M565.433,520.672
		c253.733,9.142,452.024,222.246,442.886,475.983c-9.144,253.725-222.245,452.005-475.977,442.865
		c-253.735-9.136-452.025-222.231-442.882-475.964C98.598,709.814,311.708,511.534,565.433,520.672z"/>
	<path fill="none" stroke="#FFD4D5" stroke-width="3.0369" stroke-miterlimit="10" d="M565.119,529.383
		c251.184,9.05,447.482,220.013,438.435,471.201c-9.052,251.176-220.013,447.463-471.193,438.418
		c-251.187-9.048-447.481-220-438.434-471.183C102.975,716.624,313.941,520.335,565.119,529.383z"/>
	<path fill="none" stroke="#FFD4D5" stroke-width="3.0369" stroke-miterlimit="10" d="M564.805,538.096
		c248.635,8.954,442.943,217.779,433.984,466.416c-8.96,248.626-217.779,442.922-466.411,433.967
		c-248.635-8.953-442.941-217.768-433.984-466.4C107.351,723.433,316.177,529.137,564.805,538.096z"/>
	<path fill="none" stroke="#FFD4D5" stroke-width="3.0369" stroke-miterlimit="10" d="M564.491,546.804
		c246.086,8.866,438.401,215.547,429.535,461.634c-8.868,246.078-215.545,438.384-461.628,429.52
		c-246.086-8.863-438.4-215.534-429.532-461.618C111.728,730.245,318.413,537.939,564.491,546.804z"/>
	<path fill="none" stroke="#FFD4D5" stroke-width="3.0369" stroke-miterlimit="10" d="M564.176,555.519
		c243.536,8.771,433.861,213.309,425.085,456.85c-8.775,243.527-213.311,433.841-456.846,425.067
		c-243.537-8.77-433.856-213.3-425.083-456.834C116.106,737.055,320.648,546.741,564.176,555.519z"/>
	<path fill="none" stroke="#FFD4D5" stroke-width="3.0369" stroke-miterlimit="10" d="M563.864,564.228
		c240.988,8.681,429.314,211.077,420.634,452.068c-8.683,240.977-211.08,429.299-452.062,420.618
		c-240.988-8.678-429.317-211.067-420.633-452.054C120.481,743.863,322.886,555.547,563.864,564.228z"/>
	<path fill="none" stroke="#FFD4D5" stroke-width="3.0369" stroke-miterlimit="10" d="M563.549,572.94
		c238.439,8.587,424.775,208.842,416.185,447.281c-8.589,238.43-208.846,424.757-447.28,416.171
		c-238.438-8.588-424.773-208.838-416.182-447.271C124.857,750.674,325.122,564.35,563.549,572.94z"/>
	<path fill="none" stroke="#FFD4D5" stroke-width="3.0369" stroke-miterlimit="10" d="M563.235,581.65
		c235.888,8.495,420.235,206.611,411.735,442.502c-8.5,235.88-206.612,420.216-442.496,411.719
		c-235.889-8.494-420.232-206.602-411.733-442.488C129.236,757.485,327.356,573.152,563.235,581.65z"/>
	<path fill="none" stroke="#FFD4D5" stroke-width="3.0369" stroke-miterlimit="10" d="M562.923,590.357
		c233.339,8.407,415.692,204.381,407.286,437.723c-8.408,233.33-204.382,415.673-437.718,407.269
		c-233.339-8.403-415.689-204.37-407.282-437.704C133.613,764.295,329.591,581.953,562.923,590.357z"/>
	<path fill="none" stroke="#FFD4D5" stroke-width="3.0369" stroke-miterlimit="10" d="M562.61,599.072
		c230.788,8.311,411.149,202.142,402.833,432.935c-8.314,230.782-202.147,411.132-432.934,402.818
		c-230.79-8.31-411.146-202.135-402.833-432.92C137.989,771.104,331.829,590.757,562.61,599.072z"/>
	<path fill="none" stroke="#FFD4D5" stroke-width="3.0369" stroke-miterlimit="10" d="M562.296,607.782
		c228.239,8.223,406.606,199.911,398.383,428.153c-8.224,228.233-199.914,406.592-428.15,398.371
		c-228.241-8.22-406.607-199.904-398.386-428.141C142.367,777.916,334.064,599.559,562.296,607.782z"/>
	<path fill="none" stroke="#FFD4D5" stroke-width="3.0369" stroke-miterlimit="10" d="M561.98,616.495
		c225.69,8.127,402.068,197.677,393.936,423.367c-8.133,225.685-197.681,402.052-423.369,393.924
		c-225.69-8.129-402.065-197.671-393.932-423.36C146.744,784.729,336.299,608.361,561.98,616.495z"/>
	<path fill="none" stroke="#FFD4D5" stroke-width="3.0369" stroke-miterlimit="10" d="M561.667,625.206
		c223.141,8.036,397.526,195.442,389.486,418.587c-8.039,223.131-195.449,397.508-418.585,389.471
		c-223.143-8.038-397.524-195.439-389.485-418.577C151.122,791.538,338.535,617.166,561.667,625.206z"/>
	<path fill="none" stroke="#FFD4D5" stroke-width="3.0369" stroke-miterlimit="10" d="M561.354,633.914
		c220.591,7.947,392.984,193.211,385.035,413.806c-7.949,220.584-193.215,392.967-413.805,385.021
		c-220.591-7.944-392.981-193.203-385.033-413.794C155.498,798.346,340.771,625.968,561.354,633.914z"/>
	<path fill="none" stroke="#FFD4D5" stroke-width="3.0369" stroke-miterlimit="10" d="M561.038,642.626
		c218.045,7.853,388.447,190.978,380.587,409.021c-7.856,218.033-190.98,388.426-409.021,380.57
		c-218.042-7.852-388.438-190.968-380.584-409.008C159.875,805.156,343.006,634.771,561.038,642.626z"/>
	<path fill="none" stroke="#FFD4D5" stroke-width="3.0369" stroke-miterlimit="10" d="M560.726,651.338
		c215.493,7.76,383.902,188.743,376.137,404.24c-7.766,215.482-188.749,383.883-404.24,376.12
		c-215.491-7.759-383.898-188.739-376.132-404.229C164.252,811.967,345.243,643.574,560.726,651.338z"/>
	<path fill="none" stroke="#FFD4D5" stroke-width="3.0369" stroke-miterlimit="10" d="M560.414,660.047
		c212.942,7.67,379.358,186.513,371.685,399.457c-7.671,212.936-186.516,379.343-399.458,371.673
		c-212.943-7.669-379.356-186.507-371.684-399.446C168.629,818.776,347.478,652.374,560.414,660.047z"/>
	<path fill="none" stroke="#FFD4D5" stroke-width="3.0369" stroke-miterlimit="10" d="M560.1,668.756
		c210.394,7.58,374.817,184.279,367.237,394.677c-7.58,210.386-184.284,374.799-394.677,367.222
		c-210.393-7.578-374.813-184.272-367.233-394.664C173.006,825.586,349.713,661.176,560.1,668.756z"/>
	<path fill="none" stroke="#FFD4D5" stroke-width="3.0369" stroke-miterlimit="10" d="M559.788,677.467
		c207.841,7.486,370.273,182.044,362.784,389.895c-7.489,207.836-182.049,370.257-389.893,362.771
		c-207.844-7.484-370.272-182.04-362.784-389.882C177.381,832.396,351.949,669.979,559.788,677.467z"/>
	<path fill="none" stroke="#FFD4D5" stroke-width="3.0369" stroke-miterlimit="10" d="M559.472,686.181
		c205.296,7.392,365.733,179.81,358.337,385.108c-7.396,205.288-179.818,365.718-385.11,358.322
		c-205.295-7.393-365.732-179.806-358.337-385.101C181.759,839.205,354.184,678.783,559.472,686.181z"/>
	<path fill="none" stroke="#FFD4D5" stroke-width="3.0369" stroke-miterlimit="10" d="M559.158,694.888
		c202.747,7.304,361.194,177.579,353.885,380.328c-7.305,202.74-177.583,361.176-380.328,353.872
		c-202.746-7.301-361.188-177.572-353.885-380.315C186.136,846.016,356.418,687.582,559.158,694.888z"/>
	<path fill="none" stroke="#FFD4D5" stroke-width="3.0369" stroke-miterlimit="10" d="M558.844,703.6
		c200.196,7.208,356.652,175.346,349.435,375.544c-7.211,200.191-175.349,356.637-375.543,349.423
		c-200.195-7.208-356.646-175.34-349.434-375.531C190.514,852.826,358.654,696.387,558.844,703.6z"/>
	<path fill="none" stroke="#FFD4D5" stroke-width="3.0369" stroke-miterlimit="10" d="M558.531,712.311
		c197.647,7.117,352.11,173.112,344.986,370.762c-7.122,197.642-173.118,352.092-370.763,344.975
		c-197.647-7.119-352.105-173.108-344.987-370.753C194.89,859.637,360.89,705.187,558.531,712.311z"/>
	<path fill="none" stroke="#FFD4D5" stroke-width="3.0369" stroke-miterlimit="10" d="M558.216,721.022
		c195.098,7.024,347.569,170.878,340.536,365.979c-7.029,195.09-170.884,347.552-365.98,340.523
		c-195.096-7.026-347.562-170.873-340.533-365.97C199.267,866.45,363.125,713.993,558.216,721.022z"/>
	<path fill="none" stroke="#FFD4D5" stroke-width="3.0369" stroke-miterlimit="10" d="M557.903,729.73
		c192.548,6.936,343.027,168.646,336.086,361.197c-6.938,192.542-168.651,343.012-361.2,336.074
		c-192.545-6.935-343.02-168.642-336.084-361.186C203.645,873.257,365.36,722.794,557.903,729.73z"/>
	<path fill="none" stroke="#FFD4D5" stroke-width="3.0369" stroke-miterlimit="10" d="M557.591,738.441
		c189.996,6.841,338.484,166.412,331.636,356.416c-6.847,189.992-166.419,338.467-356.417,331.623
		c-189.998-6.841-338.479-166.41-331.634-356.405C208.022,880.067,367.597,731.594,557.591,738.441z"/>
	<path fill="none" stroke="#FFD4D5" stroke-width="3.0369" stroke-miterlimit="10" d="M557.276,747.152
		c187.45,6.75,333.942,164.179,327.185,351.633c-6.752,187.443-164.185,333.926-351.634,327.174
		c-187.445-6.749-333.936-164.175-327.183-351.622C212.399,886.877,369.833,740.397,557.276,747.152z"/>
	<path fill="none" stroke="#FFD4D5" stroke-width="3.0369" stroke-miterlimit="10" d="M556.961,755.862
		c184.902,6.66,329.403,161.947,322.736,346.853c-6.66,184.893-161.951,329.385-346.849,322.725
		c-184.899-6.66-329.398-161.943-322.736-346.84C216.776,893.688,372.069,749.2,556.961,755.862z"/>
	<path fill="none" stroke="#FFD4D5" stroke-width="3.0369" stroke-miterlimit="10" d="M556.647,764.574
		C739,771.139,881.51,924.287,874.934,1106.641c-6.569,182.346-159.719,324.847-342.069,318.276
		c-182.347-6.565-324.856-159.711-318.284-342.057C221.151,900.5,374.305,758,556.647,764.574z"/>
	<path fill="none" stroke="#FFD4D5" stroke-width="3.0369" stroke-miterlimit="10" d="M556.335,773.283
		c179.799,6.475,320.319,157.48,313.837,337.286c-6.478,179.794-157.486,320.303-337.287,313.825
		c-179.8-6.475-320.315-157.479-313.835-337.276C225.53,907.308,376.541,766.804,556.335,773.283z"/>
	<path fill="none" stroke="#FFD4D5" stroke-width="3.0369" stroke-miterlimit="10" d="M556.021,781.995
		c177.252,6.381,315.779,155.247,309.386,332.502c-6.383,177.245-155.252,315.761-332.503,309.376
		c-177.25-6.382-315.771-155.244-309.384-332.49C229.906,914.119,378.775,775.606,556.021,781.995z"/>
	<path fill="none" stroke="#FFD4D5" stroke-width="3.0369" stroke-miterlimit="10" d="M555.708,790.705
		c174.702,6.291,311.235,153.016,304.935,327.719c-6.291,174.697-153.021,311.222-327.72,304.928
		c-174.702-6.29-311.231-153.01-304.935-327.708C234.282,920.93,381.01,784.409,555.708,790.705z"/>
	<path fill="none" stroke="#FFD4D5" stroke-width="3.0369" stroke-miterlimit="10" d="M555.395,799.416
		c172.154,6.198,306.691,150.781,300.484,322.938c-6.2,172.148-150.786,306.679-322.937,300.478s-306.688-150.779-300.485-322.929
		C238.661,927.739,383.246,793.212,555.395,799.416z"/>
	<path fill="none" stroke="#FFD4D5" stroke-width="3.0369" stroke-miterlimit="10" d="M555.079,808.126
		c169.606,6.106,302.155,148.548,296.037,318.154c-6.108,169.6-148.551,302.138-318.156,296.027
		c-169.601-6.107-302.146-148.546-296.034-318.142C243.037,934.55,385.481,802.014,555.079,808.126z"/>
	<path fill="none" stroke="#FFD4D5" stroke-width="3.0369" stroke-miterlimit="10" d="M554.766,816.838
		c167.055,6.011,297.612,146.314,291.585,313.371c-6.017,167.049-146.32,297.595-313.373,291.578
		c-167.052-6.016-297.604-146.313-291.585-313.362C247.413,941.359,387.719,810.815,554.766,816.838z"/>
	<path fill="none" stroke="#FFD4D5" stroke-width="3.0369" stroke-miterlimit="10" d="M554.452,825.548
		c164.504,5.921,293.072,144.082,287.137,308.591c-5.926,164.499-144.087,293.053-308.591,287.128
		c-164.502-5.923-293.063-144.083-287.135-308.581C251.792,948.171,389.954,819.619,554.452,825.548z"/>
	<path fill="none" stroke="#FFD4D5" stroke-width="3.0369" stroke-miterlimit="10" d="M554.138,834.258
		c161.956,5.829,288.526,141.85,282.688,303.809c-5.834,161.95-141.854,288.513-303.809,282.679
		c-161.954-5.832-288.521-141.85-282.686-303.798C256.169,954.98,392.188,828.42,554.138,834.258z"/>
	<path fill="none" stroke="#FFD4D5" stroke-width="3.0369" stroke-miterlimit="10" d="M553.826,842.967
		c159.406,5.738,283.984,139.616,278.234,299.027c-5.742,159.399-139.62,283.97-299.028,278.228
		c-159.402-5.739-283.979-139.615-278.234-299.013C260.545,961.789,394.424,837.223,553.826,842.967z"/>
	<path fill="none" stroke="#FFD4D5" stroke-width="3.0369" stroke-miterlimit="10" d="M553.512,851.681
		c156.856,5.645,279.444,137.38,273.786,294.239c-5.65,156.854-137.389,279.43-294.245,273.781
		c-156.854-5.649-279.436-137.382-273.784-294.235C264.92,968.6,396.661,846.027,553.512,851.681z"/>
	<path fill="none" stroke="#FFD4D5" stroke-width="3.0369" stroke-miterlimit="10" d="M553.199,860.391
		c154.307,5.553,274.899,135.149,269.334,289.46c-5.559,154.301-135.154,274.886-289.461,269.329
		c-154.304-5.557-274.896-135.146-269.337-289.45C269.298,975.41,398.896,854.826,553.199,860.391z"/>
	<path fill="none" stroke="#FFD4D5" stroke-width="3.0369" stroke-miterlimit="10" d="M552.885,869.1
		c151.757,5.463,270.359,132.916,264.885,284.68c-5.466,151.753-132.921,270.346-284.679,264.878
		c-151.756-5.464-270.354-132.916-264.886-284.665C273.675,982.221,401.13,863.631,552.885,869.1z"/>
	<path fill="none" stroke="#FFD4D5" stroke-width="3.0369" stroke-miterlimit="10" d="M552.571,877.81
		c149.209,5.372,265.819,130.685,260.436,279.896c-5.375,149.205-130.689,265.806-279.897,260.43
		c-149.206-5.373-265.812-130.682-260.438-279.887C278.054,989.029,403.367,872.431,552.571,877.81z"/>
	<path fill="none" stroke="#FFD4D5" stroke-width="3.0369" stroke-miterlimit="10" d="M552.256,886.521
		c146.66,5.278,261.28,128.452,255.987,275.115c-5.283,146.653-128.457,261.261-275.115,255.979
		c-146.657-5.283-261.273-128.452-255.986-275.104C282.429,995.84,405.6,881.234,552.256,886.521z"/>
	<path fill="none" stroke="#FFD4D5" stroke-width="3.0369" stroke-miterlimit="10" d="M551.943,895.231
		c144.109,5.186,256.734,126.218,251.536,270.332c-5.19,144.106-126.222,256.722-270.333,251.531
		c-144.108-5.19-256.729-126.217-251.536-270.321C286.805,1002.65,407.839,890.037,551.943,895.231z"/>
	<path fill="none" stroke="#FFD4D5" stroke-width="3.0369" stroke-miterlimit="10" d="M551.631,903.941
		c141.56,5.096,252.193,123.983,247.084,265.55c-5.098,141.557-123.988,252.18-265.549,247.081
		c-141.558-5.1-252.188-123.986-247.087-265.539C291.185,1009.461,410.074,898.838,551.631,903.941z"/>
	<path fill="none" stroke="#FFD4D5" stroke-width="3.0369" stroke-miterlimit="10" d="M551.316,912.654
		c139.009,5.001,247.652,121.749,242.637,260.766c-5.005,139.007-121.758,247.637-260.768,242.63
		c-139.008-5.007-247.646-121.751-242.637-260.757C295.562,1016.27,412.311,907.639,551.316,912.654z"/>
	<path fill="none" stroke="#FFD4D5" stroke-width="3.0369" stroke-miterlimit="10" d="M551.002,921.364
		c136.461,4.909,243.111,119.518,238.186,255.983c-4.914,136.457-119.523,243.096-255.983,238.182
		c-136.459-4.915-243.105-119.521-238.187-255.973C299.938,1023.082,414.545,916.443,551.002,921.364z"/>
	<path fill="none" stroke="#FFD4D5" stroke-width="3.0369" stroke-miterlimit="10" d="M550.689,930.072
		c133.91,4.819,238.568,117.287,233.737,251.203c-4.824,133.908-117.292,238.554-251.205,233.73
		c-133.908-4.822-238.561-117.285-233.735-251.189C304.314,1029.891,416.781,925.245,550.689,930.072z"/>
	<path fill="none" stroke="#FFD4D5" stroke-width="3.0369" stroke-miterlimit="10" d="M550.376,938.785
		c131.363,4.725,234.026,115.051,229.284,246.418c-4.731,131.358-115.057,234.013-246.419,229.282
		c-131.359-4.731-234.019-115.054-229.287-246.409C308.691,1036.7,419.017,934.047,550.376,938.785z"/>
	<path fill="none" stroke="#FFD4D5" stroke-width="3.0369" stroke-miterlimit="10" d="M550.062,947.495
		c128.813,4.633,229.485,112.817,224.835,241.635c-4.639,128.812-112.824,229.474-241.639,224.834
		c-128.809-4.639-229.477-112.821-224.836-241.627C313.068,1043.512,421.253,942.851,550.062,947.495z"/>
	<path fill="none" stroke="#FFD4D5" stroke-width="3.0369" stroke-miterlimit="10" d="M549.748,956.205
		c126.265,4.543,224.945,110.587,220.386,236.853c-4.546,126.26-110.592,224.932-236.856,220.384
		c-126.261-4.547-224.938-110.587-220.388-236.844C317.446,1050.321,423.487,951.651,549.748,956.205z"/>
	<path fill="none" stroke="#FFD4D5" stroke-width="3.0369" stroke-miterlimit="10" d="M549.433,964.917
		c123.715,4.452,220.403,108.353,215.936,232.069c-4.456,123.714-108.355,220.389-232.072,215.934
		c-123.71-4.455-220.394-108.354-215.936-232.062C321.823,1057.132,425.723,960.454,549.433,964.917z"/>
	<path fill="none" stroke="#FFD4D5" stroke-width="3.0369" stroke-miterlimit="10" d="M549.119,973.627
		c121.167,4.357,215.862,106.119,211.485,227.289c-4.362,121.162-106.124,215.846-227.289,211.482
		c-121.161-4.362-215.853-106.122-211.487-227.279C326.199,1063.943,427.958,969.256,549.119,973.627z"/>
	<path fill="none" stroke="#FFD4D5" stroke-width="3.0369" stroke-miterlimit="10" d="M548.806,982.337
		c118.616,4.267,211.32,103.886,207.036,222.506c-4.271,118.613-103.891,211.306-222.508,207.032
		c-118.612-4.271-211.31-103.887-207.036-222.494C330.577,1070.753,430.195,978.06,548.806,982.337z"/>
	<path fill="none" stroke="#FFD4D5" stroke-width="3.0369" stroke-miterlimit="10" d="M548.495,991.046
		c116.064,4.176,206.775,101.654,202.584,217.725c-4.179,116.065-101.659,206.765-217.728,202.583
		c-116.061-4.18-206.766-101.653-202.586-217.713C334.953,1077.563,432.429,986.861,548.495,991.046z"/>
	<path fill="none" stroke="#FFD4D5" stroke-width="3.0369" stroke-miterlimit="10" d="M548.179,999.759
		c113.517,4.08,202.235,99.421,198.137,212.94c-4.089,113.515-99.426,202.223-212.944,198.133
		c-113.514-4.087-202.227-99.422-198.137-212.932C339.331,1084.374,434.666,995.664,548.179,999.759z"/>
	<path fill="none" stroke="#FFD4D5" stroke-width="3.0369" stroke-miterlimit="10" d="M547.865,1008.47
		c110.968,3.988,197.694,97.186,193.686,208.159c-3.995,110.961-97.192,197.681-208.161,193.686
		c-110.962-3.996-197.685-97.191-193.686-208.152C343.708,1091.183,436.901,1004.466,547.865,1008.47z"/>
	<path fill="none" stroke="#FFD4D5" stroke-width="3.0369" stroke-miterlimit="10" d="M547.552,1017.18
		c108.418,3.899,193.153,94.953,189.236,203.375c-3.903,108.415-94.958,193.141-203.379,189.235
		c-108.415-3.903-193.144-94.955-189.238-203.365C348.083,1097.993,439.137,1013.269,547.552,1017.18z"/>
	<path fill="none" stroke="#FFD4D5" stroke-width="3.0369" stroke-miterlimit="10" d="M547.239,1025.891
		c105.868,3.806,188.612,92.719,184.784,198.595c-3.809,105.865-92.723,188.597-198.596,184.784
		c-105.864-3.813-188.603-92.724-184.786-198.585C352.461,1104.803,441.373,1022.07,547.239,1025.891z"/>
	<path fill="none" stroke="#FFD4D5" stroke-width="3.0369" stroke-miterlimit="10" d="M546.924,1034.6
		c103.32,3.715,184.07,90.487,180.337,193.812c-3.719,103.316-90.492,184.057-193.815,180.334
		c-103.314-3.72-184.06-90.488-180.337-193.8C356.838,1111.612,443.605,1030.872,546.924,1034.6z"/>
	<path fill="none" stroke="#FFD4D5" stroke-width="3.0369" stroke-miterlimit="10" d="M546.611,1043.311
		c100.771,3.624,179.528,88.256,175.883,189.029c-3.625,100.768-88.257,179.515-189.029,175.885
		c-100.764-3.629-179.518-88.259-175.887-189.018C361.215,1118.422,445.843,1039.675,546.611,1043.311z"/>
	<path fill="none" stroke="#FFD4D5" stroke-width="3.0369" stroke-miterlimit="10" d="M546.295,1052.021
		c98.221,3.529,174.987,86.021,171.437,184.248c-3.535,98.218-86.026,174.973-184.249,171.436
		c-98.215-3.537-174.977-86.026-171.437-184.236C365.593,1125.232,448.079,1048.479,546.295,1052.021z"/>
	<path fill="none" stroke="#FFD4D5" stroke-width="3.0369" stroke-miterlimit="10" d="M545.984,1060.733
		c95.67,3.438,170.444,83.788,166.986,179.464c-3.445,95.668-83.793,170.431-179.467,166.984
		c-95.667-3.445-170.434-83.79-166.989-179.455C369.969,1132.044,450.315,1057.277,545.984,1060.733z"/>
	<path fill="none" stroke="#FFD4D5" stroke-width="3.0369" stroke-miterlimit="10" d="M545.671,1069.443
		c93.12,3.346,165.902,81.555,162.533,174.681c-3.353,93.118-81.56,165.892-174.682,162.538
		c-93.118-3.354-165.895-81.561-162.54-174.674C374.347,1138.854,452.551,1066.082,545.671,1069.443z"/>
	<path fill="none" stroke="#FFD4D5" stroke-width="3.0369" stroke-miterlimit="10" d="M545.356,1078.152
		c90.573,3.255,161.362,79.322,158.086,169.899c-3.26,90.569-79.329,161.349-169.903,158.087
		c-90.565-3.262-161.351-79.326-158.085-169.89C378.722,1145.662,454.786,1074.883,545.356,1078.152z"/>
	<path fill="none" stroke="#FFD4D5" stroke-width="3.0369" stroke-miterlimit="10" d="M545.042,1086.863
		c88.022,3.165,156.821,77.09,153.633,165.117c-3.165,88.021-77.093,156.808-165.118,153.637
		c-88.017-3.171-156.808-77.095-153.637-165.107C383.101,1152.475,457.022,1083.686,545.042,1086.863z"/>
	<path fill="none" stroke="#FFD4D5" stroke-width="3.0369" stroke-miterlimit="10" d="M544.727,1095.574
		c85.475,3.071,152.28,74.856,149.186,160.334c-3.076,85.473-74.86,152.266-160.336,149.188
		c-85.467-3.077-152.267-74.859-149.188-160.324C387.477,1159.284,459.255,1092.488,544.727,1095.574z"/>
	<path fill="none" stroke="#FFD4D5" stroke-width="3.0369" stroke-miterlimit="10" d="M544.415,1104.286
		c82.925,2.978,147.737,72.622,144.735,155.551c-2.983,82.921-72.628,147.724-155.554,144.736
		c-82.919-2.985-147.727-72.626-144.738-155.542C391.855,1166.094,461.493,1101.29,544.415,1104.286z"/>
	<path fill="none" stroke="#FFD4D5" stroke-width="3.0369" stroke-miterlimit="10" d="M544.101,1112.995
		c80.374,2.888,143.194,70.392,140.285,150.769c-2.891,80.372-70.394,143.185-150.771,140.289
		c-80.369-2.894-143.186-70.396-140.288-150.76C396.231,1172.903,463.728,1110.093,544.101,1112.995z"/>
	<path fill="none" stroke="#FFD4D5" stroke-width="3.0369" stroke-miterlimit="10" d="M543.787,1121.705
		c77.824,2.798,138.654,68.158,135.835,145.989c-2.8,77.822-68.161,138.641-145.989,135.837
		c-77.819-2.801-138.643-68.162-135.838-145.979C400.607,1179.715,465.964,1118.896,543.787,1121.705z"/>
	<path fill="none" stroke="#FFD4D5" stroke-width="3.0369" stroke-miterlimit="10" d="M543.475,1130.416
		c75.274,2.705,134.111,65.924,131.384,141.205c-2.708,75.275-65.928,134.1-141.206,131.388
		c-75.271-2.71-134.104-65.929-131.389-141.192C404.983,1186.525,468.199,1127.697,543.475,1130.416z"/>
	<path fill="none" stroke="#FFD4D5" stroke-width="3.0369" stroke-miterlimit="10" d="M543.158,1139.129
		c72.727,2.609,129.572,63.689,126.938,136.421c-2.617,72.724-63.696,129.557-136.424,126.938
		c-72.721-2.617-129.56-63.695-126.939-136.413C409.361,1193.336,470.436,1136.501,543.158,1139.129z"/>
	<path fill="none" stroke="#FFD4D5" stroke-width="3.0369" stroke-miterlimit="10" d="M542.847,1147.838
		c70.176,2.521,125.027,61.456,122.485,131.639c-2.524,70.176-61.463,125.018-131.643,122.489
		c-70.17-2.526-125.017-61.463-122.487-131.63C413.74,1200.146,472.67,1145.302,542.847,1147.838z"/>
	<path fill="none" stroke="#FFD4D5" stroke-width="3.0369" stroke-miterlimit="10" d="M542.532,1156.548
		c67.629,2.427,120.488,59.226,118.036,126.858c-2.431,67.625-59.229,120.474-126.86,118.037
		c-67.62-2.433-120.475-59.229-118.039-126.847C418.117,1206.955,474.907,1154.105,542.532,1156.548z"/>
	<path fill="none" stroke="#FFD4D5" stroke-width="3.0369" stroke-miterlimit="10" d="M542.218,1165.26
		c65.078,2.336,115.947,56.99,113.586,122.073c-2.34,65.078-56.995,115.935-122.077,113.59
		c-65.072-2.343-115.933-56.997-113.587-122.063C422.494,1213.766,477.143,1162.906,542.218,1165.26z"/>
	<path fill="none" stroke="#FFD4D5" stroke-width="3.0369" stroke-miterlimit="10" d="M541.905,1173.969
		c62.528,2.244,111.403,54.76,109.137,117.293c-2.25,62.525-54.765,111.394-117.296,109.141
		c-62.523-2.251-111.391-54.765-109.138-117.283C426.869,1220.575,479.378,1171.709,541.905,1173.969z"/>
	<path fill="none" stroke="#FFD4D5" stroke-width="3.0369" stroke-miterlimit="10" d="M541.59,1182.681
		c59.98,2.15,106.864,52.524,104.688,112.511c-2.156,59.977-52.529,106.851-112.514,104.688
		c-59.97-2.158-106.849-52.529-104.687-112.498C431.247,1227.387,481.613,1180.514,541.59,1182.681z"/>
	<path fill="none" stroke="#FFD4D5" stroke-width="3.0369" stroke-miterlimit="10" d="M541.277,1191.391
		c57.432,2.061,102.323,50.293,100.238,107.727c-2.066,57.43-50.297,102.312-107.731,100.242
		c-57.424-2.068-102.31-50.3-100.238-107.719C435.625,1234.196,483.849,1189.313,541.277,1191.391z"/>
	<path fill="none" stroke="#FFD4D5" stroke-width="3.0369" stroke-miterlimit="10" d="M540.964,1200.101
		c54.88,1.968,97.778,48.06,95.785,102.944c-1.973,54.881-48.064,97.769-102.947,95.79c-54.874-1.974-97.767-48.063-95.788-102.933
		C440.001,1241.007,486.084,1198.115,540.964,1200.101z"/>
	<path fill="none" stroke="#FFD4D5" stroke-width="3.0369" stroke-miterlimit="10" d="M540.649,1208.812
		c52.332,1.877,93.238,45.826,91.335,98.163c-1.879,52.33-45.829,93.225-98.163,91.34c-52.325-1.884-93.228-45.832-91.34-98.152
		C444.378,1247.816,488.319,1206.919,540.649,1208.812z"/>
	<path fill="none" stroke="#FFD4D5" stroke-width="3.0369" stroke-miterlimit="10" d="M540.336,1217.521
		c49.782,1.784,88.696,43.594,86.885,93.382c-1.789,49.778-43.597,88.684-93.382,86.89c-49.773-1.794-88.683-43.602-86.887-93.371
		C448.755,1254.627,490.555,1215.72,540.336,1217.521z"/>
	<path fill="none" stroke="#FFD4D5" stroke-width="3.0369" stroke-miterlimit="10" d="M540.023,1226.234
		c47.231,1.691,84.153,41.358,82.435,88.596c-1.697,47.231-41.365,84.145-88.601,82.441c-47.226-1.699-84.142-41.366-82.438-88.588
		C453.133,1261.438,492.791,1224.521,540.023,1226.234z"/>
	<path fill="none" stroke="#FFD4D5" stroke-width="3.0369" stroke-miterlimit="10" d="M539.709,1234.942
		c44.683,1.601,79.613,39.128,77.985,83.815c-1.604,44.68-39.132,79.602-83.817,77.99c-44.676-1.605-79.601-39.132-77.988-83.805
		C457.51,1268.247,495.028,1233.324,539.709,1234.942z"/>
	<path fill="none" stroke="#FFD4D5" stroke-width="3.0369" stroke-miterlimit="10" d="M539.396,1243.654
		c42.132,1.508,75.071,36.893,73.534,79.031c-1.511,42.134-36.899,75.061-79.034,73.541c-42.125-1.516-75.06-36.9-73.539-79.021
		C461.886,1275.056,497.264,1242.127,539.396,1243.654z"/>
	<path fill="none" stroke="#FFD4D5" stroke-width="3.0369" stroke-miterlimit="10" d="M539.082,1252.366
		c39.585,1.416,70.53,34.66,69.084,74.25c-1.421,39.582-34.664,70.518-74.252,69.089c-39.576-1.422-70.517-34.666-69.089-74.238
		C466.264,1281.867,499.499,1250.93,539.082,1252.366z"/>
	<path fill="none" stroke="#FFD4D5" stroke-width="3.0369" stroke-miterlimit="10" d="M538.769,1261.074
		c37.034,1.324,65.986,32.427,64.635,69.469c-1.329,37.034-32.433,65.975-69.47,64.642c-37.028-1.333-65.975-32.436-64.639-69.458
		C470.64,1288.678,501.734,1259.731,538.769,1261.074z"/>
	<path fill="none" stroke="#FFD4D5" stroke-width="3.0369" stroke-miterlimit="10" d="M538.456,1269.785
		c34.485,1.233,61.444,30.195,60.185,64.686c-1.238,34.485-30.2,61.435-64.688,60.193c-34.477-1.242-61.435-30.205-60.19-64.677
		C475.017,1295.487,503.97,1268.533,538.456,1269.785z"/>
	<path fill="none" stroke="#FFD4D5" stroke-width="3.0369" stroke-miterlimit="10" d="M538.143,1278.495
		c31.935,1.142,56.903,27.962,55.735,59.904c-1.146,31.935-27.968,56.893-59.905,55.741c-31.928-1.146-56.893-27.969-55.742-59.893
		C479.395,1302.297,506.205,1277.336,538.143,1278.495z"/>
	<path fill="none" stroke="#FFD4D5" stroke-width="3.0369" stroke-miterlimit="10" d="M537.827,1287.207
		c29.387,1.047,52.362,25.729,51.286,55.12c-1.053,29.386-25.732,52.353-55.125,51.292c-29.378-1.057-52.349-25.736-51.288-55.11
		C483.771,1309.108,508.44,1286.139,537.827,1287.207z"/>
	<path fill="none" stroke="#FFD4D5" stroke-width="3.0369" stroke-miterlimit="10" d="M537.514,1295.918
		c26.837,0.956,47.821,23.495,46.834,50.338c-0.96,26.838-23.5,47.811-50.339,46.843c-26.83-0.967-47.808-23.504-46.84-50.327
		C488.148,1315.918,510.676,1294.941,537.514,1295.918z"/>
	<path fill="none" stroke="#FFD4D5" stroke-width="3.0369" stroke-miterlimit="10" d="M537.2,1304.627
		c24.288,0.865,43.279,21.264,42.385,45.559c-0.868,24.286-21.267,43.268-45.558,42.393c-24.281-0.874-43.267-21.271-42.388-45.546
		C492.524,1322.728,512.912,1303.744,537.2,1304.627z"/>
	<path fill="none" stroke="#FFD4D5" stroke-width="3.0369" stroke-miterlimit="10" d="M536.885,1313.339
		c21.739,0.772,38.738,19.029,37.937,40.772c-0.777,21.738-19.035,38.727-40.777,37.945c-21.729-0.784-38.723-19.037-37.939-40.763
		C496.902,1329.538,515.148,1312.545,536.885,1313.339z"/>
	<path fill="none" stroke="#FFD4D5" stroke-width="3.0369" stroke-miterlimit="10" d="M536.572,1322.048
		c19.188,0.683,34.196,16.798,33.485,35.991c-0.685,19.189-16.8,34.186-35.993,33.494c-19.18-0.688-34.184-16.804-33.489-35.98
		C501.279,1336.348,517.384,1321.348,536.572,1322.048z"/>
	<path fill="none" stroke="#FFD4D5" stroke-width="3.0369" stroke-miterlimit="10" d="M536.259,1330.76
		c16.64,0.59,29.655,14.562,29.037,31.208c-0.596,16.641-14.569,29.643-31.212,29.044c-16.632-0.598-29.641-14.571-29.04-31.197
		C505.656,1343.158,519.619,1330.149,536.259,1330.76z"/>
	<path fill="none" stroke="#FFD4D5" stroke-width="3.0369" stroke-miterlimit="10" d="M535.945,1339.471
		c14.091,0.496,25.112,12.328,24.585,26.426c-0.5,14.088-12.333,25.104-26.428,24.594c-14.084-0.506-25.101-12.338-24.59-26.417
		C510.032,1349.969,521.854,1338.952,535.945,1339.471z"/>
	<path fill="none" stroke="#FFD4D5" stroke-width="3.0369" stroke-miterlimit="10" d="M535.632,1348.182
		c11.542,0.403,20.572,10.096,20.135,21.643c-0.409,11.541-10.101,20.561-21.645,20.145c-11.533-0.414-20.559-10.106-20.14-21.633
		C514.409,1356.777,524.089,1347.754,535.632,1348.182z"/>
	<path fill="none" stroke="#FFD4D5" stroke-width="3.0369" stroke-miterlimit="10" d="M535.317,1356.891
		c8.991,0.312,16.03,7.865,15.685,16.863c-0.316,8.991-7.868,16.021-16.862,15.693c-8.983-0.322-16.017-7.872-15.69-16.852
		C518.786,1363.588,526.326,1356.558,535.317,1356.891z"/>
	<path fill="none" stroke="#FFD4D5" stroke-width="3.0369" stroke-miterlimit="10" d="M535.004,1365.603
		c6.441,0.219,11.486,5.631,11.236,12.079c-0.226,6.441-5.635,11.478-12.082,11.244c-6.433-0.23-11.472-5.64-11.24-12.068
		C523.163,1370.4,528.561,1365.361,535.004,1365.603z"/>
	<path fill="none" stroke="#FFD4D5" stroke-width="3.0369" stroke-miterlimit="10" d="M534.689,1374.312
		c3.893,0.14,6.935,3.396,6.786,7.296c-0.147,3.893-3.401,6.937-7.299,6.796c-3.884-0.138-6.932-3.406-6.787-7.287
		C527.541,1377.209,530.797,1374.172,534.689,1374.312z"/>
	<path fill="none" stroke="#FFD4D5" stroke-width="3.0369" stroke-miterlimit="10" d="M534.376,1383.023
		c-1.346-0.06-2.459,0.994-2.521,2.355c-0.049,1.33,1.005,2.456,2.339,2.502c1.348,0.051,2.476-1.002,2.517-2.346
		C536.78,1384.188,535.72,1383.061,534.376,1383.023z"/>
</g>
</svg>
