<?xml version="1.0" encoding="utf-8"?>
<!-- Generator: Adobe Illustrator 16.0.0, SVG Export Plug-In . SVG Version: 6.00 Build 0)  -->
<!DOCTYPE svg PUBLIC "-//W3C//DTD SVG 1.1//EN" "http://www.w3.org/Graphics/SVG/1.1/DTD/svg11.dtd">
<svg version="1.1" id="Layer_1" xmlns="http://www.w3.org/2000/svg" xmlns:xlink="http://www.w3.org/1999/xlink" x="0px" y="0px"
	 width="1920px" height="1080px" viewBox="0 0 1920 1080" enable-background="new 0 0 1920 1080" xml:space="preserve">
<g>
	<path fill="none" stroke="#FFFFFF" stroke-width="3.0369" stroke-miterlimit="10" d="M450.515,656.613
		C280.589,875.189-34.357,914.637-252.936,744.711C-471.501,574.789-510.94,259.847-341.017,41.273
		c169.924-218.579,484.864-258.028,703.44-88.103C581.007,123.099,620.434,438.045,450.515,656.613z"/>
	<path fill="none" stroke="#FFFFFF" stroke-width="3.0369" stroke-miterlimit="10" d="M443.634,651.264
		C275.275,867.826-36.77,906.91-253.335,738.551c-216.552-168.357-255.627-480.397-87.271-696.957
		c168.359-216.565,480.397-255.651,696.96-87.291C572.924,122.665,611.988,434.711,443.634,651.264z"/>
	<path fill="none" stroke="#FFFFFF" stroke-width="3.0369" stroke-miterlimit="10" d="M436.754,645.916
		C269.958,860.463-39.183,899.184-253.735,732.389C-468.273,565.598-506.984,256.46-340.193,41.914
		c166.793-214.551,475.93-253.273,690.479-86.479C564.84,122.231,603.541,431.375,436.754,645.916z"/>
	<path fill="none" stroke="#FFFFFF" stroke-width="3.0369" stroke-miterlimit="10" d="M429.872,640.566
		C264.643,853.1-41.598,891.457-254.134,726.229c-212.524-165.227-250.872-471.462-85.647-683.994
		c165.228-212.537,471.462-250.896,683.997-85.667C556.756,121.798,595.093,428.04,429.872,640.566z"/>
	<path fill="none" stroke="#FFFFFF" stroke-width="3.0369" stroke-miterlimit="10" d="M422.991,635.217
		c-163.663,210.52-467.002,248.512-677.523,84.85c-210.512-163.66-248.496-466.994-84.836-677.512
		c163.662-210.522,466.994-248.518,677.515-84.855C548.673,121.365,586.647,424.704,422.991,635.217z"/>
	<path fill="none" stroke="#FFFFFF" stroke-width="3.0369" stroke-miterlimit="10" d="M416.109,629.867
		C254.012,838.373-46.424,876.004-254.933,713.906C-463.43,551.811-501.051,251.379-338.957,42.875
		c162.095-208.509,462.526-246.141,671.032-84.044C540.589,120.931,578.2,421.368,416.109,629.867z"/>
	<path fill="none" stroke="#FFFFFF" stroke-width="3.0369" stroke-miterlimit="10" d="M409.227,624.516
		c-160.53,206.492-458.064,243.76-664.561,83.229c-206.482-160.529-243.74-458.06-83.212-664.549
		c160.53-206.495,458.06-243.764,664.551-83.231C532.505,120.498,569.752,418.032,409.227,624.516z"/>
	<path fill="none" stroke="#FFFFFF" stroke-width="3.0369" stroke-miterlimit="10" d="M402.346,619.168
		C243.381,823.645-51.251,860.549-255.732,701.582c-204.469-158.963-241.363-453.59-82.4-658.065
		c158.964-204.481,453.592-241.387,658.068-82.421C524.422,120.064,561.305,414.698,402.346,619.168z"/>
	<path fill="none" stroke="#FFFFFF" stroke-width="3.0369" stroke-miterlimit="10" d="M395.465,613.816
		C238.066,816.281-53.666,852.822-256.131,695.42c-202.456-157.396-238.986-449.123-81.59-651.584
		c157.398-202.467,449.124-239.008,651.587-81.608C516.337,119.63,552.858,411.36,395.465,613.816z"/>
	<path fill="none" stroke="#FFFFFF" stroke-width="3.0369" stroke-miterlimit="10" d="M388.584,608.469
		C232.75,808.918-56.078,845.096-256.531,689.26c-200.441-155.83-236.608-444.655-80.777-645.103
		c155.833-200.453,444.656-236.632,645.104-80.797C508.253,119.197,544.412,408.026,388.584,608.469z"/>
	<path fill="none" stroke="#FFFFFF" stroke-width="3.0369" stroke-miterlimit="10" d="M381.703,603.119
		C227.435,801.555-58.492,837.367-256.931,683.098c-198.427-154.265-234.23-440.188-79.966-638.621
		c154.268-198.438,440.188-234.253,638.623-79.985C500.17,118.764,535.965,404.69,381.703,603.119z"/>
	<path fill="none" stroke="#FFFFFF" stroke-width="3.0369" stroke-miterlimit="10" d="M374.82,597.768
		c-152.701,196.424-435.727,231.873-632.15,79.168c-196.413-152.699-231.854-435.719-79.153-632.139
		c152.7-196.425,435.72-231.876,632.14-79.173C492.086,118.33,527.518,401.354,374.82,597.768z"/>
	<path fill="none" stroke="#FFFFFF" stroke-width="3.0369" stroke-miterlimit="10" d="M367.94,592.42
		C216.803,786.828-63.32,821.914-257.729,670.775c-194.399-151.132-229.478-431.252-78.343-625.658
		c151.135-194.41,431.253-229.498,625.658-78.361C484.002,117.896,519.072,398.019,367.94,592.42z"/>
	<path fill="none" stroke="#FFFFFF" stroke-width="3.0369" stroke-miterlimit="10" d="M361.058,587.068
		c-149.57,192.395-426.791,227.119-619.188,77.545c-192.385-149.568-227.1-426.784-77.53-619.176
		c149.569-192.396,426.784-227.12,619.176-77.55C475.918,117.463,510.625,394.683,361.058,587.068z"/>
	<path fill="none" stroke="#FFFFFF" stroke-width="3.0369" stroke-miterlimit="10" d="M354.177,581.721
		c-148.005,190.381-422.323,224.74-612.705,76.732C-448.9,510.452-483.25,236.136-335.248,45.758
		C-187.245-144.624,87.07-178.985,277.448-30.979C467.835,117.029,502.177,391.348,354.177,581.721z"/>
	<path fill="none" stroke="#FFFFFF" stroke-width="3.0369" stroke-miterlimit="10" d="M347.295,576.369
		C200.857,764.736-70.56,798.732-258.927,652.291c-188.358-146.435-222.346-417.849-75.909-606.214
		c146.438-188.367,417.85-222.364,606.214-75.925C459.751,116.596,493.73,388.012,347.295,576.369z"/>
	<path fill="none" stroke="#FFFFFF" stroke-width="3.0369" stroke-miterlimit="10" d="M340.414,571.02
		C195.542,757.371-72.975,791.006-259.328,646.129c-186.344-144.871-219.968-413.381-75.097-599.73
		C-189.552-139.956,78.958-173.59,265.307-28.716C451.667,116.162,485.283,384.675,340.414,571.02z"/>
	<path fill="none" stroke="#FFFFFF" stroke-width="3.0369" stroke-miterlimit="10" d="M333.534,565.672
		C190.226,750.01-75.388,783.279-259.727,639.969c-184.33-143.304-217.591-408.914-74.284-593.25
		C-190.706-137.62,74.903-170.891,259.238-27.583C443.583,115.729,476.835,381.34,333.534,565.672z"/>
	<path fill="none" stroke="#FFFFFF" stroke-width="3.0369" stroke-miterlimit="10" d="M326.651,560.322
		C184.911,742.646-77.8,775.553-260.125,633.807C-442.443,492.069-475.338,229.361-333.599,47.04
		c141.74-182.326,404.445-215.232,586.768-73.492C435.5,115.295,468.389,378.006,326.651,560.322z"/>
	<path fill="none" stroke="#FFFFFF" stroke-width="3.0369" stroke-miterlimit="10" d="M319.769,554.973
		C179.594,735.281-80.214,767.824-260.525,627.645c-180.303-140.173-212.837-399.978-72.663-580.285
		c140.175-180.312,399.979-212.855,580.286-72.68C427.416,114.862,459.943,374.67,319.769,554.973z"/>
	<path fill="none" stroke="#FFFFFF" stroke-width="3.0369" stroke-miterlimit="10" d="M312.888,549.621
		c-138.61,178.297-395.518,210.477-573.813,71.863c-178.288-138.609-210.459-395.512-71.851-573.806
		c138.609-178.297,395.511-210.477,573.805-71.866C419.332,114.428,451.495,371.333,312.888,549.621z"/>
	<path fill="none" stroke="#FFFFFF" stroke-width="3.0369" stroke-miterlimit="10" d="M306.007,544.271
		c-137.044,176.283-391.05,208.1-567.332,71.051C-437.599,478.282-469.407,224.279-332.364,48
		C-195.32-128.282,58.679-160.1,234.958-23.056C411.248,113.994,443.048,367.998,306.007,544.271z"/>
	<path fill="none" stroke="#FFFFFF" stroke-width="3.0369" stroke-miterlimit="10" d="M299.126,538.924
		c-135.479,174.267-386.582,205.72-560.85,70.238C-435.985,473.686-467.428,222.586-331.951,48.32
		c135.477-174.269,386.575-205.722,560.84-70.243C403.165,113.562,434.601,364.663,299.126,538.924z"/>
	<path fill="none" stroke="#FFFFFF" stroke-width="3.0369" stroke-miterlimit="10" d="M292.245,533.573
		C158.333,705.828-89.87,736.918-262.124,603C-434.37,469.09-465.451,220.893-331.539,48.641
		C-197.627-123.614,50.568-154.704,222.82-20.792C395.081,113.128,426.154,361.326,292.245,533.573z"/>
	<path fill="none" stroke="#FFFFFF" stroke-width="3.0369" stroke-miterlimit="10" d="M285.363,528.223
		c-132.346,170.24-377.646,200.966-547.887,68.615c-170.231-132.345-200.949-377.64-68.603-547.878
		C-198.782-121.28,46.512-152.007,216.75-19.66C386.997,112.694,417.707,357.991,285.363,528.223z"/>
	<path fill="none" stroke="#FFFFFF" stroke-width="3.0369" stroke-miterlimit="10" d="M278.482,522.874
		C147.702,691.1-94.697,721.463-262.922,590.678C-431.141,459.899-461.495,217.505-330.715,49.28
		c130.78-168.226,373.172-198.589,541.396-67.808C378.913,112.26,409.26,354.655,278.482,522.874z"/>
	<path fill="none" stroke="#FFFFFF" stroke-width="3.0369" stroke-miterlimit="10" d="M271.6,517.526
		c-129.214,166.21-368.71,196.21-534.922,66.99c-166.205-129.212-196.195-368.704-66.98-534.914
		C-201.088-116.61,38.402-146.611,204.611-17.395C370.83,111.827,400.814,351.321,271.6,517.526z"/>
	<path fill="none" stroke="#FFFFFF" stroke-width="3.0369" stroke-miterlimit="10" d="M264.719,512.176
		C137.071,676.373-99.523,706.01-263.722,578.354C-427.913,450.708-457.54,214.118-329.89,49.922
		c127.647-164.198,364.236-193.834,528.431-66.185C362.746,111.394,392.367,347.985,264.719,512.176z"/>
	<path fill="none" stroke="#FFFFFF" stroke-width="3.0369" stroke-miterlimit="10" d="M257.836,506.825
		C131.754,669.01-101.937,698.281-264.122,572.193c-162.177-126.082-191.44-359.77-65.357-521.951
		c126.083-162.185,359.769-191.458,521.95-65.374C354.662,110.96,383.919,344.648,257.836,506.825z"/>
	<path fill="none" stroke="#FFFFFF" stroke-width="3.0369" stroke-miterlimit="10" d="M250.957,501.477
		C126.439,661.646-104.35,690.557-264.52,566.031C-424.684,441.516-453.583,210.73-329.066,50.562
		c124.517-160.17,355.301-189.08,515.468-64.562C346.578,110.526,375.473,341.313,250.957,501.477z"/>
	<path fill="none" stroke="#FFFFFF" stroke-width="3.0369" stroke-miterlimit="10" d="M244.076,496.125
		c-122.951,158.158-350.84,186.703-508.995,63.744C-423.069,436.92-451.606,209.036-328.653,50.883
		c122.949-158.156,350.832-186.701,508.984-63.75C338.494,110.093,367.026,337.978,244.076,496.125z"/>
	<path fill="none" stroke="#FFFFFF" stroke-width="3.0369" stroke-miterlimit="10" d="M237.193,490.778
		C115.808,646.92-109.178,675.102-265.32,553.709c-156.135-121.384-184.308-346.366-62.923-502.506
		c121.386-156.143,346.366-184.324,502.505-62.938C330.411,109.66,358.579,334.643,237.193,490.778z"/>
	<path fill="none" stroke="#FFFFFF" stroke-width="3.0369" stroke-miterlimit="10" d="M230.312,485.426
		c-119.82,154.128-341.903,181.949-496.031,62.121C-419.84,427.729-447.651,205.648-327.831,51.522
		c119.82-154.128,341.898-181.946,496.022-62.125C322.326,109.226,350.131,331.306,230.312,485.426z"/>
	<path fill="none" stroke="#FFFFFF" stroke-width="3.0369" stroke-miterlimit="10" d="M223.43,480.079
		c-118.253,152.113-337.436,179.57-489.548,61.308c-152.108-118.253-179.556-337.431-61.3-489.543
		c118.253-152.113,337.43-179.569,489.54-61.315C314.243,108.793,341.685,327.971,223.43,480.079z"/>
	<path fill="none" stroke="#FFFFFF" stroke-width="3.0369" stroke-miterlimit="10" d="M216.549,474.729
		C99.862,624.828-116.418,651.922-266.518,535.225c-150.094-116.688-177.177-332.962-60.487-483.061
		C-210.318-97.936,5.958-125.027,156.053-8.339C306.159,108.359,333.238,324.636,216.549,474.729z"/>
	<path fill="none" stroke="#FFFFFF" stroke-width="3.0369" stroke-miterlimit="10" d="M209.667,469.377
		C94.545,617.465-118.832,644.193-266.917,529.063c-148.08-115.121-174.799-328.495-59.676-476.58
		C-211.472-95.602,1.901-122.33,149.983-7.207C298.075,107.926,324.791,321.3,209.667,469.377z"/>
	<path fill="none" stroke="#FFFFFF" stroke-width="3.0369" stroke-miterlimit="10" d="M202.787,464.028
		C89.23,610.102-121.246,636.467-267.317,522.901C-413.383,409.346-439.74,198.874-326.182,52.804
		C-212.626-93.268-2.155-119.633,143.913-6.075C289.991,107.492,316.344,317.964,202.787,464.028z"/>
	<path fill="none" stroke="#FFFFFF" stroke-width="3.0369" stroke-miterlimit="10" d="M195.905,458.678
		c-111.99,144.06-319.565,170.062-463.621,58.062c-144.052-111.99-170.046-319.56-58.053-463.616
		c111.99-144.057,319.56-170.06,463.613-58.067C281.907,107.059,307.897,314.629,195.905,458.678z"/>
	<path fill="none" stroke="#FFFFFF" stroke-width="3.0369" stroke-miterlimit="10" d="M189.024,453.331
		C78.6,595.375-126.073,621.014-268.116,510.581c-142.038-110.425-167.668-315.093-57.241-457.135
		C-214.933-88.598-10.265-114.236,131.775-3.81C273.824,106.625,299.45,311.293,189.024,453.331z"/>
	<path fill="none" stroke="#FFFFFF" stroke-width="3.0369" stroke-miterlimit="10" d="M182.142,447.979
		C73.284,588.01-128.487,613.287-268.515,504.418c-140.024-108.858-165.29-310.625-56.43-450.653
		C-216.086-86.264-14.321-111.538,125.704-2.679C265.74,106.191,291.002,307.957,182.142,447.979z"/>
	<path fill="none" stroke="#FFFFFF" stroke-width="3.0369" stroke-miterlimit="10" d="M175.26,442.629
		C67.967,580.646-130.901,605.559-268.915,498.256c-138.011-107.292-162.913-306.158-55.618-444.171
		C-217.24-83.93-18.377-108.841,119.634-1.547C257.656,105.757,282.555,304.621,175.26,442.629z"/>
	<path fill="none" stroke="#FFFFFF" stroke-width="3.0369" stroke-miterlimit="10" d="M168.379,437.282
		c-105.727,136.003-301.693,160.55-437.693,54.812c-135.997-105.726-160.537-301.688-54.808-437.689
		c105.728-136,301.689-160.549,437.685-54.819C249.572,105.324,274.109,301.285,168.379,437.282z"/>
	<path fill="none" stroke="#FFFFFF" stroke-width="3.0369" stroke-miterlimit="10" d="M161.499,431.93
		C57.337,565.92-135.728,590.105-269.713,485.934c-133.983-104.161-158.159-297.221-53.995-431.208
		C-219.547-79.26-26.488-103.444,107.494,0.718C241.488,104.891,265.662,297.95,161.499,431.93z"/>
	<path fill="none" stroke="#FFFFFF" stroke-width="3.0369" stroke-miterlimit="10" d="M154.617,426.581
		C52.022,558.557-138.141,582.379-270.113,479.772c-131.969-102.595-155.781-292.753-53.185-424.726
		C-220.702-76.926-30.543-100.747,101.424,1.849C233.405,104.457,257.214,294.615,154.617,426.581z"/>
	<path fill="none" stroke="#FFFFFF" stroke-width="3.0369" stroke-miterlimit="10" d="M147.736,421.231
		C46.707,551.191-140.555,574.652-270.513,473.61c-129.954-101.028-153.404-288.285-52.372-418.244
		C-221.856-74.592-34.599-98.05,95.354,2.981C225.32,104.023,248.767,291.279,147.736,421.231z"/>
	<path fill="none" stroke="#FFFFFF" stroke-width="3.0369" stroke-miterlimit="10" d="M140.854,415.881
		C41.391,543.828-142.968,566.924-270.913,467.45c-127.94-99.464-151.027-283.818-51.56-411.763
		C-223.008-72.257-38.655-95.351,89.285,4.113C217.237,103.591,240.321,287.943,140.854,415.881z"/>
	<path fill="none" stroke="#FFFFFF" stroke-width="3.0369" stroke-miterlimit="10" d="M133.973,410.533
		c-97.897,125.934-279.354,148.664-405.284,50.754c-125.927-97.897-148.65-279.349-50.749-405.281
		C-224.163-69.923-42.709-92.653,83.215,5.246C209.153,103.157,231.874,284.608,133.973,410.533z"/>
	<path fill="none" stroke="#FFFFFF" stroke-width="3.0369" stroke-miterlimit="10" d="M127.091,405.183
		C30.759,529.102-147.795,551.471-271.71,455.127c-123.914-96.333-146.272-274.882-49.938-398.8
		C-225.316-67.589-46.767-89.955,77.145,6.378C201.069,102.723,223.426,281.271,127.091,405.183z"/>
	<path fill="none" stroke="#FFFFFF" stroke-width="3.0369" stroke-miterlimit="10" d="M120.209,399.833
		c-94.767,121.906-270.419,143.909-392.32,49.132c-121.898-94.767-143.895-270.415-49.126-392.318
		C-226.469-65.254-50.823-87.259,71.075,7.509C192.985,102.289,214.979,277.937,120.209,399.833z"/>
	<path fill="none" stroke="#FFFFFF" stroke-width="3.0369" stroke-miterlimit="10" d="M113.329,394.483
		c-93.2,119.892-265.951,141.533-385.839,48.32c-119.885-93.201-141.519-265.946-48.313-385.834
		C-227.624-62.92-54.877-84.56,65.005,8.642C184.902,101.855,206.533,274.601,113.329,394.483z"/>
	<path fill="none" stroke="#FFFFFF" stroke-width="3.0369" stroke-miterlimit="10" d="M106.448,389.135
		C14.812,507.012-155.037,528.29-272.909,436.643c-117.872-91.635-139.142-261.48-47.503-379.354
		C-228.777-60.585-58.932-81.862,58.937,9.774C176.818,101.423,198.086,271.266,106.448,389.135z"/>
	<path fill="none" stroke="#FFFFFF" stroke-width="3.0369" stroke-miterlimit="10" d="M99.566,383.784
		C9.497,499.649-157.451,520.563-273.309,430.481C-389.167,340.412-410.072,173.47-320,57.608
		C-229.93-58.251-62.988-79.164,52.866,10.906C168.735,100.989,189.639,267.929,99.566,383.784z"/>
	<path fill="none" stroke="#FFFFFF" stroke-width="3.0369" stroke-miterlimit="10" d="M92.684,378.435
		c-88.502,113.849-252.547,134.4-366.393,45.884c-113.845-88.503-134.387-252.542-45.88-366.39
		C-231.084-55.917-67.044-76.467,46.796,12.038C160.651,100.555,181.191,264.594,92.684,378.435z"/>
	<path fill="none" stroke="#FFFFFF" stroke-width="3.0369" stroke-miterlimit="10" d="M85.803,373.086
		C-1.133,484.92-162.277,505.11-274.109,418.159c-111.829-86.938-132.008-248.076-45.067-359.91
		C-232.238-53.582-71.099-73.769,40.727,13.17C152.566,100.122,172.745,261.258,85.803,373.086z"/>
	<path fill="none" stroke="#FFFFFF" stroke-width="3.0369" stroke-miterlimit="10" d="M78.921,367.735
		c-85.37,109.822-243.611,129.646-353.429,44.262C-384.324,326.626-404.139,168.39-318.764,58.57
		C-233.392-51.247-75.155-71.07,34.658,14.302C144.483,99.689,164.298,257.924,78.921,367.735z"/>
	<path fill="none" stroke="#FFFFFF" stroke-width="3.0369" stroke-miterlimit="10" d="M72.04,362.386
		c-83.805,107.808-239.144,127.269-346.946,43.449c-107.802-83.806-127.254-239.14-43.445-346.945
		C-234.545-48.913-79.21-68.373,28.586,15.435C136.399,99.255,155.851,254.588,72.04,362.386z"/>
	<path fill="none" stroke="#FFFFFF" stroke-width="3.0369" stroke-miterlimit="10" d="M65.159,357.037
		c-82.239,105.793-234.677,124.891-340.466,42.637c-105.787-82.24-124.876-234.673-42.632-340.464
		C-235.699-46.579-83.266-65.675,22.517,16.566C128.315,98.821,147.404,251.252,65.159,357.037z"/>
	<path fill="none" stroke="#FFFFFF" stroke-width="3.0369" stroke-miterlimit="10" d="M58.277,351.687
		c-80.673,103.781-230.208,122.515-333.982,41.826c-103.774-80.675-122.5-230.205-41.821-333.982
		C-236.853-44.244-87.322-62.977,16.448,17.698C120.231,98.388,138.958,247.916,58.277,351.687z"/>
	<path fill="none" stroke="#FFFFFF" stroke-width="3.0369" stroke-miterlimit="10" d="M51.396,346.338
		c-79.108,101.766-225.741,120.137-327.501,41.014c-101.761-79.109-120.123-225.737-41.01-327.501
		c79.108-101.76,225.737-120.13,327.492-41.02C112.147,97.954,130.509,244.581,51.396,346.338z"/>
	<path fill="none" stroke="#FFFFFF" stroke-width="3.0369" stroke-miterlimit="10" d="M44.514,340.987
		c-77.542,99.753-221.273,117.759-321.019,40.202c-99.746-77.542-117.745-221.269-40.198-321.019
		C-239.16-39.575-95.434-57.581,4.308,19.962C104.064,97.521,122.063,241.245,44.514,340.987z"/>
	<path fill="none" stroke="#FFFFFF" stroke-width="3.0369" stroke-miterlimit="10" d="M37.633,335.638
		c-75.977,97.738-216.805,115.382-314.537,39.391c-97.733-75.979-115.368-216.801-39.387-314.537
		C-240.314-37.241-99.49-54.883-1.761,21.095C95.979,97.088,113.617,237.909,37.633,335.638z"/>
	<path fill="none" stroke="#FFFFFF" stroke-width="3.0369" stroke-miterlimit="10" d="M30.751,330.288
		c-74.41,95.724-212.337,113.005-308.055,38.578c-95.719-74.411-112.991-212.333-38.576-308.055
		C-241.467-34.905-103.545-52.185-7.832,22.227C87.896,96.653,105.168,234.573,30.751,330.288z"/>
	<path fill="none" stroke="#FFFFFF" stroke-width="3.0369" stroke-miterlimit="10" d="M23.87,324.938
		C-48.973,418.649-184,435.567-277.703,362.706c-93.706-72.847-110.614-207.867-37.764-301.574
		c72.846-93.704,207.865-110.619,301.565-37.773C79.811,96.221,96.722,231.238,23.87,324.938z"/>
	<path fill="none" stroke="#FFFFFF" stroke-width="3.0369" stroke-miterlimit="10" d="M16.989,319.59
		c-71.278,91.695-203.401,108.249-295.091,36.954c-91.692-71.28-108.236-203.398-36.952-295.091
		c71.279-91.69,203.397-108.242,295.084-36.962C71.728,95.786,88.276,227.902,16.989,319.59z"/>
	<path fill="none" stroke="#FFFFFF" stroke-width="3.0369" stroke-miterlimit="10" d="M10.107,314.239
		c-69.711,89.682-198.934,105.873-288.609,36.144c-89.676-69.715-105.858-198.93-36.14-288.609
		c69.714-89.677,198.93-105.865,288.602-36.151C63.644,95.354,79.828,224.566,10.107,314.239z"/>
	<path fill="none" stroke="#FFFFFF" stroke-width="3.0369" stroke-miterlimit="10" d="M3.226,308.889
		c-68.146,87.67-194.466,103.496-282.127,35.332c-87.663-68.147-103.482-194.462-35.33-282.129
		c68.148-87.66,194.463-103.485,282.121-35.337C55.56,94.92,71.381,221.231,3.226,308.889z"/>
	<path fill="none" stroke="#FFFFFF" stroke-width="3.0369" stroke-miterlimit="10" d="M-3.656,303.54
		c-66.581,85.654-189.998,101.118-275.646,34.52c-85.648-66.582-101.104-189.994-34.518-275.647
		C-247.236-23.234-123.824-38.696-38.18,27.887C47.477,94.485,62.934,217.896-3.656,303.54z"/>
	<path fill="none" stroke="#FFFFFF" stroke-width="3.0369" stroke-miterlimit="10" d="M-10.538,298.19
		c-65.014,83.64-185.53,98.741-269.163,33.707c-83.636-65.016-98.727-185.525-33.705-269.164
		C-248.389-20.9-127.878-35.999-44.25,29.019C39.393,94.053,54.487,214.561-10.538,298.19z"/>
	<path fill="none" stroke="#FFFFFF" stroke-width="3.0369" stroke-miterlimit="10" d="M-17.417,292.842
		c-63.45,81.625-181.063,96.363-262.683,32.895c-81.621-63.451-96.35-181.059-32.894-262.683
		c63.45-81.619,181.059-96.354,262.674-32.903C31.309,93.619,46.041,211.224-17.417,292.842z"/>
	<path fill="none" stroke="#FFFFFF" stroke-width="3.0369" stroke-miterlimit="10" d="M-24.3,287.491
		c-61.883,79.612-176.595,93.986-256.199,32.083c-79.607-61.885-93.972-176.591-32.082-256.2
		c61.885-79.605,176.592-93.977,256.192-32.092C23.225,93.186,37.593,207.889-24.3,287.491z"/>
	<path fill="none" stroke="#FFFFFF" stroke-width="3.0369" stroke-miterlimit="10" d="M-31.18,282.141
		c-60.317,77.6-172.128,91.609-249.719,31.273c-77.594-60.319-91.596-172.124-31.271-249.72
		c60.319-77.591,172.124-91.599,249.71-31.279C15.142,92.752,29.146,204.553-31.18,282.141z"/>
	<path fill="none" stroke="#FFFFFF" stroke-width="3.0369" stroke-miterlimit="10" d="M-38.063,276.791
		c-58.751,75.585-167.658,89.232-243.236,30.461c-75.579-58.753-89.217-167.655-30.459-243.236
		c58.754-75.578,167.656-89.222,243.229-30.469C7.058,92.318,20.7,201.218-38.063,276.791z"/>
	<path fill="none" stroke="#FFFFFF" stroke-width="3.0369" stroke-miterlimit="10" d="M-44.944,271.442
		c-57.186,73.571-163.191,86.854-236.754,29.648c-73.565-57.188-86.841-163.188-29.648-236.755
		c57.188-73.563,163.189-86.845,236.747-29.657C-1.026,91.885,12.251,197.882-44.944,271.442z"/>
	<path fill="none" stroke="#FFFFFF" stroke-width="3.0369" stroke-miterlimit="10" d="M-51.825,266.093
		c-55.62,71.557-158.725,84.477-230.272,28.837c-71.552-55.622-84.463-158.721-28.836-230.275
		c55.621-71.548,158.72-84.466,230.265-28.843C-9.109,91.452,3.805,194.546-51.825,266.093z"/>
	<path fill="none" stroke="#FFFFFF" stroke-width="3.0369" stroke-miterlimit="10" d="M-58.707,260.743
		c-54.055,69.542-154.257,82.1-223.79,28.024c-69.539-54.056-82.087-154.252-28.024-223.793
		c54.056-69.533,154.254-82.087,223.782-28.032C-17.194,91.018-4.641,191.211-58.707,260.743z"/>
	<path fill="none" stroke="#FFFFFF" stroke-width="3.0369" stroke-miterlimit="10" d="M-65.587,255.393
		c-52.489,67.529-149.789,79.723-217.309,27.214c-67.524-52.491-79.709-149.785-27.213-217.311
		C-257.62-2.225-160.324-14.415-92.808,38.075C-25.278,90.584-13.089,187.874-65.587,255.393z"/>
	<path fill="none" stroke="#FFFFFF" stroke-width="3.0369" stroke-miterlimit="10" d="M-72.47,250.043
		c-50.922,65.516-145.319,77.345-210.825,26.402c-65.511-50.925-77.332-145.317-26.401-210.829
		C-258.773,0.109-164.38-11.718-98.877,39.207C-33.362,90.151-21.536,184.539-72.47,250.043z"/>
	<path fill="none" stroke="#FFFFFF" stroke-width="3.0369" stroke-miterlimit="10" d="M-79.35,244.693
		c-49.357,63.501-140.854,74.968-204.345,25.591c-63.496-49.359-74.955-140.85-25.591-204.348
		C-259.926,2.444-168.434-9.02-104.948,40.34C-41.445,89.717-29.983,181.204-79.35,244.693z"/>
	<path fill="none" stroke="#FFFFFF" stroke-width="3.0369" stroke-miterlimit="10" d="M-86.232,239.345
		c-47.791,61.486-136.385,72.59-197.863,24.777c-61.481-47.793-72.577-136.381-24.778-197.865
		c47.793-61.478,136.383-72.579,197.856-24.785C-49.529,89.284-38.43,177.868-86.232,239.345z"/>
	<path fill="none" stroke="#FFFFFF" stroke-width="3.0369" stroke-miterlimit="10" d="M-93.113,233.995
		c-46.226,59.472-131.918,70.213-191.381,23.966c-59.469-46.228-70.2-131.914-23.967-191.383
		c46.227-59.465,131.915-70.202,191.373-23.976C-57.613,88.85-46.876,174.532-93.113,233.995z"/>
	<path fill="none" stroke="#FFFFFF" stroke-width="3.0369" stroke-miterlimit="10" d="M-99.995,228.645
		c-44.659,57.459-127.45,67.836-184.898,23.155c-57.455-44.661-67.823-127.446-23.155-184.901
		c44.661-57.451,127.446-67.824,184.892-23.163C-65.698,88.416-55.324,171.196-99.995,228.645z"/>
	<path fill="none" stroke="#FFFFFF" stroke-width="3.0369" stroke-miterlimit="10" d="M-106.876,223.295
		c-43.093,55.445-122.981,65.458-178.417,22.343c-55.44-43.096-65.445-122.979-22.343-178.421
		c43.095-55.435,122.979-65.445,178.409-22.35C-73.781,87.983-63.77,167.861-106.876,223.295z"/>
	<path fill="none" stroke="#FFFFFF" stroke-width="3.0369" stroke-miterlimit="10" d="M-113.757,217.946
		c-41.527,53.431-118.515,63.079-171.936,21.53c-53.427-41.53-63.068-118.511-21.531-171.938
		c41.528-53.421,118.512-63.068,171.928-21.539C-81.865,87.55-72.217,164.525-113.757,217.946z"/>
	<path fill="none" stroke="#FFFFFF" stroke-width="3.0369" stroke-miterlimit="10" d="M-120.639,212.596
		c-39.962,51.417-114.046,60.704-165.452,20.72c-51.414-39.965-60.691-114.043-20.722-165.457
		c39.965-51.407,114.044-60.69,165.446-20.727C-89.949,87.116-80.666,161.19-120.639,212.596z"/>
	<path fill="none" stroke="#FFFFFF" stroke-width="3.0369" stroke-miterlimit="10" d="M-127.52,207.247
		c-38.396,49.402-109.579,58.325-158.972,19.907c-49.398-38.399-58.313-109.576-19.909-158.976
		c38.398-49.394,109.577-58.313,158.965-19.915C-98.032,86.683-89.112,157.854-127.52,207.247z"/>
	<path fill="none" stroke="#FFFFFF" stroke-width="3.0369" stroke-miterlimit="10" d="M-134.402,201.896
		c-36.83,47.39-105.11,55.949-152.489,19.096c-47.385-36.832-55.937-105.107-19.097-152.493
		c36.831-47.379,105.107-55.936,152.481-19.104C-106.116,86.249-97.559,154.519-134.402,201.896z"/>
	<path fill="none" stroke="#FFFFFF" stroke-width="3.0369" stroke-miterlimit="10" d="M-141.283,196.547
		c-35.265,45.375-100.643,53.572-146.008,18.284c-45.371-35.268-53.559-100.64-18.286-146.012
		c35.268-45.365,100.642-53.558,146.001-18.291C-114.2,85.816-106.005,151.184-141.283,196.547z"/>
	<path fill="none" stroke="#FFFFFF" stroke-width="3.0369" stroke-miterlimit="10" d="M-148.165,191.198
		c-33.698,43.361-96.175,51.193-139.524,17.471c-43.358-33.701-51.183-96.172-17.475-139.529
		c33.7-43.352,96.173-51.181,139.518-17.48C-122.284,85.382-114.453,147.848-148.165,191.198z"/>
	<path fill="none" stroke="#FFFFFF" stroke-width="3.0369" stroke-miterlimit="10" d="M-155.046,185.848
		c-32.132,41.348-91.707,48.817-133.043,16.66c-41.344-32.135-48.805-91.703-16.662-133.047
		c32.134-41.338,91.705-48.804,133.036-16.669C-130.368,84.949-122.9,144.512-155.046,185.848z"/>
	<path fill="none" stroke="#FFFFFF" stroke-width="3.0369" stroke-miterlimit="10" d="M-161.927,180.499
		c-30.566,39.333-87.24,46.438-126.562,15.847c-39.328-30.569-46.427-87.235-15.85-126.566
		c30.568-39.321,87.237-46.424,126.554-15.855C-138.451,84.516-131.346,141.177-161.927,180.499z"/>
	<path fill="none" stroke="#FFFFFF" stroke-width="3.0369" stroke-miterlimit="10" d="M-168.809,175.148
		c-29.001,37.319-82.771,44.062-120.079,15.037c-37.316-29.005-44.05-82.77-15.039-120.085
		c29.003-37.309,82.77-44.048,120.072-15.045C-146.535,84.082-139.793,137.841-168.809,175.148z"/>
	<path fill="none" stroke="#FFFFFF" stroke-width="3.0369" stroke-miterlimit="10" d="M-175.69,169.799
		c-27.435,35.306-78.304,41.685-113.598,14.225c-35.302-27.438-41.673-78.301-14.228-113.603
		c27.437-35.295,78.302-41.671,113.591-14.232C-154.619,83.648-148.241,134.506-175.69,169.799z"/>
	<path fill="none" stroke="#FFFFFF" stroke-width="3.0369" stroke-miterlimit="10" d="M-182.572,164.449
		c-25.869,33.291-73.836,39.308-107.115,13.413c-33.288-25.872-39.295-73.833-13.416-107.121
		c25.871-33.28,73.834-39.293,107.108-13.421C-162.702,83.215-156.688,131.17-182.572,164.449z"/>
	<path fill="none" stroke="#FFFFFF" stroke-width="3.0369" stroke-miterlimit="10" d="M-189.454,159.1
		c-24.304,31.278-69.368,36.93-100.633,12.601c-31.274-24.306-36.919-69.365-12.604-100.639
		c24.306-31.267,69.366-36.916,100.627-12.609C-170.787,82.781-165.135,127.834-189.454,159.1z"/>
	<path fill="none" stroke="#FFFFFF" stroke-width="3.0369" stroke-miterlimit="10" d="M-196.334,153.75
		c-22.737,29.264-64.9,34.552-94.151,11.789c-29.261-22.74-34.541-64.896-11.794-94.157c22.74-29.252,64.899-34.537,94.146-11.798
		C-178.871,82.348-173.582,124.498-196.334,153.75z"/>
	<path fill="none" stroke="#FFFFFF" stroke-width="3.0369" stroke-miterlimit="10" d="M-203.216,148.4
		c-21.171,27.249-60.432,32.175-87.67,10.978c-27.246-21.175-32.162-60.43-10.981-87.676c21.175-27.237,60.433-32.16,87.664-10.986
		C-186.954,81.914-182.029,121.163-203.216,148.4z"/>
	<path fill="none" stroke="#FFFFFF" stroke-width="3.0369" stroke-miterlimit="10" d="M-210.098,143.052
		c-19.604,25.235-55.964,29.797-81.187,10.165c-25.232-19.609-29.786-55.962-10.17-81.193
		c19.607-25.225,55.963-29.783,81.182-10.176C-195.038,81.48-190.476,117.827-210.098,143.052z"/>
	<path fill="none" stroke="#FFFFFF" stroke-width="3.0369" stroke-miterlimit="10" d="M-216.979,137.701
		c-18.04,23.221-51.497,27.42-74.706,9.354c-23.218-18.044-27.409-51.495-9.357-74.713c18.042-23.21,51.495-27.405,74.699-9.362
		C-203.122,81.047-198.923,114.491-216.979,137.701z"/>
	<path fill="none" stroke="#FFFFFF" stroke-width="3.0369" stroke-miterlimit="10" d="M-223.861,132.352
		c-16.474,21.208-47.028,25.043-68.224,8.542c-21.204-16.478-25.031-47.026-8.547-68.23c16.478-21.195,47.029-25.027,68.219-8.551
		C-211.206,80.613-207.37,111.156-223.861,132.352z"/>
	<path fill="none" stroke="#FFFFFF" stroke-width="3.0369" stroke-miterlimit="10" d="M-230.742,127.002
		c-14.908,19.193-42.561,22.665-61.742,7.729c-19.19-14.911-22.654-42.559-7.735-61.748c14.911-19.182,42.561-22.649,61.736-7.738
		C-219.29,80.181-215.817,107.82-230.742,127.002z"/>
	<path fill="none" stroke="#FFFFFF" stroke-width="3.0369" stroke-miterlimit="10" d="M-237.623,121.652
		c-13.343,17.18-38.094,20.288-55.261,6.919c-17.176-13.346-20.276-38.091-6.924-55.268c13.347-17.167,38.093-20.272,55.255-6.928
		C-227.374,79.747-224.264,104.484-237.623,121.652z"/>
	<path fill="none" stroke="#FFFFFF" stroke-width="3.0369" stroke-miterlimit="10" d="M-244.504,116.304
		c-11.776,15.164-33.626,17.91-48.777,6.105c-15.163-11.78-17.9-33.623-6.112-48.785c11.778-15.153,33.624-17.895,48.771-6.115
		C-235.458,79.312-232.711,101.149-244.504,116.304z"/>
	<path fill="none" stroke="#FFFFFF" stroke-width="3.0369" stroke-miterlimit="10" d="M-251.385,110.953
		c-10.212,13.151-29.159,15.534-42.297,5.295c-13.149-10.215-15.522-29.155-5.3-42.304c10.213-13.14,29.156-15.517,42.29-5.304
		C-243.542,78.879-241.158,97.813-251.385,110.953z"/>
	<path fill="none" stroke="#FFFFFF" stroke-width="3.0369" stroke-miterlimit="10" d="M-258.267,105.604
		c-8.645,11.138-24.689,13.156-35.814,4.482c-11.135-8.647-13.146-24.688-4.488-35.821c8.647-11.126,24.688-13.14,35.808-4.492
		C-251.625,78.446-249.605,94.478-258.267,105.604z"/>
	<path fill="none" stroke="#FFFFFF" stroke-width="3.0369" stroke-miterlimit="10" d="M-265.149,100.254
		c-7.078,9.124-20.222,10.779-29.332,3.671c-9.121-7.083-10.768-20.22-3.677-29.339c7.081-9.112,20.221-10.763,29.326-3.681
		C-259.708,78.013-258.052,91.142-265.149,100.254z"/>
	<path fill="none" stroke="#FFFFFF" stroke-width="3.0369" stroke-miterlimit="10" d="M-272.03,94.904
		c-5.513,7.109-15.755,8.401-22.851,2.859c-7.107-5.518-8.391-15.753-2.865-22.858c5.516-7.097,15.753-8.385,22.844-2.868
		C-267.792,77.579-266.5,87.807-272.03,94.904z"/>
	<path fill="none" stroke="#FFFFFF" stroke-width="3.0369" stroke-miterlimit="10" d="M-278.912,89.555
		c-3.947,5.096-11.286,6.023-16.369,2.048c-5.093-3.952-6.013-11.284-2.053-16.377c3.95-5.083,11.285-6.007,16.362-2.057
		C-275.876,77.145-274.947,84.471-278.912,89.555z"/>
	<path fill="none" stroke="#FFFFFF" stroke-width="3.0369" stroke-miterlimit="10" d="M-285.792,84.205
		c-2.391,3.074-6.811,3.636-9.887,1.235c-3.071-2.396-3.637-6.816-1.242-9.895c2.384-3.069,6.817-3.629,9.88-1.244
		C-283.96,76.712-283.402,81.129-285.792,84.205z"/>
	<path fill="none" stroke="#FFFFFF" stroke-width="3.0369" stroke-miterlimit="10" d="M-292.674,78.855
		c0.834-1.056,0.631-2.577-0.437-3.423c-1.049-0.818-2.58-0.621-3.398,0.434c-0.828,1.064-0.635,2.594,0.431,3.413
		C-295.025,80.125-293.49,79.923-292.674,78.855z"/>
</g>
<g>
	<path fill="none" stroke="#FFFFFF" stroke-width="3.0369" stroke-miterlimit="10" d="M1702.123,371.775
		c-218.576-169.926-258.023-484.872-88.098-703.451c169.922-218.565,484.864-258.004,703.438-88.081
		c218.579,169.924,258.028,484.864,88.103,703.44C2235.638,502.267,1920.691,541.693,1702.123,371.775z"/>
	<path fill="none" stroke="#FFFFFF" stroke-width="3.0369" stroke-miterlimit="10" d="M1707.473,364.894
		c-216.562-168.359-255.646-480.404-87.287-696.97c168.357-216.552,480.397-255.627,696.957-87.271
		c216.565,168.359,255.651,480.397,87.291,696.96C2236.071,494.184,1924.025,533.248,1707.473,364.894z"/>
	<path fill="none" stroke="#FFFFFF" stroke-width="3.0369" stroke-miterlimit="10" d="M1712.82,358.014
		c-214.547-166.796-253.268-475.938-86.473-690.489c166.791-214.538,475.929-253.249,690.475-86.458
		c214.551,166.793,253.273,475.93,86.479,690.479C2236.505,486.1,1927.361,524.8,1712.82,358.014z"/>
	<path fill="none" stroke="#FFFFFF" stroke-width="3.0369" stroke-miterlimit="10" d="M1718.17,351.131
		c-212.533-165.229-250.891-471.47-85.662-684.006c165.227-212.524,471.462-250.872,683.994-85.647
		c212.537,165.228,250.896,471.462,85.667,683.997C2236.938,478.016,1930.697,516.353,1718.17,351.131z"/>
	<path fill="none" stroke="#FFFFFF" stroke-width="3.0369" stroke-miterlimit="10" d="M1723.52,344.25
		c-210.52-163.663-248.512-467.002-84.85-677.523c163.66-210.512,466.994-248.496,677.512-84.836
		c210.522,163.662,248.518,466.994,84.855,677.515C2237.371,469.933,1934.033,507.907,1723.52,344.25z"/>
	<path fill="none" stroke="#FFFFFF" stroke-width="3.0369" stroke-miterlimit="10" d="M1728.869,337.369
		c-208.506-162.097-246.137-462.533-84.039-671.042c162.096-208.497,462.527-246.118,671.031-84.023
		c208.509,162.095,246.141,462.526,84.044,671.032C2237.806,461.849,1937.369,499.459,1728.869,337.369z"/>
	<path fill="none" stroke="#FFFFFF" stroke-width="3.0369" stroke-miterlimit="10" d="M1734.221,330.487
		c-206.492-160.53-243.76-458.064-83.229-664.561c160.529-206.482,458.06-243.74,664.549-83.212
		c206.495,160.53,243.764,458.06,83.231,664.551C2238.238,453.765,1940.705,491.012,1734.221,330.487z"/>
	<path fill="none" stroke="#FFFFFF" stroke-width="3.0369" stroke-miterlimit="10" d="M1739.568,323.606
		c-204.477-158.965-241.381-453.598-82.414-658.078c158.963-204.469,453.59-241.363,658.065-82.4
		c204.481,158.964,241.387,453.592,82.421,658.068C2238.672,445.682,1944.039,482.565,1739.568,323.606z"/>
	<path fill="none" stroke="#FFFFFF" stroke-width="3.0369" stroke-miterlimit="10" d="M1744.92,316.725
		c-202.465-157.399-239.006-449.131-81.604-651.597c157.396-202.456,449.123-238.986,651.584-81.59
		c202.467,157.398,239.008,449.124,81.608,651.587C2239.106,437.597,1947.376,474.118,1744.92,316.725z"/>
	<path fill="none" stroke="#FFFFFF" stroke-width="3.0369" stroke-miterlimit="10" d="M1750.268,309.844
		c-200.449-155.834-236.627-444.662-80.791-645.115c155.83-200.441,444.655-236.608,645.103-80.777
		c200.453,155.833,236.632,444.656,80.797,645.104C2239.539,429.513,1950.71,465.671,1750.268,309.844z"/>
	<path fill="none" stroke="#FFFFFF" stroke-width="3.0369" stroke-miterlimit="10" d="M1755.617,302.962
		c-198.436-154.268-234.248-440.194-79.979-638.634c154.266-198.427,440.188-234.23,638.621-79.966
		c198.438,154.268,234.253,440.188,79.985,638.623C2239.973,421.43,1954.046,457.225,1755.617,302.962z"/>
	<path fill="none" stroke="#FFFFFF" stroke-width="3.0369" stroke-miterlimit="10" d="M1760.969,296.08
		c-196.424-152.701-231.873-435.727-79.168-632.15c152.699-196.413,435.719-231.854,632.139-79.153
		c196.425,152.7,231.876,435.72,79.173,632.14C2240.406,413.346,1957.383,448.778,1760.969,296.08z"/>
	<path fill="none" stroke="#FFFFFF" stroke-width="3.0369" stroke-miterlimit="10" d="M1766.316,289.2
		c-194.408-151.137-229.494-431.26-78.355-625.669c151.133-194.399,431.252-229.478,625.658-78.343
		c194.41,151.135,229.498,431.253,78.361,625.658C2240.84,405.262,1960.718,440.332,1766.316,289.2z"/>
	<path fill="none" stroke="#FFFFFF" stroke-width="3.0369" stroke-miterlimit="10" d="M1771.668,282.318
		c-192.395-149.57-227.119-426.791-77.545-619.188c149.568-192.385,426.784-227.1,619.176-77.53
		c192.396,149.569,227.12,426.784,77.55,619.176C2241.273,397.178,1964.054,431.884,1771.668,282.318z"/>
	<path fill="none" stroke="#FFFFFF" stroke-width="3.0369" stroke-miterlimit="10" d="M1777.016,275.437
		c-190.381-148.005-224.74-422.323-76.732-612.705c148.002-190.372,422.317-224.723,612.695-76.72
		c190.382,148.003,224.743,422.317,76.737,612.695C2241.707,389.095,1967.389,423.437,1777.016,275.437z"/>
	<path fill="none" stroke="#FFFFFF" stroke-width="3.0369" stroke-miterlimit="10" d="M1782.367,268.555
		C1594,122.117,1560.004-149.3,1706.445-337.667c146.436-188.358,417.849-222.346,606.214-75.909
		c188.367,146.438,222.364,417.85,75.925,606.214C2242.141,381.011,1970.725,414.99,1782.367,268.555z"/>
	<path fill="none" stroke="#FFFFFF" stroke-width="3.0369" stroke-miterlimit="10" d="M1787.717,261.673
		c-186.352-144.872-219.986-413.389-75.109-599.741c144.871-186.344,413.381-219.968,599.73-75.097
		c186.354,144.872,219.988,413.382,75.114,599.731C2242.574,372.926,1974.062,406.542,1787.717,261.673z"/>
	<path fill="none" stroke="#FFFFFF" stroke-width="3.0369" stroke-miterlimit="10" d="M1793.064,254.793
		c-184.338-143.308-217.607-408.922-74.297-593.261c143.305-184.33,408.914-217.591,593.25-74.284
		c184.339,143.306,217.609,408.914,74.302,593.249C2243.008,364.842,1977.396,398.095,1793.064,254.793z"/>
	<path fill="none" stroke="#FFFFFF" stroke-width="3.0369" stroke-miterlimit="10" d="M1798.414,247.911
		c-182.324-141.74-215.23-404.451-73.484-586.776c141.738-182.317,404.445-215.213,586.767-73.474
		c182.326,141.74,215.232,404.445,73.492,586.768C2243.441,356.76,1980.73,389.649,1798.414,247.911z"/>
	<path fill="none" stroke="#FFFFFF" stroke-width="3.0369" stroke-miterlimit="10" d="M1803.764,241.029
		c-180.309-140.175-212.852-399.983-72.672-580.294c140.174-180.303,399.978-212.837,580.285-72.663
		c180.312,140.175,212.855,399.979,72.68,580.286C2243.874,348.675,1984.066,381.203,1803.764,241.029z"/>
	<path fill="none" stroke="#FFFFFF" stroke-width="3.0369" stroke-miterlimit="10" d="M1809.115,234.148
		c-178.297-138.61-210.477-395.518-71.863-573.813c138.609-178.288,395.512-210.459,573.806-71.851
		c178.297,138.609,210.477,395.511,71.866,573.805C2244.309,340.591,1987.403,372.754,1809.115,234.148z"/>
	<path fill="none" stroke="#FFFFFF" stroke-width="3.0369" stroke-miterlimit="10" d="M1814.465,227.267
		c-176.283-137.044-208.1-391.05-71.051-567.332c137.041-176.274,391.043-208.082,567.322-71.039
		c176.282,137.044,208.1,391.043,71.056,567.322C2244.742,332.507,1990.738,364.308,1814.465,227.267z"/>
	<path fill="none" stroke="#FFFFFF" stroke-width="3.0369" stroke-miterlimit="10" d="M1819.812,220.386
		c-174.268-135.479-205.721-386.582-70.238-560.85c135.477-174.262,386.576-205.705,560.842-70.228
		c174.269,135.477,205.722,386.575,70.243,560.84C2245.175,324.424,1994.073,355.861,1819.812,220.386z"/>
	<path fill="none" stroke="#FFFFFF" stroke-width="3.0369" stroke-miterlimit="10" d="M1825.164,213.504
		c-172.256-133.912-203.346-382.114-69.428-554.368c133.91-172.246,382.107-203.327,554.359-69.415
		c172.255,133.911,203.345,382.106,69.433,554.358C2245.608,316.34,1997.41,347.414,1825.164,213.504z"/>
	<path fill="none" stroke="#FFFFFF" stroke-width="3.0369" stroke-miterlimit="10" d="M1830.514,206.623
		c-170.24-132.346-200.967-377.646-68.615-547.887c132.346-170.231,377.64-200.949,547.878-68.603
		c170.24,132.345,200.967,377.639,68.62,547.876C2246.042,308.256,2000.745,338.966,1830.514,206.623z"/>
	<path fill="none" stroke="#FFFFFF" stroke-width="3.0369" stroke-miterlimit="10" d="M1835.863,199.742
		c-168.227-130.78-198.59-373.179-67.805-541.404c130.779-168.219,373.173-198.572,541.397-67.793
		c168.226,130.78,198.589,373.172,67.808,541.396C2246.477,300.172,2004.081,330.52,1835.863,199.742z"/>
	<path fill="none" stroke="#FFFFFF" stroke-width="3.0369" stroke-miterlimit="10" d="M1841.211,192.86
		C1675,63.646,1645-175.85,1774.221-342.062c129.213-166.205,368.704-196.195,534.914-66.98
		c166.212,129.214,196.213,368.704,66.996,534.913C2246.909,292.089,2007.415,322.074,1841.211,192.86z"/>
	<path fill="none" stroke="#FFFFFF" stroke-width="3.0369" stroke-miterlimit="10" d="M1846.561,185.979
		c-164.197-127.648-193.834-364.242-66.178-528.441c127.646-164.19,364.235-193.817,528.432-66.168
		c164.198,127.647,193.834,364.236,66.185,528.431C2247.343,284.005,2010.751,313.626,1846.561,185.979z"/>
	<path fill="none" stroke="#FFFFFF" stroke-width="3.0369" stroke-miterlimit="10" d="M1851.912,179.096
		c-162.186-126.082-191.457-359.773-65.369-521.958c126.082-162.177,359.77-191.44,521.951-65.357
		c162.185,126.083,191.458,359.769,65.374,521.95C2247.776,275.921,2014.088,305.179,1851.912,179.096z"/>
	<path fill="none" stroke="#FFFFFF" stroke-width="3.0369" stroke-miterlimit="10" d="M1857.26,172.216
		c-160.17-124.518-189.08-355.307-64.555-515.477c124.516-160.164,355.301-189.063,515.469-64.546
		c160.17,124.517,189.08,355.301,64.562,515.468C2248.21,267.837,2017.423,296.733,1857.26,172.216z"/>
	<path fill="none" stroke="#FFFFFF" stroke-width="3.0369" stroke-miterlimit="10" d="M1862.611,165.335
		c-158.158-122.951-186.703-350.84-63.744-508.995c122.949-158.149,350.833-186.687,508.986-63.733
		c158.156,122.949,186.701,350.832,63.75,508.984C2248.644,259.753,2020.759,288.286,1862.611,165.335z"/>
	<path fill="none" stroke="#FFFFFF" stroke-width="3.0369" stroke-miterlimit="10" d="M1867.959,158.453
		c-156.143-121.385-184.324-346.371-62.932-502.513c121.385-156.135,346.366-184.308,502.506-62.923
		c156.143,121.386,184.324,346.366,62.938,502.505C2249.076,251.67,2024.094,279.838,1867.959,158.453z"/>
	<path fill="none" stroke="#FFFFFF" stroke-width="3.0369" stroke-miterlimit="10" d="M1873.311,151.572
		c-154.129-119.82-181.949-341.903-62.121-496.031c119.818-154.121,341.898-181.932,496.024-62.111
		c154.128,119.82,181.946,341.898,62.125,496.022C2249.511,243.585,2027.431,271.391,1873.311,151.572z"/>
	<path fill="none" stroke="#FFFFFF" stroke-width="3.0369" stroke-miterlimit="10" d="M1878.658,144.69
		c-152.113-118.253-179.57-337.436-61.309-489.548c118.254-152.108,337.431-179.556,489.543-61.3
		c152.113,118.253,179.569,337.43,61.315,489.54C2249.943,235.502,2030.766,262.945,1878.658,144.69z"/>
	<path fill="none" stroke="#FFFFFF" stroke-width="3.0369" stroke-miterlimit="10" d="M1884.008,137.809
		c-150.1-116.688-177.193-332.968-60.496-483.067c116.688-150.094,332.962-177.177,483.061-60.487
		c150.1,116.688,177.191,332.963,60.503,483.059C2250.377,227.418,2034.101,254.498,1884.008,137.809z"/>
	<path fill="none" stroke="#FFFFFF" stroke-width="3.0369" stroke-miterlimit="10" d="M1889.359,130.927
		c-148.088-115.122-174.816-328.499-59.686-476.585c115.12-148.08,328.494-174.799,476.579-59.676
		c148.085,115.121,174.813,328.494,59.69,476.576C2250.811,219.334,2037.437,246.05,1889.359,130.927z"/>
	<path fill="none" stroke="#FFFFFF" stroke-width="3.0369" stroke-miterlimit="10" d="M1894.709,124.046
		c-146.074-113.557-172.439-324.032-58.873-470.104c113.555-146.066,324.026-172.423,470.097-58.865
		c146.071,113.556,172.437,324.027,58.879,470.095C2251.244,211.25,2040.772,237.604,1894.709,124.046z"/>
	<path fill="none" stroke="#FFFFFF" stroke-width="3.0369" stroke-miterlimit="10" d="M1900.059,117.165
		c-144.061-111.99-170.062-319.565-58.062-463.621c111.989-144.052,319.56-170.046,463.615-58.053
		c144.057,111.99,170.06,319.56,58.067,463.613C2251.678,203.167,2044.107,229.157,1900.059,117.165z"/>
	<path fill="none" stroke="#FFFFFF" stroke-width="3.0369" stroke-miterlimit="10" d="M1905.406,110.284
		c-142.045-110.424-167.684-315.097-57.25-457.14c110.425-142.038,315.093-167.668,457.135-57.241
		c142.043,110.424,167.682,315.092,57.255,457.132C2252.111,195.083,2047.443,220.709,1905.406,110.284z"/>
	<path fill="none" stroke="#FFFFFF" stroke-width="3.0369" stroke-miterlimit="10" d="M1910.758,103.402
		c-140.031-108.858-165.309-310.629-56.439-450.657c108.857-140.024,310.624-165.29,450.652-56.43
		C2445-294.827,2470.274-93.061,2361.415,46.963C2252.545,187,2050.779,212.262,1910.758,103.402z"/>
	<path fill="none" stroke="#FFFFFF" stroke-width="3.0369" stroke-miterlimit="10" d="M1916.107,96.52
		c-138.018-107.293-162.93-306.161-55.627-444.175c107.292-138.011,306.157-162.913,444.171-55.618
		c138.015,107.293,162.926,306.155,55.632,444.167C2252.979,178.916,2054.115,203.815,1916.107,96.52z"/>
	<path fill="none" stroke="#FFFFFF" stroke-width="3.0369" stroke-miterlimit="10" d="M1921.455,89.639
		c-136.004-105.727-160.551-301.693-54.812-437.693c105.726-135.997,301.688-160.537,437.688-54.808
		c136,105.728,160.549,301.689,54.819,437.685C2253.412,170.832,2057.451,195.369,1921.455,89.639z"/>
	<path fill="none" stroke="#FFFFFF" stroke-width="3.0369" stroke-miterlimit="10" d="M1926.807,82.758
		c-133.99-104.161-158.176-297.227-54.004-431.212c104.16-133.983,297.221-158.159,431.207-53.995
		c133.986,104.161,158.171,297.221,54.009,431.202C2253.846,162.748,2060.786,186.921,1926.807,82.758z"/>
	<path fill="none" stroke="#FFFFFF" stroke-width="3.0369" stroke-miterlimit="10" d="M1932.156,75.876
		c-131.977-102.595-155.799-292.758-53.191-424.729c102.595-131.969,292.753-155.781,424.726-53.185
		c131.972,102.596,155.793,292.754,53.197,424.722C2254.279,154.665,2064.121,178.474,1932.156,75.876z"/>
	<path fill="none" stroke="#FFFFFF" stroke-width="3.0369" stroke-miterlimit="10" d="M1937.506,68.996
		c-129.961-101.029-153.422-288.291-52.379-418.249c101.027-129.954,288.284-153.404,418.243-52.372
		c129.958,101.029,153.416,288.286,52.385,418.239C2254.713,146.58,2067.457,170.027,1937.506,68.996z"/>
	<path fill="none" stroke="#FFFFFF" stroke-width="3.0369" stroke-miterlimit="10" d="M1942.855,62.114
		c-127.947-99.463-151.043-283.822-51.568-411.767c99.464-127.94,283.817-151.027,411.763-51.56
		c127.943,99.464,151.037,283.817,51.573,411.757C2255.146,138.497,2070.793,161.581,1942.855,62.114z"/>
	<path fill="none" stroke="#FFFFFF" stroke-width="3.0369" stroke-miterlimit="10" d="M1948.203,55.233
		c-125.934-97.897-148.664-279.354-50.754-405.284c97.896-125.927,279.349-148.65,405.28-50.749
		c125.93,97.897,148.66,279.351,50.761,405.275C2255.579,130.413,2074.128,153.133,1948.203,55.233z"/>
	<path fill="none" stroke="#FFFFFF" stroke-width="3.0369" stroke-miterlimit="10" d="M1953.554,48.351
		c-123.919-96.332-146.288-274.887-49.944-398.802c96.333-123.914,274.882-146.272,398.8-49.938
		c123.916,96.332,146.282,274.881,49.949,398.793C2256.014,122.329,2077.465,144.686,1953.554,48.351z"/>
	<path fill="none" stroke="#FFFFFF" stroke-width="3.0369" stroke-miterlimit="10" d="M1958.903,41.469
		c-121.905-94.767-143.909-270.419-49.132-392.32c94.767-121.898,270.414-143.895,392.317-49.126
		c121.901,94.768,143.906,270.414,49.139,392.312C2256.447,114.245,2080.8,136.239,1958.903,41.469z"/>
	<path fill="none" stroke="#FFFFFF" stroke-width="3.0369" stroke-miterlimit="10" d="M1964.253,34.588
		c-119.892-93.2-141.532-265.951-48.319-385.839c93.2-119.885,265.945-141.519,385.834-48.313
		c119.889,93.2,141.528,265.946,48.327,385.829C2256.881,106.162,2084.136,127.792,1964.253,34.588z"/>
	<path fill="none" stroke="#FFFFFF" stroke-width="3.0369" stroke-miterlimit="10" d="M1969.602,27.708
		c-117.877-91.636-139.154-261.484-47.508-379.356c91.635-117.872,261.479-139.142,379.354-47.503
		c117.874,91.635,139.151,261.479,47.515,379.349C2257.313,98.078,2087.471,119.346,1969.602,27.708z"/>
	<path fill="none" stroke="#FFFFFF" stroke-width="3.0369" stroke-miterlimit="10" d="M1974.952,20.826
		c-115.864-90.069-136.778-257.017-46.696-372.875c90.068-115.857,257.011-136.763,372.872-46.691
		c115.859,90.07,136.772,257.013,46.702,372.866C2257.747,89.995,2090.808,110.899,1974.952,20.826z"/>
	<path fill="none" stroke="#FFFFFF" stroke-width="3.0369" stroke-miterlimit="10" d="M1980.302,13.944
		c-113.849-88.502-134.399-252.547-45.884-366.393c88.503-113.845,252.542-134.387,366.39-45.88
		c113.846,88.504,134.396,252.544,45.891,366.385C2258.182,81.911,2094.143,102.451,1980.302,13.944z"/>
	<path fill="none" stroke="#FFFFFF" stroke-width="3.0369" stroke-miterlimit="10" d="M1985.65,7.063
		c-111.834-86.937-132.023-248.08-45.072-359.912c86.938-111.829,248.075-132.008,359.909-45.067
		c111.831,86.938,132.018,248.077,45.079,359.903C2258.614,73.826,2097.479,94.004,1985.65,7.063z"/>
	<path fill="none" stroke="#FFFFFF" stroke-width="3.0369" stroke-miterlimit="10" d="M1991.001,0.181
		c-109.821-85.37-129.646-243.611-44.262-353.429c85.371-109.816,243.607-129.632,353.427-44.257
		c109.817,85.372,129.641,243.609,44.269,353.422C2259.047,65.743,2100.812,85.558,1991.001,0.181z"/>
	<path fill="none" stroke="#FFFFFF" stroke-width="3.0369" stroke-miterlimit="10" d="M1996.351-6.701
		c-107.808-83.805-127.269-239.144-43.449-346.946c83.806-107.802,239.14-127.254,346.945-43.445
		c107.803,83.807,127.263,239.142,43.455,346.938C2259.481,57.659,2104.148,77.111,1996.351-6.701z"/>
	<path fill="none" stroke="#FFFFFF" stroke-width="3.0369" stroke-miterlimit="10" d="M2001.699-13.582
		c-105.793-82.239-124.891-234.677-42.637-340.466c82.24-105.787,234.673-124.876,340.464-42.632
		c105.789,82.24,124.885,234.673,42.644,340.456C2259.915,49.575,2107.484,68.664,2001.699-13.582z"/>
	<path fill="none" stroke="#FFFFFF" stroke-width="3.0369" stroke-miterlimit="10" d="M2007.05-20.463
		c-103.78-80.673-122.515-230.208-41.826-333.982c80.675-103.774,230.205-122.5,333.982-41.821
		c103.774,80.674,122.507,230.205,41.832,333.975C2260.349,41.491,2110.82,60.217,2007.05-20.463z"/>
	<path fill="none" stroke="#FFFFFF" stroke-width="3.0369" stroke-miterlimit="10" d="M2012.398-27.344
		c-101.766-79.108-120.137-225.741-41.014-327.501c79.109-101.761,225.737-120.123,327.501-41.01
		c101.76,79.108,120.13,225.737,41.02,327.492C2260.782,33.407,2114.155,51.769,2012.398-27.344z"/>
	<path fill="none" stroke="#FFFFFF" stroke-width="3.0369" stroke-miterlimit="10" d="M2017.749-34.226
		c-99.753-77.542-117.759-221.273-40.202-321.019c77.542-99.746,221.269-117.745,321.019-40.198
		c99.746,77.543,117.752,221.269,40.209,321.011C2261.215,25.324,2117.491,43.323,2017.749-34.226z"/>
	<path fill="none" stroke="#FFFFFF" stroke-width="3.0369" stroke-miterlimit="10" d="M2023.099-41.107
		c-97.737-75.977-115.382-216.805-39.391-314.537c75.979-97.733,216.801-115.368,314.537-39.387
		c97.732,75.977,115.374,216.801,39.396,314.529C2261.648,17.239,2120.827,34.876,2023.099-41.107z"/>
	<path fill="none" stroke="#FFFFFF" stroke-width="3.0369" stroke-miterlimit="10" d="M2028.448-47.989
		c-95.724-74.41-113.005-212.337-38.578-308.055c74.411-95.719,212.333-112.991,308.055-38.576
		c95.717,74.412,112.996,212.334,38.585,308.048C2262.083,9.156,2124.163,26.428,2028.448-47.989z"/>
	<path fill="none" stroke="#FFFFFF" stroke-width="3.0369" stroke-miterlimit="10" d="M2033.798-54.871
		c-93.71-72.843-110.628-207.869-37.768-301.572c72.847-93.706,207.867-110.614,301.574-37.764
		c93.704,72.846,110.619,207.865,37.773,301.565C2262.516,1.071,2127.498,17.982,2033.798-54.871z"/>
	<path fill="none" stroke="#FFFFFF" stroke-width="3.0369" stroke-miterlimit="10" d="M2039.146-61.751
		c-91.695-71.278-108.248-203.401-36.954-295.091c71.28-91.692,203.398-108.236,295.091-36.952
		c91.69,71.279,108.242,203.397,36.962,295.084C2262.95-7.012,2130.834,9.536,2039.146-61.751z"/>
	<path fill="none" stroke="#FFFFFF" stroke-width="3.0369" stroke-miterlimit="10" d="M2044.497-68.633
		c-89.682-69.711-105.872-198.934-36.144-288.609c69.715-89.676,198.93-105.858,288.609-36.14
		c89.677,69.714,105.865,198.93,36.151,288.602C2263.383-15.096,2134.17,1.087,2044.497-68.633z"/>
	<path fill="none" stroke="#FFFFFF" stroke-width="3.0369" stroke-miterlimit="10" d="M2049.848-75.514
		c-87.67-68.146-103.496-194.466-35.332-282.127c68.147-87.663,194.462-103.482,282.129-35.33
		c87.66,68.148,103.485,194.463,35.337,282.121C2263.816-23.18,2137.505-7.359,2049.848-75.514z"/>
	<path fill="none" stroke="#FFFFFF" stroke-width="3.0369" stroke-miterlimit="10" d="M2055.196-82.396
		c-85.654-66.581-101.118-189.998-34.52-275.646c66.582-85.648,189.994-101.104,275.647-34.518
		c85.646,66.583,101.108,189.995,34.525,275.639C2264.251-31.263,2140.841-15.806,2055.196-82.396z"/>
	<path fill="none" stroke="#FFFFFF" stroke-width="3.0369" stroke-miterlimit="10" d="M2060.546-89.278
		c-83.64-65.014-98.741-185.53-33.707-269.163c65.016-83.636,185.525-98.727,269.164-33.705
		c83.634,65.017,98.732,185.527,33.715,269.156C2264.684-39.347,2144.176-24.253,2060.546-89.278z"/>
	<path fill="none" stroke="#FFFFFF" stroke-width="3.0369" stroke-miterlimit="10" d="M2065.895-96.158
		c-81.625-63.45-96.363-181.063-32.895-262.683c63.451-81.621,181.059-96.35,262.683-32.894
		c81.619,63.45,96.354,181.059,32.903,262.674C2265.117-47.431,2147.513-32.7,2065.895-96.158z"/>
	<path fill="none" stroke="#FFFFFF" stroke-width="3.0369" stroke-miterlimit="10" d="M2071.245-103.041
		c-79.612-61.883-93.986-176.595-32.083-256.199c61.885-79.607,176.591-93.972,256.2-32.082
		c79.605,61.885,93.977,176.592,32.092,256.192C2265.551-55.515,2150.848-41.147,2071.245-103.041z"/>
	<path fill="none" stroke="#FFFFFF" stroke-width="3.0369" stroke-miterlimit="10" d="M2076.596-109.92
		c-77.6-60.317-91.609-172.128-31.273-249.719c60.319-77.594,172.124-91.596,249.72-31.271
		c77.591,60.319,91.599,172.124,31.279,249.71C2265.984-63.598,2154.184-49.594,2076.596-109.92z"/>
	<path fill="none" stroke="#FFFFFF" stroke-width="3.0369" stroke-miterlimit="10" d="M2081.945-116.803
		c-75.585-58.751-89.232-167.658-30.461-243.236c58.753-75.579,167.655-89.217,243.236-30.459
		c75.578,58.754,89.222,167.656,30.469,243.229C2266.418-71.682,2157.519-58.041,2081.945-116.803z"/>
	<path fill="none" stroke="#FFFFFF" stroke-width="3.0369" stroke-miterlimit="10" d="M2087.294-123.684
		c-73.571-57.186-86.854-163.191-29.648-236.754c57.188-73.565,163.188-86.841,236.755-29.648
		c73.563,57.188,86.845,163.189,29.657,236.747C2266.852-79.766,2160.854-66.489,2087.294-123.684z"/>
	<path fill="none" stroke="#FFFFFF" stroke-width="3.0369" stroke-miterlimit="10" d="M2092.644-130.565
		c-71.557-55.62-84.477-158.725-28.837-230.272c55.622-71.552,158.721-84.463,230.275-28.836
		c71.548,55.621,84.466,158.72,28.843,230.265C2267.284-87.849,2164.19-74.935,2092.644-130.565z"/>
	<path fill="none" stroke="#FFFFFF" stroke-width="3.0369" stroke-miterlimit="10" d="M2097.993-137.447
		c-69.542-54.055-82.1-154.257-28.024-223.79c54.056-69.539,154.252-82.087,223.793-28.024
		c69.533,54.056,82.087,154.254,28.032,223.782C2267.719-95.934,2167.525-83.381,2097.993-137.447z"/>
	<path fill="none" stroke="#FFFFFF" stroke-width="3.0369" stroke-miterlimit="10" d="M2103.344-144.328
		c-67.529-52.489-79.723-149.789-27.214-217.309c52.491-67.524,149.785-79.709,217.311-27.213
		c67.521,52.489,79.711,149.785,27.221,217.301C2268.152-104.018,2170.862-91.83,2103.344-144.328z"/>
	<path fill="none" stroke="#FFFFFF" stroke-width="3.0369" stroke-miterlimit="10" d="M2108.693-151.21
		c-65.516-50.922-77.345-145.319-26.402-210.825c50.925-65.511,145.317-77.332,210.829-26.401
		c65.507,50.924,77.334,145.316,26.409,210.819C2268.585-112.102,2174.197-100.276,2108.693-151.21z"/>
	<path fill="none" stroke="#FFFFFF" stroke-width="3.0369" stroke-miterlimit="10" d="M2114.043-158.09
		c-63.501-49.357-74.968-140.854-25.591-204.345c49.359-63.496,140.85-74.955,204.348-25.591
		c63.492,49.359,74.956,140.852,25.597,204.338C2269.02-120.185,2177.532-108.723,2114.043-158.09z"/>
	<path fill="none" stroke="#FFFFFF" stroke-width="3.0369" stroke-miterlimit="10" d="M2119.392-164.972
		c-61.486-47.791-72.59-136.385-24.777-197.863c47.793-61.481,136.381-72.577,197.865-24.778
		c61.478,47.793,72.579,136.383,24.785,197.856C2269.452-128.269,2180.868-117.17,2119.392-164.972z"/>
	<path fill="none" stroke="#FFFFFF" stroke-width="3.0369" stroke-miterlimit="10" d="M2124.741-171.853
		c-59.472-46.226-70.213-131.918-23.966-191.381c46.228-59.469,131.914-70.2,191.383-23.967
		c59.465,46.227,70.202,131.915,23.976,191.373C2269.887-136.353,2184.204-125.617,2124.741-171.853z"/>
	<path fill="none" stroke="#FFFFFF" stroke-width="3.0369" stroke-miterlimit="10" d="M2130.092-178.735
		c-57.459-44.659-67.836-127.45-23.155-184.898c44.661-57.455,127.446-67.823,184.901-23.155
		c57.451,44.661,67.824,127.446,23.163,184.892C2270.32-144.438,2187.54-134.064,2130.092-178.735z"/>
	<path fill="none" stroke="#FFFFFF" stroke-width="3.0369" stroke-miterlimit="10" d="M2135.441-185.617
		c-55.445-43.093-65.458-122.981-22.343-178.417c43.096-55.44,122.979-65.445,178.421-22.343
		c55.435,43.095,65.445,122.979,22.35,178.409C2270.753-152.521,2190.875-142.51,2135.441-185.617z"/>
	<path fill="none" stroke="#FFFFFF" stroke-width="3.0369" stroke-miterlimit="10" d="M2140.79-192.498
		c-53.431-41.527-63.079-118.515-21.53-171.936c41.53-53.427,118.511-63.068,171.938-21.531
		c53.421,41.528,63.068,118.512,21.539,171.928C2271.187-160.605,2194.211-150.958,2140.79-192.498z"/>
	<path fill="none" stroke="#FFFFFF" stroke-width="3.0369" stroke-miterlimit="10" d="M2146.141-199.379
		c-51.417-39.962-60.704-114.046-20.72-165.452c39.965-51.414,114.043-60.691,165.457-20.722
		c51.407,39.965,60.69,114.044,20.727,165.446C2271.62-168.689,2197.546-159.406,2146.141-199.379z"/>
	<path fill="none" stroke="#FFFFFF" stroke-width="3.0369" stroke-miterlimit="10" d="M2151.489-206.26
		c-49.402-38.396-58.325-109.579-19.907-158.972c38.399-49.398,109.576-58.313,158.976-19.909
		c49.394,38.398,58.313,109.577,19.915,158.965C2272.054-176.772,2200.882-167.852,2151.489-206.26z"/>
	<path fill="none" stroke="#FFFFFF" stroke-width="3.0369" stroke-miterlimit="10" d="M2156.84-213.142
		c-47.39-36.83-55.949-105.11-19.096-152.489c36.832-47.385,105.107-55.937,152.493-19.097
		c47.379,36.831,55.936,105.107,19.104,152.481C2272.487-184.856,2204.218-176.299,2156.84-213.142z"/>
	<path fill="none" stroke="#FFFFFF" stroke-width="3.0369" stroke-miterlimit="10" d="M2162.189-220.023
		c-45.375-35.265-53.572-100.643-18.284-146.008c35.268-45.371,100.64-53.559,146.012-18.286
		c45.365,35.268,53.558,100.642,18.291,146.001C2272.92-192.94,2207.553-184.746,2162.189-220.023z"/>
	<path fill="none" stroke="#FFFFFF" stroke-width="3.0369" stroke-miterlimit="10" d="M2167.538-226.905
		c-43.361-33.698-51.193-96.175-17.471-139.524c33.701-43.358,96.172-51.183,139.529-17.475
		c43.352,33.7,51.181,96.173,17.48,139.518C2273.354-201.024,2210.889-193.193,2167.538-226.905z"/>
	<path fill="none" stroke="#FFFFFF" stroke-width="3.0369" stroke-miterlimit="10" d="M2172.889-233.787
		c-41.348-32.132-48.817-91.707-16.66-133.043c32.135-41.344,91.703-48.805,133.047-16.662
		c41.338,32.134,48.804,91.705,16.669,133.036C2273.787-209.108,2214.225-201.64,2172.889-233.787z"/>
	<path fill="none" stroke="#FFFFFF" stroke-width="3.0369" stroke-miterlimit="10" d="M2178.237-240.667
		c-39.333-30.566-46.438-87.24-15.847-126.562c30.569-39.328,87.235-46.427,126.566-15.85
		c39.321,30.568,46.424,87.237,15.855,126.554C2274.221-217.191,2217.56-210.086,2178.237-240.667z"/>
	<path fill="none" stroke="#FFFFFF" stroke-width="3.0369" stroke-miterlimit="10" d="M2183.588-247.549
		c-37.319-29.001-44.062-82.771-15.037-120.079c29.005-37.316,82.77-44.05,120.085-15.039
		c37.309,29.003,44.048,82.77,15.045,120.072C2274.654-225.275,2220.896-218.534,2183.588-247.549z"/>
	<path fill="none" stroke="#FFFFFF" stroke-width="3.0369" stroke-miterlimit="10" d="M2188.938-254.43
		c-35.306-27.435-41.685-78.304-14.225-113.598c27.438-35.302,78.301-41.673,113.603-14.228
		c35.295,27.437,41.671,78.302,14.232,113.591C2275.088-233.359,2224.23-226.981,2188.938-254.43z"/>
	<path fill="none" stroke="#FFFFFF" stroke-width="3.0369" stroke-miterlimit="10" d="M2194.287-261.312
		c-33.291-25.869-39.308-73.836-13.413-107.115c25.872-33.288,73.833-39.295,107.121-13.416
		c33.28,25.871,39.293,73.834,13.421,107.108C2275.521-241.442,2227.566-235.428,2194.287-261.312z"/>
	<path fill="none" stroke="#FFFFFF" stroke-width="3.0369" stroke-miterlimit="10" d="M2199.637-268.194
		c-31.278-24.304-36.93-69.368-12.601-100.633c24.306-31.274,69.365-36.919,100.639-12.604
		c31.267,24.306,36.916,69.366,12.609,100.627C2275.955-249.527,2230.902-243.875,2199.637-268.194z"/>
	<path fill="none" stroke="#FFFFFF" stroke-width="3.0369" stroke-miterlimit="10" d="M2204.986-275.075
		c-29.264-22.737-34.552-64.9-11.789-94.151c22.74-29.261,64.896-34.541,94.157-11.794c29.252,22.74,34.537,64.899,11.798,94.146
		C2276.389-257.611,2234.238-252.322,2204.986-275.075z"/>
	<path fill="none" stroke="#FFFFFF" stroke-width="3.0369" stroke-miterlimit="10" d="M2210.336-281.957
		c-27.249-21.171-32.175-60.432-10.978-87.67c21.175-27.246,60.43-32.162,87.676-10.981c27.237,21.175,32.16,60.433,10.986,87.664
		C2276.822-265.694,2237.573-260.769,2210.336-281.957z"/>
	<path fill="none" stroke="#FFFFFF" stroke-width="3.0369" stroke-miterlimit="10" d="M2215.685-288.838
		c-25.235-19.604-29.797-55.964-10.165-81.187c19.609-25.232,55.962-29.786,81.193-10.17c25.225,19.607,29.783,55.963,10.176,81.182
		C2277.256-273.778,2240.909-269.216,2215.685-288.838z"/>
	<path fill="none" stroke="#FFFFFF" stroke-width="3.0369" stroke-miterlimit="10" d="M2221.035-295.719
		c-23.221-18.04-27.42-51.497-9.354-74.706c18.044-23.218,51.495-27.409,74.713-9.357c23.21,18.042,27.405,51.495,9.362,74.699
		C2277.689-281.862,2244.245-277.664,2221.035-295.719z"/>
	<path fill="none" stroke="#FFFFFF" stroke-width="3.0369" stroke-miterlimit="10" d="M2226.385-302.601
		c-21.208-16.474-25.043-47.028-8.542-68.224c16.478-21.204,47.026-25.031,68.23-8.547c21.195,16.478,25.027,47.029,8.551,68.219
		C2278.123-289.946,2247.58-286.11,2226.385-302.601z"/>
	<path fill="none" stroke="#FFFFFF" stroke-width="3.0369" stroke-miterlimit="10" d="M2231.734-309.482
		c-19.193-14.908-22.665-42.561-7.729-61.742c14.911-19.19,42.559-22.654,61.748-7.735c19.182,14.911,22.649,42.561,7.738,61.736
		C2278.556-298.03,2250.916-294.557,2231.734-309.482z"/>
	<path fill="none" stroke="#FFFFFF" stroke-width="3.0369" stroke-miterlimit="10" d="M2237.084-316.363
		c-17.18-13.343-20.288-38.094-6.919-55.261c13.346-17.176,38.091-20.276,55.268-6.924c17.167,13.347,20.272,38.093,6.928,55.255
		C2278.989-306.114,2254.252-303.004,2237.084-316.363z"/>
	<path fill="none" stroke="#FFFFFF" stroke-width="3.0369" stroke-miterlimit="10" d="M2242.433-323.245
		c-15.164-11.776-17.91-33.626-6.105-48.777c11.78-15.163,33.623-17.9,48.785-6.112c15.153,11.778,17.895,33.624,6.115,48.771
		C2279.424-314.198,2257.587-311.452,2242.433-323.245z"/>
	<path fill="none" stroke="#FFFFFF" stroke-width="3.0369" stroke-miterlimit="10" d="M2247.783-330.125
		c-13.151-10.212-15.534-29.159-5.295-42.297c10.215-13.149,29.155-15.522,42.304-5.3c13.14,10.213,15.517,29.156,5.304,42.29
		C2279.857-322.282,2260.923-319.898,2247.783-330.125z"/>
	<path fill="none" stroke="#FFFFFF" stroke-width="3.0369" stroke-miterlimit="10" d="M2253.133-337.007
		c-11.138-8.645-13.156-24.689-4.482-35.814c8.647-11.135,24.688-13.146,35.821-4.488c11.126,8.647,13.14,24.688,4.492,35.808
		C2280.29-330.365,2264.259-328.345,2253.133-337.007z"/>
	<path fill="none" stroke="#FFFFFF" stroke-width="3.0369" stroke-miterlimit="10" d="M2258.482-343.889
		c-9.124-7.078-10.779-20.222-3.671-29.332c7.083-9.121,20.22-10.768,29.339-3.677c9.112,7.081,10.763,20.221,3.681,29.326
		C2280.724-338.449,2267.595-336.792,2258.482-343.889z"/>
	<path fill="none" stroke="#FFFFFF" stroke-width="3.0369" stroke-miterlimit="10" d="M2263.832-350.77
		c-7.109-5.513-8.401-15.755-2.859-22.851c5.518-7.107,15.753-8.391,22.858-2.865c7.097,5.516,8.385,15.753,2.868,22.844
		C2281.157-346.533,2270.93-345.24,2263.832-350.77z"/>
	<path fill="none" stroke="#FFFFFF" stroke-width="3.0369" stroke-miterlimit="10" d="M2269.182-357.652
		c-5.096-3.947-6.023-11.286-2.048-16.369c3.952-5.093,11.284-6.013,16.377-2.053c5.083,3.95,6.007,11.285,2.057,16.362
		C2281.592-354.617,2274.266-353.687,2269.182-357.652z"/>
	<path fill="none" stroke="#FFFFFF" stroke-width="3.0369" stroke-miterlimit="10" d="M2274.531-364.533
		c-3.074-2.391-3.636-6.811-1.235-9.887c2.396-3.071,6.816-3.637,9.895-1.242c3.069,2.384,3.629,6.817,1.244,9.88
		C2282.024-362.701,2277.607-362.142,2274.531-364.533z"/>
	<path fill="none" stroke="#FFFFFF" stroke-width="3.0369" stroke-miterlimit="10" d="M2279.881-371.415
		c1.056,0.834,2.577,0.631,3.423-0.437c0.818-1.049,0.621-2.58-0.434-3.398c-1.064-0.828-2.594-0.635-3.413,0.431
		C2278.611-373.765,2278.813-372.23,2279.881-371.415z"/>
</g>
</svg>
