<?xml version="1.0" encoding="utf-8"?>
<!-- Generator: Adobe Illustrator 16.0.0, SVG Export Plug-In . SVG Version: 6.00 Build 0)  -->
<!DOCTYPE svg PUBLIC "-//W3C//DTD SVG 1.1//EN" "http://www.w3.org/Graphics/SVG/1.1/DTD/svg11.dtd">
<svg version="1.1" id="Layer_1" xmlns="http://www.w3.org/2000/svg" xmlns:xlink="http://www.w3.org/1999/xlink" x="0px" y="0px"
	 width="1920px" height="1080px" viewBox="0 0 1920 1080" enable-background="new 0 0 1920 1080" xml:space="preserve">
<g>
	<path fill="none" stroke="#FFFFFF" stroke-width="3.0369" stroke-miterlimit="10" d="M488.45,543.457
		C318.524,762.033,3.578,801.48-215.001,631.555C-433.566,461.633-473.005,146.69-303.082-71.883
		c169.924-218.579,484.864-258.028,703.44-88.103C618.942,9.942,658.369,324.889,488.45,543.457z"/>
	<path fill="none" stroke="#FFFFFF" stroke-width="3.0369" stroke-miterlimit="10" d="M481.569,538.107
		C313.21,754.67,1.165,793.754-215.4,625.395c-216.552-168.357-255.627-480.397-87.271-696.957
		c168.359-216.565,480.397-255.651,696.96-87.291C610.859,9.509,649.923,321.555,481.569,538.107z"/>
	<path fill="none" stroke="#FFFFFF" stroke-width="3.0369" stroke-miterlimit="10" d="M474.689,532.76
		C307.894,747.307-1.248,786.027-215.8,619.232c-214.538-166.791-253.249-475.929-86.458-690.475
		c166.793-214.551,475.93-253.273,690.479-86.479C602.775,9.075,641.476,318.219,474.689,532.76z"/>
	<path fill="none" stroke="#FFFFFF" stroke-width="3.0369" stroke-miterlimit="10" d="M467.807,527.41
		C302.578,739.943-3.663,778.301-216.199,613.072C-428.724,447.846-467.071,141.61-301.847-70.922
		c165.228-212.537,471.462-250.896,683.997-85.667C594.691,8.642,633.028,314.883,467.807,527.41z"/>
	<path fill="none" stroke="#FFFFFF" stroke-width="3.0369" stroke-miterlimit="10" d="M460.926,522.061
		C297.263,732.58-6.076,770.572-216.598,606.91c-210.512-163.66-248.496-466.994-84.836-677.512
		c163.662-210.522,466.994-248.518,677.515-84.855C586.608,8.209,624.582,311.547,460.926,522.061z"/>
	<path fill="none" stroke="#FFFFFF" stroke-width="3.0369" stroke-miterlimit="10" d="M454.044,516.711
		C291.947,725.217-8.489,762.848-216.998,600.75c-208.497-162.096-246.118-462.527-84.023-671.031
		c162.095-208.509,462.526-246.141,671.032-84.044C578.524,7.774,616.135,308.211,454.044,516.711z"/>
	<path fill="none" stroke="#FFFFFF" stroke-width="3.0369" stroke-miterlimit="10" d="M447.162,511.359
		c-160.53,206.492-458.064,243.76-664.561,83.229c-206.482-160.529-243.74-458.06-83.212-664.549
		c160.53-206.495,458.06-243.764,664.551-83.231C570.44,7.342,607.688,304.875,447.162,511.359z"/>
	<path fill="none" stroke="#FFFFFF" stroke-width="3.0369" stroke-miterlimit="10" d="M440.281,506.012
		C281.316,710.488-13.316,747.393-217.797,588.426c-204.469-158.963-241.363-453.59-82.4-658.065
		c158.964-204.481,453.592-241.387,658.068-82.421C562.357,6.908,599.24,301.542,440.281,506.012z"/>
	<path fill="none" stroke="#FFFFFF" stroke-width="3.0369" stroke-miterlimit="10" d="M433.4,500.66
		C276.001,703.125-15.73,739.666-218.196,582.264c-202.456-157.396-238.986-449.123-81.59-651.584
		c157.398-202.467,449.124-239.008,651.587-81.608C554.272,6.474,590.793,298.204,433.4,500.66z"/>
	<path fill="none" stroke="#FFFFFF" stroke-width="3.0369" stroke-miterlimit="10" d="M426.52,495.312
		C270.686,695.762-18.143,731.939-218.596,576.104c-200.441-155.83-236.608-444.655-80.777-645.103
		c155.833-200.453,444.656-236.632,645.104-80.797C546.188,6.041,582.347,294.87,426.52,495.312z"/>
	<path fill="none" stroke="#FFFFFF" stroke-width="3.0369" stroke-miterlimit="10" d="M419.638,489.963
		C265.37,688.398-20.557,724.211-218.996,569.941c-198.427-154.265-234.23-440.188-79.966-638.621
		c154.268-198.438,440.188-234.253,638.623-79.985C538.105,5.607,573.9,291.534,419.638,489.963z"/>
	<path fill="none" stroke="#FFFFFF" stroke-width="3.0369" stroke-miterlimit="10" d="M412.755,484.611
		c-152.701,196.424-435.727,231.873-632.15,79.168c-196.413-152.699-231.854-435.719-79.153-632.139
		c152.7-196.425,435.72-231.876,632.14-79.173C530.021,5.174,565.453,288.197,412.755,484.611z"/>
	<path fill="none" stroke="#FFFFFF" stroke-width="3.0369" stroke-miterlimit="10" d="M405.875,479.264
		c-151.137,194.408-431.26,229.494-625.669,78.355c-194.399-151.132-229.478-431.252-78.343-625.658
		c151.135-194.41,431.253-229.498,625.658-78.361C521.938,4.74,557.007,284.862,405.875,479.264z"/>
	<path fill="none" stroke="#FFFFFF" stroke-width="3.0369" stroke-miterlimit="10" d="M398.993,473.912
		c-149.57,192.395-426.791,227.119-619.188,77.545c-192.385-149.568-227.1-426.784-77.53-619.176
		c149.569-192.396,426.784-227.12,619.176-77.55C513.854,4.307,548.56,281.526,398.993,473.912z"/>
	<path fill="none" stroke="#FFFFFF" stroke-width="3.0369" stroke-miterlimit="10" d="M392.112,468.564
		c-148.005,190.381-422.323,224.74-612.705,76.732c-190.372-148.001-224.723-422.317-76.72-612.695
		c148.003-190.382,422.317-224.743,612.695-76.737C505.771,3.873,540.112,278.191,392.112,468.564z"/>
	<path fill="none" stroke="#FFFFFF" stroke-width="3.0369" stroke-miterlimit="10" d="M385.23,463.213
		C238.792,651.58-32.625,685.576-220.992,539.135C-409.351,392.7-443.338,121.286-296.901-67.079
		c146.438-188.367,417.85-222.364,606.214-75.925C497.687,3.439,531.665,274.855,385.23,463.213z"/>
	<path fill="none" stroke="#FFFFFF" stroke-width="3.0369" stroke-miterlimit="10" d="M378.349,457.863
		C233.477,644.215-35.04,677.85-221.393,532.973c-186.344-144.871-219.968-413.381-75.097-599.73
		c144.872-186.354,413.382-219.988,599.731-75.114C489.602,3.006,523.218,271.519,378.349,457.863z"/>
	<path fill="none" stroke="#FFFFFF" stroke-width="3.0369" stroke-miterlimit="10" d="M371.469,452.516
		C228.161,636.854-37.453,670.123-221.792,526.812c-184.33-143.304-217.591-408.914-74.284-593.25
		c143.306-184.339,408.914-217.609,593.249-74.302C481.518,2.572,514.771,268.184,371.469,452.516z"/>
	<path fill="none" stroke="#FFFFFF" stroke-width="3.0369" stroke-miterlimit="10" d="M364.586,447.166
		C222.846,629.49-39.865,662.396-222.19,520.65c-182.317-141.738-215.213-404.445-73.474-586.767
		c141.74-182.326,404.445-215.232,586.768-73.492C473.436,2.139,506.324,264.85,364.586,447.166z"/>
	<path fill="none" stroke="#FFFFFF" stroke-width="3.0369" stroke-miterlimit="10" d="M357.704,441.816
		C217.529,622.125-42.279,654.668-222.59,514.488c-180.303-140.173-212.837-399.978-72.663-580.285
		c140.175-180.312,399.979-212.855,580.286-72.68C465.351,1.706,497.878,261.514,357.704,441.816z"/>
	<path fill="none" stroke="#FFFFFF" stroke-width="3.0369" stroke-miterlimit="10" d="M350.823,436.465
		C212.213,614.762-44.694,646.941-222.99,508.328c-178.288-138.609-210.459-395.512-71.851-573.806
		c138.609-178.297,395.511-210.477,573.805-71.866C457.267,1.271,489.43,258.177,350.823,436.465z"/>
	<path fill="none" stroke="#FFFFFF" stroke-width="3.0369" stroke-miterlimit="10" d="M343.942,431.115
		c-137.044,176.283-391.05,208.1-567.332,71.051c-176.274-137.041-208.082-391.043-71.039-567.322
		c137.044-176.282,391.043-208.1,567.322-71.056C449.183,0.838,480.983,254.842,343.942,431.115z"/>
	<path fill="none" stroke="#FFFFFF" stroke-width="3.0369" stroke-miterlimit="10" d="M337.062,425.768
		c-135.479,174.267-386.582,205.72-560.85,70.238C-398.05,360.53-429.493,109.43-294.016-64.836
		c135.477-174.269,386.575-205.722,560.84-70.243C441.1,0.405,472.536,251.507,337.062,425.768z"/>
	<path fill="none" stroke="#FFFFFF" stroke-width="3.0369" stroke-miterlimit="10" d="M330.18,420.417
		C196.268,592.672-51.935,623.762-224.188,489.844c-172.246-133.91-203.327-382.107-69.415-554.359
		c133.911-172.255,382.106-203.345,554.358-69.433C433.016-0.028,464.089,248.17,330.18,420.417z"/>
	<path fill="none" stroke="#FFFFFF" stroke-width="3.0369" stroke-miterlimit="10" d="M323.298,415.067
		c-132.346,170.24-377.646,200.966-547.887,68.615c-170.231-132.345-200.949-377.64-68.603-547.878
		c132.345-170.24,377.639-200.967,547.876-68.62C424.932-0.462,455.642,244.835,323.298,415.067z"/>
	<path fill="none" stroke="#FFFFFF" stroke-width="3.0369" stroke-miterlimit="10" d="M316.417,409.717
		c-130.78,168.226-373.179,198.589-541.404,67.804C-393.206,346.743-423.56,104.349-292.78-63.876
		C-162-232.102,80.392-262.465,248.615-131.684C416.848-0.896,447.195,241.499,316.417,409.717z"/>
	<path fill="none" stroke="#FFFFFF" stroke-width="3.0369" stroke-miterlimit="10" d="M309.535,404.37
		c-129.214,166.21-368.71,196.21-534.922,66.99c-166.205-129.212-196.195-368.704-66.98-534.914
		c129.214-166.212,368.704-196.213,534.913-66.996C408.765-1.329,438.749,238.165,309.535,404.37z"/>
	<path fill="none" stroke="#FFFFFF" stroke-width="3.0369" stroke-miterlimit="10" d="M302.654,399.02
		C175.006,563.217-61.588,592.854-225.787,465.197c-164.19-127.646-193.817-364.235-66.168-528.432
		c127.647-164.198,364.236-193.834,528.431-66.185C400.681-1.763,430.302,234.829,302.654,399.02z"/>
	<path fill="none" stroke="#FFFFFF" stroke-width="3.0369" stroke-miterlimit="10" d="M295.771,393.668
		C169.689,555.854-64.002,585.125-226.187,459.037c-162.177-126.082-191.44-359.77-65.357-521.951
		c126.083-162.185,359.769-191.458,521.95-65.374C392.597-2.196,421.854,231.492,295.771,393.668z"/>
	<path fill="none" stroke="#FFFFFF" stroke-width="3.0369" stroke-miterlimit="10" d="M288.892,388.321
		C164.374,548.49-66.415,577.4-226.585,452.875C-386.749,328.36-415.648,97.574-291.131-62.594
		c124.517-160.17,355.301-189.08,515.468-64.562C384.513-2.63,413.408,228.157,288.892,388.321z"/>
	<path fill="none" stroke="#FFFFFF" stroke-width="3.0369" stroke-miterlimit="10" d="M282.011,382.969
		C159.06,541.127-68.829,569.672-226.984,446.713C-385.134,323.764-413.671,95.88-290.718-62.273
		c122.949-158.156,350.832-186.701,508.984-63.75C376.429-3.063,404.961,224.821,282.011,382.969z"/>
	<path fill="none" stroke="#FFFFFF" stroke-width="3.0369" stroke-miterlimit="10" d="M275.128,377.622
		C153.743,533.764-71.243,561.945-227.385,440.553C-383.52,319.168-411.692,94.187-290.308-61.953
		c121.386-156.143,346.366-184.324,502.505-62.938C368.346-3.496,396.514,221.486,275.128,377.622z"/>
	<path fill="none" stroke="#FFFFFF" stroke-width="3.0369" stroke-miterlimit="10" d="M268.247,372.27
		c-119.82,154.128-341.903,181.949-496.031,62.121C-381.905,314.573-409.716,92.492-289.896-61.634
		c119.82-154.128,341.898-181.946,496.022-62.125C360.261-3.931,388.066,218.149,268.247,372.27z"/>
	<path fill="none" stroke="#FFFFFF" stroke-width="3.0369" stroke-miterlimit="10" d="M261.365,366.922
		C143.112,519.035-76.07,546.492-228.183,428.23C-380.291,309.977-407.738,90.8-289.482-61.312
		c118.253-152.113,337.43-179.569,489.54-61.315C352.178-4.363,379.62,214.814,261.365,366.922z"/>
	<path fill="none" stroke="#FFFFFF" stroke-width="3.0369" stroke-miterlimit="10" d="M254.484,361.573
		C137.797,511.672-78.483,538.766-228.583,422.069C-378.677,305.381-405.76,89.106-289.07-60.992
		c116.688-150.1,332.963-177.191,483.059-60.503C344.094-4.797,371.173,211.479,254.484,361.573z"/>
	<path fill="none" stroke="#FFFFFF" stroke-width="3.0369" stroke-miterlimit="10" d="M247.603,356.221
		C132.48,504.309-80.896,531.037-228.982,415.907c-148.08-115.121-174.799-328.495-59.676-476.58
		c115.121-148.085,328.494-174.813,476.576-59.69C336.01-5.23,362.726,208.144,247.603,356.221z"/>
	<path fill="none" stroke="#FFFFFF" stroke-width="3.0369" stroke-miterlimit="10" d="M240.722,350.872
		C127.165,496.945-83.311,523.311-229.382,409.745C-375.448,296.189-401.805,85.718-288.247-60.353
		c113.556-146.071,324.027-172.437,470.095-58.879C327.926-5.664,354.279,204.808,240.722,350.872z"/>
	<path fill="none" stroke="#FFFFFF" stroke-width="3.0369" stroke-miterlimit="10" d="M233.84,345.522
		c-111.99,144.06-319.565,170.062-463.621,58.062c-144.052-111.99-170.046-319.56-58.053-463.616
		c111.99-144.057,319.56-170.06,463.613-58.067C319.842-6.098,345.832,201.473,233.84,345.522z"/>
	<path fill="none" stroke="#FFFFFF" stroke-width="3.0369" stroke-miterlimit="10" d="M226.959,340.174
		c-110.424,142.044-315.097,167.683-457.14,57.25C-372.219,286.999-397.849,82.331-287.422-59.711
		C-176.998-201.754,27.67-227.393,169.71-116.966C311.759-6.531,337.385,198.137,226.959,340.174z"/>
	<path fill="none" stroke="#FFFFFF" stroke-width="3.0369" stroke-miterlimit="10" d="M220.077,334.823
		C111.219,474.854-90.552,500.131-230.58,391.262C-370.604,282.404-395.87,80.638-287.01-59.391
		c108.858-140.029,310.624-165.304,450.648-56.444C303.675-6.965,328.938,194.801,220.077,334.823z"/>
	<path fill="none" stroke="#FFFFFF" stroke-width="3.0369" stroke-miterlimit="10" d="M213.195,329.473
		C105.902,467.49-92.966,492.402-230.979,385.1C-368.99,277.808-393.893,78.942-286.598-59.071
		c107.293-138.015,306.155-162.926,444.167-55.632C295.591-7.399,320.49,191.465,213.195,329.473z"/>
	<path fill="none" stroke="#FFFFFF" stroke-width="3.0369" stroke-miterlimit="10" d="M206.314,324.125
		c-105.727,136.003-301.693,160.55-437.693,54.812C-367.376,273.212-391.916,77.25-286.187-58.751
		c105.728-136,301.689-160.549,437.685-54.819C287.507-7.832,312.044,188.129,206.314,324.125z"/>
	<path fill="none" stroke="#FFFFFF" stroke-width="3.0369" stroke-miterlimit="10" d="M199.434,318.774
		C95.272,452.764-97.793,476.949-231.778,372.778C-365.762,268.617-389.938,75.557-285.773-58.43
		c104.161-133.986,297.221-158.171,431.202-54.009C279.423-8.266,303.597,184.794,199.434,318.774z"/>
	<path fill="none" stroke="#FFFFFF" stroke-width="3.0369" stroke-miterlimit="10" d="M192.552,313.424
		C89.957,445.4-100.206,469.223-232.178,366.616C-364.146,264.021-387.959,73.862-285.362-58.11
		c102.596-131.972,292.754-155.793,424.722-53.197C271.34-8.699,295.149,181.459,192.552,313.424z"/>
	<path fill="none" stroke="#FFFFFF" stroke-width="3.0369" stroke-miterlimit="10" d="M185.671,308.075
		C84.642,438.035-102.62,461.496-232.578,360.454C-362.532,259.426-385.982,72.169-284.95-57.79
		c101.029-129.958,288.286-153.416,418.239-52.385C263.255-9.133,286.702,178.123,185.671,308.075z"/>
	<path fill="none" stroke="#FFFFFF" stroke-width="3.0369" stroke-miterlimit="10" d="M178.789,302.725
		c-99.463,127.947-283.822,151.042-411.767,51.568c-127.94-99.464-151.027-283.818-51.56-411.763
		C-185.073-185.413-0.72-208.507,127.22-109.043C255.172-9.565,278.256,174.787,178.789,302.725z"/>
	<path fill="none" stroke="#FFFFFF" stroke-width="3.0369" stroke-miterlimit="10" d="M171.908,297.377
		c-97.897,125.934-279.354,148.664-405.284,50.754c-125.927-97.897-148.65-279.349-50.749-405.281
		c97.897-125.93,279.351-148.66,405.275-50.761C247.088-9.999,269.809,171.452,171.908,297.377z"/>
	<path fill="none" stroke="#FFFFFF" stroke-width="3.0369" stroke-miterlimit="10" d="M165.026,292.026
		C68.694,415.946-109.86,438.314-233.775,341.971c-123.914-96.333-146.272-274.882-49.938-398.8
		c96.332-123.916,274.881-146.282,398.793-49.949C239.004-10.434,261.361,168.115,165.026,292.026z"/>
	<path fill="none" stroke="#FFFFFF" stroke-width="3.0369" stroke-miterlimit="10" d="M158.145,286.677
		c-94.767,121.906-270.419,143.909-392.32,49.132C-356.074,241.042-378.07,65.395-283.302-56.509
		c94.768-121.901,270.414-143.906,392.312-49.139C230.92-10.867,252.914,164.78,158.145,286.677z"/>
	<path fill="none" stroke="#FFFFFF" stroke-width="3.0369" stroke-miterlimit="10" d="M151.264,281.327
		c-93.2,119.892-265.951,141.533-385.839,48.32C-354.46,236.446-376.094,63.701-282.889-56.188
		c93.2-119.889,265.946-141.528,385.829-48.327C222.837-11.301,244.468,161.444,151.264,281.327z"/>
	<path fill="none" stroke="#FFFFFF" stroke-width="3.0369" stroke-miterlimit="10" d="M144.383,275.979
		c-91.636,117.877-261.484,139.155-379.356,47.508c-117.872-91.635-139.142-261.48-47.503-379.354
		c91.635-117.874,261.479-139.151,379.349-47.515C214.753-11.733,236.021,158.109,144.383,275.979z"/>
	<path fill="none" stroke="#FFFFFF" stroke-width="3.0369" stroke-miterlimit="10" d="M137.501,270.628
		c-90.069,115.865-257.017,136.779-372.875,46.697c-115.857-90.069-136.763-257.011-46.691-372.873
		c90.07-115.859,257.013-136.772,372.866-46.702C206.67-12.167,227.574,154.772,137.501,270.628z"/>
	<path fill="none" stroke="#FFFFFF" stroke-width="3.0369" stroke-miterlimit="10" d="M130.619,265.278
		c-88.502,113.849-252.547,134.4-366.393,45.884c-113.845-88.503-134.387-252.542-45.88-366.39
		c88.504-113.846,252.544-134.396,366.385-45.891C198.586-12.602,219.126,151.438,130.619,265.278z"/>
	<path fill="none" stroke="#FFFFFF" stroke-width="3.0369" stroke-miterlimit="10" d="M123.738,259.93
		c-86.937,111.834-248.08,132.024-359.912,45.073c-111.829-86.938-132.008-248.076-45.067-359.91
		c86.938-111.831,248.077-132.018,359.903-45.079C190.501-13.034,210.68,148.102,123.738,259.93z"/>
	<path fill="none" stroke="#FFFFFF" stroke-width="3.0369" stroke-miterlimit="10" d="M116.856,254.579
		c-85.37,109.822-243.611,129.646-353.429,44.262C-346.389,213.47-366.204,55.233-280.829-54.586
		C-195.457-164.403-37.22-184.227,72.593-98.854C182.418-13.467,202.233,144.768,116.856,254.579z"/>
	<path fill="none" stroke="#FFFFFF" stroke-width="3.0369" stroke-miterlimit="10" d="M109.975,249.229
		C26.17,357.038-129.169,376.499-236.972,292.679c-107.802-83.806-127.254-239.14-43.445-346.945
		C-196.61-162.069-41.275-181.529,66.521-97.722C174.334-13.901,193.786,141.432,109.975,249.229z"/>
	<path fill="none" stroke="#FFFFFF" stroke-width="3.0369" stroke-miterlimit="10" d="M103.094,243.881
		c-82.239,105.793-234.677,124.891-340.466,42.637c-105.787-82.24-124.876-234.673-42.632-340.464
		c82.24-105.789,234.673-124.885,340.456-42.644C166.25-14.335,185.339,138.096,103.094,243.881z"/>
	<path fill="none" stroke="#FFFFFF" stroke-width="3.0369" stroke-miterlimit="10" d="M96.212,238.53
		c-80.673,103.781-230.208,122.515-333.982,41.826c-103.774-80.675-122.5-230.205-41.821-333.982
		C-198.918-157.4-49.387-176.133,54.383-95.458C158.166-14.769,176.893,134.76,96.212,238.53z"/>
	<path fill="none" stroke="#FFFFFF" stroke-width="3.0369" stroke-miterlimit="10" d="M89.331,233.182
		C10.223,334.948-136.41,353.319-238.17,274.195c-101.761-79.109-120.123-225.737-41.01-327.501
		c79.108-101.76,225.737-120.13,327.492-41.02C150.082-15.202,168.444,131.425,89.331,233.182z"/>
	<path fill="none" stroke="#FFFFFF" stroke-width="3.0369" stroke-miterlimit="10" d="M82.449,227.831
		C4.907,327.584-138.824,345.59-238.569,268.033c-99.746-77.542-117.745-221.269-40.198-321.019
		c77.543-99.746,221.269-117.752,321.011-40.209C141.999-15.635,159.998,128.089,82.449,227.831z"/>
	<path fill="none" stroke="#FFFFFF" stroke-width="3.0369" stroke-miterlimit="10" d="M75.568,222.481
		c-75.977,97.738-216.805,115.382-314.537,39.391c-97.733-75.979-115.368-216.801-39.387-314.537
		c75.977-97.732,216.801-115.374,314.529-39.396C133.914-16.068,151.552,124.753,75.568,222.481z"/>
	<path fill="none" stroke="#FFFFFF" stroke-width="3.0369" stroke-miterlimit="10" d="M68.687,217.132
		c-74.41,95.724-212.337,113.005-308.055,38.578c-95.719-74.411-112.991-212.333-38.576-308.055
		C-203.532-148.062-65.61-165.341,30.104-90.93C125.831-16.503,143.104,121.417,68.687,217.132z"/>
	<path fill="none" stroke="#FFFFFF" stroke-width="3.0369" stroke-miterlimit="10" d="M61.805,211.782
		c-72.843,93.71-207.869,110.628-301.572,37.768c-93.706-72.847-110.614-207.867-37.764-301.574
		c72.846-93.704,207.865-110.619,301.565-37.773C117.746-16.936,134.657,118.082,61.805,211.782z"/>
	<path fill="none" stroke="#FFFFFF" stroke-width="3.0369" stroke-miterlimit="10" d="M54.924,206.434
		c-71.278,91.695-203.401,108.249-295.091,36.954c-91.692-71.28-108.236-203.398-36.952-295.091
		c71.279-91.69,203.397-108.242,295.084-36.962C109.663-17.37,126.211,114.746,54.924,206.434z"/>
	<path fill="none" stroke="#FFFFFF" stroke-width="3.0369" stroke-miterlimit="10" d="M48.042,201.083
		c-69.711,89.682-198.934,105.873-288.609,36.144c-89.676-69.715-105.858-198.93-36.14-288.609
		c69.714-89.677,198.93-105.865,288.602-36.151C101.579-17.803,117.763,111.41,48.042,201.083z"/>
	<path fill="none" stroke="#FFFFFF" stroke-width="3.0369" stroke-miterlimit="10" d="M41.161,195.732
		c-68.146,87.67-194.466,103.496-282.127,35.332c-87.663-68.147-103.482-194.462-35.33-282.129
		c68.148-87.66,194.463-103.485,282.121-35.337C93.495-18.236,109.316,108.075,41.161,195.732z"/>
	<path fill="none" stroke="#FFFFFF" stroke-width="3.0369" stroke-miterlimit="10" d="M34.279,190.384
		c-66.581,85.654-189.998,101.118-275.646,34.52c-85.648-66.582-101.104-189.994-34.518-275.647
		C-209.301-136.391-85.889-151.853-0.245-85.27C85.412-18.671,100.869,104.739,34.279,190.384z"/>
	<path fill="none" stroke="#FFFFFF" stroke-width="3.0369" stroke-miterlimit="10" d="M27.397,185.034
		c-65.014,83.64-185.53,98.741-269.163,33.707c-83.636-65.016-98.727-185.525-33.705-269.164
		c65.017-83.634,185.527-98.732,269.156-33.715C77.328-19.104,92.422,101.404,27.397,185.034z"/>
	<path fill="none" stroke="#FFFFFF" stroke-width="3.0369" stroke-miterlimit="10" d="M20.518,179.686
		c-63.45,81.625-181.063,96.363-262.683,32.895c-81.621-63.451-96.35-181.059-32.894-262.683
		C-211.608-131.722-94-146.457-12.385-83.006C69.244-19.537,83.976,98.067,20.518,179.686z"/>
	<path fill="none" stroke="#FFFFFF" stroke-width="3.0369" stroke-miterlimit="10" d="M13.635,174.335
		c-61.883,79.612-176.595,93.986-256.199,32.083c-79.607-61.885-93.972-176.591-32.082-256.2
		c61.885-79.605,176.592-93.977,256.192-32.092C61.16-19.971,75.528,94.732,13.635,174.335z"/>
	<path fill="none" stroke="#FFFFFF" stroke-width="3.0369" stroke-miterlimit="10" d="M6.755,168.984
		c-60.317,77.6-172.128,91.609-249.719,31.273c-77.594-60.319-91.596-172.124-31.271-249.72
		c60.319-77.591,172.124-91.599,249.71-31.279C53.077-20.404,67.081,91.396,6.755,168.984z"/>
	<path fill="none" stroke="#FFFFFF" stroke-width="3.0369" stroke-miterlimit="10" d="M-0.128,163.635
		c-58.751,75.585-167.658,89.232-243.236,30.461c-75.579-58.753-89.217-167.655-30.459-243.236
		c58.754-75.578,167.656-89.222,243.229-30.469C44.993-20.838,58.635,88.062-0.128,163.635z"/>
	<path fill="none" stroke="#FFFFFF" stroke-width="3.0369" stroke-miterlimit="10" d="M-7.009,158.286
		c-57.186,73.571-163.191,86.854-236.754,29.648c-73.565-57.188-86.841-163.188-29.648-236.755
		c57.188-73.563,163.189-86.845,236.747-29.657C36.909-21.271,50.187,84.726-7.009,158.286z"/>
	<path fill="none" stroke="#FFFFFF" stroke-width="3.0369" stroke-miterlimit="10" d="M-13.89,152.937
		c-55.62,71.557-158.725,84.477-230.272,28.837c-71.552-55.622-84.463-158.721-28.836-230.275
		c55.621-71.548,158.72-84.466,230.265-28.843C28.826-21.704,41.74,81.39-13.89,152.937z"/>
	<path fill="none" stroke="#FFFFFF" stroke-width="3.0369" stroke-miterlimit="10" d="M-20.771,147.587
		c-54.055,69.542-154.257,82.1-223.79,28.024c-69.539-54.056-82.087-154.252-28.024-223.793
		c54.056-69.533,154.254-82.087,223.782-28.032C20.741-22.139,33.294,78.055-20.771,147.587z"/>
	<path fill="none" stroke="#FFFFFF" stroke-width="3.0369" stroke-miterlimit="10" d="M-27.652,142.236
		c-52.489,67.529-149.789,79.723-217.309,27.214c-67.524-52.491-79.709-149.785-27.213-217.311
		c52.489-67.521,149.785-79.711,217.301-27.221C12.657-22.572,24.846,74.718-27.652,142.236z"/>
	<path fill="none" stroke="#FFFFFF" stroke-width="3.0369" stroke-miterlimit="10" d="M-34.535,136.887
		c-50.922,65.516-145.319,77.345-210.825,26.402c-65.511-50.925-77.332-145.317-26.401-210.829
		c50.924-65.507,145.316-77.334,210.819-26.409C4.573-23.005,16.399,71.383-34.535,136.887z"/>
	<path fill="none" stroke="#FFFFFF" stroke-width="3.0369" stroke-miterlimit="10" d="M-41.415,131.537
		c-49.357,63.501-140.854,74.968-204.345,25.591c-63.496-49.359-74.955-140.85-25.591-204.348
		c49.359-63.492,140.852-74.956,204.338-25.597C-3.51-23.439,7.952,68.048-41.415,131.537z"/>
	<path fill="none" stroke="#FFFFFF" stroke-width="3.0369" stroke-miterlimit="10" d="M-48.297,126.188
		c-47.791,61.486-136.385,72.59-197.863,24.777c-61.481-47.793-72.577-136.381-24.778-197.865
		c47.793-61.478,136.383-72.579,197.856-24.785C-11.594-23.872-0.495,64.712-48.297,126.188z"/>
	<path fill="none" stroke="#FFFFFF" stroke-width="3.0369" stroke-miterlimit="10" d="M-55.178,120.839
		c-46.226,59.472-131.918,70.213-191.381,23.966c-59.469-46.228-70.2-131.914-23.967-191.383
		c46.227-59.465,131.915-70.202,191.373-23.976C-19.678-24.307-8.941,61.376-55.178,120.839z"/>
	<path fill="none" stroke="#FFFFFF" stroke-width="3.0369" stroke-miterlimit="10" d="M-62.06,115.488
		c-44.659,57.459-127.45,67.836-184.898,23.155c-57.455-44.661-67.823-127.446-23.155-184.901
		c44.661-57.451,127.446-67.824,184.892-23.163C-27.763-24.74-17.389,58.04-62.06,115.488z"/>
	<path fill="none" stroke="#FFFFFF" stroke-width="3.0369" stroke-miterlimit="10" d="M-68.941,110.139
		c-43.093,55.445-122.981,65.458-178.417,22.343c-55.44-43.096-65.445-122.979-22.343-178.421
		c43.095-55.435,122.979-65.445,178.409-22.35C-35.846-25.173-25.835,54.705-68.941,110.139z"/>
	<path fill="none" stroke="#FFFFFF" stroke-width="3.0369" stroke-miterlimit="10" d="M-75.822,104.79
		c-41.527,53.431-118.515,63.079-171.936,21.53C-301.185,84.79-310.826,7.81-269.289-45.618
		c41.528-53.421,118.512-63.068,171.928-21.539C-43.93-25.606-34.282,51.369-75.822,104.79z"/>
	<path fill="none" stroke="#FFFFFF" stroke-width="3.0369" stroke-miterlimit="10" d="M-82.704,99.439
		c-39.962,51.417-114.046,60.704-165.452,20.72C-299.57,80.194-308.848,6.116-268.878-45.298
		c39.965-51.407,114.044-60.69,165.446-20.727C-52.014-26.04-42.73,48.034-82.704,99.439z"/>
	<path fill="none" stroke="#FFFFFF" stroke-width="3.0369" stroke-miterlimit="10" d="M-89.585,94.091
		c-38.396,49.402-109.579,58.325-158.972,19.907C-297.955,75.599-306.87,4.422-268.466-44.978
		c38.398-49.394,109.577-58.313,158.965-19.915C-60.097-26.474-51.177,44.698-89.585,94.091z"/>
	<path fill="none" stroke="#FFFFFF" stroke-width="3.0369" stroke-miterlimit="10" d="M-96.467,88.74
		c-36.83,47.39-105.11,55.949-152.489,19.096c-47.385-36.832-55.937-105.107-19.097-152.493
		c36.831-47.379,105.107-55.936,152.481-19.104C-68.181-26.907-59.624,41.362-96.467,88.74z"/>
	<path fill="none" stroke="#FFFFFF" stroke-width="3.0369" stroke-miterlimit="10" d="M-103.348,83.391
		c-35.265,45.375-100.643,53.572-146.008,18.284c-45.371-35.268-53.559-100.64-18.286-146.012
		C-232.374-89.702-167-97.895-121.641-62.628C-76.265-27.34-68.07,38.027-103.348,83.391z"/>
	<path fill="none" stroke="#FFFFFF" stroke-width="3.0369" stroke-miterlimit="10" d="M-110.229,78.042
		c-33.698,43.361-96.175,51.193-139.524,17.471c-43.358-33.701-51.183-96.172-17.475-139.529
		c33.7-43.352,96.173-51.181,139.518-17.48C-84.349-27.774-76.518,34.691-110.229,78.042z"/>
	<path fill="none" stroke="#FFFFFF" stroke-width="3.0369" stroke-miterlimit="10" d="M-117.111,72.691
		c-32.132,41.348-91.707,48.817-133.043,16.66c-41.344-32.135-48.805-91.703-16.662-133.047
		c32.134-41.338,91.705-48.804,133.036-16.669C-92.433-28.207-84.965,31.355-117.111,72.691z"/>
	<path fill="none" stroke="#FFFFFF" stroke-width="3.0369" stroke-miterlimit="10" d="M-123.992,67.343
		c-30.566,39.333-87.24,46.438-126.562,15.847c-39.328-30.569-46.427-87.235-15.85-126.566
		c30.568-39.321,87.237-46.424,126.554-15.855C-100.516-28.641-93.411,28.021-123.992,67.343z"/>
	<path fill="none" stroke="#FFFFFF" stroke-width="3.0369" stroke-miterlimit="10" d="M-130.874,61.992
		c-29.001,37.319-82.771,44.062-120.079,15.037c-37.316-29.005-44.05-82.77-15.039-120.085
		c29.003-37.309,82.77-44.048,120.072-15.045C-108.6-29.074-101.858,24.685-130.874,61.992z"/>
	<path fill="none" stroke="#FFFFFF" stroke-width="3.0369" stroke-miterlimit="10" d="M-137.755,56.643
		c-27.435,35.306-78.304,41.685-113.598,14.225C-286.654,43.43-293.025-7.434-265.58-42.735
		c27.437-35.295,78.302-41.671,113.591-14.232C-116.684-29.508-110.306,21.35-137.755,56.643z"/>
	<path fill="none" stroke="#FFFFFF" stroke-width="3.0369" stroke-miterlimit="10" d="M-144.637,51.293
		c-25.869,33.291-73.836,39.308-107.115,13.413c-33.288-25.872-39.295-73.833-13.416-107.121
		c25.871-33.28,73.834-39.293,107.108-13.421C-124.767-29.941-118.753,18.014-144.637,51.293z"/>
	<path fill="none" stroke="#FFFFFF" stroke-width="3.0369" stroke-miterlimit="10" d="M-151.519,45.943
		c-24.304,31.278-69.368,36.93-100.633,12.601c-31.274-24.306-36.919-69.365-12.604-100.639
		c24.306-31.267,69.366-36.916,100.627-12.609C-132.852-30.375-127.2,14.678-151.519,45.943z"/>
	<path fill="none" stroke="#FFFFFF" stroke-width="3.0369" stroke-miterlimit="10" d="M-158.399,40.594
		c-22.737,29.264-64.9,34.552-94.151,11.789c-29.261-22.74-34.541-64.896-11.794-94.157c22.74-29.252,64.899-34.537,94.146-11.798
		C-140.936-30.809-135.646,11.342-158.399,40.594z"/>
	<path fill="none" stroke="#FFFFFF" stroke-width="3.0369" stroke-miterlimit="10" d="M-165.281,35.244
		c-21.171,27.249-60.432,32.175-87.67,10.978c-27.246-21.175-32.162-60.43-10.981-87.676c21.175-27.237,60.433-32.16,87.664-10.986
		C-149.019-31.242-144.094,8.007-165.281,35.244z"/>
	<path fill="none" stroke="#FFFFFF" stroke-width="3.0369" stroke-miterlimit="10" d="M-172.163,29.896
		c-19.604,25.235-55.964,29.797-81.187,10.165c-25.232-19.609-29.786-55.962-10.17-81.193
		c19.607-25.225,55.963-29.783,81.182-10.176C-157.103-31.676-152.541,4.671-172.163,29.896z"/>
	<path fill="none" stroke="#FFFFFF" stroke-width="3.0369" stroke-miterlimit="10" d="M-179.044,24.545
		c-18.04,23.221-51.497,27.42-74.706,9.354c-23.218-18.044-27.409-51.495-9.357-74.713c18.042-23.21,51.495-27.405,74.699-9.362
		C-165.187-32.109-160.988,1.335-179.044,24.545z"/>
	<path fill="none" stroke="#FFFFFF" stroke-width="3.0369" stroke-miterlimit="10" d="M-185.926,19.195
		c-16.474,21.208-47.028,25.043-68.224,8.542c-21.204-16.478-25.031-47.026-8.547-68.23c16.478-21.195,47.029-25.027,68.219-8.551
		C-173.271-32.543-169.435-2-185.926,19.195z"/>
	<path fill="none" stroke="#FFFFFF" stroke-width="3.0369" stroke-miterlimit="10" d="M-192.807,13.846
		c-14.908,19.193-42.561,22.665-61.742,7.729c-19.19-14.911-22.654-42.559-7.735-61.748c14.911-19.182,42.561-22.649,61.736-7.738
		C-181.354-32.976-177.882-5.336-192.807,13.846z"/>
	<path fill="none" stroke="#FFFFFF" stroke-width="3.0369" stroke-miterlimit="10" d="M-199.688,8.496
		c-13.343,17.18-38.094,20.288-55.261,6.919c-17.176-13.346-20.276-38.091-6.924-55.268c13.347-17.167,38.093-20.272,55.255-6.928
		C-189.438-33.409-186.329-8.672-199.688,8.496z"/>
	<path fill="none" stroke="#FFFFFF" stroke-width="3.0369" stroke-miterlimit="10" d="M-206.569,3.147
		c-11.776,15.164-33.626,17.91-48.777,6.105c-15.163-11.78-17.9-33.623-6.112-48.785c11.778-15.153,33.624-17.895,48.771-6.115
		C-197.522-33.844-194.776-12.007-206.569,3.147z"/>
	<path fill="none" stroke="#FFFFFF" stroke-width="3.0369" stroke-miterlimit="10" d="M-213.45-2.203
		c-10.212,13.151-29.159,15.534-42.297,5.295c-13.149-10.215-15.522-29.155-5.3-42.304c10.213-13.14,29.156-15.517,42.29-5.304
		C-205.606-34.277-203.223-15.343-213.45-2.203z"/>
	<path fill="none" stroke="#FFFFFF" stroke-width="3.0369" stroke-miterlimit="10" d="M-220.332-7.553
		c-8.645,11.138-24.689,13.156-35.814,4.482c-11.135-8.647-13.146-24.688-4.488-35.821c8.647-11.126,24.688-13.14,35.808-4.492
		C-213.689-34.71-211.67-18.679-220.332-7.553z"/>
	<path fill="none" stroke="#FFFFFF" stroke-width="3.0369" stroke-miterlimit="10" d="M-227.214-12.902
		c-7.078,9.124-20.222,10.779-29.332,3.671c-9.121-7.083-10.768-20.22-3.677-29.339c7.081-9.112,20.221-10.763,29.326-3.681
		C-221.773-35.144-220.117-22.015-227.214-12.902z"/>
	<path fill="none" stroke="#FFFFFF" stroke-width="3.0369" stroke-miterlimit="10" d="M-234.095-18.252
		c-5.513,7.109-15.755,8.401-22.851,2.859c-7.107-5.518-8.391-15.753-2.865-22.858c5.516-7.097,15.753-8.385,22.844-2.868
		C-229.857-35.577-228.564-25.35-234.095-18.252z"/>
	<path fill="none" stroke="#FFFFFF" stroke-width="3.0369" stroke-miterlimit="10" d="M-240.977-23.602
		c-3.947,5.096-11.286,6.023-16.369,2.048c-5.093-3.952-6.013-11.284-2.053-16.377c3.95-5.083,11.285-6.007,16.362-2.057
		C-237.941-36.012-237.012-28.686-240.977-23.602z"/>
	<path fill="none" stroke="#FFFFFF" stroke-width="3.0369" stroke-miterlimit="10" d="M-247.857-28.951
		c-2.391,3.074-6.811,3.636-9.887,1.235c-3.071-2.396-3.637-6.816-1.242-9.895c2.384-3.069,6.817-3.629,9.88-1.244
		C-246.025-36.444-245.467-32.027-247.857-28.951z"/>
	<path fill="none" stroke="#FFFFFF" stroke-width="3.0369" stroke-miterlimit="10" d="M-254.739-34.301
		c0.834-1.056,0.631-2.577-0.437-3.423c-1.049-0.818-2.58-0.621-3.398,0.434c-0.828,1.064-0.635,2.594,0.431,3.413
		C-257.09-33.031-255.555-33.233-254.739-34.301z"/>
</g>
</svg>
