<?xml version="1.0" encoding="utf-8"?>
<!-- Generator: Adobe Illustrator 16.0.0, SVG Export Plug-In . SVG Version: 6.00 Build 0)  -->
<!DOCTYPE svg PUBLIC "-//W3C//DTD SVG 1.1//EN" "http://www.w3.org/Graphics/SVG/1.1/DTD/svg11.dtd">
<svg version="1.1" id="Layer_1" xmlns="http://www.w3.org/2000/svg" xmlns:xlink="http://www.w3.org/1999/xlink" x="0px" y="0px"
	 width="1920px" height="1080px" viewBox="0 0 1920 1080" enable-background="new 0 0 1920 1080" xml:space="preserve">
<g>
	<path fill="none" stroke="#FFFFFF" stroke-width="3.0369" stroke-miterlimit="10" d="M1702.123,371.775
		c-218.576-169.926-258.023-484.872-88.098-703.451c169.922-218.565,484.864-258.004,703.438-88.081
		c218.579,169.924,258.028,484.864,88.103,703.44C2235.638,502.267,1920.691,541.693,1702.123,371.775z"/>
	<path fill="none" stroke="#FFFFFF" stroke-width="3.0369" stroke-miterlimit="10" d="M1707.473,364.894
		c-216.562-168.359-255.646-480.404-87.287-696.97c168.357-216.552,480.397-255.627,696.957-87.271
		c216.565,168.359,255.651,480.397,87.291,696.96C2236.071,494.184,1924.025,533.248,1707.473,364.894z"/>
	<path fill="none" stroke="#FFFFFF" stroke-width="3.0369" stroke-miterlimit="10" d="M1712.82,358.014
		c-214.547-166.796-253.268-475.938-86.473-690.489c166.791-214.538,475.929-253.249,690.475-86.458
		c214.551,166.793,253.273,475.93,86.479,690.479C2236.505,486.1,1927.361,524.8,1712.82,358.014z"/>
	<path fill="none" stroke="#FFFFFF" stroke-width="3.0369" stroke-miterlimit="10" d="M1718.17,351.131
		c-212.533-165.229-250.891-471.47-85.662-684.006c165.227-212.524,471.462-250.872,683.994-85.647
		c212.537,165.228,250.896,471.462,85.667,683.997C2236.938,478.016,1930.697,516.353,1718.17,351.131z"/>
	<path fill="none" stroke="#FFFFFF" stroke-width="3.0369" stroke-miterlimit="10" d="M1723.52,344.25
		c-210.52-163.663-248.512-467.002-84.85-677.523c163.66-210.512,466.994-248.496,677.512-84.836
		c210.522,163.662,248.518,466.994,84.855,677.515C2237.371,469.933,1934.033,507.907,1723.52,344.25z"/>
	<path fill="none" stroke="#FFFFFF" stroke-width="3.0369" stroke-miterlimit="10" d="M1728.869,337.369
		c-208.506-162.097-246.137-462.533-84.039-671.042c162.096-208.497,462.527-246.118,671.031-84.023
		c208.509,162.095,246.141,462.526,84.044,671.032C2237.806,461.849,1937.369,499.459,1728.869,337.369z"/>
	<path fill="none" stroke="#FFFFFF" stroke-width="3.0369" stroke-miterlimit="10" d="M1734.221,330.487
		c-206.492-160.53-243.76-458.064-83.229-664.561c160.529-206.482,458.06-243.74,664.549-83.212
		c206.495,160.53,243.764,458.06,83.231,664.551C2238.238,453.765,1940.705,491.012,1734.221,330.487z"/>
	<path fill="none" stroke="#FFFFFF" stroke-width="3.0369" stroke-miterlimit="10" d="M1739.568,323.606
		c-204.477-158.965-241.381-453.598-82.414-658.078c158.963-204.469,453.59-241.363,658.065-82.4
		c204.481,158.964,241.387,453.592,82.421,658.068C2238.672,445.682,1944.039,482.565,1739.568,323.606z"/>
	<path fill="none" stroke="#FFFFFF" stroke-width="3.0369" stroke-miterlimit="10" d="M1744.92,316.725
		c-202.465-157.399-239.006-449.131-81.604-651.597c157.396-202.456,449.123-238.986,651.584-81.59
		c202.467,157.398,239.008,449.124,81.608,651.587C2239.106,437.597,1947.376,474.118,1744.92,316.725z"/>
	<path fill="none" stroke="#FFFFFF" stroke-width="3.0369" stroke-miterlimit="10" d="M1750.268,309.844
		c-200.449-155.834-236.627-444.662-80.791-645.115c155.83-200.441,444.655-236.608,645.103-80.777
		c200.453,155.833,236.632,444.656,80.797,645.104C2239.539,429.513,1950.71,465.671,1750.268,309.844z"/>
	<path fill="none" stroke="#FFFFFF" stroke-width="3.0369" stroke-miterlimit="10" d="M1755.617,302.962
		c-198.436-154.268-234.248-440.194-79.979-638.634c154.266-198.427,440.188-234.23,638.621-79.966
		c198.438,154.268,234.253,440.188,79.985,638.623C2239.973,421.43,1954.046,457.225,1755.617,302.962z"/>
	<path fill="none" stroke="#FFFFFF" stroke-width="3.0369" stroke-miterlimit="10" d="M1760.969,296.08
		c-196.424-152.701-231.873-435.727-79.168-632.15c152.699-196.413,435.719-231.854,632.139-79.153
		c196.425,152.7,231.876,435.72,79.173,632.14C2240.406,413.346,1957.383,448.778,1760.969,296.08z"/>
	<path fill="none" stroke="#FFFFFF" stroke-width="3.0369" stroke-miterlimit="10" d="M1766.316,289.2
		c-194.408-151.137-229.494-431.26-78.355-625.669c151.133-194.399,431.252-229.478,625.658-78.343
		c194.41,151.135,229.498,431.253,78.361,625.658C2240.84,405.262,1960.718,440.332,1766.316,289.2z"/>
	<path fill="none" stroke="#FFFFFF" stroke-width="3.0369" stroke-miterlimit="10" d="M1771.668,282.318
		c-192.395-149.57-227.119-426.791-77.545-619.188c149.568-192.385,426.784-227.1,619.176-77.53
		c192.396,149.569,227.12,426.784,77.55,619.176C2241.273,397.178,1964.054,431.884,1771.668,282.318z"/>
	<path fill="none" stroke="#FFFFFF" stroke-width="3.0369" stroke-miterlimit="10" d="M1777.016,275.437
		c-190.381-148.005-224.74-422.323-76.732-612.705c148.002-190.372,422.317-224.723,612.695-76.72
		c190.382,148.003,224.743,422.317,76.737,612.695C2241.707,389.095,1967.389,423.437,1777.016,275.437z"/>
	<path fill="none" stroke="#FFFFFF" stroke-width="3.0369" stroke-miterlimit="10" d="M1782.367,268.555
		C1594,122.117,1560.004-149.3,1706.445-337.667c146.436-188.358,417.849-222.346,606.214-75.909
		c188.367,146.438,222.364,417.85,75.925,606.214C2242.141,381.011,1970.725,414.99,1782.367,268.555z"/>
	<path fill="none" stroke="#FFFFFF" stroke-width="3.0369" stroke-miterlimit="10" d="M1787.717,261.673
		c-186.352-144.872-219.986-413.389-75.109-599.741c144.871-186.344,413.381-219.968,599.73-75.097
		c186.354,144.872,219.988,413.382,75.114,599.731C2242.574,372.926,1974.062,406.542,1787.717,261.673z"/>
	<path fill="none" stroke="#FFFFFF" stroke-width="3.0369" stroke-miterlimit="10" d="M1793.064,254.793
		c-184.338-143.308-217.607-408.922-74.297-593.261c143.305-184.33,408.914-217.591,593.25-74.284
		c184.339,143.306,217.609,408.914,74.302,593.249C2243.008,364.842,1977.396,398.095,1793.064,254.793z"/>
	<path fill="none" stroke="#FFFFFF" stroke-width="3.0369" stroke-miterlimit="10" d="M1798.414,247.911
		c-182.324-141.74-215.23-404.451-73.484-586.776c141.738-182.317,404.445-215.213,586.767-73.474
		c182.326,141.74,215.232,404.445,73.492,586.768C2243.441,356.76,1980.73,389.649,1798.414,247.911z"/>
	<path fill="none" stroke="#FFFFFF" stroke-width="3.0369" stroke-miterlimit="10" d="M1803.764,241.029
		c-180.309-140.175-212.852-399.983-72.672-580.294c140.174-180.303,399.978-212.837,580.285-72.663
		c180.312,140.175,212.855,399.979,72.68,580.286C2243.874,348.675,1984.066,381.203,1803.764,241.029z"/>
	<path fill="none" stroke="#FFFFFF" stroke-width="3.0369" stroke-miterlimit="10" d="M1809.115,234.148
		c-178.297-138.61-210.477-395.518-71.863-573.813c138.609-178.288,395.512-210.459,573.806-71.851
		c178.297,138.609,210.477,395.511,71.866,573.805C2244.309,340.591,1987.403,372.754,1809.115,234.148z"/>
	<path fill="none" stroke="#FFFFFF" stroke-width="3.0369" stroke-miterlimit="10" d="M1814.465,227.267
		c-176.283-137.044-208.1-391.05-71.051-567.332c137.041-176.274,391.043-208.082,567.322-71.039
		c176.282,137.044,208.1,391.043,71.056,567.322C2244.742,332.507,1990.738,364.308,1814.465,227.267z"/>
	<path fill="none" stroke="#FFFFFF" stroke-width="3.0369" stroke-miterlimit="10" d="M1819.812,220.386
		c-174.268-135.479-205.721-386.582-70.238-560.85c135.477-174.262,386.576-205.705,560.842-70.228
		c174.269,135.477,205.722,386.575,70.243,560.84C2245.175,324.424,1994.073,355.861,1819.812,220.386z"/>
	<path fill="none" stroke="#FFFFFF" stroke-width="3.0369" stroke-miterlimit="10" d="M1825.164,213.504
		c-172.256-133.912-203.346-382.114-69.428-554.368c133.91-172.246,382.107-203.327,554.359-69.415
		c172.255,133.911,203.345,382.106,69.433,554.358C2245.608,316.34,1997.41,347.414,1825.164,213.504z"/>
	<path fill="none" stroke="#FFFFFF" stroke-width="3.0369" stroke-miterlimit="10" d="M1830.514,206.623
		c-170.24-132.346-200.967-377.646-68.615-547.887c132.346-170.231,377.64-200.949,547.878-68.603
		c170.24,132.345,200.967,377.639,68.62,547.876C2246.042,308.256,2000.745,338.966,1830.514,206.623z"/>
	<path fill="none" stroke="#FFFFFF" stroke-width="3.0369" stroke-miterlimit="10" d="M1835.863,199.742
		c-168.227-130.78-198.59-373.179-67.805-541.404c130.779-168.219,373.173-198.572,541.397-67.793
		c168.226,130.78,198.589,373.172,67.808,541.396C2246.477,300.172,2004.081,330.52,1835.863,199.742z"/>
	<path fill="none" stroke="#FFFFFF" stroke-width="3.0369" stroke-miterlimit="10" d="M1841.211,192.86
		C1675,63.646,1645-175.85,1774.221-342.062c129.213-166.205,368.704-196.195,534.914-66.98
		c166.212,129.214,196.213,368.704,66.996,534.913C2246.909,292.089,2007.415,322.074,1841.211,192.86z"/>
	<path fill="none" stroke="#FFFFFF" stroke-width="3.0369" stroke-miterlimit="10" d="M1846.561,185.979
		c-164.197-127.648-193.834-364.242-66.178-528.441c127.646-164.19,364.235-193.817,528.432-66.168
		c164.198,127.647,193.834,364.236,66.185,528.431C2247.343,284.005,2010.751,313.626,1846.561,185.979z"/>
	<path fill="none" stroke="#FFFFFF" stroke-width="3.0369" stroke-miterlimit="10" d="M1851.912,179.096
		c-162.186-126.082-191.457-359.773-65.369-521.958c126.082-162.177,359.77-191.44,521.951-65.357
		c162.185,126.083,191.458,359.769,65.374,521.95C2247.776,275.921,2014.088,305.179,1851.912,179.096z"/>
	<path fill="none" stroke="#FFFFFF" stroke-width="3.0369" stroke-miterlimit="10" d="M1857.26,172.216
		c-160.17-124.518-189.08-355.307-64.555-515.477c124.516-160.164,355.301-189.063,515.469-64.546
		c160.17,124.517,189.08,355.301,64.562,515.468C2248.21,267.837,2017.423,296.733,1857.26,172.216z"/>
	<path fill="none" stroke="#FFFFFF" stroke-width="3.0369" stroke-miterlimit="10" d="M1862.611,165.335
		c-158.158-122.951-186.703-350.84-63.744-508.995c122.949-158.149,350.833-186.687,508.986-63.733
		c158.156,122.949,186.701,350.832,63.75,508.984C2248.644,259.753,2020.759,288.286,1862.611,165.335z"/>
	<path fill="none" stroke="#FFFFFF" stroke-width="3.0369" stroke-miterlimit="10" d="M1867.959,158.453
		c-156.143-121.385-184.324-346.371-62.932-502.513c121.385-156.135,346.366-184.308,502.506-62.923
		c156.143,121.386,184.324,346.366,62.938,502.505C2249.076,251.67,2024.094,279.838,1867.959,158.453z"/>
	<path fill="none" stroke="#FFFFFF" stroke-width="3.0369" stroke-miterlimit="10" d="M1873.311,151.572
		c-154.129-119.82-181.949-341.903-62.121-496.031c119.818-154.121,341.898-181.932,496.024-62.111
		c154.128,119.82,181.946,341.898,62.125,496.022C2249.511,243.585,2027.431,271.391,1873.311,151.572z"/>
	<path fill="none" stroke="#FFFFFF" stroke-width="3.0369" stroke-miterlimit="10" d="M1878.658,144.69
		c-152.113-118.253-179.57-337.436-61.309-489.548c118.254-152.108,337.431-179.556,489.543-61.3
		c152.113,118.253,179.569,337.43,61.315,489.54C2249.943,235.502,2030.766,262.945,1878.658,144.69z"/>
	<path fill="none" stroke="#FFFFFF" stroke-width="3.0369" stroke-miterlimit="10" d="M1884.008,137.809
		c-150.1-116.688-177.193-332.968-60.496-483.067c116.688-150.094,332.962-177.177,483.061-60.487
		c150.1,116.688,177.191,332.963,60.503,483.059C2250.377,227.418,2034.101,254.498,1884.008,137.809z"/>
	<path fill="none" stroke="#FFFFFF" stroke-width="3.0369" stroke-miterlimit="10" d="M1889.359,130.927
		c-148.088-115.122-174.816-328.499-59.686-476.585c115.12-148.08,328.494-174.799,476.579-59.676
		c148.085,115.121,174.813,328.494,59.69,476.576C2250.811,219.334,2037.437,246.05,1889.359,130.927z"/>
	<path fill="none" stroke="#FFFFFF" stroke-width="3.0369" stroke-miterlimit="10" d="M1894.709,124.046
		c-146.074-113.557-172.439-324.032-58.873-470.104c113.555-146.066,324.026-172.423,470.097-58.865
		c146.071,113.556,172.437,324.027,58.879,470.095C2251.244,211.25,2040.772,237.604,1894.709,124.046z"/>
	<path fill="none" stroke="#FFFFFF" stroke-width="3.0369" stroke-miterlimit="10" d="M1900.059,117.165
		c-144.061-111.99-170.062-319.565-58.062-463.621c111.989-144.052,319.56-170.046,463.615-58.053
		c144.057,111.99,170.06,319.56,58.067,463.613C2251.678,203.167,2044.107,229.157,1900.059,117.165z"/>
	<path fill="none" stroke="#FFFFFF" stroke-width="3.0369" stroke-miterlimit="10" d="M1905.406,110.284
		c-142.045-110.424-167.684-315.097-57.25-457.14c110.425-142.038,315.093-167.668,457.135-57.241
		c142.043,110.424,167.682,315.092,57.255,457.132C2252.111,195.083,2047.443,220.709,1905.406,110.284z"/>
	<path fill="none" stroke="#FFFFFF" stroke-width="3.0369" stroke-miterlimit="10" d="M1910.758,103.402
		c-140.031-108.858-165.309-310.629-56.439-450.657c108.857-140.024,310.624-165.29,450.652-56.43
		C2445-294.827,2470.274-93.061,2361.415,46.963C2252.545,187,2050.779,212.262,1910.758,103.402z"/>
	<path fill="none" stroke="#FFFFFF" stroke-width="3.0369" stroke-miterlimit="10" d="M1916.107,96.52
		c-138.018-107.293-162.93-306.161-55.627-444.175c107.292-138.011,306.157-162.913,444.171-55.618
		c138.015,107.293,162.926,306.155,55.632,444.167C2252.979,178.916,2054.115,203.815,1916.107,96.52z"/>
	<path fill="none" stroke="#FFFFFF" stroke-width="3.0369" stroke-miterlimit="10" d="M1921.455,89.639
		c-136.004-105.727-160.551-301.693-54.812-437.693c105.726-135.997,301.688-160.537,437.688-54.808
		c136,105.728,160.549,301.689,54.819,437.685C2253.412,170.832,2057.451,195.369,1921.455,89.639z"/>
	<path fill="none" stroke="#FFFFFF" stroke-width="3.0369" stroke-miterlimit="10" d="M1926.807,82.758
		c-133.99-104.161-158.176-297.227-54.004-431.212c104.16-133.983,297.221-158.159,431.207-53.995
		c133.986,104.161,158.171,297.221,54.009,431.202C2253.846,162.748,2060.786,186.921,1926.807,82.758z"/>
	<path fill="none" stroke="#FFFFFF" stroke-width="3.0369" stroke-miterlimit="10" d="M1932.156,75.876
		c-131.977-102.595-155.799-292.758-53.191-424.729c102.595-131.969,292.753-155.781,424.726-53.185
		c131.972,102.596,155.793,292.754,53.197,424.722C2254.279,154.665,2064.121,178.474,1932.156,75.876z"/>
	<path fill="none" stroke="#FFFFFF" stroke-width="3.0369" stroke-miterlimit="10" d="M1937.506,68.996
		c-129.961-101.029-153.422-288.291-52.379-418.249c101.027-129.954,288.284-153.404,418.243-52.372
		c129.958,101.029,153.416,288.286,52.385,418.239C2254.713,146.58,2067.457,170.027,1937.506,68.996z"/>
	<path fill="none" stroke="#FFFFFF" stroke-width="3.0369" stroke-miterlimit="10" d="M1942.855,62.114
		c-127.947-99.463-151.043-283.822-51.568-411.767c99.464-127.94,283.817-151.027,411.763-51.56
		c127.943,99.464,151.037,283.817,51.573,411.757C2255.146,138.497,2070.793,161.581,1942.855,62.114z"/>
	<path fill="none" stroke="#FFFFFF" stroke-width="3.0369" stroke-miterlimit="10" d="M1948.203,55.233
		c-125.934-97.897-148.664-279.354-50.754-405.284c97.896-125.927,279.349-148.65,405.28-50.749
		c125.93,97.897,148.66,279.351,50.761,405.275C2255.579,130.413,2074.128,153.133,1948.203,55.233z"/>
	<path fill="none" stroke="#FFFFFF" stroke-width="3.0369" stroke-miterlimit="10" d="M1953.554,48.351
		c-123.919-96.332-146.288-274.887-49.944-398.802c96.333-123.914,274.882-146.272,398.8-49.938
		c123.916,96.332,146.282,274.881,49.949,398.793C2256.014,122.329,2077.465,144.686,1953.554,48.351z"/>
	<path fill="none" stroke="#FFFFFF" stroke-width="3.0369" stroke-miterlimit="10" d="M1958.903,41.469
		c-121.905-94.767-143.909-270.419-49.132-392.32c94.767-121.898,270.414-143.895,392.317-49.126
		c121.901,94.768,143.906,270.414,49.139,392.312C2256.447,114.245,2080.8,136.239,1958.903,41.469z"/>
	<path fill="none" stroke="#FFFFFF" stroke-width="3.0369" stroke-miterlimit="10" d="M1964.253,34.588
		c-119.892-93.2-141.532-265.951-48.319-385.839c93.2-119.885,265.945-141.519,385.834-48.313
		c119.889,93.2,141.528,265.946,48.327,385.829C2256.881,106.162,2084.136,127.792,1964.253,34.588z"/>
	<path fill="none" stroke="#FFFFFF" stroke-width="3.0369" stroke-miterlimit="10" d="M1969.602,27.708
		c-117.877-91.636-139.154-261.484-47.508-379.356c91.635-117.872,261.479-139.142,379.354-47.503
		c117.874,91.635,139.151,261.479,47.515,379.349C2257.313,98.078,2087.471,119.346,1969.602,27.708z"/>
	<path fill="none" stroke="#FFFFFF" stroke-width="3.0369" stroke-miterlimit="10" d="M1974.952,20.826
		c-115.864-90.069-136.778-257.017-46.696-372.875c90.068-115.857,257.011-136.763,372.872-46.691
		c115.859,90.07,136.772,257.013,46.702,372.866C2257.747,89.995,2090.808,110.899,1974.952,20.826z"/>
	<path fill="none" stroke="#FFFFFF" stroke-width="3.0369" stroke-miterlimit="10" d="M1980.302,13.944
		c-113.849-88.502-134.399-252.547-45.884-366.393c88.503-113.845,252.542-134.387,366.39-45.88
		c113.846,88.504,134.396,252.544,45.891,366.385C2258.182,81.911,2094.143,102.451,1980.302,13.944z"/>
	<path fill="none" stroke="#FFFFFF" stroke-width="3.0369" stroke-miterlimit="10" d="M1985.65,7.063
		c-111.834-86.937-132.023-248.08-45.072-359.912c86.938-111.829,248.075-132.008,359.909-45.067
		c111.831,86.938,132.018,248.077,45.079,359.903C2258.614,73.826,2097.479,94.004,1985.65,7.063z"/>
	<path fill="none" stroke="#FFFFFF" stroke-width="3.0369" stroke-miterlimit="10" d="M1991.001,0.181
		c-109.821-85.37-129.646-243.611-44.262-353.429c85.371-109.816,243.607-129.632,353.427-44.257
		c109.817,85.372,129.641,243.609,44.269,353.422C2259.047,65.743,2100.812,85.558,1991.001,0.181z"/>
	<path fill="none" stroke="#FFFFFF" stroke-width="3.0369" stroke-miterlimit="10" d="M1996.351-6.701
		c-107.808-83.805-127.269-239.144-43.449-346.946c83.806-107.802,239.14-127.254,346.945-43.445
		c107.803,83.807,127.263,239.142,43.455,346.938C2259.481,57.659,2104.148,77.111,1996.351-6.701z"/>
	<path fill="none" stroke="#FFFFFF" stroke-width="3.0369" stroke-miterlimit="10" d="M2001.699-13.582
		c-105.793-82.239-124.891-234.677-42.637-340.466c82.24-105.787,234.673-124.876,340.464-42.632
		c105.789,82.24,124.885,234.673,42.644,340.456C2259.915,49.575,2107.484,68.664,2001.699-13.582z"/>
	<path fill="none" stroke="#FFFFFF" stroke-width="3.0369" stroke-miterlimit="10" d="M2007.05-20.463
		c-103.78-80.673-122.515-230.208-41.826-333.982c80.675-103.774,230.205-122.5,333.982-41.821
		c103.774,80.674,122.507,230.205,41.832,333.975C2260.349,41.491,2110.82,60.217,2007.05-20.463z"/>
	<path fill="none" stroke="#FFFFFF" stroke-width="3.0369" stroke-miterlimit="10" d="M2012.398-27.344
		c-101.766-79.108-120.137-225.741-41.014-327.501c79.109-101.761,225.737-120.123,327.501-41.01
		c101.76,79.108,120.13,225.737,41.02,327.492C2260.782,33.407,2114.155,51.769,2012.398-27.344z"/>
	<path fill="none" stroke="#FFFFFF" stroke-width="3.0369" stroke-miterlimit="10" d="M2017.749-34.226
		c-99.753-77.542-117.759-221.273-40.202-321.019c77.542-99.746,221.269-117.745,321.019-40.198
		c99.746,77.543,117.752,221.269,40.209,321.011C2261.215,25.324,2117.491,43.323,2017.749-34.226z"/>
	<path fill="none" stroke="#FFFFFF" stroke-width="3.0369" stroke-miterlimit="10" d="M2023.099-41.107
		c-97.737-75.977-115.382-216.805-39.391-314.537c75.979-97.733,216.801-115.368,314.537-39.387
		c97.732,75.977,115.374,216.801,39.396,314.529C2261.648,17.239,2120.827,34.876,2023.099-41.107z"/>
	<path fill="none" stroke="#FFFFFF" stroke-width="3.0369" stroke-miterlimit="10" d="M2028.448-47.989
		c-95.724-74.41-113.005-212.337-38.578-308.055c74.411-95.719,212.333-112.991,308.055-38.576
		c95.717,74.412,112.996,212.334,38.585,308.048C2262.083,9.156,2124.163,26.428,2028.448-47.989z"/>
	<path fill="none" stroke="#FFFFFF" stroke-width="3.0369" stroke-miterlimit="10" d="M2033.798-54.871
		c-93.71-72.843-110.628-207.869-37.768-301.572c72.847-93.706,207.867-110.614,301.574-37.764
		c93.704,72.846,110.619,207.865,37.773,301.565C2262.516,1.071,2127.498,17.982,2033.798-54.871z"/>
	<path fill="none" stroke="#FFFFFF" stroke-width="3.0369" stroke-miterlimit="10" d="M2039.146-61.751
		c-91.695-71.278-108.248-203.401-36.954-295.091c71.28-91.692,203.398-108.236,295.091-36.952
		c91.69,71.279,108.242,203.397,36.962,295.084C2262.95-7.012,2130.834,9.536,2039.146-61.751z"/>
	<path fill="none" stroke="#FFFFFF" stroke-width="3.0369" stroke-miterlimit="10" d="M2044.497-68.633
		c-89.682-69.711-105.872-198.934-36.144-288.609c69.715-89.676,198.93-105.858,288.609-36.14
		c89.677,69.714,105.865,198.93,36.151,288.602C2263.383-15.096,2134.17,1.087,2044.497-68.633z"/>
	<path fill="none" stroke="#FFFFFF" stroke-width="3.0369" stroke-miterlimit="10" d="M2049.848-75.514
		c-87.67-68.146-103.496-194.466-35.332-282.127c68.147-87.663,194.462-103.482,282.129-35.33
		c87.66,68.148,103.485,194.463,35.337,282.121C2263.816-23.18,2137.505-7.359,2049.848-75.514z"/>
	<path fill="none" stroke="#FFFFFF" stroke-width="3.0369" stroke-miterlimit="10" d="M2055.196-82.396
		c-85.654-66.581-101.118-189.998-34.52-275.646c66.582-85.648,189.994-101.104,275.647-34.518
		c85.646,66.583,101.108,189.995,34.525,275.639C2264.251-31.263,2140.841-15.806,2055.196-82.396z"/>
	<path fill="none" stroke="#FFFFFF" stroke-width="3.0369" stroke-miterlimit="10" d="M2060.546-89.278
		c-83.64-65.014-98.741-185.53-33.707-269.163c65.016-83.636,185.525-98.727,269.164-33.705
		c83.634,65.017,98.732,185.527,33.715,269.156C2264.684-39.347,2144.176-24.253,2060.546-89.278z"/>
	<path fill="none" stroke="#FFFFFF" stroke-width="3.0369" stroke-miterlimit="10" d="M2065.895-96.158
		c-81.625-63.45-96.363-181.063-32.895-262.683c63.451-81.621,181.059-96.35,262.683-32.894
		c81.619,63.45,96.354,181.059,32.903,262.674C2265.117-47.431,2147.513-32.7,2065.895-96.158z"/>
	<path fill="none" stroke="#FFFFFF" stroke-width="3.0369" stroke-miterlimit="10" d="M2071.245-103.041
		c-79.612-61.883-93.986-176.595-32.083-256.199c61.885-79.607,176.591-93.972,256.2-32.082
		c79.605,61.885,93.977,176.592,32.092,256.192C2265.551-55.515,2150.848-41.147,2071.245-103.041z"/>
	<path fill="none" stroke="#FFFFFF" stroke-width="3.0369" stroke-miterlimit="10" d="M2076.596-109.92
		c-77.6-60.317-91.609-172.128-31.273-249.719c60.319-77.594,172.124-91.596,249.72-31.271
		c77.591,60.319,91.599,172.124,31.279,249.71C2265.984-63.598,2154.184-49.594,2076.596-109.92z"/>
	<path fill="none" stroke="#FFFFFF" stroke-width="3.0369" stroke-miterlimit="10" d="M2081.945-116.803
		c-75.585-58.751-89.232-167.658-30.461-243.236c58.753-75.579,167.655-89.217,243.236-30.459
		c75.578,58.754,89.222,167.656,30.469,243.229C2266.418-71.682,2157.519-58.041,2081.945-116.803z"/>
	<path fill="none" stroke="#FFFFFF" stroke-width="3.0369" stroke-miterlimit="10" d="M2087.294-123.684
		c-73.571-57.186-86.854-163.191-29.648-236.754c57.188-73.565,163.188-86.841,236.755-29.648
		c73.563,57.188,86.845,163.189,29.657,236.747C2266.852-79.766,2160.854-66.489,2087.294-123.684z"/>
	<path fill="none" stroke="#FFFFFF" stroke-width="3.0369" stroke-miterlimit="10" d="M2092.644-130.565
		c-71.557-55.62-84.477-158.725-28.837-230.272c55.622-71.552,158.721-84.463,230.275-28.836
		c71.548,55.621,84.466,158.72,28.843,230.265C2267.284-87.849,2164.19-74.935,2092.644-130.565z"/>
	<path fill="none" stroke="#FFFFFF" stroke-width="3.0369" stroke-miterlimit="10" d="M2097.993-137.447
		c-69.542-54.055-82.1-154.257-28.024-223.79c54.056-69.539,154.252-82.087,223.793-28.024
		c69.533,54.056,82.087,154.254,28.032,223.782C2267.719-95.934,2167.525-83.381,2097.993-137.447z"/>
	<path fill="none" stroke="#FFFFFF" stroke-width="3.0369" stroke-miterlimit="10" d="M2103.344-144.328
		c-67.529-52.489-79.723-149.789-27.214-217.309c52.491-67.524,149.785-79.709,217.311-27.213
		c67.521,52.489,79.711,149.785,27.221,217.301C2268.152-104.018,2170.862-91.83,2103.344-144.328z"/>
	<path fill="none" stroke="#FFFFFF" stroke-width="3.0369" stroke-miterlimit="10" d="M2108.693-151.21
		c-65.516-50.922-77.345-145.319-26.402-210.825c50.925-65.511,145.317-77.332,210.829-26.401
		c65.507,50.924,77.334,145.316,26.409,210.819C2268.585-112.102,2174.197-100.276,2108.693-151.21z"/>
	<path fill="none" stroke="#FFFFFF" stroke-width="3.0369" stroke-miterlimit="10" d="M2114.043-158.09
		c-63.501-49.357-74.968-140.854-25.591-204.345c49.359-63.496,140.85-74.955,204.348-25.591
		c63.492,49.359,74.956,140.852,25.597,204.338C2269.02-120.185,2177.532-108.723,2114.043-158.09z"/>
	<path fill="none" stroke="#FFFFFF" stroke-width="3.0369" stroke-miterlimit="10" d="M2119.392-164.972
		c-61.486-47.791-72.59-136.385-24.777-197.863c47.793-61.481,136.381-72.577,197.865-24.778
		c61.478,47.793,72.579,136.383,24.785,197.856C2269.452-128.269,2180.868-117.17,2119.392-164.972z"/>
	<path fill="none" stroke="#FFFFFF" stroke-width="3.0369" stroke-miterlimit="10" d="M2124.741-171.853
		c-59.472-46.226-70.213-131.918-23.966-191.381c46.228-59.469,131.914-70.2,191.383-23.967
		c59.465,46.227,70.202,131.915,23.976,191.373C2269.887-136.353,2184.204-125.617,2124.741-171.853z"/>
	<path fill="none" stroke="#FFFFFF" stroke-width="3.0369" stroke-miterlimit="10" d="M2130.092-178.735
		c-57.459-44.659-67.836-127.45-23.155-184.898c44.661-57.455,127.446-67.823,184.901-23.155
		c57.451,44.661,67.824,127.446,23.163,184.892C2270.32-144.438,2187.54-134.064,2130.092-178.735z"/>
	<path fill="none" stroke="#FFFFFF" stroke-width="3.0369" stroke-miterlimit="10" d="M2135.441-185.617
		c-55.445-43.093-65.458-122.981-22.343-178.417c43.096-55.44,122.979-65.445,178.421-22.343
		c55.435,43.095,65.445,122.979,22.35,178.409C2270.753-152.521,2190.875-142.51,2135.441-185.617z"/>
	<path fill="none" stroke="#FFFFFF" stroke-width="3.0369" stroke-miterlimit="10" d="M2140.79-192.498
		c-53.431-41.527-63.079-118.515-21.53-171.936c41.53-53.427,118.511-63.068,171.938-21.531
		c53.421,41.528,63.068,118.512,21.539,171.928C2271.187-160.605,2194.211-150.958,2140.79-192.498z"/>
	<path fill="none" stroke="#FFFFFF" stroke-width="3.0369" stroke-miterlimit="10" d="M2146.141-199.379
		c-51.417-39.962-60.704-114.046-20.72-165.452c39.965-51.414,114.043-60.691,165.457-20.722
		c51.407,39.965,60.69,114.044,20.727,165.446C2271.62-168.689,2197.546-159.406,2146.141-199.379z"/>
	<path fill="none" stroke="#FFFFFF" stroke-width="3.0369" stroke-miterlimit="10" d="M2151.489-206.26
		c-49.402-38.396-58.325-109.579-19.907-158.972c38.399-49.398,109.576-58.313,158.976-19.909
		c49.394,38.398,58.313,109.577,19.915,158.965C2272.054-176.772,2200.882-167.852,2151.489-206.26z"/>
	<path fill="none" stroke="#FFFFFF" stroke-width="3.0369" stroke-miterlimit="10" d="M2156.84-213.142
		c-47.39-36.83-55.949-105.11-19.096-152.489c36.832-47.385,105.107-55.937,152.493-19.097
		c47.379,36.831,55.936,105.107,19.104,152.481C2272.487-184.856,2204.218-176.299,2156.84-213.142z"/>
	<path fill="none" stroke="#FFFFFF" stroke-width="3.0369" stroke-miterlimit="10" d="M2162.189-220.023
		c-45.375-35.265-53.572-100.643-18.284-146.008c35.268-45.371,100.64-53.559,146.012-18.286
		c45.365,35.268,53.558,100.642,18.291,146.001C2272.92-192.94,2207.553-184.746,2162.189-220.023z"/>
	<path fill="none" stroke="#FFFFFF" stroke-width="3.0369" stroke-miterlimit="10" d="M2167.538-226.905
		c-43.361-33.698-51.193-96.175-17.471-139.524c33.701-43.358,96.172-51.183,139.529-17.475
		c43.352,33.7,51.181,96.173,17.48,139.518C2273.354-201.024,2210.889-193.193,2167.538-226.905z"/>
	<path fill="none" stroke="#FFFFFF" stroke-width="3.0369" stroke-miterlimit="10" d="M2172.889-233.787
		c-41.348-32.132-48.817-91.707-16.66-133.043c32.135-41.344,91.703-48.805,133.047-16.662
		c41.338,32.134,48.804,91.705,16.669,133.036C2273.787-209.108,2214.225-201.64,2172.889-233.787z"/>
	<path fill="none" stroke="#FFFFFF" stroke-width="3.0369" stroke-miterlimit="10" d="M2178.237-240.667
		c-39.333-30.566-46.438-87.24-15.847-126.562c30.569-39.328,87.235-46.427,126.566-15.85
		c39.321,30.568,46.424,87.237,15.855,126.554C2274.221-217.191,2217.56-210.086,2178.237-240.667z"/>
	<path fill="none" stroke="#FFFFFF" stroke-width="3.0369" stroke-miterlimit="10" d="M2183.588-247.549
		c-37.319-29.001-44.062-82.771-15.037-120.079c29.005-37.316,82.77-44.05,120.085-15.039
		c37.309,29.003,44.048,82.77,15.045,120.072C2274.654-225.275,2220.896-218.534,2183.588-247.549z"/>
	<path fill="none" stroke="#FFFFFF" stroke-width="3.0369" stroke-miterlimit="10" d="M2188.938-254.43
		c-35.306-27.435-41.685-78.304-14.225-113.598c27.438-35.302,78.301-41.673,113.603-14.228
		c35.295,27.437,41.671,78.302,14.232,113.591C2275.088-233.359,2224.23-226.981,2188.938-254.43z"/>
	<path fill="none" stroke="#FFFFFF" stroke-width="3.0369" stroke-miterlimit="10" d="M2194.287-261.312
		c-33.291-25.869-39.308-73.836-13.413-107.115c25.872-33.288,73.833-39.295,107.121-13.416
		c33.28,25.871,39.293,73.834,13.421,107.108C2275.521-241.442,2227.566-235.428,2194.287-261.312z"/>
	<path fill="none" stroke="#FFFFFF" stroke-width="3.0369" stroke-miterlimit="10" d="M2199.637-268.194
		c-31.278-24.304-36.93-69.368-12.601-100.633c24.306-31.274,69.365-36.919,100.639-12.604
		c31.267,24.306,36.916,69.366,12.609,100.627C2275.955-249.527,2230.902-243.875,2199.637-268.194z"/>
	<path fill="none" stroke="#FFFFFF" stroke-width="3.0369" stroke-miterlimit="10" d="M2204.986-275.075
		c-29.264-22.737-34.552-64.9-11.789-94.151c22.74-29.261,64.896-34.541,94.157-11.794c29.252,22.74,34.537,64.899,11.798,94.146
		C2276.389-257.611,2234.238-252.322,2204.986-275.075z"/>
	<path fill="none" stroke="#FFFFFF" stroke-width="3.0369" stroke-miterlimit="10" d="M2210.336-281.957
		c-27.249-21.171-32.175-60.432-10.978-87.67c21.175-27.246,60.43-32.162,87.676-10.981c27.237,21.175,32.16,60.433,10.986,87.664
		C2276.822-265.694,2237.573-260.769,2210.336-281.957z"/>
	<path fill="none" stroke="#FFFFFF" stroke-width="3.0369" stroke-miterlimit="10" d="M2215.685-288.838
		c-25.235-19.604-29.797-55.964-10.165-81.187c19.609-25.232,55.962-29.786,81.193-10.17c25.225,19.607,29.783,55.963,10.176,81.182
		C2277.256-273.778,2240.909-269.216,2215.685-288.838z"/>
	<path fill="none" stroke="#FFFFFF" stroke-width="3.0369" stroke-miterlimit="10" d="M2221.035-295.719
		c-23.221-18.04-27.42-51.497-9.354-74.706c18.044-23.218,51.495-27.409,74.713-9.357c23.21,18.042,27.405,51.495,9.362,74.699
		C2277.689-281.862,2244.245-277.664,2221.035-295.719z"/>
	<path fill="none" stroke="#FFFFFF" stroke-width="3.0369" stroke-miterlimit="10" d="M2226.385-302.601
		c-21.208-16.474-25.043-47.028-8.542-68.224c16.478-21.204,47.026-25.031,68.23-8.547c21.195,16.478,25.027,47.029,8.551,68.219
		C2278.123-289.946,2247.58-286.11,2226.385-302.601z"/>
	<path fill="none" stroke="#FFFFFF" stroke-width="3.0369" stroke-miterlimit="10" d="M2231.734-309.482
		c-19.193-14.908-22.665-42.561-7.729-61.742c14.911-19.19,42.559-22.654,61.748-7.735c19.182,14.911,22.649,42.561,7.738,61.736
		C2278.556-298.03,2250.916-294.557,2231.734-309.482z"/>
	<path fill="none" stroke="#FFFFFF" stroke-width="3.0369" stroke-miterlimit="10" d="M2237.084-316.363
		c-17.18-13.343-20.288-38.094-6.919-55.261c13.346-17.176,38.091-20.276,55.268-6.924c17.167,13.347,20.272,38.093,6.928,55.255
		C2278.989-306.114,2254.252-303.004,2237.084-316.363z"/>
	<path fill="none" stroke="#FFFFFF" stroke-width="3.0369" stroke-miterlimit="10" d="M2242.433-323.245
		c-15.164-11.776-17.91-33.626-6.105-48.777c11.78-15.163,33.623-17.9,48.785-6.112c15.153,11.778,17.895,33.624,6.115,48.771
		C2279.424-314.198,2257.587-311.452,2242.433-323.245z"/>
	<path fill="none" stroke="#FFFFFF" stroke-width="3.0369" stroke-miterlimit="10" d="M2247.783-330.125
		c-13.151-10.212-15.534-29.159-5.295-42.297c10.215-13.149,29.155-15.522,42.304-5.3c13.14,10.213,15.517,29.156,5.304,42.29
		C2279.857-322.282,2260.923-319.898,2247.783-330.125z"/>
	<path fill="none" stroke="#FFFFFF" stroke-width="3.0369" stroke-miterlimit="10" d="M2253.133-337.007
		c-11.138-8.645-13.156-24.689-4.482-35.814c8.647-11.135,24.688-13.146,35.821-4.488c11.126,8.647,13.14,24.688,4.492,35.808
		C2280.29-330.365,2264.259-328.345,2253.133-337.007z"/>
	<path fill="none" stroke="#FFFFFF" stroke-width="3.0369" stroke-miterlimit="10" d="M2258.482-343.889
		c-9.124-7.078-10.779-20.222-3.671-29.332c7.083-9.121,20.22-10.768,29.339-3.677c9.112,7.081,10.763,20.221,3.681,29.326
		C2280.724-338.449,2267.595-336.792,2258.482-343.889z"/>
	<path fill="none" stroke="#FFFFFF" stroke-width="3.0369" stroke-miterlimit="10" d="M2263.832-350.77
		c-7.109-5.513-8.401-15.755-2.859-22.851c5.518-7.107,15.753-8.391,22.858-2.865c7.097,5.516,8.385,15.753,2.868,22.844
		C2281.157-346.533,2270.93-345.24,2263.832-350.77z"/>
	<path fill="none" stroke="#FFFFFF" stroke-width="3.0369" stroke-miterlimit="10" d="M2269.182-357.652
		c-5.096-3.947-6.023-11.286-2.048-16.369c3.952-5.093,11.284-6.013,16.377-2.053c5.083,3.95,6.007,11.285,2.057,16.362
		C2281.592-354.617,2274.266-353.687,2269.182-357.652z"/>
	<path fill="none" stroke="#FFFFFF" stroke-width="3.0369" stroke-miterlimit="10" d="M2274.531-364.533
		c-3.074-2.391-3.636-6.811-1.235-9.887c2.396-3.071,6.816-3.637,9.895-1.242c3.069,2.384,3.629,6.817,1.244,9.88
		C2282.024-362.701,2277.607-362.142,2274.531-364.533z"/>
	<path fill="none" stroke="#FFFFFF" stroke-width="3.0369" stroke-miterlimit="10" d="M2279.881-371.415
		c1.056,0.834,2.577,0.631,3.423-0.437c0.818-1.049,0.621-2.58-0.434-3.398c-1.064-0.828-2.594-0.635-3.413,0.431
		C2278.611-373.765,2278.813-372.23,2279.881-371.415z"/>
</g>
</svg>
