<?xml version="1.0" encoding="utf-8"?>
<!-- Generator: Adobe Illustrator 16.0.0, SVG Export Plug-In . SVG Version: 6.00 Build 0)  -->
<!DOCTYPE svg PUBLIC "-//W3C//DTD SVG 1.1//EN" "http://www.w3.org/Graphics/SVG/1.1/DTD/svg11.dtd">
<svg version="1.1" id="Layer_1" xmlns="http://www.w3.org/2000/svg" xmlns:xlink="http://www.w3.org/1999/xlink" x="0px" y="0px"
	 width="159.52px" height="85.181px" viewBox="0 0 159.52 85.181" enable-background="new 0 0 159.52 85.181" xml:space="preserve">
<g opacity="0.3">
	<path fill="#FFFFFF" d="M319.04,83.181L319.04,83.181L319.04,83.181c-9.369,0-14.107-6.691-19.124-13.775
		c-5.09-7.188-10.353-14.619-20.756-14.619c-10.405,0-15.669,7.433-20.759,14.62c-5.016,7.084-9.754,13.774-19.122,13.774
		s-14.106-6.691-19.123-13.775c-5.09-7.188-10.353-14.619-20.756-14.619c-10.405,0-15.669,7.433-20.759,14.62
		c-5.016,7.084-9.754,13.774-19.122,13.774s-14.106-6.691-19.123-13.775c-5.09-7.188-10.353-14.619-20.756-14.619
		c-10.405,0-15.669,7.433-20.759,14.62c-5.016,7.084-9.754,13.774-19.122,13.774c-9.369,0-14.107-6.691-19.124-13.775
		c-5.089-7.188-10.353-14.619-20.755-14.619c-10.405,0-15.669,7.433-20.759,14.62C14.105,76.49,9.368,83.181,0,83.181
		c-9.369,0-14.107-6.691-19.124-13.775c-5.089-7.188-10.353-14.619-20.755-14.619c-10.405,0-15.669,7.433-20.759,14.62
		c-5.016,7.084-9.754,13.774-19.122,13.774c-0.552,0-1,0.447-1,1s0.448,1,1,1c9.371,0,14.107,6.69,19.122,13.772
		c5.089,7.188,10.351,14.619,20.759,14.62c10.401-0.001,15.663-7.432,20.751-14.617C-14.111,91.872-9.373,85.181,0,85.181
		c0,0,0,0,0,0c9.371,0,14.107,6.69,19.122,13.772c5.089,7.188,10.351,14.619,20.759,14.62c10.401-0.001,15.663-7.432,20.751-14.617
		c5.017-7.084,9.755-13.775,19.127-13.775c9.371,0,14.107,6.69,19.122,13.772c5.089,7.188,10.351,14.619,20.759,14.62
		c10.401-0.001,15.663-7.432,20.751-14.617c5.017-7.084,9.756-13.775,19.128-13.775c9.371,0,14.107,6.69,19.122,13.772
		c5.089,7.188,10.351,14.619,20.759,14.62c10.401-0.001,15.663-7.432,20.751-14.617c5.017-7.084,9.756-13.775,19.128-13.775
		c9.371,0,14.107,6.69,19.122,13.772c5.089,7.188,10.351,14.619,20.759,14.62c10.401-0.001,15.663-7.432,20.751-14.617
		c5.017-7.084,9.756-13.775,19.128-13.775h0.001c0.553,0,1-0.447,1-1S319.592,83.181,319.04,83.181z M259.885,75.891
		c5.024-4.515,9.77-8.779,19.274-8.779c9.503,0,14.247,4.264,19.271,8.778c0.288,0.259,0.577,0.519,0.867,0.777
		c-4.961-3.181-10.187-6.394-20.138-6.394c-9.954,0-15.181,3.212-20.14,6.393C259.309,76.408,259.598,76.149,259.885,75.891z
		 M299.226,81.897c-4.972-0.639-10.112-1.299-20.055-1.299c-0.004,0-0.008,0-0.012,0c-9.953,0-15.097,0.66-20.07,1.299
		c-0.619,0.08-1.241,0.159-1.876,0.238c0.803-0.295,1.586-0.595,2.362-0.894c5.08-1.957,9.879-3.806,19.58-3.806
		c0.002,0,0.004,0,0.008,0c9.696,0,14.496,1.849,19.575,3.805c0.777,0.3,1.562,0.6,2.365,0.895
		C300.469,82.058,299.846,81.978,299.226,81.897z M301.34,84.18c-0.805,0.099-1.591,0.199-2.37,0.299
		c-4.911,0.631-9.989,1.282-19.811,1.282c-9.826,0-14.904-0.651-19.815-1.282c-0.778-0.1-1.562-0.2-2.367-0.298
		c0.805-0.099,1.589-0.199,2.367-0.299c4.911-0.631,9.989-1.283,19.815-1.283c0.004,0,0.007,0,0.011,0
		c9.813,0,14.892,0.652,19.801,1.282C299.75,83.981,300.536,84.081,301.34,84.18z M259.089,86.463
		c4.974,0.638,10.117,1.298,20.07,1.298c9.949,0,15.092-0.66,20.065-1.298c0.619-0.079,1.241-0.159,1.875-0.238
		c-0.803,0.295-1.587,0.595-2.364,0.895c-5.08,1.956-9.878,3.804-19.576,3.805c-9.704,0-14.502-1.849-19.583-3.806
		c-0.776-0.299-1.56-0.599-2.362-0.894C257.848,86.304,258.47,86.384,259.089,86.463z M299.458,79.375
		c-5.026-1.937-10.225-3.938-20.294-3.938c-0.004-0.001-0.006-0.001-0.008,0c-10.072,0-15.272,2.003-20.299,3.939
		c-0.312,0.12-0.622,0.239-0.933,0.358c0.618-0.386,1.228-0.776,1.833-1.165c5.043-3.238,9.807-6.296,19.402-6.296
		c9.592,0,14.355,3.058,19.398,6.295c0.606,0.39,1.216,0.779,1.835,1.166C300.082,79.615,299.77,79.495,299.458,79.375z
		 M258.858,88.985c5.027,1.936,10.226,3.938,20.302,3.938c10.07-0.001,15.269-2.003,20.295-3.938c0.313-0.12,0.625-0.24,0.937-0.36
		c-0.619,0.387-1.229,0.777-1.836,1.167c-5.042,3.236-9.805,6.294-19.396,6.294c-9.598,0-14.36-3.058-19.402-6.295
		c-0.604-0.389-1.213-0.778-1.831-1.164C258.237,88.746,258.546,88.865,258.858,88.985z M259.885,92.47
		c-0.288-0.259-0.577-0.519-0.867-0.777c4.96,3.182,10.187,6.393,20.142,6.394c9.952-0.001,15.177-3.213,20.137-6.394
		c-0.29,0.26-0.58,0.52-0.869,0.779c-5.022,4.513-9.767,8.776-19.268,8.776C269.653,101.248,264.909,96.984,259.885,92.47z
		 M279.16,65.111c-9.108,0-14.271,3.714-18.868,7.74c4.901-5.657,9.637-10.903,18.868-10.903c9.229,0,13.964,5.245,18.864,10.902
		C293.427,68.824,288.265,65.11,279.16,65.111z M279.16,103.248c9.1-0.001,14.261-3.71,18.855-7.732
		c-4.897,5.653-9.632,10.895-18.855,10.895c-9.229,0-13.963-5.24-18.86-10.895C264.893,99.539,270.055,103.248,279.16,103.248z
		 M279.16,56.786c8.425,0,13.105,5.415,17.611,11.657c-4.291-4.582-9.316-8.495-17.611-8.495c-8.297,0-13.323,3.913-17.614,8.496
		C266.051,62.201,270.732,56.786,279.16,56.786z M218.667,92.472c-5.022,4.513-9.767,8.776-19.268,8.776
		c-9.507,0-14.251-4.264-19.274-8.778c-0.288-0.259-0.577-0.519-0.867-0.777c4.96,3.182,10.187,6.393,20.142,6.394
		c9.952-0.001,15.177-3.213,20.137-6.394C219.247,91.952,218.957,92.212,218.667,92.472z M180.125,75.891
		c5.024-4.515,9.77-8.779,19.274-8.779c9.503,0,14.247,4.264,19.271,8.778c0.289,0.26,0.579,0.52,0.87,0.779
		c-4.961-3.182-10.188-6.396-20.141-6.396s-15.181,3.212-20.14,6.393C179.549,76.408,179.838,76.149,180.125,75.891z
		 M219.466,81.897c-4.972-0.639-10.112-1.299-20.055-1.299c-0.004,0-0.008,0-0.012,0c-9.953,0-15.097,0.66-20.07,1.299
		c-0.619,0.079-1.241,0.159-1.875,0.238c0.802-0.295,1.585-0.595,2.361-0.894c5.081-1.957,9.879-3.806,19.58-3.806
		c0.003,0,0.004,0,0.008,0c9.696,0,14.496,1.849,19.575,3.805c0.777,0.3,1.562,0.6,2.365,0.895
		C220.709,82.058,220.086,81.978,219.466,81.897z M221.581,84.18c-0.805,0.099-1.591,0.199-2.37,0.299
		c-4.911,0.631-9.989,1.282-19.811,1.282c-9.826,0-14.904-0.651-19.815-1.282c-0.778-0.1-1.562-0.2-2.367-0.298
		c0.805-0.099,1.589-0.199,2.367-0.299c4.911-0.631,9.989-1.283,19.815-1.283c0.004,0,0.007,0,0.011,0
		c9.813,0,14.892,0.652,19.801,1.282C219.991,83.981,220.776,84.081,221.581,84.18z M179.33,86.463
		c4.974,0.638,10.117,1.298,20.07,1.298c9.949,0,15.092-0.66,20.065-1.298c0.619-0.079,1.241-0.159,1.875-0.238
		c-0.803,0.295-1.587,0.595-2.364,0.895c-5.08,1.956-9.878,3.804-19.576,3.805c-9.704,0-14.502-1.849-19.583-3.806
		c-0.776-0.299-1.56-0.599-2.362-0.894C178.088,86.304,178.71,86.384,179.33,86.463z M219.698,79.375
		c-5.026-1.937-10.225-3.938-20.294-3.938c-0.004-0.001-0.005-0.001-0.008,0c-10.071,0-15.271,2.003-20.299,3.939
		c-0.312,0.12-0.622,0.239-0.933,0.358c0.618-0.386,1.228-0.776,1.833-1.165c5.043-3.238,9.807-6.296,19.402-6.296
		c9.592,0,14.355,3.058,19.398,6.295c0.606,0.389,1.215,0.779,1.834,1.166C220.321,79.615,220.01,79.495,219.698,79.375z
		 M179.098,88.985c5.027,1.936,10.226,3.938,20.302,3.938c10.07-0.001,15.269-2.003,20.295-3.938c0.313-0.12,0.625-0.24,0.937-0.36
		c-0.619,0.387-1.229,0.777-1.836,1.167c-5.042,3.236-9.805,6.294-19.396,6.294c-9.598,0-14.36-3.058-19.402-6.295
		c-0.604-0.389-1.213-0.778-1.831-1.164C178.477,88.746,178.787,88.865,179.098,88.985z M199.4,65.111
		c-9.105,0-14.269,3.712-18.864,7.737c4.899-5.657,9.635-10.9,18.864-10.9c9.227,0,13.962,5.243,18.86,10.899
		C213.665,68.822,208.502,65.11,199.4,65.111z M199.4,103.248c9.1-0.001,14.261-3.71,18.855-7.732
		c-4.897,5.653-9.632,10.895-18.855,10.895c-9.229,0-13.963-5.24-18.86-10.895C185.133,99.539,190.295,103.248,199.4,103.248z
		 M199.4,56.786c8.425,0,13.105,5.415,17.611,11.657c-4.291-4.582-9.316-8.495-17.611-8.495c-8.296,0-13.322,3.912-17.613,8.494
		C186.292,62.2,190.973,56.786,199.4,56.786z M138.908,92.472c-5.022,4.513-9.767,8.776-19.268,8.776
		c-9.507,0-14.251-4.264-19.274-8.778c-0.288-0.259-0.577-0.519-0.867-0.777c4.96,3.182,10.187,6.393,20.142,6.394
		c9.951-0.001,15.177-3.213,20.137-6.394C139.487,91.952,139.197,92.212,138.908,92.472z M100.366,75.891
		c5.024-4.515,9.77-8.779,19.274-8.779c9.503,0,14.247,4.264,19.271,8.778c0.289,0.26,0.579,0.52,0.87,0.779
		c-4.961-3.182-10.188-6.396-20.141-6.396c-9.954,0-15.181,3.212-20.14,6.393C99.79,76.408,100.079,76.149,100.366,75.891z
		 M139.707,81.897c-4.972-0.639-10.112-1.299-20.055-1.299c-0.004,0-0.008,0-0.012,0c-9.953,0-15.097,0.66-20.07,1.299
		c-0.619,0.079-1.241,0.159-1.875,0.238c0.802-0.295,1.585-0.595,2.361-0.894c5.081-1.957,9.879-3.806,19.58-3.806
		c0.002,0,0.005,0,0.008,0c9.695,0,14.495,1.849,19.575,3.805c0.777,0.3,1.562,0.6,2.365,0.895
		C140.95,82.058,140.327,81.978,139.707,81.897z M141.821,84.18c-0.805,0.099-1.591,0.199-2.37,0.299
		c-4.911,0.631-9.988,1.282-19.81,1.282c-9.826,0-14.905-0.651-19.816-1.282c-0.778-0.1-1.562-0.2-2.367-0.298
		c0.805-0.099,1.589-0.199,2.367-0.299c4.911-0.631,9.989-1.283,19.815-1.283c0.004,0,0.007,0,0.011,0
		c9.813,0,14.892,0.652,19.801,1.282C140.231,83.981,141.016,84.081,141.821,84.18z M99.57,86.463
		c4.974,0.638,10.117,1.298,20.071,1.298c9.948,0,15.091-0.66,20.064-1.298c0.619-0.079,1.241-0.159,1.875-0.238
		c-0.803,0.295-1.587,0.595-2.364,0.895c-5.08,1.956-9.878,3.804-19.576,3.805c-9.704,0-14.502-1.849-19.583-3.806
		c-0.776-0.299-1.56-0.599-2.362-0.894C98.329,86.304,98.951,86.384,99.57,86.463z M139.938,79.375
		c-5.027-1.937-10.226-3.938-20.294-3.938c-0.003-0.001-0.006-0.001-0.008,0c-10.071,0-15.271,2.003-20.299,3.939
		c-0.312,0.12-0.622,0.239-0.933,0.358c0.618-0.386,1.228-0.776,1.833-1.165c5.043-3.238,9.807-6.296,19.402-6.296
		c9.592,0,14.355,3.058,19.398,6.295c0.606,0.39,1.216,0.779,1.835,1.166C140.562,79.615,140.25,79.495,139.938,79.375z
		 M99.338,88.985c5.027,1.936,10.226,3.938,20.302,3.938c10.07-0.001,15.269-2.003,20.295-3.938c0.313-0.12,0.625-0.24,0.937-0.36
		c-0.619,0.387-1.229,0.777-1.836,1.167c-5.042,3.236-9.805,6.294-19.396,6.294c-9.598,0-14.36-3.058-19.402-6.295
		c-0.604-0.389-1.213-0.778-1.831-1.164C98.717,88.746,99.027,88.865,99.338,88.985z M119.64,65.111
		c-9.104,0-14.266,3.71-18.86,7.733c4.898-5.655,9.634-10.896,18.86-10.896s13.962,5.243,18.86,10.899
		C133.905,68.822,128.743,65.11,119.64,65.111z M119.64,103.248c9.102-0.001,14.264-3.712,18.858-7.735
		c-4.898,5.654-9.632,10.897-18.858,10.897c-9.229,0-13.963-5.24-18.86-10.895C105.374,99.539,110.536,103.248,119.64,103.248z
		 M119.64,56.786c8.425,0,13.105,5.415,17.611,11.657c-4.291-4.582-9.316-8.495-17.611-8.495c-8.298,0-13.324,3.914-17.616,8.499
		C106.531,62.202,111.211,56.786,119.64,56.786z M-59.154,75.891c5.024-4.515,9.769-8.779,19.274-8.779
		c9.502,0,14.247,4.264,19.271,8.778c0.289,0.26,0.579,0.52,0.87,0.779c-4.961-3.182-10.188-6.396-20.141-6.396
		c-9.953,0-15.179,3.211-20.139,6.392C-59.729,76.407-59.441,76.148-59.154,75.891z M-19.813,81.897
		c-4.972-0.639-10.112-1.299-20.055-1.299c-0.003,0-0.008,0-0.011,0c-9.954,0-15.097,0.66-20.07,1.299
		c-0.62,0.08-1.242,0.159-1.875,0.238c0.802-0.295,1.585-0.595,2.361-0.894c5.081-1.957,9.879-3.806,19.58-3.806
		c0.004,0,0.004,0,0.008,0c9.696,0,14.496,1.849,19.576,3.805c0.778,0.3,1.562,0.6,2.365,0.895
		C-18.569,82.058-19.193,81.978-19.813,81.897z M-17.698,84.18c-0.805,0.099-1.592,0.199-2.371,0.299
		c-4.911,0.631-9.989,1.282-19.81,1.282c-9.826,0-14.904-0.651-19.815-1.282c-0.778-0.1-1.563-0.2-2.368-0.298
		c0.804-0.099,1.589-0.199,2.367-0.299c4.911-0.631,9.99-1.283,19.815-1.283c0.004,0,0.007,0,0.011,0
		c9.813,0,14.892,0.652,19.801,1.282C-19.289,83.981-18.503,84.081-17.698,84.18z M-59.949,86.463
		c4.974,0.638,10.117,1.298,20.07,1.298c9.949,0,15.091-0.66,20.064-1.298c0.62-0.079,1.242-0.159,1.876-0.238
		c-0.803,0.295-1.587,0.595-2.365,0.895c-5.08,1.956-9.878,3.804-19.577,3.805c-9.704,0-14.502-1.849-19.583-3.806
		c-0.777-0.299-1.56-0.599-2.362-0.894C-61.19,86.304-60.568,86.384-59.949,86.463z M-19.581,79.375
		c-5.027-1.937-10.225-3.938-20.294-3.938c-0.002,0-0.004,0-0.008,0c-10.072,0-15.272,2.003-20.299,3.939
		c-0.312,0.12-0.622,0.239-0.933,0.358c0.619-0.386,1.228-0.776,1.833-1.165c5.043-3.238,9.807-6.296,19.402-6.296
		c9.592,0,14.355,3.058,19.398,6.295c0.606,0.389,1.214,0.779,1.833,1.165C-18.958,79.614-19.27,79.495-19.581,79.375z
		 M-60.181,88.985c5.027,1.936,10.226,3.938,20.302,3.938c10.07-0.001,15.269-2.003,20.295-3.938c0.313-0.12,0.625-0.24,0.937-0.359
		c-0.62,0.386-1.229,0.776-1.836,1.166c-5.042,3.236-9.805,6.294-19.396,6.294c-9.597,0-14.36-3.058-19.403-6.295
		c-0.605-0.389-1.213-0.778-1.832-1.164C-60.803,88.746-60.493,88.865-60.181,88.985z M-59.154,92.47
		c-0.289-0.259-0.578-0.519-0.868-0.778c4.96,3.182,10.186,6.394,20.143,6.395c9.95-0.001,15.175-3.212,20.135-6.392
		c-0.29,0.259-0.579,0.519-0.867,0.777c-5.022,4.513-9.767,8.776-19.268,8.776C-49.387,101.248-54.131,96.984-59.154,92.47z
		 M-39.879,65.111c-9.107,0-14.27,3.714-18.866,7.739c4.9-5.657,9.636-10.902,18.866-10.902c9.226,0,13.961,5.243,18.86,10.898
		C-25.615,68.822-30.777,65.11-39.879,65.111z M-39.879,103.248c9.102-0.001,14.264-3.712,18.859-7.735
		c-4.899,5.654-9.633,10.897-18.859,10.897c-9.23,0-13.965-5.242-18.862-10.896C-54.147,99.538-48.985,103.248-39.879,103.248z
		 M59.148,92.472c-5.022,4.513-9.767,8.776-19.268,8.776c-9.507,0-14.251-4.264-19.274-8.778c-0.287-0.258-0.575-0.517-0.865-0.775
		c4.959,3.181,10.185,6.391,20.139,6.392c9.951-0.001,15.176-3.212,20.136-6.393C59.726,91.953,59.437,92.212,59.148,92.472z
		 M20.606,75.891c5.024-4.515,9.769-8.779,19.274-8.779c9.502,0,14.247,4.264,19.271,8.778c0.289,0.26,0.579,0.52,0.87,0.779
		c-4.961-3.182-10.188-6.396-20.141-6.396c-9.952,0-15.179,3.211-20.139,6.392C20.031,76.407,20.319,76.148,20.606,75.891z
		 M59.946,81.897c-4.972-0.639-10.112-1.299-20.055-1.299c-0.003,0-0.008,0-0.011,0c-9.953,0-15.096,0.66-20.07,1.299
		c-0.619,0.08-1.242,0.159-1.875,0.238c0.802-0.295,1.585-0.595,2.362-0.894c5.08-1.957,9.878-3.806,19.58-3.806
		c0.004,0,0.004,0,0.008,0c9.696,0,14.496,1.849,19.576,3.805c0.778,0.3,1.562,0.6,2.366,0.895
		C61.19,82.058,60.567,81.978,59.946,81.897z M62.062,84.18c-0.805,0.099-1.591,0.199-2.371,0.299
		c-4.911,0.631-9.989,1.282-19.81,1.282c-9.826,0-14.905-0.651-19.816-1.282c-0.778-0.1-1.563-0.2-2.367-0.298
		c0.804-0.099,1.589-0.199,2.367-0.299c4.911-0.631,9.99-1.283,19.815-1.283c0.004,0,0.007,0,0.011,0
		c9.813,0,14.891,0.652,19.8,1.282C60.471,83.981,61.256,84.081,62.062,84.18z M19.811,86.463
		c4.974,0.638,10.117,1.298,20.071,1.298c9.949,0,15.091-0.66,20.064-1.298c0.62-0.079,1.242-0.159,1.876-0.238
		c-0.803,0.295-1.587,0.595-2.365,0.895c-5.08,1.956-9.878,3.804-19.576,3.805c-9.704,0-14.502-1.849-19.583-3.806
		c-0.777-0.299-1.56-0.599-2.362-0.894C18.569,86.304,19.191,86.384,19.811,86.463z M60.179,79.375
		c-5.027-1.937-10.225-3.938-20.294-3.938c-0.003,0-0.003,0-0.008,0c-10.072,0-15.271,2.003-20.299,3.939
		c-0.312,0.12-0.622,0.239-0.933,0.358c0.619-0.386,1.228-0.776,1.833-1.165c5.043-3.238,9.807-6.296,19.402-6.296
		c9.592,0,14.355,3.058,19.398,6.295c0.606,0.389,1.214,0.779,1.833,1.165C60.801,79.614,60.49,79.495,60.179,79.375z
		 M19.579,88.985c5.027,1.936,10.226,3.938,20.301,3.938c10.07-0.001,15.268-2.003,20.295-3.938c0.313-0.12,0.625-0.24,0.937-0.359
		c-0.62,0.386-1.229,0.776-1.836,1.166c-5.042,3.236-9.805,6.294-19.396,6.294c-9.597,0-14.36-3.058-19.402-6.295
		c-0.605-0.389-1.214-0.778-1.832-1.164C18.957,88.745,19.267,88.865,19.579,88.985z M39.88,65.111
		c-9.107,0-14.27,3.713-18.866,7.739c4.9-5.657,9.636-10.902,18.866-10.902c9.226,0,13.961,5.243,18.86,10.898
		C54.145,68.822,48.982,65.11,39.88,65.111z M39.88,103.248c9.101-0.001,14.262-3.711,18.856-7.733
		c-4.897,5.653-9.632,10.896-18.856,10.896c-9.229,0-13.963-5.24-18.86-10.895C25.614,99.539,30.776,103.248,39.88,103.248z
		 M39.88,56.786c8.427,0,13.107,5.417,17.614,11.66c-4.292-4.583-9.317-8.498-17.614-8.498c-8.297,0-13.323,3.913-17.614,8.495
		C26.772,62.201,31.453,56.786,39.88,56.786z M-39.879,56.786c8.427,0,13.107,5.417,17.614,11.661
		c-4.292-4.584-9.318-8.499-17.614-8.499c-8.297,0-13.323,3.913-17.614,8.495C-52.988,62.201-48.307,56.786-39.879,56.786z
		 M-39.879,111.573c-8.431,0-13.11-5.416-17.616-11.659c4.291,4.583,9.316,8.495,17.616,8.496c8.295-0.001,13.319-3.914,17.61-8.495
		C-26.774,106.157-31.454,111.572-39.879,111.573z M39.88,111.573c-8.431,0-13.11-5.416-17.616-11.659
		c4.291,4.582,9.317,8.495,17.616,8.496c8.295-0.001,13.32-3.914,17.611-8.497C52.986,106.156,48.307,111.572,39.88,111.573z
		 M119.64,111.573c-8.431,0-13.11-5.415-17.615-11.658c4.291,4.582,9.316,8.494,17.615,8.495c8.296-0.001,13.32-3.914,17.61-8.496
		C132.746,106.156,128.066,111.572,119.64,111.573z M199.4,111.573c-8.431,0-13.11-5.415-17.615-11.658
		c4.291,4.582,9.316,8.494,17.615,8.495c8.294-0.001,13.318-3.913,17.609-8.494C212.504,106.157,207.825,111.572,199.4,111.573z
		 M279.16,111.573c-8.431,0-13.11-5.415-17.615-11.658c4.291,4.582,9.316,8.494,17.615,8.495c8.294-0.001,13.318-3.913,17.609-8.494
		C292.264,106.157,287.584,111.572,279.16,111.573z"/>
	<path fill="#FFFFFF" d="M-79.76,0c9.371,0,14.107,6.69,19.122,13.772c5.089,7.188,10.351,14.619,20.759,14.62
		c10.401-0.001,15.663-7.432,20.751-14.617C-14.111,6.691-9.373,0,0,0c9.371,0,14.107,6.69,19.122,13.772
		c5.089,7.188,10.351,14.619,20.759,14.62c10.401-0.001,15.663-7.432,20.751-14.617C65.648,6.691,70.387,0,79.759,0
		c9.371,0,14.107,6.69,19.122,13.772c5.089,7.188,10.351,14.619,20.759,14.62c10.401-0.001,15.663-7.432,20.751-14.617
		C145.408,6.691,150.147,0,159.519,0c9.371,0,14.107,6.69,19.122,13.772c5.089,7.188,10.351,14.619,20.759,14.62
		c10.401-0.001,15.663-7.432,20.751-14.617C225.167,6.691,229.907,0,239.279,0c9.371,0,14.107,6.69,19.122,13.772
		c5.089,7.188,10.351,14.619,20.759,14.62c10.401-0.001,15.663-7.432,20.751-14.617C304.927,6.691,309.667,0,319.039,0
		c0.553,0,1-0.448,1-1s-0.447-1-1-1c-9.368,0-14.106-6.691-19.123-13.775c-5.09-7.187-10.353-14.619-20.756-14.619
		c-10.405,0-15.669,7.433-20.759,14.621C253.385-8.69,248.647-2,239.279-2s-14.106-6.691-19.123-13.775
		c-5.09-7.187-10.353-14.619-20.756-14.619c-10.405,0-15.669,7.433-20.759,14.621C173.625-8.69,168.887-2,159.519-2
		s-14.106-6.691-19.123-13.775c-5.09-7.187-10.353-14.619-20.756-14.619c-10.405,0-15.669,7.433-20.759,14.621
		C93.866-8.69,89.127-2,79.759-2c-9.369,0-14.107-6.691-19.124-13.775c-5.089-7.187-10.353-14.619-20.755-14.619
		c-10.405,0-15.669,7.433-20.759,14.621C14.105-8.69,9.368-2,0-2c-9.369,0-14.107-6.691-19.124-13.775
		c-5.089-7.187-10.353-14.619-20.755-14.619c-10.405,0-15.669,7.433-20.759,14.621C-65.654-8.69-70.392-2-79.76-2
		c-0.552,0-1,0.448-1,1S-80.312,0-79.76,0z M-59.154-9.291c5.024-4.515,9.769-8.779,19.274-8.779c9.502,0,14.247,4.264,19.271,8.778
		c0.288,0.259,0.578,0.519,0.868,0.778c-4.96-3.181-10.187-6.394-20.138-6.394c-9.955,0-15.182,3.213-20.143,6.395
		C-59.731-8.771-59.442-9.031-59.154-9.291z M-20.612,7.291c-5.022,4.513-9.767,8.777-19.268,8.777
		c-9.507,0-14.251-4.265-19.274-8.778c-0.288-0.258-0.576-0.517-0.865-0.775c4.958,3.181,10.185,6.391,20.139,6.392
		c9.951-0.001,15.177-3.213,20.137-6.394C-20.034,6.771-20.323,7.031-20.612,7.291z M-59.948,1.282
		c4.973,0.638,10.116,1.298,20.069,1.299C-29.932,2.58-24.79,1.92-19.817,1.282c0.621-0.08,1.245-0.16,1.88-0.239
		c-0.803,0.295-1.588,0.595-2.366,0.895c-5.08,1.956-9.878,3.804-19.577,3.805c-9.704,0-14.502-1.849-19.583-3.805
		c-0.777-0.299-1.561-0.6-2.364-0.894C-61.191,1.123-60.568,1.203-59.948,1.282z M-62.065-1c0.805-0.099,1.59-0.199,2.369-0.299
		c4.91-0.63,9.986-1.283,19.806-1.283c0.007,0,0.014,0,0.022,0c9.813,0,14.892,0.652,19.801,1.283c0.779,0.1,1.564,0.2,2.369,0.299
		c-0.807,0.098-1.593,0.199-2.374,0.299c-4.91,0.63-9.988,1.282-19.807,1.283c-9.825,0-14.903-0.652-19.814-1.283
		C-60.473-0.802-61.259-0.902-62.065-1z M-19.813-3.283c-4.972-0.639-10.112-1.299-20.055-1.299c-0.007,0-0.014,0.001-0.022,0
		c-9.946,0-15.088,0.661-20.06,1.299c-0.62,0.08-1.242,0.16-1.876,0.238c0.803-0.295,1.586-0.595,2.364-0.895
		c5.081-1.958,9.88-3.806,19.583-3.806c9.7,0,14.499,1.849,19.579,3.806c0.777,0.299,1.562,0.6,2.365,0.895
		C-18.57-3.124-19.193-3.204-19.813-3.283z M-60.181,3.804c5.027,1.937,10.226,3.938,20.302,3.939
		c10.07-0.001,15.269-2.002,20.295-3.938c0.312-0.12,0.624-0.24,0.935-0.359c-0.619,0.386-1.229,0.776-1.834,1.166
		c-5.042,3.236-9.805,6.293-19.396,6.294c-9.597,0-14.36-3.058-19.403-6.295c-0.606-0.389-1.214-0.779-1.833-1.165
		C-60.804,3.564-60.493,3.684-60.181,3.804z M-19.582-5.806c-5.028-1.937-10.227-3.939-20.298-3.939
		c-10.075,0-15.274,2.003-20.302,3.94c-0.312,0.12-0.623,0.24-0.934,0.359c0.619-0.386,1.228-0.776,1.834-1.166
		c5.043-3.237,9.807-6.295,19.402-6.295c9.592,0,14.355,3.058,19.398,6.295c0.606,0.389,1.215,0.779,1.834,1.166
		C-18.958-5.566-19.27-5.686-19.582-5.806z M-39.879,18.067c9.098-0.001,14.26-3.709,18.854-7.73
		c-4.897,5.652-9.631,10.892-18.854,10.893c-9.231,0-13.966-5.243-18.865-10.899C-54.149,14.354-48.987,18.066-39.879,18.067z
		 M-39.879-20.069c0,0-0.001,0-0.001,0c-9.103,0-14.265,3.71-18.86,7.734c4.898-5.655,9.634-10.897,18.861-10.896
		c9.226,0,13.961,5.243,18.86,10.898C-25.614-16.358-30.777-20.07-39.879-20.069z M-39.879,26.393
		c-8.431,0-13.11-5.416-17.616-11.659c4.291,4.583,9.316,8.495,17.616,8.496c8.295-0.001,13.32-3.914,17.611-8.496
		C-26.774,20.976-31.453,26.392-39.879,26.393z M20.606-9.291c5.024-4.515,9.769-8.779,19.274-8.779
		c9.502,0,14.247,4.264,19.271,8.778c0.288,0.259,0.578,0.519,0.868,0.778c-4.96-3.181-10.187-6.394-20.138-6.394
		c-9.955,0-15.182,3.213-20.143,6.395C20.028-8.771,20.317-9.031,20.606-9.291z M59.148,7.291
		c-5.022,4.513-9.767,8.777-19.268,8.777c-9.507,0-14.251-4.265-19.274-8.778c-0.288-0.258-0.576-0.517-0.865-0.775
		c4.958,3.181,10.185,6.391,20.139,6.392c9.952-0.001,15.178-3.214,20.138-6.395C59.727,6.771,59.437,7.031,59.148,7.291z
		 M19.812,1.282c4.974,0.638,10.116,1.298,20.069,1.299C49.828,2.58,54.969,1.92,59.942,1.282c0.621-0.08,1.245-0.16,1.88-0.239
		c-0.803,0.295-1.588,0.595-2.366,0.895c-5.08,1.956-9.878,3.804-19.576,3.805c-9.704,0-14.502-1.849-19.583-3.805
		c-0.777-0.299-1.561-0.6-2.364-0.894C18.569,1.123,19.192,1.203,19.812,1.282z M17.695-1c0.805-0.099,1.59-0.199,2.369-0.299
		c4.91-0.63,9.986-1.283,19.806-1.283c0.003,0,0.007,0,0.011,0c9.805,0.014,14.9,0.652,19.812,1.283
		c0.778,0.1,1.564,0.2,2.369,0.299c-0.806,0.098-1.593,0.199-2.373,0.299C54.777-0.071,49.7,0.58,39.881,0.581
		c-9.825,0-14.904-0.652-19.814-1.283C19.287-0.802,18.501-0.902,17.695-1z M59.946-3.283c-4.972-0.639-10.112-1.299-20.055-1.299
		c-0.006,0-0.014,0.001-0.022,0c-9.946,0-15.088,0.661-20.06,1.299c-0.62,0.08-1.242,0.16-1.876,0.238
		c0.803-0.295,1.586-0.595,2.364-0.895c5.081-1.958,9.88-3.806,19.583-3.806c9.7,0,14.499,1.849,19.579,3.806
		c0.778,0.299,1.562,0.6,2.365,0.895C61.19-3.124,60.567-3.204,59.946-3.283z M19.579,3.804c5.027,1.937,10.226,3.938,20.302,3.939
		c10.07-0.001,15.268-2.002,20.295-3.938c0.312-0.12,0.624-0.24,0.936-0.359c-0.62,0.386-1.229,0.777-1.835,1.166
		c-5.042,3.236-9.805,6.293-19.396,6.294c-9.597,0-14.36-3.058-19.403-6.295c-0.606-0.389-1.214-0.779-1.833-1.165
		C18.956,3.564,19.267,3.684,19.579,3.804z M60.178-5.806C55.15-7.743,49.952-9.745,39.88-9.745c-10.075,0-15.274,2.003-20.302,3.94
		c-0.312,0.12-0.623,0.24-0.934,0.359c0.619-0.386,1.228-0.776,1.834-1.166c5.043-3.237,9.807-6.295,19.402-6.295
		c9.592,0,14.355,3.058,19.398,6.295c0.606,0.389,1.215,0.779,1.834,1.166C60.801-5.566,60.49-5.686,60.178-5.806z M39.88,18.067
		c9.1-0.001,14.261-3.71,18.855-7.732c-4.897,5.653-9.632,10.894-18.855,10.895c-9.231,0-13.966-5.243-18.865-10.899
		C25.611,14.354,30.773,18.066,39.88,18.067z M39.88-20.069c0,0-0.001,0-0.001,0c-9.103,0-14.265,3.71-18.86,7.734
		c4.898-5.655,9.634-10.897,18.861-10.896c9.225,0,13.96,5.241,18.858,10.896C54.144-16.359,48.982-20.07,39.88-20.069z
		 M39.88,26.393c-8.431,0-13.11-5.416-17.616-11.659c4.291,4.583,9.316,8.495,17.616,8.496c8.295-0.001,13.319-3.914,17.61-8.496
		C52.985,20.977,48.306,26.392,39.88,26.393z M100.366-9.291c5.023-4.515,9.769-8.779,19.274-8.779
		c9.503,0,14.247,4.264,19.271,8.778c0.288,0.259,0.577,0.519,0.867,0.778c-4.96-3.181-10.187-6.394-20.138-6.394
		c-9.956,0-15.183,3.214-20.144,6.396C99.788-8.771,100.077-9.031,100.366-9.291z M138.908,7.291
		c-5.022,4.513-9.767,8.777-19.268,8.777c-9.507,0-14.251-4.265-19.274-8.778c-0.287-0.258-0.575-0.517-0.865-0.775
		c4.96,3.181,10.186,6.391,20.14,6.392c9.952-0.001,15.178-3.214,20.138-6.395C139.487,6.771,139.197,7.031,138.908,7.291z
		 M99.572,1.282c4.974,0.638,10.116,1.298,20.069,1.299c9.946-0.001,15.088-0.661,20.061-1.299c0.621-0.08,1.245-0.16,1.881-0.239
		c-0.804,0.295-1.588,0.595-2.366,0.895c-5.08,1.956-9.878,3.804-19.576,3.805c-9.704,0-14.502-1.849-19.583-3.805
		c-0.777-0.299-1.561-0.6-2.363-0.894C98.329,1.123,98.952,1.203,99.572,1.282z M97.455-1c0.805-0.099,1.591-0.199,2.369-0.299
		c4.909-0.63,9.985-1.283,19.806-1.283c0.006,0,0.014,0,0.021,0c9.813,0,14.892,0.652,19.801,1.283c0.778,0.1,1.563,0.2,2.368,0.299
		c-0.806,0.098-1.593,0.199-2.373,0.299c-4.91,0.63-9.987,1.282-19.806,1.283c-9.825,0-14.903-0.652-19.814-1.283
		C99.047-0.802,98.26-0.902,97.455-1z M139.707-3.283c-4.972-0.639-10.112-1.299-20.055-1.299c-0.008,0-0.014,0-0.023,0
		c-9.945,0-15.088,0.661-20.06,1.299c-0.62,0.08-1.242,0.16-1.877,0.238c0.803-0.295,1.587-0.595,2.364-0.895
		c5.081-1.958,9.88-3.806,19.584-3.806c9.699,0,14.498,1.849,19.579,3.806c0.777,0.299,1.562,0.6,2.365,0.895
		C140.95-3.124,140.327-3.204,139.707-3.283z M99.338,3.804c5.027,1.937,10.226,3.938,20.302,3.939
		c10.07-0.001,15.269-2.002,20.295-3.938c0.312-0.12,0.624-0.24,0.936-0.359c-0.619,0.386-1.229,0.777-1.835,1.166
		c-5.042,3.236-9.805,6.293-19.396,6.294c-9.598,0-14.36-3.058-19.402-6.295c-0.605-0.389-1.214-0.779-1.833-1.165
		C98.715,3.564,99.027,3.684,99.338,3.804z M139.938-5.806c-5.027-1.937-10.227-3.939-20.298-3.939
		c-10.076,0-15.274,2.003-20.303,3.94c-0.312,0.12-0.622,0.24-0.933,0.358c0.619-0.386,1.228-0.776,1.833-1.165
		c5.043-3.237,9.807-6.295,19.402-6.295c9.592,0,14.355,3.058,19.398,6.295c0.606,0.389,1.216,0.78,1.835,1.166
		C140.562-5.565,140.25-5.686,139.938-5.806z M119.64,18.067c9.1-0.001,14.261-3.71,18.855-7.732
		c-4.897,5.653-9.632,10.894-18.855,10.895c-9.229,0-13.964-5.241-18.861-10.896C105.374,14.356,110.536,18.066,119.64,18.067z
		 M119.64-20.069c-0.001,0-0.001,0-0.002,0c-9.102,0-14.265,3.71-18.859,7.734c4.898-5.655,9.634-10.897,18.861-10.896
		c9.225,0,13.96,5.241,18.859,10.896C133.904-16.359,128.743-20.07,119.64-20.069z M119.64,26.393
		c-8.431,0-13.11-5.415-17.615-11.658c4.291,4.582,9.316,8.494,17.615,8.495c8.294-0.001,13.318-3.913,17.609-8.494
		C132.745,20.978,128.065,26.392,119.64,26.393z M180.125-9.291c5.023-4.515,9.769-8.779,19.274-8.779
		c9.503,0,14.247,4.264,19.271,8.778c0.288,0.259,0.577,0.519,0.867,0.778c-4.96-3.181-10.187-6.394-20.138-6.394
		c-9.956,0-15.183,3.214-20.144,6.396C179.547-8.771,179.836-9.031,180.125-9.291z M218.667,7.291
		c-5.022,4.513-9.767,8.777-19.268,8.777c-9.507,0-14.251-4.265-19.274-8.778c-0.287-0.258-0.575-0.517-0.865-0.775
		c4.96,3.181,10.186,6.391,20.14,6.392c9.952-0.001,15.178-3.214,20.138-6.395C219.247,6.771,218.957,7.031,218.667,7.291z
		 M179.332,1.282c4.974,0.638,10.116,1.298,20.069,1.299c9.946-0.001,15.088-0.661,20.061-1.299c0.621-0.08,1.245-0.16,1.881-0.239
		c-0.804,0.295-1.588,0.595-2.366,0.895c-5.08,1.956-9.878,3.804-19.576,3.805c-9.704,0-14.502-1.849-19.583-3.805
		c-0.777-0.299-1.561-0.6-2.363-0.894C178.088,1.123,178.711,1.203,179.332,1.282z M177.214-1c0.805-0.099,1.591-0.199,2.369-0.299
		c4.909-0.63,9.985-1.283,19.806-1.283c0.006,0,0.014,0,0.021,0c9.813,0,14.892,0.652,19.801,1.283c0.778,0.1,1.563,0.2,2.368,0.299
		c-0.806,0.098-1.593,0.199-2.373,0.299c-4.91,0.63-9.987,1.282-19.806,1.283c-9.825,0-14.903-0.652-19.814-1.283
		C178.807-0.802,178.02-0.902,177.214-1z M219.466-3.283c-4.972-0.639-10.112-1.299-20.055-1.299c-0.008,0-0.014,0-0.023,0
		c-9.945,0-15.088,0.661-20.06,1.299c-0.619,0.08-1.242,0.16-1.877,0.238c0.803-0.295,1.587-0.595,2.364-0.895
		c5.081-1.958,9.88-3.806,19.584-3.806c9.699,0,14.498,1.849,19.579,3.806c0.777,0.299,1.562,0.6,2.365,0.895
		C220.709-3.124,220.086-3.204,219.466-3.283z M179.098,3.804c5.027,1.937,10.226,3.938,20.302,3.939
		c10.07-0.001,15.269-2.002,20.295-3.938c0.312-0.12,0.624-0.24,0.936-0.359c-0.619,0.386-1.229,0.777-1.835,1.166
		c-5.042,3.236-9.805,6.293-19.396,6.294c-9.598,0-14.36-3.058-19.402-6.295c-0.605-0.389-1.214-0.779-1.833-1.165
		C178.475,3.564,178.787,3.684,179.098,3.804z M219.698-5.806c-5.027-1.937-10.227-3.939-20.298-3.939
		c-10.076,0-15.274,2.003-20.303,3.94c-0.312,0.12-0.622,0.24-0.933,0.358c0.619-0.386,1.228-0.776,1.833-1.165
		c5.043-3.237,9.807-6.295,19.402-6.295c9.592,0,14.355,3.058,19.398,6.295c0.606,0.389,1.216,0.78,1.835,1.166
		C220.322-5.565,220.01-5.686,219.698-5.806z M199.4,18.067c9.1-0.001,14.261-3.71,18.855-7.732
		c-4.897,5.653-9.632,10.894-18.855,10.895c-9.229,0-13.964-5.241-18.861-10.896C185.133,14.356,190.295,18.066,199.4,18.067z
		 M199.4-20.069c-0.001,0-0.001,0-0.002,0c-9.103,0-14.265,3.71-18.859,7.734c4.898-5.655,9.634-10.897,18.861-10.896
		c9.225,0,13.96,5.241,18.859,10.896C213.664-16.359,208.502-20.07,199.4-20.069z M199.4,26.393c-8.431,0-13.11-5.415-17.615-11.658
		c4.291,4.582,9.316,8.494,17.615,8.495c8.294-0.001,13.318-3.913,17.609-8.494C212.504,20.978,207.825,26.392,199.4,26.393z
		 M259.885-9.291c5.023-4.515,9.769-8.779,19.274-8.779c9.503,0,14.247,4.264,19.271,8.778c0.288,0.259,0.577,0.519,0.867,0.778
		c-4.96-3.181-10.187-6.394-20.138-6.394c-9.956,0-15.183,3.214-20.144,6.396C259.307-8.771,259.596-9.031,259.885-9.291z
		 M298.427,7.291c-5.022,4.513-9.767,8.777-19.268,8.777c-9.507,0-14.251-4.265-19.274-8.778c-0.287-0.258-0.575-0.517-0.865-0.775
		c4.96,3.181,10.186,6.391,20.14,6.392c9.952-0.001,15.178-3.214,20.138-6.395C299.006,6.771,298.716,7.031,298.427,7.291z
		 M259.091,1.282c4.974,0.638,10.116,1.298,20.069,1.299c9.946-0.001,15.088-0.661,20.061-1.299c0.621-0.08,1.245-0.16,1.881-0.239
		c-0.804,0.295-1.588,0.595-2.366,0.895c-5.08,1.956-9.878,3.804-19.576,3.805c-9.704,0-14.502-1.849-19.583-3.805
		c-0.777-0.299-1.561-0.6-2.363-0.894C257.848,1.123,258.471,1.203,259.091,1.282z M256.974-1c0.805-0.099,1.591-0.199,2.369-0.299
		c4.909-0.63,9.985-1.283,19.806-1.283c0.006,0,0.014,0,0.021,0c9.813,0,14.892,0.652,19.801,1.283c0.778,0.1,1.563,0.2,2.368,0.299
		c-0.806,0.098-1.593,0.199-2.373,0.299c-4.91,0.63-9.987,1.282-19.806,1.283c-9.825,0-14.903-0.652-19.814-1.283
		C258.567-0.802,257.78-0.902,256.974-1z M299.226-3.283c-4.972-0.639-10.112-1.299-20.055-1.299c-0.008,0-0.014,0-0.023,0
		c-9.945,0-15.088,0.661-20.06,1.299c-0.619,0.08-1.242,0.16-1.877,0.238c0.803-0.295,1.587-0.595,2.364-0.895
		c5.081-1.958,9.88-3.806,19.584-3.806c9.699,0,14.498,1.849,19.579,3.806c0.777,0.299,1.562,0.6,2.365,0.895
		C300.469-3.124,299.846-3.204,299.226-3.283z M258.858,3.804c5.027,1.937,10.226,3.938,20.302,3.939
		c10.07-0.001,15.269-2.002,20.295-3.938c0.312-0.12,0.624-0.24,0.936-0.359c-0.619,0.386-1.229,0.777-1.835,1.166
		c-5.042,3.236-9.805,6.293-19.396,6.294c-9.598,0-14.36-3.058-19.402-6.295c-0.605-0.389-1.214-0.779-1.833-1.165
		C258.235,3.564,258.546,3.684,258.858,3.804z M299.458-5.806c-5.027-1.937-10.227-3.939-20.298-3.939
		c-10.076,0-15.274,2.003-20.303,3.94c-0.312,0.12-0.622,0.24-0.933,0.358c0.619-0.386,1.228-0.776,1.833-1.165
		c5.043-3.237,9.807-6.295,19.402-6.295c9.592,0,14.355,3.058,19.398,6.295c0.606,0.389,1.216,0.78,1.835,1.166
		C300.082-5.565,299.77-5.686,299.458-5.806z M279.16,18.067c9.1-0.001,14.261-3.71,18.855-7.732
		c-4.897,5.653-9.632,10.894-18.855,10.895c-9.229,0-13.964-5.241-18.861-10.896C264.893,14.356,270.055,18.066,279.16,18.067z
		 M279.16-20.069c-0.001,0-0.001,0-0.002,0c-9.103,0-14.265,3.71-18.859,7.734c4.898-5.655,9.634-10.897,18.861-10.896
		c9.225,0,13.96,5.241,18.859,10.896C293.423-16.359,288.262-20.07,279.16-20.069z M279.16,26.393
		c-8.431,0-13.11-5.415-17.615-11.658c4.291,4.582,9.316,8.494,17.615,8.495c8.294-0.001,13.318-3.913,17.609-8.494
		C292.264,20.978,287.584,26.392,279.16,26.393z M279.16-28.395c8.427,0,13.106,5.416,17.613,11.66
		c-4.292-4.583-9.317-8.497-17.613-8.497c-0.001,0-0.001,0-0.001,0c-8.296,0-13.322,3.913-17.613,8.495
		C266.051-22.979,270.732-28.395,279.16-28.395z M199.4-28.395c8.427,0,13.106,5.416,17.613,11.66
		c-4.292-4.583-9.317-8.497-17.613-8.497c-0.001,0-0.001,0-0.001,0c-8.296,0-13.322,3.913-17.613,8.495
		C186.292-22.979,190.972-28.395,199.4-28.395z M119.64-28.395c8.427,0,13.106,5.416,17.613,11.66
		c-4.292-4.583-9.318-8.497-17.613-8.497c-0.001,0-0.001,0-0.001,0c-8.296,0-13.322,3.913-17.613,8.495
		C106.532-22.979,111.212-28.395,119.64-28.395z M39.88-28.395c8.428,0,13.107,5.417,17.615,11.661
		c-4.292-4.583-9.318-8.499-17.615-8.498c0,0,0,0-0.001,0c-8.296,0-13.322,3.913-17.613,8.495
		C26.772-22.979,31.453-28.395,39.88-28.395z M-39.879-28.395c8.427,0,13.107,5.416,17.614,11.66
		c-4.292-4.583-9.318-8.498-17.614-8.497c0,0,0,0-0.001,0c-8.296,0-13.322,3.913-17.613,8.495
		C-52.988-22.979-48.307-28.395-39.879-28.395z"/>
</g>
<path opacity="0.15" fill="#FFFFFF" d="M-59.008,56.366c5.017-7.084,9.755-13.775,19.127-13.775c0,0,0,0,0,0
	c9.371,0,14.107,6.69,19.122,13.772C-15.67,63.551-10.408,70.982,0,70.983c10.401-0.001,15.663-7.432,20.751-14.617
	c5.017-7.084,9.755-13.775,19.128-13.775c9.371,0,14.108,6.69,19.123,13.772c5.088,7.188,10.35,14.619,20.758,14.62
	c10.4-0.001,15.662-7.431,20.751-14.616c5.017-7.085,9.755-13.776,19.128-13.776c9.371,0,14.107,6.69,19.122,13.772
	c5.089,7.188,10.351,14.619,20.759,14.62c10.4-0.001,15.662-7.431,20.751-14.616c5.017-7.085,9.755-13.776,19.128-13.776
	c9.371,0,14.107,6.69,19.122,13.772c5.089,7.188,10.351,14.619,20.759,14.62c10.4-0.001,15.662-7.431,20.751-14.616
	c5.017-7.085,9.755-13.776,19.128-13.776c0.553,0,1-0.447,1-1s-0.447-1-1-1c-9.368,0-14.106-6.691-19.123-13.775
	c-5.09-7.188-10.353-14.619-20.756-14.619c-10.405,0-15.669,7.433-20.759,14.62c-5.016,7.084-9.754,13.774-19.122,13.774
	s-14.106-6.691-19.123-13.775c-5.09-7.188-10.353-14.619-20.756-14.619c-10.405,0-15.669,7.433-20.759,14.62
	c-5.016,7.084-9.754,13.774-19.122,13.774s-14.106-6.691-19.123-13.775c-5.09-7.188-10.353-14.619-20.756-14.619
	c-10.405,0-15.669,7.433-20.759,14.62c-5.016,7.084-9.754,13.774-19.122,13.774c-9.369,0-14.107-6.691-19.124-13.775
	C15.666,19.628,10.403,12.196,0,12.196c-10.405,0-15.669,7.433-20.759,14.62c-5.016,7.084-9.754,13.774-19.122,13.774c0,0,0,0,0,0
	c-9.369,0-14.107-6.691-19.124-13.775c-5.089-7.188-10.353-14.619-20.755-14.619c-10.405,0-15.669,7.433-20.759,14.62
	c-5.016,7.084-9.754,13.774-19.122,13.774l0,0h0c-0.552,0-1,0.447-1,1s0.448,1,1,1c0,0,0,0,0.001,0
	c9.371,0,14.107,6.69,19.122,13.772c5.088,7.188,10.35,14.619,20.758,14.62C-69.358,70.982-64.097,63.552-59.008,56.366z
	 M-99.034,33.301c5.024-4.516,9.769-8.779,19.274-8.779c9.502,0,14.247,4.264,19.271,8.778c0.288,0.258,0.576,0.517,0.865,0.775
	c-4.959-3.18-10.185-6.392-20.133-6.392c-0.004-0.001-0.002-0.001-0.005,0c-9.949,0-15.176,3.211-20.136,6.391
	C-99.609,33.816-99.321,33.559-99.034,33.301z M19.268,49.882C14.245,54.395,9.501,58.658,0,58.658
	c-9.507,0-14.251-4.265-19.274-8.778c-0.288-0.259-0.576-0.518-0.866-0.776c4.959,3.181,10.185,6.392,20.14,6.393
	c9.952-0.001,15.178-3.215,20.139-6.395C19.847,49.361,19.557,49.622,19.268,49.882z M-20.068,43.872
	C-15.095,44.511-9.953,45.17,0,45.171c9.948-0.001,15.09-0.66,20.063-1.298c0.621-0.08,1.244-0.16,1.879-0.238
	c-0.803,0.295-1.588,0.595-2.366,0.895C14.497,46.485,9.698,48.333,0,48.334c-9.703-0.001-14.502-1.849-19.582-3.806
	c-0.778-0.3-1.562-0.6-2.366-0.895C-21.312,43.713-20.689,43.792-20.068,43.872z M-22.182,41.591
	c0.804-0.099,1.588-0.199,2.366-0.299c4.91-0.631,9.986-1.283,19.806-1.283c0.008,0.001,0.015,0,0.022,0
	c9.813,0,14.891,0.652,19.8,1.282c0.779,0.101,1.564,0.2,2.369,0.299c-0.806,0.099-1.592,0.199-2.372,0.299
	C14.898,42.519,9.82,43.17,0,43.171c-9.825-0.001-14.903-0.652-19.814-1.282C-20.592,41.789-21.377,41.688-22.182,41.591z
	 M20.066,39.308c-4.972-0.639-10.112-1.299-20.055-1.299c-0.007,0.001-0.013,0.001-0.022,0c-9.946,0-15.089,0.66-20.061,1.299
	c-0.62,0.08-1.243,0.159-1.877,0.238c0.803-0.295,1.587-0.595,2.365-0.895c5.08-1.957,9.878-3.806,19.58-3.806
	C0,34.845,0,34.845,0.004,34.846c9.696,0,14.495,1.849,19.575,3.806c0.778,0.3,1.562,0.6,2.365,0.895
	C21.309,39.467,20.687,39.388,20.066,39.308z M-59.693,39.308c-4.972-0.639-10.112-1.299-20.055-1.299
	c-0.007,0.001-0.014,0.001-0.022,0c-9.946,0-15.089,0.66-20.061,1.299c-0.62,0.08-1.243,0.159-1.877,0.238
	c0.803-0.295,1.587-0.595,2.365-0.895c5.081-1.957,9.879-3.806,19.58-3.806c0.004-0.001,0.004-0.001,0.008,0
	c9.696,0,14.496,1.849,19.575,3.806c0.778,0.3,1.562,0.6,2.365,0.895C-58.45,39.467-59.073,39.388-59.693,39.308z M-57.579,41.59
	c-0.806,0.099-1.592,0.199-2.372,0.299c-4.911,0.63-9.988,1.281-19.808,1.282c-9.825-0.001-14.903-0.652-19.814-1.282
	c-0.778-0.1-1.564-0.2-2.369-0.298c0.804-0.099,1.588-0.199,2.366-0.299c4.91-0.631,9.987-1.283,19.807-1.283
	c0.008,0.001,0.014,0,0.022,0c9.813,0,14.891,0.652,19.8,1.282C-59.169,41.392-58.384,41.491-57.579,41.59z M-99.828,43.872
	c4.973,0.639,10.116,1.298,20.069,1.299c9.948-0.001,15.09-0.66,20.063-1.298c0.621-0.08,1.244-0.159,1.879-0.238
	c-0.803,0.295-1.588,0.595-2.366,0.895c-5.08,1.956-9.878,3.804-19.577,3.805c-9.703-0.001-14.502-1.849-19.582-3.806
	c-0.778-0.3-1.562-0.6-2.365-0.895C-101.072,43.713-100.449,43.792-99.828,43.872z M-20.301,46.395
	c5.027,1.937,10.226,3.938,20.301,3.939c10.07-0.001,15.269-2.003,20.295-3.938c0.312-0.12,0.624-0.24,0.936-0.359
	c-0.62,0.387-1.229,0.777-1.835,1.166C14.353,50.438,9.59,53.495,0,53.496c-9.596-0.001-14.359-3.059-19.401-6.295
	c-0.606-0.39-1.216-0.78-1.835-1.166C-20.925,46.154-20.614,46.274-20.301,46.395z M20.298,36.785
	c-5.027-1.938-10.224-3.939-20.294-3.939c-0.004-0.001-0.006-0.001-0.007,0c-10.073,0-15.272,2.003-20.299,3.939
	c-0.312,0.12-0.623,0.24-0.934,0.358c0.619-0.386,1.228-0.776,1.833-1.165c5.043-3.237,9.806-6.295,19.401-6.295
	c0-0.001,0.002-0.001,0.004,0c9.589,0,14.354,3.058,19.396,6.295c0.606,0.389,1.215,0.779,1.834,1.166
	C20.921,37.025,20.61,36.905,20.298,36.785z M-59.462,36.785c-5.027-1.938-10.224-3.939-20.294-3.939
	c-0.003-0.001-0.006-0.001-0.007,0c-10.074,0-15.272,2.003-20.299,3.939c-0.311,0.12-0.621,0.239-0.931,0.357
	c0.618-0.386,1.226-0.774,1.831-1.163c5.043-3.238,9.806-6.296,19.401-6.296c0-0.001,0.002-0.001,0.004,0
	c9.589,0,14.353,3.058,19.396,6.295c0.606,0.389,1.215,0.779,1.834,1.166C-58.838,37.025-59.149,36.905-59.462,36.785z
	 M-100.061,46.395c5.027,1.937,10.226,3.938,20.301,3.939c10.07-0.001,15.269-2.003,20.296-3.938c0.312-0.12,0.623-0.24,0.934-0.359
	c-0.619,0.387-1.229,0.777-1.834,1.166c-5.042,3.236-9.805,6.293-19.396,6.294c-9.597-0.001-14.359-3.059-19.402-6.295
	c-0.606-0.39-1.216-0.78-1.836-1.167C-100.686,46.153-100.374,46.274-100.061,46.395z M19.271,33.3
	c0.288,0.258,0.576,0.517,0.865,0.775c-4.96-3.18-10.185-6.392-20.133-6.392c-0.004-0.001-0.002-0.001-0.005,0
	c-9.95,0-15.177,3.211-20.136,6.392c0.289-0.258,0.577-0.517,0.864-0.774C-14.25,28.785-9.506,24.521,0,24.521
	C9.502,24.521,14.247,28.785,19.271,33.3z M-99.034,49.88c-0.289-0.26-0.578-0.519-0.868-0.778
	c4.96,3.182,10.186,6.394,20.142,6.395c9.951-0.001,15.176-3.213,20.136-6.393c-0.291,0.259-0.58,0.519-0.869,0.778
	c-5.022,4.513-9.767,8.776-19.268,8.776C-89.267,58.658-94.011,54.394-99.034,49.88z M0,60.658
	c9.101-0.001,14.263-3.711,18.857-7.734C13.959,58.579,9.225,63.82,0,63.821c-9.23-0.001-13.965-5.243-18.863-10.897
	C-14.268,56.947-9.105,60.657,0,60.658z M0,22.521c0,0-0.001,0-0.001,0c-9.102,0-14.265,3.71-18.859,7.733
	C-13.963,24.6-9.227,19.358,0,19.358c9.226,0,13.961,5.243,18.86,10.898C14.264,26.232,9.102,22.521,0,22.521z M-79.76,22.521
	c0,0-0.001,0-0.001,0c-9.103,0-14.265,3.711-18.86,7.734c4.898-5.655,9.635-10.897,18.862-10.897
	c9.226,0,13.961,5.243,18.859,10.898C-65.495,26.232-70.658,22.521-79.76,22.521z M-79.76,60.658
	c9.101-0.001,14.262-3.711,18.857-7.734c-4.898,5.655-9.632,10.896-18.857,10.897c-9.23-0.001-13.965-5.243-18.863-10.898
	C-94.028,56.946-88.866,60.657-79.76,60.658z M0,68.983c-8.431-0.001-13.11-5.416-17.616-11.658
	C-13.325,61.907-8.299,65.82,0,65.821c8.294-0.001,13.319-3.913,17.609-8.496C13.104,63.567,8.425,68.982,0,68.983z M60.486,33.301
	c5.024-4.516,9.769-8.779,19.274-8.779c9.502,0,14.247,4.264,19.271,8.778c0.288,0.259,0.576,0.518,0.866,0.776
	c-4.96-3.181-10.186-6.393-20.135-6.393c0,0-0.002,0-0.004,0c-9.95,0-15.177,3.211-20.136,6.391
	C59.912,33.816,60.199,33.559,60.486,33.301z M99.027,49.882c-5.022,4.513-9.767,8.776-19.267,8.776
	c-9.507,0-14.251-4.265-19.274-8.778c-0.288-0.259-0.577-0.519-0.868-0.777c4.96,3.181,10.186,6.393,20.142,6.394
	c9.949-0.001,15.175-3.213,20.135-6.393C99.605,49.363,99.315,49.623,99.027,49.882z M59.692,43.872
	c4.973,0.639,10.115,1.298,20.068,1.299c9.947-0.001,15.09-0.66,20.063-1.298c0.62-0.08,1.243-0.159,1.878-0.238
	c-0.803,0.295-1.588,0.595-2.365,0.895c-5.08,1.956-9.879,3.804-19.576,3.805c-9.704-0.001-14.502-1.849-19.583-3.806
	c-0.778-0.3-1.562-0.6-2.366-0.895C58.448,43.713,59.071,43.792,59.692,43.872z M57.578,41.591c0.803-0.099,1.588-0.199,2.365-0.299
	c4.91-0.631,9.986-1.283,19.806-1.283c0.006,0,0.014,0,0.021,0c9.813,0,14.892,0.652,19.801,1.282
	c0.778,0.101,1.564,0.2,2.369,0.299c-0.806,0.099-1.593,0.199-2.372,0.299c-4.911,0.63-9.988,1.281-19.809,1.282
	c-9.825-0.001-14.903-0.652-19.813-1.282C59.168,41.789,58.383,41.688,57.578,41.591z M99.827,39.308
	c-4.972-0.639-10.112-1.299-20.055-1.299c-0.008,0-0.014,0-0.023,0c-9.946,0-15.088,0.66-20.06,1.299
	c-0.62,0.08-1.243,0.159-1.877,0.238c0.803-0.295,1.587-0.595,2.365-0.895c5.08-1.957,9.878-3.806,19.58-3.806
	c0.003-0.001,0.004-0.001,0.008,0c9.695,0,14.495,1.849,19.575,3.806c0.777,0.3,1.562,0.6,2.365,0.895
	C101.07,39.468,100.447,39.388,99.827,39.308z M59.459,46.395c5.027,1.937,10.226,3.938,20.301,3.939
	c10.069-0.001,15.268-2.003,20.295-3.938c0.312-0.12,0.624-0.24,0.937-0.359c-0.62,0.387-1.229,0.777-1.836,1.166
	c-5.042,3.236-9.806,6.293-19.396,6.294c-9.597-0.001-14.36-3.059-19.402-6.295c-0.606-0.39-1.216-0.78-1.835-1.166
	C58.834,46.154,59.146,46.274,59.459,46.395z M100.058,36.785c-5.027-1.938-10.225-3.939-20.294-3.939c-0.002,0-0.004,0-0.008,0
	c-10.073,0-15.271,2.003-20.299,3.939c-0.311,0.12-0.621,0.239-0.931,0.357c0.618-0.386,1.226-0.774,1.831-1.163
	c5.043-3.238,9.806-6.296,19.401-6.296c0,0,0.002,0,0.004,0c9.59,0,14.354,3.058,19.396,6.295c0.605,0.389,1.215,0.779,1.833,1.165
	C100.68,37.024,100.37,36.905,100.058,36.785z M79.76,60.658c9.102-0.001,14.263-3.712,18.858-7.735
	c-4.899,5.655-9.633,10.897-18.858,10.898c-9.23-0.001-13.965-5.243-18.863-10.898C65.492,56.946,70.654,60.657,79.76,60.658z
	 M79.76,22.521c-0.001,0-0.001,0-0.002,0c-9.101,0-14.263,3.71-18.858,7.732c4.898-5.655,9.633-10.896,18.86-10.896
	c9.225,0,13.96,5.242,18.858,10.896C94.023,26.231,88.861,22.521,79.76,22.521z M79.76,68.983
	c-8.43-0.001-13.109-5.414-17.614-11.656c4.29,4.581,9.316,8.493,17.614,8.494c8.295-0.001,13.319-3.914,17.609-8.496
	C92.864,63.567,88.185,68.982,79.76,68.983z M140.246,33.301c5.023-4.516,9.769-8.779,19.274-8.779
	c9.503,0,14.247,4.264,19.271,8.778c0.288,0.259,0.577,0.518,0.866,0.776c-4.96-3.181-10.186-6.393-20.135-6.393
	c0,0-0.002,0-0.004,0c-9.949,0-15.177,3.211-20.136,6.391C139.671,33.816,139.958,33.559,140.246,33.301z M178.788,49.882
	c-5.022,4.513-9.767,8.776-19.268,8.776c-9.507,0-14.251-4.265-19.274-8.778c-0.289-0.26-0.579-0.52-0.869-0.779
	c4.96,3.182,10.187,6.395,20.144,6.396c9.951-0.001,15.177-3.214,20.138-6.394C179.367,49.362,179.077,49.622,178.788,49.882z
	 M139.452,43.872c4.974,0.639,10.116,1.298,20.068,1.299c9.947-0.001,15.09-0.66,20.063-1.298c0.62-0.08,1.243-0.159,1.878-0.238
	c-0.803,0.295-1.588,0.595-2.365,0.895c-5.08,1.956-9.878,3.804-19.576,3.805c-9.703-0.001-14.502-1.849-19.582-3.806
	c-0.777-0.3-1.562-0.6-2.365-0.895C138.208,43.713,138.831,43.792,139.452,43.872z M137.338,41.591
	c0.803-0.099,1.588-0.199,2.365-0.299c4.909-0.631,9.985-1.283,19.806-1.283c0.006,0,0.014,0,0.021,0
	c9.813,0,14.892,0.652,19.801,1.282c0.778,0.101,1.564,0.2,2.369,0.299c-0.806,0.099-1.593,0.199-2.372,0.299
	c-4.911,0.63-9.988,1.281-19.809,1.282c-9.824-0.001-14.902-0.652-19.813-1.282C138.928,41.789,138.143,41.688,137.338,41.591z
	 M179.586,39.308c-4.972-0.639-10.112-1.299-20.055-1.299c-0.008,0-0.014,0-0.023,0c-9.945,0-15.088,0.66-20.06,1.299
	c-0.62,0.08-1.243,0.159-1.877,0.238c0.803-0.295,1.587-0.595,2.364-0.895c5.081-1.957,9.879-3.806,19.58-3.806
	c0.002-0.001,0.004-0.001,0.008,0c9.696,0,14.496,1.849,19.575,3.806c0.777,0.3,1.562,0.6,2.365,0.895
	C180.83,39.468,180.207,39.388,179.586,39.308z M139.219,46.395c5.027,1.937,10.226,3.938,20.301,3.939
	c10.07-0.001,15.269-2.003,20.295-3.938c0.312-0.12,0.623-0.24,0.935-0.359c-0.62,0.387-1.229,0.777-1.835,1.166
	c-5.042,3.236-9.805,6.293-19.395,6.294c-9.597-0.001-14.359-3.059-19.402-6.295c-0.606-0.39-1.216-0.78-1.836-1.167
	C138.594,46.154,138.907,46.274,139.219,46.395z M179.818,36.785c-5.027-1.938-10.224-3.939-20.294-3.939c-0.002,0-0.004,0-0.008,0
	c-10.073,0-15.271,2.003-20.299,3.939c-0.311,0.12-0.62,0.239-0.93,0.357c0.617-0.386,1.226-0.775,1.83-1.163
	c5.043-3.238,9.806-6.296,19.4-6.296c0,0,0.002,0,0.004,0c9.59,0,14.354,3.058,19.396,6.295c0.605,0.389,1.215,0.779,1.834,1.166
	C180.441,37.025,180.13,36.905,179.818,36.785z M159.52,60.658c9.1-0.001,14.261-3.71,18.854-7.732
	c-4.897,5.654-9.631,10.895-18.854,10.896c-9.229-0.001-13.964-5.242-18.861-10.896C145.253,56.947,150.416,60.657,159.52,60.658z
	 M159.52,22.521c-0.001,0-0.001,0-0.002,0c-9.1,0-14.262,3.709-18.855,7.73c4.897-5.654,9.633-10.894,18.857-10.894
	c9.227,0,13.962,5.243,18.86,10.899C173.785,26.232,168.624,22.521,159.52,22.521z M159.52,68.983
	c-8.43-0.001-13.109-5.414-17.613-11.655c4.29,4.58,9.316,8.492,17.613,8.493c8.295-0.001,13.319-3.914,17.609-8.496
	C172.624,63.567,167.945,68.982,159.52,68.983z M220.005,33.301c5.023-4.516,9.769-8.779,19.274-8.779
	c9.503,0,14.247,4.264,19.271,8.778c0.288,0.259,0.577,0.518,0.866,0.776c-4.96-3.181-10.186-6.393-20.135-6.393
	c0,0-0.002,0-0.004,0c-9.949,0-15.177,3.211-20.136,6.391C219.431,33.816,219.718,33.559,220.005,33.301z M258.546,49.882
	c-5.022,4.513-9.767,8.776-19.267,8.776c-9.507,0-14.251-4.265-19.274-8.778c-0.289-0.26-0.579-0.52-0.87-0.779
	c4.961,3.181,10.188,6.395,20.145,6.396c9.949-0.001,15.175-3.213,20.135-6.393C259.125,49.363,258.834,49.623,258.546,49.882z
	 M219.211,43.872c4.974,0.639,10.116,1.298,20.068,1.299c9.947-0.001,15.09-0.66,20.063-1.298c0.62-0.08,1.243-0.159,1.878-0.238
	c-0.803,0.295-1.588,0.595-2.365,0.895c-5.08,1.956-9.878,3.804-19.576,3.805c-9.703-0.001-14.502-1.849-19.582-3.806
	c-0.777-0.3-1.562-0.6-2.365-0.895C217.967,43.713,218.59,43.792,219.211,43.872z M217.097,41.591
	c0.804-0.099,1.589-0.199,2.366-0.299c4.909-0.631,9.985-1.283,19.806-1.283c0.006,0,0.014,0,0.021,0
	c9.813,0,14.892,0.652,19.801,1.282c0.778,0.101,1.564,0.2,2.369,0.299c-0.806,0.099-1.593,0.199-2.372,0.299
	c-4.911,0.63-9.988,1.281-19.809,1.282c-9.825-0.001-14.903-0.652-19.813-1.282C218.688,41.789,217.902,41.688,217.097,41.591z
	 M259.346,39.308c-4.972-0.639-10.112-1.299-20.055-1.299c-0.008,0-0.014,0-0.023,0c-9.945,0-15.088,0.66-20.06,1.299
	c-0.62,0.08-1.243,0.159-1.877,0.238c0.803-0.295,1.587-0.595,2.364-0.895c5.081-1.957,9.879-3.806,19.58-3.806
	c0.002-0.001,0.005-0.001,0.008,0c9.695,0,14.495,1.849,19.575,3.806c0.777,0.3,1.562,0.6,2.365,0.895
	C260.589,39.467,259.966,39.388,259.346,39.308z M218.979,46.395c5.027,1.937,10.226,3.938,20.301,3.939
	c10.07-0.001,15.269-2.003,20.295-3.938c0.312-0.12,0.625-0.24,0.937-0.36c-0.62,0.387-1.229,0.777-1.836,1.167
	c-5.042,3.236-9.806,6.293-19.396,6.294c-9.597-0.001-14.36-3.059-19.402-6.295c-0.606-0.39-1.216-0.78-1.836-1.167
	C218.354,46.154,218.667,46.274,218.979,46.395z M259.578,36.785c-5.027-1.938-10.225-3.939-20.294-3.939c-0.002,0-0.004,0-0.008,0
	c-10.073,0-15.271,2.003-20.299,3.939c-0.311,0.12-0.62,0.239-0.93,0.357c0.617-0.386,1.226-0.775,1.83-1.163
	c5.043-3.238,9.806-6.296,19.4-6.296c0,0,0.002,0,0.004,0c9.59,0,14.354,3.058,19.396,6.295c0.605,0.389,1.215,0.779,1.833,1.165
	C260.2,37.024,259.889,36.905,259.578,36.785z M239.28,60.658c9.102-0.001,14.263-3.712,18.858-7.736
	c-4.898,5.656-9.633,10.898-18.858,10.899c-9.229-0.001-13.964-5.242-18.861-10.896C225.013,56.947,230.175,60.657,239.28,60.658z
	 M239.28,22.521c-0.001,0-0.001,0-0.002,0c-9.104,0-14.268,3.713-18.863,7.737c4.9-5.655,9.636-10.9,18.865-10.9
	c9.229,0,13.964,5.245,18.864,10.902C253.547,26.234,248.385,22.521,239.28,22.521z M239.28,68.983
	c-8.43-0.001-13.109-5.414-17.613-11.655c4.29,4.58,9.316,8.492,17.613,8.493c8.295-0.001,13.319-3.914,17.609-8.496
	C252.383,63.567,247.705,68.982,239.28,68.983z M239.28,14.196c8.426,0,13.105,5.415,17.611,11.657
	c-4.291-4.582-9.316-8.495-17.611-8.495c-8.297,0-13.323,3.913-17.615,8.496C226.172,19.611,230.852,14.196,239.28,14.196z
	 M159.52,14.196c8.426,0,13.105,5.415,17.611,11.657c-4.291-4.582-9.316-8.495-17.611-8.495c-8.298,0-13.324,3.914-17.616,8.499
	C146.411,19.612,151.091,14.196,159.52,14.196z M79.76,14.196c8.425,0,13.105,5.415,17.611,11.657
	c-4.291-4.582-9.316-8.495-17.611-8.495c-8.298,0-13.324,3.914-17.616,8.498C66.651,19.612,71.332,14.196,79.76,14.196z M0,14.196
	c8.427,0,13.107,5.416,17.613,11.659C13.322,21.272,8.296,17.358,0,17.358c-8.297,0-13.323,3.913-17.614,8.495
	C-13.108,19.611-8.428,14.196,0,14.196z M-79.76,14.196c8.427,0,13.107,5.417,17.614,11.66c-4.292-4.583-9.317-8.498-17.613-8.498
	c-8.297,0-13.323,3.913-17.615,8.495C-92.868,19.611-88.188,14.196-79.76,14.196z M-97.374,57.327
	c4.29,4.581,9.316,8.493,17.614,8.494c8.294-0.001,13.318-3.913,17.609-8.495c-4.505,6.242-9.184,11.656-17.609,11.657
	C-88.189,68.982-92.869,63.569-97.374,57.327z"/>
</svg>
