<?xml version="1.0" encoding="utf-8"?>
<!-- Generator: Adobe Illustrator 16.0.0, SVG Export Plug-In . SVG Version: 6.00 Build 0)  -->
<!DOCTYPE svg PUBLIC "-//W3C//DTD SVG 1.1//EN" "http://www.w3.org/Graphics/SVG/1.1/DTD/svg11.dtd">
<svg version="1.1" id="Layer_1" xmlns="http://www.w3.org/2000/svg" xmlns:xlink="http://www.w3.org/1999/xlink" x="0px" y="0px"
	 width="239.277px" height="80px" viewBox="0 0 239.277 80" enable-background="new 0 0 239.277 80" xml:space="preserve">
<path opacity="0.3" fill="#FFFFFF" d="M280.158,39.997c0-0.552-0.447-1-1-1c-9.371,0-14.107-6.69-19.122-13.773
	c-5.089-7.187-10.351-14.619-20.759-14.62c-10.401,0.001-15.663,7.431-20.751,14.617c-5.017,7.084-9.756,13.776-19.128,13.776
	c-9.371,0-14.107-6.689-19.121-13.772c-5.089-7.187-10.351-14.619-20.76-14.619c-10.402,0-15.664,7.43-20.752,14.616
	c-5.017,7.083-9.754,13.774-19.125,13.775c0,0-0.001,0-0.002,0c-9.371,0-14.107-6.69-19.122-13.772
	c-5.088-7.187-10.35-14.619-20.758-14.618c-10.402,0-15.664,7.43-20.753,14.616c-5.016,7.083-9.754,13.774-19.125,13.775
	c0,0-0.001,0-0.002,0c-9.371,0-14.107-6.689-19.122-13.772C15.668,18.038,10.407,10.606,0,10.606c0,0-0.001,0-0.002,0
	c-10.402,0-15.664,7.43-20.752,14.616c-5.016,7.084-9.754,13.774-19.126,13.775c0,0,0,0-0.001,0c-0.279,0-0.53,0.115-0.711,0.299
	c-0.166,0.163-0.259,0.385-0.276,0.635c-0.001,0.023-0.013,0.042-0.013,0.066c0,0.276,0.112,0.526,0.293,0.707
	c0.163,0.163,0.386,0.258,0.629,0.277c0.027,0.002,0.05,0.016,0.078,0.016h0l0,0c9.369,0,14.107,6.69,19.124,13.774
	c5.089,7.188,10.353,14.619,20.755,14.619c10.405,0,15.669-7.433,20.759-14.62c5.016-7.084,9.754-13.774,19.122-13.774
	c9.369,0,14.107,6.691,19.124,13.776c5.09,7.188,10.353,14.62,20.756,14.62c10.405-0.001,15.667-7.434,20.757-14.621
	c5.016-7.084,9.754-13.775,19.123-13.775s14.107,6.691,19.124,13.775c5.089,7.188,10.352,14.619,20.753,14.619c0,0,0.001,0,0.002,0
	c10.405,0,15.669-7.433,20.759-14.62c5.016-7.084,9.754-13.774,19.122-13.774s14.106,6.691,19.123,13.775
	c5.09,7.188,10.353,14.619,20.756,14.619c10.405,0,15.669-7.433,20.759-14.62c5.016-7.084,9.754-13.774,19.122-13.774
	C279.711,40.997,280.158,40.55,280.158,39.997C280.158,39.998,280.158,39.998,280.158,39.997L280.158,39.997z M258.552,48.287
	c-5.024,4.515-9.77,8.779-19.274,8.779c-9.503,0-14.247-4.264-19.271-8.778c-0.288-0.259-0.576-0.518-0.866-0.776
	c4.96,3.181,10.185,6.393,20.135,6.393c0,0,0.002,0,0.004,0c9.948,0,15.177-3.211,20.136-6.391
	C259.126,47.771,258.839,48.029,258.552,48.287z M220.01,31.707c5.022-4.513,9.767-8.776,19.268-8.777
	c9.507,0,14.251,4.264,19.274,8.778c0.288,0.259,0.577,0.519,0.867,0.777c-4.96-3.181-10.186-6.393-20.142-6.394
	c-9.95,0.001-15.177,3.212-20.136,6.393C219.433,32.225,219.722,31.966,220.01,31.707z M259.346,37.716
	c-4.973-0.638-10.115-1.298-20.067-1.299c-9.948,0-15.091,0.66-20.064,1.298c-0.621,0.08-1.244,0.16-1.88,0.239
	c0.804-0.295,1.588-0.596,2.366-0.895c5.08-1.956,9.879-3.804,19.577-3.804c9.704,0,14.503,1.848,19.583,3.805
	c0.778,0.299,1.562,0.6,2.366,0.895C260.591,37.875,259.967,37.795,259.346,37.716z M261.461,39.998
	c-0.804,0.098-1.589,0.198-2.367,0.298c-4.909,0.63-9.985,1.283-19.806,1.283c-0.006,0-0.014,0-0.021,0
	c-9.813,0-14.892-0.652-19.801-1.283c-0.778-0.1-1.563-0.2-2.367-0.298c0.805-0.099,1.591-0.199,2.37-0.299
	c4.911-0.63,9.989-1.282,19.81-1.282c9.824,0,14.902,0.652,19.812,1.282C259.87,39.799,260.655,39.899,261.461,39.998z
	 M219.211,42.28c4.972,0.639,10.112,1.299,20.055,1.299c0.008,0,0.014,0,0.023,0c9.945,0,15.088-0.66,20.06-1.299
	c0.619-0.08,1.242-0.159,1.876-0.238c-0.803,0.295-1.587,0.595-2.364,0.895c-5.081,1.957-9.88,3.806-19.583,3.806
	c-0.002,0-0.002,0-0.004,0c-9.696,0-14.496-1.849-19.575-3.806c-0.777-0.3-1.562-0.6-2.365-0.895
	C217.968,42.12,218.591,42.2,219.211,42.28z M259.579,35.193c-5.027-1.936-10.226-3.938-20.302-3.938
	c-10.07,0-15.269,2.002-20.296,3.938c-0.312,0.12-0.624,0.24-0.936,0.359c0.619-0.386,1.229-0.777,1.835-1.166
	c5.042-3.236,9.805-6.293,19.396-6.294c9.597,0,14.359,3.058,19.401,6.295c0.605,0.389,1.213,0.778,1.832,1.164
	C260.2,35.432,259.89,35.312,259.579,35.193z M218.979,44.803c5.027,1.938,10.224,3.939,20.294,3.939c0.001,0,0.003,0,0.004,0
	c10.075,0,15.274-2.003,20.302-3.939c0.312-0.12,0.622-0.239,0.933-0.358c-0.618,0.386-1.227,0.775-1.832,1.164
	c-5.043,3.238-9.806,6.296-19.4,6.296c0,0-0.002,0-0.004,0c-9.59,0-14.354-3.058-19.396-6.295c-0.606-0.389-1.215-0.779-1.834-1.166
	C218.356,44.562,218.667,44.683,218.979,44.803z M239.277,20.93c-9.103,0.001-14.264,3.712-18.858,7.735
	c4.898-5.655,9.632-10.897,18.858-10.898c9.229,0,13.963,5.24,18.858,10.894C253.542,24.638,248.38,20.93,239.277,20.93z
	 M239.277,59.066c9.105,0,14.269-3.712,18.864-7.737c-4.899,5.657-9.635,10.9-18.864,10.9c-9.227,0-13.962-5.243-18.86-10.899
	C225.013,55.355,230.175,59.067,239.277,59.066z M239.277,12.604c8.431,0,13.11,5.415,17.614,11.658
	c-4.29-4.583-9.315-8.495-17.614-8.496c-8.293,0.001-13.317,3.912-17.607,8.493C226.175,18.019,230.854,12.605,239.277,12.604z
	 M178.792,48.288c-5.024,4.515-9.77,8.779-19.274,8.779c-0.001,0-0.002,0-0.003,0c-9.5,0-14.244-4.264-19.268-8.778
	c-0.289-0.26-0.578-0.52-0.869-0.779c4.961,3.182,10.187,6.396,20.138,6.396c0,0,0.001,0,0.002,0c9.956,0,15.183-3.215,20.144-6.396
	C179.37,47.769,179.081,48.028,178.792,48.288z M99.031,48.288c-5.023,4.516-9.768,8.78-19.272,8.781
	c-9.502,0-14.247-4.265-19.271-8.779c-0.29-0.261-0.581-0.521-0.873-0.782c4.962,3.184,10.189,6.398,20.144,6.398
	c9.951-0.001,15.177-3.212,20.136-6.392C99.606,47.772,99.318,48.03,99.031,48.288z M179.588,37.716
	c-4.974-0.638-10.116-1.298-20.069-1.298c-9.948,0-15.091,0.66-20.064,1.298c-0.621,0.08-1.246,0.16-1.882,0.239
	c0.804-0.295,1.589-0.595,2.367-0.895c5.08-1.956,9.879-3.804,19.578-3.804c9.705,0,14.504,1.848,19.584,3.804
	c0.777,0.299,1.562,0.6,2.364,0.894C180.831,37.875,180.208,37.795,179.588,37.716z M181.699,39.998
	c-0.804,0.098-1.588,0.198-2.366,0.298c-4.911,0.631-9.99,1.284-19.815,1.284c-0.004,0-0.007,0-0.011,0
	c-9.813,0-14.892-0.652-19.801-1.283c-0.778-0.1-1.562-0.2-2.367-0.299c0.806-0.098,1.591-0.198,2.37-0.298
	c4.911-0.63,9.989-1.281,19.81-1.282c9.826,0,14.904,0.651,19.814,1.282C180.111,39.8,180.896,39.899,181.699,39.998z
	 M139.451,42.28c4.972,0.64,10.112,1.3,20.055,1.3c0.004,0,0.008,0,0.012,0c9.954,0,15.097-0.661,20.07-1.3
	c0.62-0.08,1.243-0.16,1.879-0.238c-0.804,0.295-1.588,0.595-2.365,0.895c-5.081,1.958-9.88,3.807-19.584,3.807
	c-9.699,0-14.498-1.849-19.578-3.806c-0.778-0.3-1.563-0.601-2.367-0.896C138.207,42.12,138.831,42.2,139.451,42.28z M179.82,35.194
	c-5.027-1.936-10.227-3.938-20.303-3.938c-10.071,0-15.27,2.001-20.297,3.937c-0.312,0.12-0.623,0.24-0.935,0.359
	c0.62-0.386,1.229-0.776,1.835-1.166c5.042-3.236,9.805-6.293,19.396-6.293c9.598,0,14.36,3.057,19.402,6.294
	c0.605,0.389,1.215,0.779,1.833,1.165C180.442,35.434,180.132,35.314,179.82,35.194z M139.221,44.804
	c5.027,1.937,10.226,3.939,20.297,3.939c10.076,0,15.274-2.003,20.303-3.94c0.312-0.12,0.622-0.239,0.933-0.358
	c-0.619,0.386-1.228,0.776-1.833,1.165c-5.043,3.237-9.807,6.296-19.402,6.296c-0.001,0-0.001,0-0.002,0
	c-9.59,0-14.354-3.058-19.396-6.295c-0.606-0.39-1.217-0.78-1.837-1.167C138.595,44.562,138.907,44.683,139.221,44.804z
	 M178.792,31.708c0.288,0.259,0.577,0.519,0.867,0.777c-4.959-3.18-10.186-6.393-20.142-6.393c-9.95,0-15.176,3.211-20.136,6.391
	c0.29-0.259,0.579-0.519,0.867-0.777c5.022-4.513,9.767-8.776,19.269-8.776C169.025,22.931,173.77,27.195,178.792,31.708z
	 M99.83,37.716c-4.972-0.638-10.113-1.297-20.06-1.297c-0.004,0-0.008,0-0.011,0c-9.949,0-15.092,0.66-20.065,1.297
	c-0.621,0.08-1.245,0.16-1.881,0.239c0.804-0.295,1.589-0.596,2.368-0.896c5.081-1.956,9.879-3.804,19.579-3.804
	c0.002,0,0.002,0,0.004,0c9.7,0,14.5,1.848,19.579,3.804c0.778,0.3,1.562,0.6,2.366,0.895
	C101.073,37.876,100.45,37.796,99.83,37.716z M101.939,39.998c-0.804,0.099-1.589,0.199-2.368,0.299
	c-4.911,0.631-9.989,1.284-19.813,1.284c-9.821,0-14.9-0.652-19.811-1.284c-0.779-0.1-1.564-0.201-2.369-0.299
	c0.805-0.098,1.59-0.199,2.369-0.298c4.911-0.63,9.99-1.281,19.811-1.281c0.004,0,0.007,0,0.011,0
	c9.818,0,14.896,0.651,19.805,1.281C100.352,39.8,101.136,39.9,101.939,39.998z M59.693,42.281c4.974,0.639,10.117,1.3,20.066,1.3
	c9.952-0.001,15.095-0.661,20.068-1.301c0.621-0.08,1.244-0.16,1.879-0.239c-0.803,0.296-1.587,0.596-2.365,0.896
	c-5.081,1.957-9.879,3.807-19.582,3.807c-9.7,0-14.499-1.849-19.58-3.806c-0.778-0.3-1.562-0.601-2.365-0.896
	C58.449,42.121,59.072,42.201,59.693,42.281z M100.061,35.193c-5.027-1.936-10.225-3.938-20.298-3.938c-0.001,0-0.002,0-0.004,0
	c-10.071,0-15.27,2.001-20.297,3.937c-0.312,0.12-0.624,0.24-0.936,0.359c0.619-0.386,1.229-0.777,1.834-1.166
	c5.042-3.236,9.806-6.293,19.398-6.293c0.001,0,0.002,0,0.003,0c9.594,0,14.356,3.057,19.398,6.293
	c0.605,0.388,1.213,0.778,1.832,1.164C100.682,35.433,100.372,35.313,100.061,35.193z M59.46,44.804
	c5.028,1.937,10.227,3.939,20.298,3.939c10.074-0.001,15.273-2.003,20.301-3.94c0.312-0.12,0.623-0.24,0.934-0.358
	c-0.619,0.386-1.228,0.776-1.833,1.165c-5.043,3.238-9.806,6.297-19.401,6.297c-9.592,0-14.355-3.059-19.398-6.296
	c-0.606-0.389-1.215-0.779-1.835-1.166C58.837,44.563,59.148,44.684,59.46,44.804z M99.032,31.708
	c0.288,0.259,0.578,0.519,0.868,0.778c-4.96-3.181-10.184-6.393-20.138-6.393c0,0-0.003,0-0.003,0
	c-9.952,0-15.178,3.212-20.139,6.393c0.291-0.26,0.581-0.52,0.87-0.779c5.023-4.513,9.767-8.776,19.269-8.776
	C89.266,22.931,94.01,27.194,99.032,31.708z M159.518,20.931c-9.102,0-14.263,3.71-18.858,7.733
	c4.898-5.654,9.633-10.896,18.858-10.896c9.23,0,13.965,5.242,18.862,10.896C173.786,24.642,168.624,20.931,159.518,20.931z
	 M79.759,20.931c-9.103,0-14.265,3.711-18.86,7.735c4.898-5.654,9.633-10.897,18.859-10.897c0.001,0,0,0,0.002,0
	c9.227,0,13.962,5.241,18.859,10.894C94.025,24.64,88.863,20.931,79.759,20.931z M19.272,48.288
	c-5.023,4.515-9.769,8.779-19.274,8.779c-9.502,0-14.247-4.264-19.271-8.778c-0.289-0.26-0.578-0.52-0.869-0.779
	c4.961,3.182,10.188,6.396,20.14,6.396c9.955-0.001,15.181-3.214,20.142-6.396C19.85,47.77,19.561,48.029,19.272,48.288z
	 M20.069,37.716c-4.972-0.638-10.113-1.298-20.06-1.298c-0.004,0-0.008,0-0.011,0c-9.95,0-15.093,0.66-20.066,1.298
	c-0.621,0.08-1.244,0.16-1.879,0.238c0.804-0.295,1.589-0.595,2.367-0.895c5.081-1.956,9.879-3.804,19.579-3.804
	c0.002,0,0.002,0,0.004,0c9.701,0,14.5,1.848,19.58,3.804c0.777,0.299,1.561,0.599,2.364,0.894
	C21.312,37.875,20.688,37.795,20.069,37.716z M22.181,39.998c-0.804,0.098-1.589,0.198-2.368,0.298
	c-4.911,0.631-9.99,1.284-19.815,1.284c-9.82,0-14.898-0.652-19.809-1.283c-0.779-0.1-1.564-0.2-2.37-0.299
	c0.804-0.099,1.589-0.198,2.367-0.298c4.911-0.63,9.989-1.282,19.812-1.282c0.004,0,0.007,0,0.011,0
	c9.818,0,14.896,0.651,19.805,1.282C20.592,39.8,21.377,39.9,22.181,39.998z M-20.066,42.281C-15.093,42.92-9.95,43.58-0.002,43.58
	c9.954-0.001,15.097-0.661,20.07-1.3c0.62-0.08,1.243-0.159,1.877-0.238c-0.803,0.295-1.587,0.595-2.365,0.895
	c-5.081,1.957-9.879,3.807-19.583,3.807c-9.699,0-14.498-1.849-19.579-3.806c-0.778-0.3-1.562-0.601-2.366-0.896
	C-21.311,42.121-20.687,42.201-20.066,42.281z M20.3,35.193c-5.027-1.936-10.225-3.938-20.298-3.938c-0.001,0-0.002,0-0.004,0
	c-10.071,0-15.27,2.001-20.297,3.938c-0.312,0.121-0.625,0.24-0.936,0.359c0.62-0.386,1.229-0.777,1.835-1.166
	c5.042-3.236,9.805-6.293,19.397-6.293c0.001,0,0.002,0,0.003,0c9.594,0,14.357,3.057,19.398,6.293
	c0.605,0.389,1.214,0.779,1.833,1.165C20.922,35.433,20.612,35.313,20.3,35.193z M-20.299,44.804
	c5.027,1.937,10.226,3.939,20.297,3.939c10.075-0.001,15.274-2.003,20.302-3.94c0.312-0.12,0.623-0.24,0.935-0.359
	c-0.619,0.387-1.228,0.777-1.834,1.166c-5.043,3.237-9.807,6.296-19.402,6.296c-9.592,0-14.355-3.058-19.398-6.295
	c-0.606-0.389-1.215-0.779-1.834-1.166C-20.923,44.563-20.611,44.684-20.299,44.804z M19.272,31.708
	c0.288,0.259,0.577,0.518,0.867,0.777c-4.959-3.181-10.184-6.393-20.138-6.393c0,0-0.003,0-0.003,0
	c-9.95,0-15.175,3.21-20.135,6.391c0.29-0.259,0.579-0.518,0.866-0.776c5.022-4.513,9.767-8.776,19.269-8.776
	c0.001,0,0.001,0,0.002,0C9.505,22.931,14.25,27.195,19.272,31.708z M0,20.931c0,0-0.002,0-0.002,0
	c-9.103,0-14.265,3.711-18.859,7.735c4.898-5.655,9.632-10.897,18.859-10.897c0.001,0,0.001,0,0.002,0
	c9.227,0,13.961,5.24,18.857,10.893C14.264,24.64,9.103,20.931,0,20.931z M-0.002,59.067c9.105-0.001,14.268-3.713,18.864-7.737
	c-4.899,5.656-9.635,10.899-18.864,10.899c-9.227,0-13.961-5.243-18.861-10.899C-14.267,55.354-9.104,59.067-0.002,59.067z
	 M79.759,59.069c9.104-0.002,14.267-3.714,18.862-7.737c-4.899,5.656-9.634,10.898-18.862,10.899
	c-9.225,0-13.961-5.242-18.859-10.898C65.495,55.358,70.657,59.069,79.759,59.069z M159.515,59.067c0,0,0.002,0,0.003,0
	c9.105,0,14.269-3.712,18.864-7.737c-4.899,5.655-9.636,10.899-18.864,10.899c-0.001,0-0.001,0-0.003,0
	c-9.222,0-13.957-5.241-18.854-10.895C145.255,55.358,150.416,59.067,159.515,59.067z M159.518,12.606
	c8.431,0,13.11,5.414,17.615,11.656c-4.291-4.582-9.316-8.494-17.615-8.494c-8.295,0-13.32,3.913-17.61,8.495
	C146.412,18.021,151.091,12.606,159.518,12.606z M79.759,12.606c8.43,0,13.109,5.414,17.613,11.655
	c-4.29-4.581-9.315-8.493-17.612-8.493c0,0-0.001,0-0.002,0c-8.295,0-13.319,3.912-17.61,8.494
	C66.654,18.021,71.333,12.606,79.759,12.606z M-0.002,12.606c0.001,0,0.001,0,0.002,0c8.428,0,13.108,5.415,17.613,11.656
	C13.323,19.681,8.298,15.769,0,15.769c0,0-0.002,0-0.002,0c-8.293,0-13.318,3.912-17.608,8.492
	C-13.106,18.02-8.427,12.606-0.002,12.606z M-0.002,67.392c-8.426,0-13.106-5.416-17.612-11.658
	c4.292,4.582,9.317,8.496,17.612,8.496c8.297,0,13.323-3.913,17.614-8.495C13.106,61.977,8.426,67.392-0.002,67.392z M79.759,67.394
	c-8.426,0-13.106-5.415-17.612-11.659c4.291,4.583,9.317,8.497,17.612,8.497c8.296-0.001,13.322-3.914,17.613-8.497
	C92.866,61.978,88.186,67.393,79.759,67.394z M159.518,67.392c-0.001,0-0.001,0-0.002,0c-8.424,0-13.104-5.416-17.61-11.658
	c4.291,4.582,9.315,8.496,17.609,8.496c0.001,0,0.002,0,0.003,0c8.297,0,13.323-3.913,17.614-8.496
	C172.626,61.977,167.945,67.392,159.518,67.392z M239.277,67.392c-8.425,0-13.105-5.415-17.611-11.657
	c4.291,4.582,9.316,8.495,17.611,8.495c8.296,0,13.322-3.912,17.613-8.494C252.385,61.978,247.704,67.392,239.277,67.392z"/>
</svg>
