<?xml version="1.0" encoding="utf-8"?>
<!-- Generator: Adobe Illustrator 16.0.0, SVG Export Plug-In . SVG Version: 6.00 Build 0)  -->
<!DOCTYPE svg PUBLIC "-//W3C//DTD SVG 1.1//EN" "http://www.w3.org/Graphics/SVG/1.1/DTD/svg11.dtd">
<svg version="1.1" id="Layer_1" xmlns="http://www.w3.org/2000/svg" xmlns:xlink="http://www.w3.org/1999/xlink" x="0px" y="0px"
	 width="280px" height="245px" viewBox="0 0 280 245" enable-background="new 0 0 280 245" xml:space="preserve">
<polygon fill="#231F20" points="45.121,0 45.121,135.179 90.242,135.179 90.242,165.835 120.902,135.179 280,135.179 280,0 "/>
<g>
	<path fill="#8D8F91" d="M80.2,73.326c-0.421,7.379-5.766,12.442-14.408,12.442c-9.275,0-14.833-6.539-14.833-18.132
		c0-11.456,5.838-18.066,14.76-18.066c9.071,0,13.846,5.343,14.48,12.65h-8.012c-0.353-3.722-2.109-5.974-5.975-5.974
		c-4.708,0-7.029,3.795-7.029,11.39c0,7.587,2.321,11.452,7.029,11.452c3.865,0,5.554-2.036,5.902-5.762H80.2z"/>
	<path fill="#8D8F91" d="M100.973,56.249c-4.635,0-7.025,3.726-7.025,11.453c0,7.591,2.462,11.456,7.097,11.456
		c4.499,0,6.957-3.865,6.957-11.456C108.002,59.975,105.472,56.249,100.973,56.249 M101.045,85.764
		c-8.994,0-15.318-6.607-15.318-18.062c0-11.453,6.251-18.129,15.246-18.129c8.93,0,15.254,6.676,15.254,18.129
		C116.227,79.157,109.971,85.764,101.045,85.764"/>
</g>
<polygon fill="#8D8F91" points="151.76,85.273 143.748,85.273 130.961,63.906 130.68,63.906 130.68,85.273 122.524,85.273 
	122.524,50.062 130.608,50.062 143.327,71.429 143.608,71.429 143.608,50.062 151.76,50.062 "/>
<polygon fill="#8D8F91" points="157.795,50.064 181.826,50.064 181.826,56.81 165.947,56.81 165.947,64.051 179.368,64.051 
	179.368,70.797 165.947,70.797 165.947,85.273 157.795,85.273 "/>
<polygon fill="#8D8F91" points="186.851,50.064 210.89,50.064 210.89,56.81 195.006,56.81 195.006,64.051 208.428,64.051 
	208.428,70.797 195.006,70.797 195.006,78.526 210.89,78.526 210.89,85.273 186.851,85.273 "/>
<g>
	<path fill="#8D8F91" d="M224.92,66.16h5.413c3.437,0,5.129-1.689,5.129-4.641c0-3.022-1.756-4.709-5.129-4.709h-5.413V66.16z
		 M229.876,72.833h-4.956v12.439h-8.152V50.064h13.565c8.148,0,13.208,4.707,13.208,10.681c0,5.393-2.406,8.221-6.131,9.961
		l7.394,14.217v0.35h-8.709L229.876,72.833z"/>
</g>
<polygon fill="#8D8F91" points="249.633,50.064 273.668,50.064 273.668,56.81 257.789,56.81 257.789,64.051 271.207,64.051 
	271.207,70.797 257.789,70.797 257.789,78.526 273.668,78.526 273.668,85.273 249.633,85.273 "/>
<polygon fill="#8D8F91" points="80.689,129.001 72.681,129.001 59.886,107.635 59.609,107.635 59.609,129.001 51.453,129.001 
	51.453,93.79 59.537,93.79 72.256,115.157 72.537,115.157 72.537,93.79 80.689,93.79 "/>
<g>
	<path fill="#8D8F91" d="M116.227,117.055c-0.425,7.38-5.762,12.44-14.408,12.44c-9.279,0-14.829-6.536-14.829-18.13
		c0-11.458,5.831-18.065,14.761-18.065c9.062,0,13.846,5.343,14.476,12.65h-8.016c-0.349-3.723-2.105-5.973-5.971-5.973
		c-4.708,0-7.029,3.794-7.029,11.388c0,7.588,2.322,11.454,7.029,11.454c3.866,0,5.55-2.038,5.903-5.764H116.227z"/>
</g>
<polygon fill="#8D8F91" points="122.524,93.79 146.563,93.79 146.563,100.54 130.68,100.54 130.68,107.778 144.101,107.778 
	144.101,114.527 130.68,114.527 130.68,122.256 146.563,122.256 146.563,129.001 122.524,129.001 "/>
<g>
	<path fill="#FFFFFF" d="M65.159,12.52c-3.304,0-5.061,1.336-5.061,3.3c0,2.179,2.739,3.093,6.604,4.502l0.982,0.35
		c6.749,2.389,10.759,5.324,10.759,10.962c0,7.1-5.481,10.4-13.285,10.4c-7.17,0-14.199-3.584-14.199-11.875h8.084
		c0.145,3.442,2.037,5.271,6.115,5.271c3.372,0,5.201-1.829,5.201-3.727c0-2.071-1.688-3.654-7.238-5.34l-0.706-0.212
		c-6.392-1.897-10.402-4.076-10.402-10.402c0-6.043,5.626-9.909,13.353-9.909c7.731,0,13.076,4.288,13.076,10.961h-8.084
		C70.219,14.137,68.531,12.52,65.159,12.52"/>
	<path fill="#FFFFFF" d="M98.14,26.576h-6.039v8.433h5.762c3.513,0,4.988-1.76,4.988-4.007
		C102.852,28.26,101.512,26.576,98.14,26.576 M92.101,21.025h4.427c3.934,0,5.546-1.337,5.546-3.941c0-2.95-1.68-4.145-5.546-4.145
		h-4.427V21.025z M97.863,41.543H84.017V6.332h12.511c8.505,0,13.629,3.165,13.629,9.772c0,3.143-1.399,6.112-4.968,7.487
		c4.142,1.034,5.674,4.288,5.674,7.553C110.863,38.029,106.364,41.543,97.863,41.543"/>
</g>
<polygon fill="#FFFFFF" points="115.924,6.334 139.959,6.334 139.959,13.08 124.08,13.08 124.08,20.322 137.501,20.322 
	137.501,27.068 124.08,27.068 124.08,41.546 115.924,41.546 "/>
<g>
	<path fill="#FFFFFF" d="M159.506,12.52c-4.643,0-7.029,3.726-7.029,11.452c0,7.594,2.462,11.455,7.098,11.455
		c4.503,0,6.961-3.861,6.961-11.455C166.535,16.246,164.005,12.52,159.506,12.52 M159.574,42.035
		c-8.994,0-15.318-6.607-15.318-18.062c0-11.452,6.251-18.133,15.25-18.133c8.926,0,15.25,6.681,15.25,18.133
		C174.756,35.427,168.5,42.035,159.574,42.035"/>
</g>
<polygon fill="#FFFFFF" points="177.508,6.334 206.672,6.334 206.672,13.08 196.13,13.08 196.13,41.546 187.982,41.546 
	187.982,13.08 177.508,13.08 "/>
<g>
	<path fill="#FFFFFF" d="M223.701,12.52c-4.639,0-7.029,3.726-7.029,11.452c0,7.594,2.462,11.455,7.102,11.455
		c4.495,0,6.957-3.861,6.957-11.455C230.73,16.246,228.196,12.52,223.701,12.52 M223.773,42.035
		c-8.998,0-15.322-6.607-15.322-18.062c0-11.452,6.255-18.133,15.25-18.133c8.926,0,15.25,6.681,15.25,18.133
		C238.951,35.427,232.699,42.035,223.773,42.035"/>
</g>
<polygon fill="#FFFFFF" points="273.668,41.543 265.653,41.543 252.861,20.177 252.584,20.177 252.584,41.543 244.432,41.543 
	244.432,6.332 252.516,6.332 265.24,27.699 265.516,27.699 265.516,6.332 273.668,6.332 "/>
<g>
	<path fill="#FFFFFF" d="M187.536,129.001h-24.737v-5.762l11.661-11.455c3.304-3.305,4.291-5.764,4.291-7.522
		c0-3.023-1.476-4.64-4.074-4.64c-2.811,0-4.503,2.393-4.503,5.484h-7.799c0-6.465,4.992-11.808,12.443-11.808
		c7.659,0,11.733,3.798,11.733,10.191c0,4.921-3.16,8.854-8.22,13.987l-3.653,3.723c-0.497,0.494-0.706,0.703-1.407,0.983
		l0.14,0.353c0.706-0.281,0.982-0.281,1.684-0.281h12.443V129.001z"/>
	<path fill="#FFFFFF" d="M209.917,107.213c0-5.268-2.037-7.518-4.848-7.518s-4.848,2.25-4.848,7.518v7.941
		c0,5.835,2.037,7.802,4.848,7.802c2.739,0,4.848-1.967,4.848-7.802V107.213z M217.861,114.104c0,10.4-5.485,15.391-12.792,15.391
		c-7.378,0-12.792-4.99-12.792-15.391v-5.835c0-9.838,5.481-15.039,12.792-15.039c7.306,0,12.792,5.201,12.792,15.039V114.104z"/>
</g>
<polygon fill="#FFFFFF" points="241.267,129.001 233.11,129.001 233.11,102.999 223.134,106.442 223.134,100.118 240.561,93.79 
	241.267,93.79 "/>
<g>
	<path fill="#FFFFFF" d="M261.699,99.626c-2.317,0-3.581,1.475-3.581,4.006s1.263,4.215,3.649,4.215c2.39,0,3.589-1.684,3.589-4.215
		C265.356,101.173,264.089,99.626,261.699,99.626 M261.699,114.104c-2.526,0-4.354,1.683-4.354,4.568
		c0,2.812,1.829,4.495,4.423,4.495c2.603,0,4.291-1.683,4.291-4.495C266.058,115.787,264.297,114.104,261.699,114.104
		 M261.767,129.495c-6.953,0-12.226-3.442-12.226-10.192c0-3.899,2.141-6.832,5.501-8.449c-2.935-1.583-4.728-4.288-4.728-7.644
		c0-6.465,4.776-9.911,11.384-9.911c6.749,0,11.457,3.446,11.457,9.911c0,3.373-1.776,6.077-4.708,7.66
		c3.34,1.617,5.413,4.533,5.413,8.433C273.861,126.052,268.728,129.495,261.767,129.495"/>
</g>
<path fill="#009CDE" d="M45.051,209.855l-11.215,19.428c-1.191-0.479-2.35-1.035-3.469-1.658l-0.722-0.421
	c-1.115-0.664-2.181-1.396-3.2-2.195l11.211-19.422h14.792l18.181,31.481c11.845-8.145,19.612-21.796,19.612-37.258
	c0-14.923-7.229-28.157-18.381-36.384l-18.109,31.355l22.431,0.004c0.197,1.396,0.305,2.819,0.305,4.269s-0.108,2.875-0.305,4.271
	H53.752l-7.394-12.813l18.181-31.49c-5.898-2.823-12.507-4.403-19.488-4.403c-23.257-0.003-42.412,17.571-44.906,40.167
	l36.209-0.004l-11.22-19.422c1.022-0.8,2.093-1.534,3.212-2.204l0.718-0.413c1.111-0.619,2.27-1.179,3.469-1.658l11.22,19.432
	l-7.398,12.808H0C1.792,226.636,21.28,245,45.051,245c6.444,0,12.567-1.35,18.113-3.777L45.051,209.855z"/>
</svg>
