<?xml version="1.0" encoding="utf-8"?>
<!-- Generator: Adobe Illustrator 16.0.0, SVG Export Plug-In . SVG Version: 6.00 Build 0)  -->
<!DOCTYPE svg PUBLIC "-//W3C//DTD SVG 1.1//EN" "http://www.w3.org/Graphics/SVG/1.1/DTD/svg11.dtd">
<svg version="1.1" id="Layer_1" xmlns="http://www.w3.org/2000/svg" xmlns:xlink="http://www.w3.org/1999/xlink" x="0px" y="0px"
	 width="280px" height="245px" viewBox="0 0 280 245" enable-background="new 0 0 280 245" xml:space="preserve">
<circle fill="#FFFFFF" cx="45.121" cy="199.809" r="44.504"/>
<path fill="#009CDE" d="M45.051,209.855l-11.215,19.428c-1.191-0.479-2.35-1.035-3.469-1.658l-0.722-0.421
	c-1.115-0.664-2.181-1.396-3.2-2.195l11.211-19.422h14.792l18.181,31.481c11.845-8.146,19.612-21.797,19.612-37.258
	c0-14.924-7.229-28.158-18.381-36.385l-18.109,31.355l22.431,0.004c0.197,1.396,0.305,2.818,0.305,4.27
	c0,1.449-0.108,2.875-0.305,4.271h-22.43l-7.394-12.813l18.181-31.49c-5.898-2.822-12.507-4.402-19.488-4.402
	c-23.257-0.004-42.412,17.57-44.906,40.167l36.209-0.005l-11.22-19.422c1.022-0.799,2.093-1.533,3.212-2.203l0.718-0.413
	c1.111-0.619,2.27-1.179,3.469-1.658l11.22,19.433l-7.398,12.808H0C1.792,226.637,21.28,245,45.051,245
	c6.444,0,12.567-1.35,18.113-3.777L45.051,209.855z"/>
<polygon points="41.471,0 41.471,140.354 90.209,140.354 90.209,165.116 114.972,140.354 279.755,140.354 279.755,0 "/>
<g>
	<path fill="#FFFFFF" d="M159.619,125.311l12.328-10.793c2.771-2.491,4.357-4.207,4.357-6.734c0-2.789-1.998-4.488-4.754-4.488
		c-2.808,0-4.686,1.766-4.686,4.818h-7.743c-0.016-6.879,4.985-11.188,12.463-11.188c7.675,0,12.64,4.128,12.64,10.213
		c0,3.881-1.914,7.132-9.241,13.518l-4.043,3.729v0.214h13.694v6.585h-25.016V125.311z"/>
	<path fill="#FFFFFF" d="M209.151,114.336c-0.016-7.31-2.377-10.777-5.893-10.777c-3.497,0-5.857,3.466-5.873,10.777
		c-0.032,7.46,2.358,10.99,5.873,10.99C206.792,125.326,209.166,121.797,209.151,114.336 M188.985,114.336
		c0.017-11.107,5.43-17.412,14.273-17.412c8.846,0,14.31,6.322,14.292,17.412c-0.015,11.156-5.445,17.69-14.292,17.674
		C194.414,132.011,188.953,125.459,188.985,114.336"/>
</g>
<polygon fill="#FFFFFF" points="237.876,131.186 229.724,131.186 229.724,105.013 229.525,105.013 221.968,109.63 221.968,102.569 
	230.303,97.387 237.876,97.387 "/>
<g>
	<path fill="#FFFFFF" d="M257.585,113.692c2.855,0,4.886-2.177,4.886-5.248c0-3.067-2.027-5.264-4.886-5.264
		c-2.854,0-4.834,2.193-4.834,5.264S254.728,113.692,257.585,113.692 M257.535,96.926c6.897,0,12.972,3.995,12.956,11.519
		c-0.019,3.697-1.499,7.097-4.143,11.041l-7.922,11.701h-8.07l7.956-11.734c-0.842,0.216-1.749,0.349-2.724,0.349
		c-6.287,0-10.692-4.456-10.692-11.041C244.896,101.581,250.178,96.926,257.535,96.926"/>
	<path fill="#FFFFFF" d="M61.821,15.917c-3.169,0-4.754,1.336-4.77,3.185c-0.066,2.013,1.881,3.037,4.952,3.697l2.903,0.66
		c6.667,1.469,10.313,4.769,10.347,10.167c-0.034,6.42-5.016,10.23-13.431,10.23c-8.499,0-13.995-3.778-14.095-11.681h7.824
		c0.182,3.249,2.558,4.934,6.171,4.934c3.286,0,5.215-1.438,5.249-3.5c-0.034-1.897-1.701-2.903-5.413-3.763l-3.533-0.824
		c-5.841-1.338-9.44-4.223-9.423-9.358c-0.05-6.288,5.513-10.495,13.235-10.495c7.856,0,12.888,4.275,12.955,10.595h-7.821
		C66.756,17.353,65.006,15.917,61.821,15.917"/>
	<path fill="#FFFFFF" d="M93.069,36.842c3.533,0,5.182-1.42,5.182-3.813c0-2.59-1.916-4.242-5.034-4.242h-5.199v8.055H93.069z
		 M92.541,23.525c2.674,0,4.587-1.387,4.587-3.764c0-2.243-1.732-3.647-4.455-3.647h-4.655v7.411H92.541z M79.85,9.629h14.094
		c7.591,0,11.519,3.45,11.519,8.548c0,3.862-2.607,6.553-6.321,7.327v0.33c4.093,0.183,7.64,3.25,7.64,8.137
		c0,5.461-4.29,9.455-11.765,9.455H79.85V9.629z"/>
</g>
<polygon fill="#FFFFFF" points="111.166,9.629 134.234,9.629 134.234,16.263 119.334,16.263 119.334,23.193 132.768,23.193 
	132.768,29.844 119.334,29.844 119.334,43.425 111.166,43.425 "/>
<g>
	<path fill="#FFFFFF" d="M154.543,16.329c-4.868,0-7.788,3.583-7.788,10.2c0,6.616,2.92,10.197,7.788,10.197
		c4.887,0,7.788-3.581,7.788-10.197C162.331,19.912,159.43,16.329,154.543,16.329 M154.543,43.888
		c-9.111,0-16.125-6.238-16.125-17.359c0-11.174,7.014-17.362,16.125-17.362c9.074,0,16.138,6.188,16.138,17.362
		C170.683,37.7,163.617,43.888,154.543,43.888"/>
</g>
<polygon fill="#FFFFFF" points="173.235,9.629 201.8,9.629 201.8,16.263 191.553,16.263 191.553,43.425 183.502,43.425 
	183.502,16.263 173.235,16.263 "/>
<g>
	<path fill="#FFFFFF" d="M220.475,16.329c-4.867,0-7.788,3.583-7.788,10.2c0,6.616,2.921,10.197,7.788,10.197
		c4.887,0,7.786-3.581,7.786-10.197C228.261,19.912,225.361,16.329,220.475,16.329 M220.475,43.888
		c-9.111,0-16.123-6.238-16.123-17.359c0-11.174,7.012-17.362,16.123-17.362c9.076,0,16.14,6.188,16.14,17.362
		C236.614,37.7,229.551,43.888,220.475,43.888"/>
</g>
<polygon fill="#FFFFFF" points="270.587,43.426 263.658,43.426 250.209,23.92 249.993,23.92 249.993,43.426 241.824,43.426 
	241.824,9.629 248.854,9.629 262.156,29.103 262.435,29.103 262.435,9.629 270.587,9.629 270.587,43.426 "/>
<g>
	<path fill="#FFFFFF" d="M73.999,64.044c-0.939-4.621-4.983-8.121-10.282-8.121c-6.401,0-11.616,5.101-11.616,14.457
		c0,9.39,5.215,14.458,11.616,14.458c5.299,0,9.343-3.482,10.282-8.12h3.102c-1.105,6.205-6.187,11.023-13.384,11.023
		c-8.53,0-14.604-6.784-14.604-17.36c0-10.579,6.074-17.361,14.604-17.361c7.198,0,12.279,4.801,13.384,11.024H73.999L73.999,64.044
		z"/>
	<path fill="#FFFFFF" d="M99.298,55.921c-6.636,0-11.618,5.349-11.618,14.458c0,9.06,4.934,14.458,11.618,14.458
		c6.666,0,11.632-5.364,11.618-14.458C110.917,61.288,105.964,55.921,99.298,55.921 M99.298,87.741
		c-8.549,0-14.607-6.799-14.607-17.361c0-10.562,6.074-17.361,14.607-17.361c8.548,0,14.621,6.782,14.621,17.361
		C113.919,80.958,107.846,87.741,99.298,87.741"/>
</g>
<polygon fill="#FFFFFF" points="149.547,87.278 146.544,87.278 126.575,58.976 126.312,58.976 126.312,87.278 123.226,87.278 
	123.226,53.481 126.212,53.481 146.246,81.815 146.512,81.815 146.512,53.481 149.547,53.481 "/>
<polygon fill="#FFFFFF" points="160.375,53.481 179.93,53.481 179.93,56.253 163.46,56.253 163.46,68.978 178.396,68.978 
	178.396,71.749 163.46,71.749 163.46,87.278 160.375,87.278 "/>
<polygon fill="#FFFFFF" points="189.467,53.481 209.071,53.481 209.071,56.253 192.55,56.253 192.55,68.978 208.031,68.978 
	208.031,71.749 192.55,71.749 192.55,84.505 209.401,84.505 209.401,87.278 189.467,87.278 "/>
<g>
	<path fill="#FFFFFF" d="M229.763,70.793c5.3,0,7.888-2.773,7.888-7.197c0-4.42-2.592-7.343-7.937-7.343h-7.74v14.541H229.763z
		 M218.889,53.481h10.908c7.178,0,10.89,4.208,10.89,10.115c0,4.521-2.178,7.986-6.386,9.374l7.808,14.309h-3.562l-7.414-13.713
		c-0.409,0.032-0.842,0.047-1.286,0.047h-7.872v13.666h-3.085V53.481z"/>
</g>
<polygon fill="#FFFFFF" points="250.062,53.481 269.664,53.481 269.664,56.253 253.146,56.253 253.146,68.978 268.625,68.978 
	268.625,71.749 253.146,71.749 253.146,84.505 269.994,84.505 269.994,87.278 250.059,87.278 250.059,53.481 "/>
<polygon fill="#FFFFFF" points="76.954,131.186 73.95,131.186 53.981,102.884 53.718,102.884 53.718,131.186 50.631,131.186 
	50.631,97.387 53.618,97.387 73.653,125.722 73.917,125.722 73.917,97.387 76.954,97.387 "/>
<g>
	<path fill="#FFFFFF" d="M109.307,107.949c-0.94-4.619-4.983-8.119-10.281-8.119c-6.403,0-11.618,5.099-11.618,14.455
		c0,9.391,5.215,14.458,11.618,14.458c5.297,0,9.342-3.483,10.281-8.12h3.103c-1.106,6.206-6.188,11.024-13.385,11.024
		c-8.532,0-14.605-6.784-14.605-17.363c0-10.575,6.075-17.358,14.605-17.358c7.197,0,12.278,4.8,13.385,11.021H109.307z"/>
</g>
<polygon fill="#FFFFFF" points="119.68,97.389 139.286,97.389 139.286,100.161 122.765,100.161 122.765,112.885 138.246,112.885 
	138.246,115.657 122.765,115.657 122.765,128.412 139.614,128.412 139.614,131.186 119.68,131.186 "/>
</svg>
