<?xml version="1.0" encoding="utf-8"?>
<!-- Generator: Adobe Illustrator 16.0.0, SVG Export Plug-In . SVG Version: 6.00 Build 0)  -->
<!DOCTYPE svg PUBLIC "-//W3C//DTD SVG 1.1//EN" "http://www.w3.org/Graphics/SVG/1.1/DTD/svg11.dtd">
<svg version="1.1" id="Layer_1" xmlns="http://www.w3.org/2000/svg" xmlns:xlink="http://www.w3.org/1999/xlink" x="0px" y="0px"
	 width="273.798px" height="245px" viewBox="-0.001 0 273.798 245" enable-background="new -0.001 0 273.798 245"
	 xml:space="preserve">
<path fill="#FFFFFF" d="M271.841,1.956v132.666H132.184h-0.81l-0.573,0.573l-28.775,28.774v-27.392v-1.956h-1.956H40.869V1.956
	H271.841 M273.797,0H38.913v136.578h61.157v32.113l32.114-32.113h141.613V0L273.797,0z"/>
<path fill="#FFFFFF" d="M157.348,121.647l12.207-10.688c2.747-2.467,4.313-4.167,4.313-6.67c0-2.759-1.977-4.444-4.704-4.444
	c-2.782,0-4.646,1.749-4.646,4.772h-7.66c-0.02-6.816,4.938-11.083,12.341-11.083c7.594,0,12.52,4.085,12.52,10.116
	c0,3.844-1.895,7.063-9.157,13.387l-4.001,3.697v0.21h13.564v6.523h-24.777V121.647z"/>
<path fill="#FFFFFF" d="M206.4,110.778c-0.016-7.238-2.353-10.671-5.833-10.671c-3.465,0-5.802,3.434-5.821,10.671
	c-0.031,7.388,2.34,10.885,5.821,10.885C204.064,121.664,206.417,118.167,206.4,110.778 M186.431,110.778
	c0.017-11,5.375-17.239,14.137-17.239c8.761,0,14.168,6.26,14.153,17.239c-0.016,11.051-5.393,17.52-14.153,17.503
	C191.806,128.281,186.398,121.798,186.431,110.778"/>
<polygon fill="#FFFFFF" points="234.849,127.465 226.772,127.465 226.772,101.543 226.58,101.543 219.093,106.122 219.093,99.127 
	227.35,93.998 234.849,93.998 "/>
<g>
	<path fill="#FFFFFF" d="M254.368,110.144c2.826,0,4.839-2.159,4.839-5.199c0-3.039-2.013-5.213-4.839-5.213
		s-4.791,2.175-4.791,5.213C249.577,107.985,251.542,110.144,254.368,110.144 M254.321,93.535c6.827,0,12.842,3.958,12.826,11.41
		c-0.017,3.663-1.484,7.029-4.097,10.933l-7.847,11.587h-7.995l7.877-11.619c-0.832,0.213-1.732,0.343-2.695,0.343
		c-6.228,0-10.593-4.412-10.593-10.933C241.798,98.149,247.027,93.535,254.321,93.535"/>
	<path fill="#FFFFFF" d="M60.494,13.308c-3.138,0-4.713,1.326-4.729,3.157c-0.062,1.993,1.863,3.007,4.902,3.659l2.881,0.655
		c6.603,1.452,10.214,4.724,10.246,10.067c-0.032,6.359-4.969,10.132-13.3,10.132c-8.423,0-13.861-3.746-13.964-11.572h7.751
		c0.182,3.221,2.534,4.89,6.114,4.89c3.256,0,5.166-1.42,5.198-3.468c-0.032-1.879-1.685-2.877-5.364-3.726l-3.496-0.817
		c-5.787-1.322-9.35-4.179-9.33-9.267C47.351,10.79,52.856,6.626,60.509,6.626c7.779,0,12.764,4.231,12.831,10.49h-7.748
		C65.379,14.733,63.65,13.308,60.494,13.308"/>
	<path fill="#FFFFFF" d="M91.435,34.036c3.501,0,5.135-1.409,5.135-3.78c0-2.566-1.898-4.199-4.984-4.199h-5.146v7.979H91.435z
		 M90.914,20.842c2.648,0,4.546-1.37,4.546-3.726c0-2.221-1.717-3.611-4.417-3.611h-4.605v7.337H90.914z M78.348,7.084h13.955
		c7.518,0,11.405,3.414,11.405,8.465c0,3.825-2.577,6.484-6.255,7.254v0.328c4.053,0.181,7.566,3.221,7.566,8.059
		c0,5.411-4.247,9.362-11.65,9.362H78.348V7.084z"/>
</g>
<polygon fill="#FFFFFF" points="109.361,7.084 132.204,7.084 132.204,13.655 117.451,13.655 117.451,20.515 130.755,20.515 
	130.755,27.105 117.451,27.105 117.451,40.552 109.361,40.552 "/>
<g>
	<path fill="#FFFFFF" d="M152.32,13.714c-4.823,0-7.716,3.548-7.716,10.104c0,6.552,2.893,10.1,7.716,10.1
		c4.834,0,7.715-3.548,7.715-10.1C160.035,17.262,157.154,13.714,152.32,13.714 M152.32,41.009c-9.019,0-15.968-6.176-15.968-17.191
		c0-11.062,6.95-17.195,15.968-17.195c8.986,0,15.983,6.133,15.983,17.195S161.307,41.009,152.32,41.009"/>
</g>
<polygon fill="#FFFFFF" points="170.834,7.084 199.123,7.084 199.123,13.655 188.973,13.655 188.973,40.552 180.996,40.552 
	180.996,13.655 170.834,13.655 "/>
<g>
	<path fill="#FFFFFF" d="M217.617,13.714c-4.822,0-7.716,3.548-7.716,10.104c0,6.552,2.894,10.1,7.716,10.1
		c4.838,0,7.712-3.548,7.712-10.1C225.329,17.262,222.455,13.714,217.617,13.714 M217.617,41.009
		c-9.021,0-15.969-6.176-15.969-17.191c0-11.062,6.947-17.195,15.969-17.195c8.986,0,15.983,6.133,15.983,17.195
		S226.604,41.009,217.617,41.009"/>
</g>
<polygon fill="#FFFFFF" points="267.247,40.556 260.379,40.556 247.063,21.237 246.846,21.237 246.846,40.556 238.756,40.556 
	238.756,7.084 245.721,7.084 258.896,26.367 259.171,26.367 259.171,7.084 267.247,7.084 "/>
<g>
	<path fill="#FFFFFF" d="M72.554,60.972c-0.936-4.574-4.934-8.043-10.182-8.043c-6.339,0-11.505,5.052-11.505,14.318
		c0,9.298,5.166,14.318,11.505,14.318c5.249,0,9.247-3.45,10.182-8.043h3.07c-1.097,6.145-6.125,10.917-13.252,10.917
		c-8.45,0-14.461-6.717-14.461-17.191c0-10.475,6.011-17.192,14.461-17.192c7.127,0,12.155,4.752,13.252,10.917H72.554z"/>
	<path fill="#FFFFFF" d="M97.607,52.929c-6.571,0-11.508,5.296-11.508,14.318c0,8.974,4.886,14.314,11.508,14.314
		c6.603,0,11.524-5.309,11.505-14.314C109.112,58.241,104.21,52.929,97.607,52.929 M97.607,84.438
		c-8.469,0-14.464-6.732-14.464-17.191c0-10.458,6.011-17.195,14.464-17.195c8.466,0,14.48,6.721,14.48,17.195
		C112.088,77.725,106.073,84.438,97.607,84.438"/>
</g>
<polygon fill="#FFFFFF" points="147.374,83.98 144.398,83.98 124.626,55.955 124.362,55.955 124.362,83.98 121.307,83.98 
	121.307,50.513 124.263,50.513 144.106,78.57 144.367,78.57 144.367,50.513 147.374,50.513 "/>
<polygon fill="#FFFFFF" points="158.094,50.513 177.46,50.513 177.46,53.256 161.148,53.256 161.148,65.857 175.94,65.857 
	175.94,68.604 161.148,68.604 161.148,83.98 158.094,83.98 "/>
<polygon fill="#FFFFFF" points="186.904,50.513 206.322,50.513 206.322,53.256 189.959,53.256 189.959,65.857 205.288,65.857 
	205.288,68.604 189.959,68.604 189.959,81.238 206.646,81.238 206.646,83.98 186.904,83.98 "/>
<g>
	<path fill="#FFFFFF" d="M226.812,67.653c5.25,0,7.814-2.743,7.814-7.124s-2.564-7.274-7.861-7.274h-7.664v14.397H226.812z
		 M216.047,50.513h10.797c7.112,0,10.791,4.164,10.791,10.017c0,4.479-2.159,7.909-6.327,9.283l7.732,14.168h-3.533l-7.336-13.576
		c-0.407,0.031-0.838,0.047-1.275,0.047h-7.794V83.98h-3.055V50.513z"/>
</g>
<polygon fill="#FFFFFF" points="246.917,50.513 266.331,50.513 266.331,53.256 249.972,53.256 249.972,65.857 265.301,65.857 
	265.301,68.604 249.972,68.604 249.972,81.238 266.657,81.238 266.657,83.98 246.917,83.98 "/>
<polygon fill="#FFFFFF" points="75.479,127.465 72.506,127.465 52.73,99.439 52.466,99.439 52.466,127.465 49.411,127.465 
	49.411,93.998 52.371,93.998 72.207,122.054 72.471,122.054 72.471,93.998 75.479,93.998 "/>
<g>
	<path fill="#FFFFFF" d="M107.521,104.456c-0.932-4.577-4.933-8.043-10.183-8.043c-6.338,0-11.504,5.052-11.504,14.319
		c0,9.298,5.167,14.319,11.504,14.319c5.25,0,9.251-3.453,10.183-8.044h3.07c-1.097,6.146-6.125,10.916-13.253,10.916
		c-8.45,0-14.46-6.717-14.46-17.191c0-10.475,6.011-17.192,14.46-17.192c7.128,0,12.156,4.752,13.253,10.917H107.521z"/>
</g>
<polygon fill="#FFFFFF" points="117.79,93.994 137.208,93.994 137.208,96.74 120.849,96.74 120.849,109.338 136.178,109.338 
	136.178,112.088 120.849,112.088 120.849,124.722 137.536,124.722 137.536,127.465 117.79,127.465 "/>
<g>
	<path fill="#009CDE" d="M69.05,235.607l-17.251-29.781H37.76l-10.64,18.336c0.963,0.758,1.977,1.409,3.039,2.04l0.687,0.375
		c1.058,0.592,2.155,1.105,3.288,1.559l10.645-18.442l17.183,29.762c-5.26,2.305-11.074,3.619-17.183,3.619
		c-22.559,0-41.053-17.401-42.75-39.519h34.494l7.021-12.183l-10.644-18.455c-1.137,0.454-2.234,0.976-3.296,1.563l-0.682,0.395
		c-1.059,0.627-2.076,1.322-3.04,2.084l10.641,18.427l-34.364,0.004c2.372-21.442,20.546-38.121,42.62-38.121
		c6.623,0,12.894,1.504,18.494,4.185l-17.255,29.911l7.017,12.19h21.289c0.186-1.132,0.284-2.707,0.284-4.08
		c0-1.382-0.098-2.748-0.284-4.073l-21.289-0.008l17.184-29.758c10.581,7.808,17.444,20.408,17.448,34.568
		C87.662,214.88,80.29,227.875,69.05,235.607 M44.841,155.309c-24.762,0-44.842,20.08-44.842,44.846
		c0,24.77,20.08,44.846,44.842,44.846c24.769,0,44.85-20.076,44.85-44.846C89.69,175.389,69.609,155.309,44.841,155.309"/>
</g>
</svg>
