<?xml version="1.0" encoding="utf-8"?>
<!-- Generator: Adobe Illustrator 16.0.0, SVG Export Plug-In . SVG Version: 6.00 Build 0)  -->
<!DOCTYPE svg PUBLIC "-//W3C//DTD SVG 1.1//EN" "http://www.w3.org/Graphics/SVG/1.1/DTD/svg11.dtd">
<svg version="1.1" id="Layer_1" xmlns="http://www.w3.org/2000/svg" xmlns:xlink="http://www.w3.org/1999/xlink" x="0px" y="0px"
	 width="151.019px" height="151.247px" viewBox="0 0 151.019 151.247" enable-background="new 0 0 151.019 151.247"
	 xml:space="preserve">
<path fill="#009CDE" d="M75.396,92.435l-18.771,32.511c-2.002-0.804-3.937-1.73-5.803-2.775l-1.215-0.698
	c-1.865-1.115-3.654-2.343-5.355-3.679l18.769-32.504h24.752l30.418,52.687c19.823-13.633,32.827-36.474,32.828-62.353
	c-0.001-24.971-12.105-47.111-30.767-60.883L89.953,67.217l37.533,0.002c0.332,2.334,0.508,4.719,0.508,7.143
	c-0.002,2.426-0.176,4.811-0.507,7.146H89.954L77.578,60.07l30.424-52.697C98.129,2.648,87.072,0,75.396,0
	C36.471-0.002,4.421,29.41,0.24,67.219l60.595-0.004L42.069,34.713c1.703-1.338,3.495-2.566,5.363-3.682l1.202-0.693
	c1.865-1.045,3.804-1.975,5.808-2.777l18.77,32.512L60.835,81.509H0c3.003,39.014,35.611,69.738,75.396,69.738
	c10.776,0,21.024-2.26,30.305-6.324L75.396,92.435z"/>
</svg>
