<?xml version="1.0" encoding="utf-8"?>
<!-- Generator: Adobe Illustrator 16.0.0, SVG Export Plug-In . SVG Version: 6.00 Build 0)  -->
<!DOCTYPE svg PUBLIC "-//W3C//DTD SVG 1.1//EN" "http://www.w3.org/Graphics/SVG/1.1/DTD/svg11.dtd">
<svg version="1.1" id="Layer_1" xmlns="http://www.w3.org/2000/svg" xmlns:xlink="http://www.w3.org/1999/xlink" x="0px" y="0px"
	 width="667.024px" height="318.266px" viewBox="0 0 667.024 318.266" enable-background="new 0 0 667.024 318.266"
	 xml:space="preserve">
<path fill-rule="evenodd" clip-rule="evenodd" fill="#A8A190" d="M187.99,50.73c-14.495-0.087-14.669-0.087-22.003-0.087
	c-11.788-0.087-23.226,0.874-32.044,7.946c-25.41,20.082-28.99,50.817-36.585,79.021c-2.794,15.455-7.073,37.371,8.47,47.936
	c6.374,4.104,14.057,4.89,22.178,4.89c7.509-0.087,14.145-0.262,22.527-0.175l0,0l-13.272,49.944l-50.468,0.088l0,0
	c-33.617-0.088-71.6-12.224-82.95-47.762c-9.255-32.568-0.262-67.582,10.827-96.746C35.974,39.728,94.388,1.222,153.762,0.523
	C169.392,0,185.458,0.349,201.35,0.262l0,0L187.99,50.73L187.99,50.73z"/>
<path fill-rule="evenodd" clip-rule="evenodd" fill="#0372C4" d="M580.038,0.262c33.791,1.834,72.385,11.875,83.474,48.373
	c9.169,36.062-0.961,73.52-14.844,104.691c-26.106,55.358-77.623,87.665-143.547,86.878l0,0h-21.566l13.185-49.77l0,0
	c2.444,0.262,4.977-0.087,7.247-0.087c16.503-0.088,30.822-6.199,41.213-19.908c15.367-22.178,19.995-48.81,26.107-74.917
	c1.659-13.446,3.405-29.774-8.383-39.117c-8.73-7.334-21.217-5.938-33.005-6.024c-6.024,21.566-1.397,5.413-7.421,27.067l0,0
	h-91.595L451.334,0L580.038,0.262L580.038,0.262z"/>
<path fill-rule="evenodd" clip-rule="evenodd" fill="#0372C4" d="M297.484,50.905c10.041,0,19.908,0.698,25.321,9.779
	c4.017,10.914-0.35,22.091-5.501,31.084l0,0l0,0c-5.239,7.16-12.137,11.089-19.82,13.272c-8.383,2.271-17.638,2.445-26.981,2.271
	l0,0l15.281-56.406l0,0C289.538,51.079,293.555,50.905,297.484,50.905z M297.484,158.042c37.021-2.184,70.901-12.05,95.261-42.698
	c16.503-23.488,27.504-53.612,18.249-83.212l0,0l0,0c-8.644-22.353-32.133-30.124-53.874-31.608l0,0l-5.326-0.262H207.637
	l-64.352,239.943h91.333l22.178-81.814l0,0c12.923,0,8.645-0.087,23.227,0.088C285.959,158.478,291.722,158.303,297.484,158.042z"/>
<path fill-rule="evenodd" clip-rule="evenodd" fill="#A8A190" d="M455.875,318.266l-91.419-0.088l20.955-77.974l0,0
	c-13.271,0-24.36,0.262-36.497,0c-26.195-0.61-51.254-4.017-68.892-24.273c-10.74-13.708-11.089-35.45-6.549-52.302
	c0-0.088,6.374,0,12.573,0c31.172,0,60.335-4.89,84.871-21.043c-8.207,9.692-14.319,26.456-7.509,37.633
	c5.152,7.247,13.272,9.168,21.916,9.692c4.453,0.262,9.168,0,13.621,0.087l0,0l15.367-56.667l0,0
	c-11.875-0.262-0.174-0.088-13.359-0.262c-7.857,0.087-15.629,0.786-22.265,4.016c18.686-14.319,30.386-33.791,36.935-54.31l0,0
	l104.255,0.086L455.875,318.266L455.875,318.266z"/>
</svg>
