<?xml version="1.0" encoding="utf-8"?>
<!-- Generator: Adobe Illustrator 16.0.0, SVG Export Plug-In . SVG Version: 6.00 Build 0)  -->
<!DOCTYPE svg PUBLIC "-//W3C//DTD SVG 1.1//EN" "http://www.w3.org/Graphics/SVG/1.1/DTD/svg11.dtd">
<svg version="1.1" id="Layer_1" xmlns="http://www.w3.org/2000/svg" xmlns:xlink="http://www.w3.org/1999/xlink" x="0px" y="0px"
	 width="273.006px" height="59.155px" viewBox="0 0 273.006 59.155" enable-background="new 0 0 273.006 59.155"
	 xml:space="preserve">
<g>
	<polygon fill="#2E3192" points="176.069,58.417 184.175,18.021 210.904,18.021 209.163,29.275 197.774,29.275 197.037,33.295 
		206.818,33.295 205.21,43.879 195.027,43.879 194.223,48.234 204.473,48.234 202.866,58.551 176.069,58.417 	"/>
	<path fill="#2E3192" d="M205.545,57.413c3.081,1.273,6.632,1.742,10.115,1.742c9.647,0,17.82-6.298,19.16-13.733
		c0.469-2.948,0.066-5.36-1.005-6.968c-1.876-2.881-5.828-4.623-8.039-6.632c-3.551-3.082-0.201-4.555,2.411-4.086
		c3.283,0.536,6.097,3.082,7.303,5.225l3.216-13.935c-2.68-1.139-6.23-1.875-9.447-1.942c-13.866-0.536-18.355,8.509-19.092,13.064
		c-0.469,2.612,0.134,5.426,1.206,7.1c1.541,2.412,5.896,5.026,7.235,6.5c2.144,2.41-2.145,4.421-3.952,4.019
		c-3.35-0.736-4.958-2.21-6.432-4.488L205.545,57.413L205.545,57.413z"/>
	<path fill="#2E3192" d="M256.593,18.155h-14.002l-8.307,40.531l14.337-0.135l2.009-12.595h5.829
		c9.422,0,16.547-4.715,16.547-14.739C273.006,21.115,265.543,18.155,256.593,18.155z M258,31.554
		c-0.138,2.236-1.466,4.019-4.021,4.019h-0.938l1.072-7.034h0.669C256.424,28.539,258.137,29.316,258,31.554z"/>
	<polygon fill="#2E3192" points="88.443,18.222 82.212,50.377 44.496,50.377 44.496,51.316 80.873,57.68 97.956,57.748 
		101.171,42.808 110.685,42.808 112.627,32.559 102.98,32.559 103.985,28.07 113.966,28.07 116.11,17.351 89.648,17.351 
		91.323,10.919 52.87,10.919 52.87,11.857 88.443,18.222 	"/>
	<path fill="#2E3192" d="M164.21,17.552h-14.001l-7.904,38.454l-2.212-38.922h-16.949L103.65,57.814h14.873l1.942-4.957h6.9
		l0.269,4.957h28.605l2.01-12.46h5.828c9.423,0,16.547-4.718,16.547-14.738C180.624,20.512,173.161,17.552,164.21,17.552z
		 M124.016,42.741l4.22-12.459l0.269,12.459H124.016z M165.618,30.951c-0.562,2.422-1.678,4.02-4.019,4.02h-0.938l1.071-7.035h0.671
		C164.059,27.936,166.234,28.299,165.618,30.951z"/>
	<path fill="#2E3192" d="M0,51.584l7.571-39.793c0,0,11.456-11.725,23.045-11.791c11.59-0.066,20.701,10.919,20.701,10.919
		l-8.709,39.995c0,0-3.148-8.441-17.016-8.441C11.054,41.335,0,51.584,0,51.584L0,51.584z"/>
</g>
</svg>
