<?xml version="1.0" encoding="utf-8"?>
<!-- Generator: Adobe Illustrator 16.0.0, SVG Export Plug-In . SVG Version: 6.00 Build 0)  -->
<!DOCTYPE svg PUBLIC "-//W3C//DTD SVG 1.1//EN" "http://www.w3.org/Graphics/SVG/1.1/DTD/svg11.dtd">
<svg version="1.1" id="Layer_1" xmlns="http://www.w3.org/2000/svg" xmlns:xlink="http://www.w3.org/1999/xlink" x="0px" y="0px"
	 width="135.435px" height="30.476px" viewBox="0 0 135.435 30.476" enable-background="new 0 0 135.435 30.476"
	 xml:space="preserve">
<g>
	<path fill="#221F1F" d="M0,2.079h8.878c8.519,0,12.518,2.881,12.518,9.159c0,5.64-4.12,8.999-11.078,8.999h-2.88v9.758H0V2.079z
		 M7.438,14.958h1.92c2.56,0,4.599-0.92,4.599-3.84c0-2.84-2.04-3.76-4.599-3.76h-1.92V14.958z"/>
	<path fill="#221F1F" d="M38.237,29.995c-0.04-1.119-0.16-2.199-0.16-3.279h-0.08c-1.64,2.6-3.639,3.76-6.599,3.76
		c-4.12,0-7.799-2.04-7.799-6.56c0-6.358,6.919-7.118,10.758-7.118c1.16,0,2.439,0.119,3.359,0.279c-0.04-2.84-2.16-3.6-4.759-3.6
		c-2.319,0-4.639,0.44-6.639,1.561l-0.12-4.879c2.56-1.041,5.239-1.48,8.319-1.48c5.319,0,9.918,2.279,9.918,8.639v7.759
		c0,1.64,0.08,3.279,0.4,4.919H38.237z M33.278,25.676c2.72,0,4.439-2.479,4.439-4.919c-0.92-0.04-1.959-0.12-3.04-0.12
		c-2.439,0-4.359,0.76-4.359,2.759C30.318,24.836,31.598,25.676,33.278,25.676z"/>
	<path fill="#221F1F" d="M71.555,29.995h-6.639v-3.719h-0.08c-0.92,2.318-3.839,4.199-7.159,4.199
		c-6.199,0-9.519-5.119-9.519-11.279c0-5.119,3.16-10.518,8.918-10.518c2.879,0,5.319,0.76,7.159,3.16h0.08V0h7.239V29.995z
		 M59.957,24.956c2.4,0,4.399-2.279,4.399-5.319c0-3.159-1.76-5.438-4.399-5.438c-2.799,0-4.359,2.398-4.359,5.158
		C55.598,22.677,57.238,24.956,59.957,24.956z"/>
	<path fill="#F78F1E" d="M74.159,9.159h4.239v-4.68l7.079-2.199v6.879h5.039v5.039h-5.039v7.678c0,2.52,0.6,3.8,2.88,3.8
		c0.719,0,1.479-0.159,2.199-0.28l0.24,4.68c-1.36,0.16-2.721,0.4-4.52,0.4c-6.439,0-7.999-2.84-7.999-7.799v-8.479h-4.119V9.159z"
		/>
	<path fill="#F78F1E" d="M100.157,21.677c0.399,2.879,2.6,3.999,6.119,3.999c1.96,0,4.199-0.44,6.358-1.6v5.079
		c-2.319,0.92-4.959,1.32-7.639,1.32c-6.879,0-12.117-4.04-12.117-10.919c0-6.878,4.679-10.878,11.158-10.878
		c7.719,0,10.518,5.479,10.518,11.678v1.32H100.157z M108.076,17.597c0-2.398-1.12-4.359-4-4.359c-2.6,0-3.839,1.961-3.999,4.359
		H108.076z"/>
	<path fill="#F78F1E" d="M134.755,15.118c-1.32-0.801-2.64-1.16-4.359-1.16c-3.119,0-5.52,2.16-5.52,5.759
		c0,3.319,2.8,5.479,5.919,5.479c1.64,0,3.28-0.36,4.479-1l0.16,5.359c-1.8,0.6-3.959,0.92-5.879,0.92
		c-6.879,0-12.118-4-12.118-10.879c0-6.918,5.239-10.918,12.118-10.918c2.159,0,4.079,0.359,5.719,1.16L134.755,15.118z"/>
</g>
</svg>
