<?xml version="1.0" encoding="utf-8"?>
<!-- Generator: Adobe Illustrator 16.0.0, SVG Export Plug-In . SVG Version: 6.00 Build 0)  -->
<!DOCTYPE svg PUBLIC "-//W3C//DTD SVG 1.1//EN" "http://www.w3.org/Graphics/SVG/1.1/DTD/svg11.dtd">
<svg version="1.1" id="Layer_1" xmlns="http://www.w3.org/2000/svg" xmlns:xlink="http://www.w3.org/1999/xlink" x="0px" y="0px"
	 width="672.013px" height="102.215px" viewBox="0 0 672.013 102.215" enable-background="new 0 0 672.013 102.215"
	 xml:space="preserve">
<path fill="#231F20" d="M607.657,77.126l12.411-21.848c1.311-2.315,4.242-3.473,8.795-3.473h32.682l2.217-3.907H631.08
	c-9.676,0-15.908,2.459-18.696,7.379l-12.41,21.848c-1.265,2.219-4.174,3.328-8.728,3.328h-30.831l-2.217,3.907h30.831
	C598.737,84.361,604.946,81.949,607.657,77.126 M562.027,80.454h-31.59c-4.585,0-6.206-1.157-4.864-3.473l12.342-21.704
	c1.311-2.315,4.242-3.473,8.796-3.473h31.59l2.217-3.907h-31.59c-9.676,0-15.908,2.459-18.696,7.379l-12.343,21.704
	c-2.788,4.92,0.656,7.38,10.332,7.38h31.59L562.027,80.454z M522.033,47.898l-20.706,36.463h7.684l20.707-36.463H522.033z
	 M475.883,51.877h25.614c4.553,0,6.175,1.158,4.864,3.473l-16.524,29.083h7.685l16.524-29.083c2.787-4.919-0.656-7.379-10.332-7.379
	h-25.613c-9.677,0-15.89,2.436-18.64,7.307l-16.582,29.156h7.684l16.583-29.156C468.417,53.011,471.33,51.877,475.883,51.877z
	 M427.32,80.454h-25.614c-4.585,0-6.207-1.157-4.864-3.473l12.342-21.704c1.311-2.315,4.242-3.473,8.796-3.473h25.613
	c4.554,0,6.175,1.158,4.865,3.473l-12.411,21.848C434.782,79.345,431.873,80.454,427.32,80.454z M401.5,55.278l-12.343,21.704
	c-2.788,4.92,0.656,7.38,10.332,7.38h25.614c9.707,0,15.917-2.412,18.628-7.235l12.41-21.848c2.788-4.92-0.655-7.379-10.332-7.379
	h-25.613C410.519,47.898,404.288,50.358,401.5,55.278z M346.391,47.898l-2.217,3.907h8.396l-14.376,25.321
	c-2.711,4.823,0.756,7.235,10.4,7.235h30.736l2.217-3.907h-30.736c-4.554,0-6.198-1.109-4.933-3.328l14.376-25.321h37.471
	l2.217-3.907h-37.471l2.72-4.775h-7.684l-2.72,4.775H346.391z M315.569,80.454h-25.614c-4.585,0-6.207-1.157-4.865-3.473
	l12.342-21.704c1.31-2.315,4.242-3.473,8.795-3.473h25.614c4.553,0,6.175,1.158,4.865,3.473l-12.41,21.848
	C323.031,79.345,320.122,80.454,315.569,80.454z M289.749,55.278l-12.342,21.704c-2.788,4.92,0.656,7.38,10.332,7.38h25.613
	c9.708,0,15.917-2.412,18.628-7.235l12.411-21.848c2.789-4.92-0.656-7.379-10.332-7.379h-25.614
	C298.769,47.898,292.537,50.358,289.749,55.278z M217.111,84.361h7.684l11.782-20.764h29.266c4.554,0,6.175,1.157,4.865,3.473
	l-9.874,17.363h7.684l9.874-17.363c2.789-4.92-0.656-7.379-10.332-7.379h-29.266l9.428-16.567h-7.684L217.111,84.361z"/>
<rect x="241.98" y="37.377" fill-rule="evenodd" clip-rule="evenodd" fill="#EC1C24" width="287.708" height="0.75"/>
<rect x="241.98" y="37.377" fill="none" stroke="#EC1C24" stroke-width="1.4173" stroke-miterlimit="22.9256" width="287.708" height="0.75"/>
<rect x="528.845" y="37.386" fill-rule="evenodd" clip-rule="evenodd" fill="#EC1C24" width="10.329" height="0.75"/>
<rect x="528.475" y="28.595" fill-rule="evenodd" clip-rule="evenodd" fill="#EC1C24" width="0.75" height="18.263"/>
<rect x="519.744" y="37.396" transform="matrix(-0.5 -0.866 0.866 -0.5 760.5857 514.6843)" fill-rule="evenodd" clip-rule="evenodd" fill="#EC1C24" width="18.263" height="0.749"/>
<rect x="519.743" y="37.343" transform="matrix(-0.866 -0.5 0.5 -0.866 968.0399 334.8133)" fill-rule="evenodd" clip-rule="evenodd" fill="#EC1C24" width="18.264" height="0.749"/>
<rect x="519.753" y="37.352" transform="matrix(0.866 -0.5 0.5 0.866 51.996 269.5018)" fill-rule="evenodd" clip-rule="evenodd" fill="#EC1C24" width="18.263" height="0.75"/>
<rect x="519.726" y="37.352" transform="matrix(0.5 -0.866 0.866 0.5 231.7516 476.8647)" fill-rule="evenodd" clip-rule="evenodd" fill="#EC1C24" width="18.263" height="0.75"/>
<rect x="522.385" y="37.356" transform="matrix(0.2589 -0.9659 0.9659 0.2589 355.5067 538.7927)" fill-rule="evenodd" clip-rule="evenodd" fill="#EC1C24" width="12.943" height="0.75"/>
<rect x="522.392" y="37.33" transform="matrix(-0.2589 -0.9659 0.9659 -0.2589 629.3495 558.3019)" fill-rule="evenodd" clip-rule="evenodd" fill="#EC1C24" width="12.943" height="0.75"/>
<rect x="522.399" y="37.384" transform="matrix(-0.7071 -0.7071 0.7071 -0.7071 876.1399 438.4266)" fill-rule="evenodd" clip-rule="evenodd" fill="#EC1C24" width="12.943" height="0.75"/>
<rect x="522.407" y="37.37" transform="matrix(-0.9659 -0.2588 0.2588 -0.9659 1029.9705 211.076)" fill-rule="evenodd" clip-rule="evenodd" fill="#EC1C24" width="12.943" height="0.749"/>
<rect x="522.407" y="37.37" transform="matrix(0.9659 -0.2588 0.2588 0.9659 8.2499 138.1591)" fill-rule="evenodd" clip-rule="evenodd" fill="#EC1C24" width="12.943" height="0.749"/>
<rect x="522.354" y="37.339" transform="matrix(0.7071 -0.7071 0.7071 0.7071 128.2214 384.9821)" fill-rule="evenodd" clip-rule="evenodd" fill="#EC1C24" width="12.943" height="0.75"/>
<line fill="none" stroke="#7D0578" stroke-width="2.5333" stroke-miterlimit="22.9256" x1="79.129" y1="100.986" x2="113.287" y2="47.298"/>
<line fill="none" stroke="#2B3693" stroke-width="2.5333" stroke-miterlimit="22.9256" x1="76.303" y1="100.986" x2="110.461" y2="47.298"/>
<line fill="none" stroke="#0800FF" stroke-width="2.5333" stroke-miterlimit="22.9256" x1="73.468" y1="100.986" x2="107.626" y2="47.298"/>
<line fill="none" stroke="#00A551" stroke-width="2.5333" stroke-miterlimit="22.9256" x1="70.652" y1="100.986" x2="104.811" y2="47.298"/>
<line fill="none" stroke="#FFF100" stroke-width="2.5333" stroke-miterlimit="22.9256" x1="67.864" y1="100.986" x2="102.023" y2="47.298"/>
<line fill="none" stroke="#F48120" stroke-width="2.5333" stroke-miterlimit="22.9256" x1="65.035" y1="100.986" x2="99.193" y2="47.298"/>
<line fill="none" stroke="#EC1C24" stroke-width="2.5333" stroke-miterlimit="22.9256" x1="62.232" y1="100.987" x2="96.391" y2="47.298"/>
<line fill="none" stroke="#7D0578" stroke-width="1.9715" stroke-miterlimit="22.9256" x1="86.12" y1="89.964" x2="672.013" y2="89.968"/>
<line fill="none" stroke="#2B3693" stroke-width="1.9806" stroke-miterlimit="22.9256" x1="82.222" y1="91.818" x2="666.246" y2="91.822"/>
<line fill="none" stroke="#0800FF" stroke-width="1.9903" stroke-miterlimit="22.9256" x1="78.542" y1="93.707" x2="660.963" y2="93.711"/>
<line fill="none" stroke="#00A551" stroke-width="2.0038" stroke-miterlimit="22.9256" x1="74.042" y1="95.583" x2="656.897" y2="95.587"/>
<line fill="none" stroke="#FFF100" stroke-width="2.0143" stroke-miterlimit="22.9256" x1="69.545" y1="97.439" x2="651.003" y2="97.444"/>
<line fill="none" stroke="#F48120" stroke-width="2.0273" stroke-miterlimit="22.9256" x1="65.14" y1="99.325" x2="646.482" y2="99.329"/>
<line fill="none" stroke="#EC1C24" stroke-width="2.0394" stroke-miterlimit="22.9256" x1="61.071" y1="101.192" x2="641.531" y2="101.195"/>
<path fill-rule="evenodd" clip-rule="evenodd" fill="#EC1C24" d="M89.271,60.866l37.902-58.469h83.042
	c11.616,0,27.759,1.118,31.485,14.809c1.372,5.042,0.25,10.258-2.562,14.582l-10.044,15.441l-0.045,0.068
	c-7.983,11.974-24.993,13.569-38.088,13.569H89.271z M84.86,63.264L125.871,0h84.345c12.846,0,29.709,1.552,33.798,16.577
	c1.551,5.701,0.318,11.624-2.866,16.518l-10.052,15.453l-0.052,0.079c-8.523,12.785-26.058,14.637-40.083,14.637H84.86z"/>
<path fill-rule="evenodd" clip-rule="evenodd" fill="#F48120" d="M93.682,58.469l34.794-53.675h81.739
	c10.364,0,25.813,0.701,29.172,13.042c1.192,4.382,0.182,8.894-2.259,12.645l-10.037,15.43l-0.037,0.056
	c-7.434,11.15-23.945,12.502-36.094,12.502H93.682z M89.271,60.866l37.902-58.469h83.042c11.616,0,27.759,1.118,31.485,14.809
	c1.372,5.042,0.25,10.258-2.562,14.582l-10.044,15.441l-0.045,0.068c-7.983,11.974-24.993,13.569-38.088,13.569H89.271z"/>
<path fill-rule="evenodd" clip-rule="evenodd" fill="#FFF100" d="M98.093,56.072l31.686-48.88h80.437
	c9.066,0,23.89,0.366,26.859,11.273c1.013,3.722,0.113,7.529-1.955,10.708L225.09,44.592l-0.03,0.045
	c-6.873,10.31-22.915,11.434-34.099,11.434H98.093z M93.682,58.469l34.794-53.675h81.739c10.364,0,25.813,0.701,29.172,13.042
	c1.192,4.382,0.182,8.894-2.259,12.645l-10.037,15.43l-0.037,0.056c-7.434,11.15-23.945,12.502-36.094,12.502H93.682z"/>
<path fill-rule="evenodd" clip-rule="evenodd" fill="#00A551" d="M102.504,53.675l28.578-44.086h79.134
	c7.715,0,21.984,0.094,24.545,9.506c0.836,3.073,0.051,6.155-1.651,8.771l-10.045,15.441c-6.3,9.449-21.906,10.367-32.104,10.367
	H102.504z M98.093,56.072l31.686-48.88h80.437c9.066,0,23.89,0.366,26.859,11.273c1.013,3.722,0.113,7.529-1.955,10.708
	L225.09,44.592l-0.03,0.045c-6.873,10.31-22.915,11.434-34.099,11.434H98.093z"/>
<path fill-rule="evenodd" clip-rule="evenodd" fill="#0800FF" d="M106.915,51.277l25.47-39.291h77.831
	c4.418,0,9.436,0.154,13.745,1.184c3.622,0.865,7.421,2.636,8.488,6.555c0.654,2.406-0.021,4.796-1.348,6.834l-10.03,15.419
	c-5.71,8.565-20.924,9.299-30.109,9.299H106.915z M102.504,53.675l28.578-44.086h79.134c7.715,0,21.984,0.094,24.545,9.506
	c0.836,3.073,0.051,6.155-1.651,8.771l-10.045,15.441c-6.3,9.449-21.906,10.367-32.104,10.367H102.504z"/>
<path fill-rule="evenodd" clip-rule="evenodd" fill="#2B3693" d="M111.326,48.88l22.362-34.496h76.528
	c4.215,0,9.076,0.136,13.188,1.118c2.682,0.641,5.928,1.899,6.731,4.853c0.469,1.725-0.1,3.447-1.044,4.898l-10.015,15.396
	c-5.102,7.653-19.972,8.231-28.115,8.231H111.326z M106.915,51.277l25.47-39.291h77.831c4.418,0,9.436,0.154,13.745,1.184
	c3.622,0.865,7.421,2.636,8.488,6.555c0.654,2.406-0.021,4.796-1.348,6.834l-10.03,15.419c-5.71,8.565-20.924,9.299-30.109,9.299
	H106.915z"/>
<path fill-rule="evenodd" clip-rule="evenodd" fill="#7D0578" d="M115.737,46.483l19.254-29.702h75.225
	c14.329,0,19.951,2.388,16.866,7.165l-10,15.373c-3.184,4.776-11.891,7.165-26.12,7.165H115.737z M111.326,48.88l22.362-34.496
	h76.528c4.215,0,9.076,0.136,13.188,1.118c2.682,0.641,5.928,1.899,6.731,4.853c0.469,1.725-0.1,3.447-1.044,4.898l-10.015,15.396
	c-5.102,7.653-19.972,8.231-28.115,8.231H111.326z"/>
<line fill="none" stroke="#7D0578" stroke-width="2.5758" stroke-miterlimit="22.9256" x1="177.225" y1="47.764" x2="0" y2="47.765"/>
<line fill="none" stroke="#2B3693" stroke-width="2.4068" stroke-miterlimit="22.9256" x1="177.225" y1="50.111" x2="6.068" y2="50.112"/>
<line fill="none" stroke="#0800FF" stroke-width="2.6742" stroke-miterlimit="22.9256" x1="177.225" y1="52.461" x2="11.615" y2="52.462"/>
<line fill="none" stroke="#00A551" stroke-width="2.4068" stroke-miterlimit="22.9256" x1="177.225" y1="54.806" x2="15.898" y2="54.807"/>
<line fill="none" stroke="#FFF100" stroke-width="2.6742" stroke-miterlimit="22.9256" x1="177.225" y1="57.211" x2="22.125" y2="57.212"/>
<line fill="none" stroke="#F48120" stroke-width="2.6742" stroke-miterlimit="22.9256" x1="177.225" y1="59.57" x2="26.891" y2="59.571"/>
<line fill="none" stroke="#EC1C24" stroke-width="2.4068" stroke-miterlimit="22.9256" x1="177.225" y1="61.933" x2="32.098" y2="61.934"/>
</svg>
