<?xml version="1.0" encoding="utf-8"?>
<!-- Generator: Adobe Illustrator 16.0.0, SVG Export Plug-In . SVG Version: 6.00 Build 0)  -->
<!DOCTYPE svg PUBLIC "-//W3C//DTD SVG 1.1//EN" "http://www.w3.org/Graphics/SVG/1.1/DTD/svg11.dtd">
<svg version="1.1" id="Layer_1" xmlns="http://www.w3.org/2000/svg" xmlns:xlink="http://www.w3.org/1999/xlink" x="0px" y="0px"
	 width="174.258px" height="93.643px" viewBox="0 0 174.258 93.643" enable-background="new 0 0 174.258 93.643"
	 xml:space="preserve">
<path fill="#FFFFFF" d="M105.661,34.464c-16.945,0-33.889-0.006-50.833,0.005c-3.262,0.002-6.327-0.726-9.106-2.434
	c-4.826-2.964-7.712-7.25-8.334-12.91c-1.043-9.49,5.652-17.838,15.184-19.024c0.686-0.085,1.386-0.084,2.079-0.084
	c34.146-0.004,68.293-0.054,102.439,0.037c7.308,0.02,12.691,3.652,15.667,10.309c4.616,10.329-1.869,22.024-13.051,23.868
	c-0.879,0.145-1.779,0.224-2.669,0.225C139.91,34.468,122.786,34.464,105.661,34.464z M105.823,31.515
	c14.222,0,28.443,0.002,42.665-0.012c0.44,0,0.968-0.052,1.306-0.291c2.099-1.476,3.913-3.25,5.306-5.422
	c2.234-3.482,2.773-7.313,2.177-11.322c-0.673-4.53-2.771-8.232-6.647-10.822c-0.703-0.47-1.427-0.708-2.3-0.706
	c-13.244,0.022-26.489,0.016-39.733,0.016c-15.096,0-30.192,0.004-45.288-0.013c-0.813-0.001-1.555,0.128-2.141,0.677
	c-1.045,0.979-2.206,1.89-3.033,3.035c-2.937,4.067-4.264,8.608-3.201,13.601c0.949,4.458,3.439,8.033,6.944,10.9
	c0.33,0.27,0.899,0.345,1.357,0.345C77.43,31.518,91.627,31.515,105.823,31.515z"/>
<path fill="#FFFFFF" d="M38.707,74.9c-0.279,1.244-0.532,2.357-0.778,3.471c-1.076,4.879-2.157,9.756-3.211,14.64
	c-0.102,0.474-0.277,0.633-0.756,0.631c-4.73-0.015-9.461-0.01-14.192-0.012c-0.074,0-0.148-0.021-0.349-0.051
	c0.246-1.178,0.479-2.343,0.734-3.504c3.591-16.394,7.186-32.786,10.776-49.179c0.373-1.703,0.367-1.704,2.144-1.704
	c3.728,0,7.456-0.001,11.184,0.002c0.328,0,0.656,0.028,1.114,0.05c-0.405,1.904-0.792,3.729-1.181,5.555
	c0.059,0.029,0.118,0.058,0.176,0.087c0.502-0.46,1.008-0.917,1.507-1.382c2.687-2.5,5.724-4.339,9.402-4.946
	c2.534-0.418,5.071-0.438,7.556,0.276c4.34,1.247,6.562,4.434,7.659,8.583c1,3.784,0.764,7.581-0.008,11.365
	c-0.922,4.523-2.437,8.816-5.28,12.516c-3.278,4.266-7.471,7.19-12.863,8.057c-4.121,0.663-8.113,0.314-11.556-2.4
	C40.069,76.391,39.475,75.669,38.707,74.9z M55.907,55.108c0-0.283,0.012-0.566-0.002-0.848c-0.157-3.242-2.405-5.235-5.579-4.914
	c-2.808,0.285-4.822,1.847-6.2,4.189c-1.754,2.979-2.614,6.258-2.468,9.713c0.154,3.655,2.813,5.77,6.605,5.075
	c2.343-0.429,4.011-1.923,5.158-3.948C55.043,61.512,55.713,58.367,55.907,55.108z"/>
<path fill="#FFFFFF" d="M119.824,78.633c0.589-2.679,1.16-5.28,1.732-7.88c2.243-10.185,4.495-20.369,6.715-30.559
	c0.165-0.758,0.434-1.032,1.25-1.022c4.011,0.048,8.022,0.022,12.034,0.022c0.276,0,0.553,0,0.949,0
	c-0.465,2.154-0.905,4.19-1.345,6.228c0.048,0.032,0.097,0.064,0.145,0.097c0.238-0.21,0.479-0.416,0.712-0.631
	c2.758-2.549,5.686-4.843,9.39-5.853c3.397-0.926,6.839-1.134,10.254-0.116c3.662,1.092,5.872,4.142,6.054,7.966
	c0.157,3.282-0.584,6.423-1.279,9.578c-1.571,7.132-3.173,14.257-4.727,21.392c-0.145,0.664-0.388,0.859-1.055,0.855
	c-4.422-0.029-8.845-0.016-13.268-0.016c-0.276,0-0.551,0-0.973,0c0.27-1.264,0.506-2.407,0.756-3.547
	c1.389-6.333,2.786-12.663,4.163-18.998c0.135-0.623,0.206-1.269,0.225-1.906c0.097-3.214-1.942-4.381-4.607-4.168
	c-3.322,0.266-5.44,2.279-6.507,5.247c-0.94,2.615-1.565,5.353-2.198,8.067c-1.135,4.866-2.178,9.753-3.243,14.635
	c-0.094,0.434-0.215,0.68-0.727,0.679c-4.68-0.016-9.36-0.01-14.04-0.013C120.136,78.687,120.037,78.662,119.824,78.633z"/>
<path fill="#FFFFFF" d="M116.358,68.649c-0.767,0.873-1.438,1.67-2.143,2.435c-4.508,4.894-10.054,7.657-16.707,8.24
	c-4.341,0.38-8.655,0.448-12.964-0.33c-7.594-1.372-10.694-6.987-11.328-11.969c-1.203-9.457,3.589-20.286,13.473-25.545
	c3.308-1.76,6.842-2.759,10.571-3.036c4.245-0.315,8.472-0.25,12.603,0.941c5.827,1.68,9.261,5.876,9.879,11.92
	c0.377,3.686-0.267,7.255-1.05,10.823c-0.137,0.621-0.526,0.513-0.917,0.514c-5.682,0.003-11.364,0.002-17.046,0.002
	c-3.908,0-7.816,0.012-11.724-0.012c-0.652-0.004-0.972,0.135-1.01,0.861c-0.099,1.832,0.008,3.604,1.167,5.134
	c1.317,1.739,3.183,2.298,5.246,2.21c2.494-0.106,4.737-0.981,6.515-2.76c0.742-0.743,1.519-0.804,2.433-0.716
	c3.78,0.363,7.561,0.711,11.341,1.071C115.198,68.481,115.697,68.562,116.358,68.649z M89.727,55.432
	c0.238,0.052,0.358,0.103,0.479,0.103c4.705,0.006,9.41,0.005,14.115,0.014c0.48,0,0.633-0.261,0.636-0.674
	c0.008-0.925,0.082-1.858-0.007-2.774c-0.221-2.25-1.212-4.046-3.536-4.607c-1.213-0.293-2.58-0.406-3.792-0.168
	C93.223,48.189,91.069,51.369,89.727,55.432z"/>
<path fill="#FFFFFF" d="M0,78.692c0.198-0.977,0.362-1.846,0.551-2.709c2.453-11.19,4.909-22.379,7.364-33.568
	c0.198-0.901,0.372-1.809,0.623-2.694c0.06-0.213,0.382-0.5,0.585-0.501c4.68-0.027,9.361-0.019,14.042-0.013
	c0.121,0,0.241,0.061,0.457,0.118c-0.241,1.143-0.47,2.265-0.715,3.384c-2.559,11.691-5.125,23.381-7.665,35.077
	c-0.154,0.71-0.424,0.934-1.162,0.927c-4.372-0.039-8.744-0.019-13.116-0.019C0.687,78.692,0.409,78.692,0,78.692z"/>
<path fill="#FFFFFF" d="M9.722,34.159c0.281-1.27,0.548-2.463,0.809-3.658c0.42-1.925,0.841-3.851,1.248-5.779
	c0.077-0.368,0.189-0.595,0.634-0.594c4.751,0.014,9.503,0.012,14.255,0.017c0.07,0,0.141,0.044,0.277,0.09
	c-0.481,2.199-0.961,4.394-1.444,6.589c-0.214,0.975-0.408,1.956-0.673,2.917c-0.057,0.207-0.377,0.487-0.578,0.488
	c-4.7,0.026-9.401,0.018-14.101,0.014C10.05,34.242,9.952,34.206,9.722,34.159z"/>
<path fill="#FFFFFF" d="M105.784,27.601c-10.208,0-20.416,0.004-30.624-0.001C70,27.596,65.881,24.248,64.802,19.2
	c-1.204-5.639,2.896-11.439,8.637-12.202c0.634-0.084,1.277-0.134,1.917-0.134c20.391-0.007,40.781-0.006,61.171-0.006
	c5.267,0,9.84,4.146,10.323,9.357c0.493,5.32-3.15,10.203-8.38,11.206c-0.6,0.115-1.22,0.172-1.831,0.172
	C126.355,27.604,116.069,27.601,105.784,27.601z M105.811,8.744c-8.483,0-16.967-0.009-25.45,0.021
	c-0.519,0.002-1.137,0.191-1.54,0.508c-2.391,1.876-3.515,4.451-3.696,7.414c-0.206,3.373,1.372,6.021,3.665,8.334
	c0.545,0.55,1.142,0.765,1.919,0.762c6.812-0.023,13.625-0.013,20.437-0.014c9.948,0,19.897,0.003,29.846-0.015
	c0.462-0.001,1.021-0.07,1.37-0.33c2.425-1.803,4.122-4.093,4.338-7.218c0.25-3.606-0.784-6.711-3.822-8.902
	c-0.46-0.332-1.124-0.537-1.694-0.54C122.726,8.732,114.269,8.742,105.811,8.744z"/>
<path fill="#FFFFFF" d="M105.713,22.976c-5.656,0-11.312,0.019-16.967-0.008c-3.141-0.015-5.664-2.604-5.666-5.727
	c-0.002-3.151,2.56-5.749,5.728-5.753c8.355-0.013,16.71-0.004,25.065-0.004c2.905,0,5.811-0.003,8.715,0
	c3.238,0.003,5.8,2.54,5.808,5.745c0.008,3.199-2.558,5.748-5.793,5.75c-5.63,0.002-11.26,0-16.89,0
	C105.713,22.978,105.713,22.977,105.713,22.976z M105.767,12.613c-4.471,0-8.943,0.031-13.413-0.023
	c-1.034-0.013-1.7,0.406-2.26,1.169c-1.81,2.464-1.429,5.752,0.928,7.755c0.228,0.193,0.594,0.316,0.896,0.316
	c9.25,0.016,18.501,0.015,27.751,0.004c0.266,0,0.574-0.067,0.79-0.212c2.754-1.845,3.086-6.095,0.673-8.34
	c-0.491-0.457-1.018-0.688-1.721-0.684C114.863,12.627,110.315,12.613,105.767,12.613z"/>
<path fill="#FFFFFF" d="M105.702,20.176c-2.699,0-5.397,0.003-8.096-0.001c-1.89-0.003-3.255-1.248-3.26-2.961
	c-0.004-1.639,1.396-2.927,3.227-2.93c5.449-0.007,10.898-0.006,16.347,0.001c1.898,0.002,3.202,1.249,3.184,3.01
	c-0.017,1.69-1.345,2.879-3.227,2.88C111.152,20.177,108.427,20.176,105.702,20.176z"/>
</svg>
