<?xml version="1.0" encoding="utf-8"?>
<!-- Generator: Adobe Illustrator 16.0.0, SVG Export Plug-In . SVG Version: 6.00 Build 0)  -->
<!DOCTYPE svg PUBLIC "-//W3C//DTD SVG 1.1//EN" "http://www.w3.org/Graphics/SVG/1.1/DTD/svg11.dtd">
<svg version="1.1" id="Layer_1" xmlns="http://www.w3.org/2000/svg" xmlns:xlink="http://www.w3.org/1999/xlink" x="0px" y="0px"
	 width="293.063px" height="117.24px" viewBox="0 0 293.063 117.24" enable-background="new 0 0 293.063 117.24"
	 xml:space="preserve">
<g>
	<path fill="#FFFFFF" d="M61.233,51.052c-0.02-0.02-0.036-0.034-0.051-0.049c-0.015,0.029-0.034,0.059-0.044,0.088
		c0,0.01,0.029,0.029,0.044,0.044C61.197,51.105,61.218,51.081,61.233,51.052 M46.721,47.463c-0.015-0.044-0.029-0.083-0.049-0.117
		c-0.02,0.029-0.044,0.054-0.062,0.088c-0.005,0.02,0.022,0.063,0.027,0.059C46.667,47.487,46.697,47.473,46.721,47.463
		 M61.072,66.263c0.195,0.215,0.386,0.439,0.591,0.645c5.87,5.869,11.741,11.739,17.611,17.608c0.153,0.156,0.319,0.308,0.464,0.474
		c0.642,0.718,0.642,1.621,0.005,2.222c-0.613,0.586-1.494,0.576-2.163-0.093c-4.456-4.453-8.897-8.921-13.341-13.38
		c-1.641-1.646-3.281-3.286-4.922-4.927c-0.12-0.122-0.234-0.259-0.508-0.21c0.713,1.24,1.418,2.461,2.124,3.682
		c6.704,11.612,13.411,23.229,20.115,34.851c0.596,1.035,0.376,2.021-0.529,2.417c-0.791,0.342-1.536,0.044-2.061-0.864
		c-1.956-3.379-3.899-6.758-5.851-10.137c-5.391-9.337-10.781-18.673-16.175-28.005c-0.119-0.205-0.186-0.454-0.52-0.659
		c0.244,0.957,0.454,1.816,0.684,2.671c1.579,5.885,3.166,11.773,4.746,17.652c0.28,1.025-0.005,1.777-0.776,2.104
		c-0.923,0.396-1.81-0.093-2.104-1.177c-0.936-3.457-1.855-6.919-2.786-10.381c-0.83-3.105-1.657-6.212-2.488-9.317
		c-0.056-0.205-0.127-0.405-0.347-0.586v0.82c0,14.503,0,29.011-0.005,43.518c0,0.312,0,0.635-0.063,0.942
		c-0.181,0.884-0.72,1.191-1.831,1.089c-0.61-0.059-1.074-0.61-1.12-1.328c-0.01-0.215,0-0.435,0-0.654V71.355v-0.859
		c-0.034-0.005-0.068-0.015-0.101-0.02c-0.598,2.227-1.198,4.448-1.799,6.676c-1.24,4.639-2.48,9.277-3.716,13.916
		c-0.174,0.654-0.488,1.182-1.199,1.333c-0.601,0.132-1.111-0.059-1.502-0.527c-0.402-0.488-0.373-1.016-0.22-1.592
		c1.36-5.059,2.716-10.117,4.061-15.187c0.447-1.67,0.867-3.345,1.297-5.02c0.09-0.083,0.129-0.176,0.034-0.283
		c-0.034,0.073-0.071,0.146-0.101,0.225c-0.91,1.299-1.631,2.71-2.424,4.072c-6.637,11.48-13.261,22.971-19.887,34.455
		c-0.249,0.43-0.5,0.859-0.991,1.03c-0.635,0.225-1.213,0.098-1.665-0.41c-0.474-0.537-0.508-1.162-0.173-1.768
		c0.759-1.362,1.56-2.705,2.339-4.053c6.589-11.422,13.187-22.843,19.782-34.265c0.061-0.103,0.095-0.22,0.144-0.327
		c0.091-0.073,0.19-0.181,0.101-0.273c-0.12-0.117-0.164,0.059-0.229,0.122c-0.215,0.2-0.439,0.391-0.646,0.596
		c-4.595,4.595-9.185,9.186-13.779,13.775c-0.205,0.205-0.415,0.42-0.657,0.581c-0.618,0.396-1.384,0.293-1.88-0.21
		c-0.474-0.498-0.559-1.304-0.164-1.89c0.181-0.259,0.41-0.488,0.63-0.713c4.538-4.536,9.08-9.078,13.621-13.619
		c0.205-0.21,0.397-0.43,0.593-0.645c0.071-0.078,0.142-0.146,0.205-0.22c0.062-0.024,0.142-0.054,0.081-0.137
		c-0.015-0.015-0.11,0.024-0.171,0.044c-0.088,0.059-0.184,0.112-0.273,0.166c-3.025,1.729-6.055,3.452-9.075,5.19
		c-9.742,5.616-19.471,11.241-29.208,16.861c-0.894,0.518-1.57,0.479-2.124-0.098c-0.486-0.508-0.564-1.226-0.21-1.821
		c0.21-0.352,0.554-0.542,0.896-0.737c6.5-3.755,13.003-7.51,19.51-11.266c6.209-3.584,12.42-7.163,18.631-10.747
		c0.179-0.107,0.354-0.234,0.483-0.464c-1.24,0.332-2.485,0.659-3.723,0.991c-5.506,1.475-11.012,2.954-16.517,4.434
		c-1.365,0.366-2.334-0.303-2.224-1.543c0.068-0.806,0.603-1.162,1.323-1.348c3.252-0.869,6.497-1.748,9.742-2.617
		c3.344-0.889,6.69-1.782,10.03-2.676c0.181-0.044,0.356-0.107,0.515-0.322h-0.82c-12.105,0-24.215-0.01-36.325,0.01
		C1.15,60.184,0.464,59.974,0,59.197v-1.172c0.564-0.757,1.331-0.894,2.234-0.894c12.112,0.02,24.222,0.015,36.332,0.015h0.85
		c-0.21-0.161-0.435-0.229-0.659-0.288c-6.609-1.772-13.226-3.541-19.839-5.313c-1.077-0.288-1.582-1.069-1.311-1.997
		c0.244-0.83,1.05-1.191,2.085-0.918c4.121,1.094,8.235,2.202,12.361,3.296c2.583,0.688,5.179,1.362,7.769,2.037
		c0.096,0.083,0.19,0.137,0.306,0.039c-0.076-0.044-0.145-0.088-0.22-0.137c-0.159-0.108-0.315-0.235-0.481-0.328
		c-7.788-4.502-15.584-8.999-23.38-13.501c-4.919-2.842-9.839-5.679-14.761-8.521c-0.825-0.479-1.145-1.133-0.93-1.86
		c0.31-1.05,1.387-1.367,2.495-0.723c11.197,6.466,22.386,12.936,33.588,19.386c1.665,0.957,3.284,1.997,5.02,2.832
		c0.024,0.068,0.062,0.112,0.135,0.073c-0.024-0.044-0.054-0.088-0.081-0.127c-0.173-0.205-0.334-0.42-0.52-0.605
		c-4.705-4.722-9.41-9.434-14.119-14.155c-0.276-0.273-0.56-0.542-0.64-0.952c-0.142-0.708,0.149-1.357,0.755-1.675
		c0.615-0.332,1.289-0.21,1.86,0.352c2.285,2.275,4.556,4.561,6.841,6.836c2.624,2.622,5.254,5.234,7.884,7.852
		c0.08,0.068,0.156,0.132,0.236,0.205c0.02,0.054,0.034,0.122,0.115,0.073c0.01-0.005-0.032-0.098-0.052-0.151
		c-0.049-0.093-0.1-0.186-0.148-0.278c-0.101-0.195-0.19-0.396-0.296-0.586c-6.255-10.835-12.511-21.666-18.766-32.501
		c-1.072-1.86-2.156-3.711-3.21-5.582c-0.449-0.791-0.195-1.694,0.535-2.095c0.754-0.415,1.589-0.166,2.08,0.605
		c0.139,0.229,0.271,0.469,0.405,0.698c7.195,12.457,14.386,24.918,21.581,37.375c0.139,0.239,0.205,0.562,0.524,0.669
		c0.086-0.234-0.015-0.435-0.07-0.645c-0.345-1.27-0.679-2.544-1.019-3.813c-1.406-5.249-2.815-10.499-4.217-15.748
		c-0.344-1.299,0.511-2.314,1.722-2.056c0.735,0.161,1.05,0.708,1.235,1.387c1.57,5.908,3.149,11.822,4.729,17.726
		c0.244,0.923,0.505,1.836,0.754,2.749c0.042-0.01,0.076-0.015,0.11-0.024v-0.806c0-14.601,0.005-29.2-0.015-43.801
		C49.802,1.265,49.968,0.532,50.703,0h1.17c0.759,0.474,0.979,1.167,0.979,2.046c-0.015,14.527-0.01,29.059-0.01,43.591v0.864
		c0.052,0.01,0.101,0.015,0.151,0.024c0.301-1.089,0.61-2.173,0.899-3.267c1.491-5.576,2.98-11.158,4.465-16.744
		c0.052-0.186,0.105-0.376,0.171-0.562c0.291-0.83,1.025-1.235,1.846-1.025c0.774,0.195,1.255,0.981,1.04,1.831
		c-0.596,2.31-1.221,4.614-1.841,6.925c-1.169,4.375-2.341,8.755-3.516,13.135c-0.044,0.161-0.114,0.317-0.044,0.493
		c0.244-0.093,0.296-0.327,0.405-0.508C63.672,34.24,70.928,21.671,78.19,9.102c0.134-0.234,0.254-0.474,0.397-0.698
		c0.496-0.757,1.377-0.986,2.098-0.552c0.703,0.42,0.944,1.255,0.513,2.046c-0.688,1.26-1.424,2.5-2.144,3.746
		c-6.622,11.47-13.245,22.94-19.867,34.41c-0.07,0.127-0.124,0.264-0.19,0.396c-0.054,0.093-0.109,0.181-0.163,0.278
		c-0.015,0.059-0.057,0.151-0.037,0.171c0.076,0.063,0.11-0.02,0.142-0.073c0.068-0.068,0.14-0.142,0.215-0.205
		c0.215-0.2,0.435-0.391,0.64-0.596c5.597-5.591,11.185-11.182,16.781-16.773c0.205-0.21,0.41-0.425,0.645-0.596
		c0.656-0.459,1.484-0.376,1.994,0.186c0.501,0.547,0.521,1.422,0.037,2.018c-0.137,0.171-0.301,0.317-0.457,0.474
		c-5.63,5.63-11.255,11.255-16.881,16.885c-0.215,0.215-0.51,0.386-0.583,0.732c0.314,0.137,0.505-0.117,0.715-0.239
		c5.03-2.896,10.06-5.791,15.079-8.701c0.625-0.356,1.235-0.459,1.851-0.044c0.516,0.352,0.687,0.869,0.605,1.475
		c-0.075,0.591-0.471,0.928-0.954,1.206c-5.011,2.886-10.011,5.776-15.016,8.667c-0.311,0.186-0.61,0.391-0.911,0.582
		c-0.075,0.044-0.146,0.078-0.22,0.112c0.105,0.088,0.2,0.049,0.296-0.024c3.13-0.826,6.265-1.646,9.395-2.472
		c1.79-0.474,3.575-0.962,5.364-1.431c0.96-0.249,1.785,0.146,2.017,0.947c0.259,0.903-0.215,1.689-1.25,1.968
		c-4.8,1.29-9.603,2.569-14.402,3.858c-0.205,0.054-0.41,0.112-0.608,0.293h0.735c4.878,0,9.764,0.005,14.645-0.005
		c0.695-0.005,1.245,0.22,1.574,0.85c0.291,0.552,0.21,1.089-0.148,1.582c-0.391,0.532-0.965,0.596-1.57,0.596
		c-4.271-0.005-8.545,0-12.815,0h-2.261c-0.015,0.049-0.029,0.098-0.049,0.146c0.229,0.068,0.454,0.137,0.684,0.195
		c4.727,1.27,9.456,2.539,14.186,3.799c0.695,0.186,1.211,0.527,1.311,1.289c0.154,1.177-0.796,1.968-2.014,1.65
		c-2.452-0.645-4.896-1.313-7.342-1.968c-2.356-0.63-4.71-1.255-7.062-1.885c-0.178-0.044-0.349-0.161-0.625-0.015
		c1.155,0.669,2.267,1.318,3.382,1.958c4.199,2.427,8.398,4.858,12.605,7.275c0.479,0.278,0.926,0.571,1.035,1.157
		c0.12,0.62-0.02,1.172-0.562,1.559c-0.549,0.396-1.135,0.391-1.714,0.059c-1.99-1.144-3.97-2.291-5.96-3.438
		c-3.381-1.938-6.765-3.882-10.146-5.82c-0.068-0.039-0.145-0.112-0.205,0C60.962,66.15,61.038,66.219,61.072,66.263"/>
	<path fill="#FFFFFF" d="M293.063,67.986c-0.02,0.01-0.059,0.02-0.059,0.039c-0.82,3.765-3.414,5.679-6.939,6.465
		c-4.39,0.978-8.428,0.205-11.895-2.832c-0.093-0.078-0.181-0.166-0.273-0.244c-0.425-0.371-0.566-0.659-0.034-1.138
		c1.064-0.938,2.051-1.953,3.037-2.974c0.317-0.322,0.479-0.312,0.791,0.01c1.484,1.567,3.306,2.383,5.488,2.285
		c0.957-0.044,1.821-0.347,2.52-1.021c1.074-1.03,0.981-2.378-0.234-3.247c-0.82-0.591-1.797-0.869-2.749-1.162
		c-1.533-0.469-3.081-0.889-4.546-1.587c-2.759-1.313-4.102-3.521-4.121-6.528c-0.02-2.906,1.27-5.104,3.818-6.534
		c4.404-2.476,11.045-1.323,14.4,2.476c0.308,0.347,0.132,0.479-0.103,0.684c-1.113,0.986-2.237,1.959-3.331,2.975
		c-0.327,0.308-0.503,0.288-0.801-0.029c-0.962-1.006-2.07-1.782-3.472-2.057c-0.654-0.127-1.304-0.127-1.958,0.024
		c-1.084,0.25-1.719,0.904-1.855,1.9c-0.146,1.147,0.195,1.816,1.294,2.358c1.343,0.664,2.817,0.923,4.243,1.343
		c1.289,0.381,2.559,0.806,3.706,1.519c1.598,0.991,2.613,2.383,2.945,4.253c0.02,0.083,0.078,0.161,0.127,0.239V67.986z"/>
	<path fill="#FFFFFF" d="M117.613,51.228c0.059-0.02,0.119-0.015,0.144-0.039c2.981-3.13,7.945-3.975,11.72-1.953
		c2.822,1.504,4.092,4.019,4.136,7.091c0.086,5.737,0.024,11.475,0.029,17.212c0,0.356-0.02,0.576-0.488,0.601
		c-1.73,0.068-3.459,0.171-5.186,0.308c-0.53,0.044-0.645-0.112-0.645-0.62c0.02-5.103,0.01-10.21,0.02-15.308
		c0-0.742-0.096-1.47-0.325-2.163c-0.729-2.207-2.734-3.15-5.275-2.495c-2.205,0.566-3.761,2.368-4.07,4.746
		c-0.081,0.625-0.12,1.265-0.125,1.895c-0.01,4.302-0.015,8.594,0.01,12.896c0.005,0.571-0.148,0.732-0.725,0.757
		c-1.631,0.059-3.26,0.166-4.891,0.293c-0.515,0.039-0.715-0.044-0.715-0.64c0.02-10.991,0.02-21.979,0.005-32.965
		c0-0.503,0.156-0.654,0.651-0.708c1.675-0.171,3.35-0.356,5.01-0.63c0.635-0.098,0.659,0.122,0.659,0.625
		c-0.015,3.467-0.01,6.938-0.005,10.4C117.546,50.759,117.471,51.003,117.613,51.228"/>
	<path fill="#FFFFFF" d="M94.66,51.062c0,1.392,0,2.784,0.005,4.171c0,0.225-0.09,0.513,0.315,0.513
		c1.636,0.005,3.271,0.063,4.814-0.615c1.067-0.464,1.836-1.216,2.156-2.335c0.2-0.693,0.2-1.426,0.19-2.153
		c-0.015-1.538-0.94-2.861-2.381-3.477c-1.521-0.649-3.105-0.635-4.705-0.64c-0.415,0-0.396,0.234-0.396,0.513
		C94.665,48.381,94.66,49.724,94.66,51.062 M88.09,57.371c0-5.475,0.01-10.938-0.015-16.407c0-0.615,0.168-0.776,0.773-0.767
		c3.32,0.068,6.641-0.107,9.957,0.088c5.669,0.332,9.93,4.878,9.93,10.571c0,4.239-1.575,7.657-5.406,9.771
		c-2.175,1.201-4.548,1.553-7.005,1.392c-1.665-0.112-1.665-0.137-1.665,1.494c0,3.296-0.015,6.592,0.015,9.888
		c0.005,0.581-0.168,0.728-0.734,0.747c-1.724,0.059-3.455,0.161-5.181,0.303c-0.574,0.044-0.684-0.142-0.679-0.679
		C88.095,68.304,88.09,62.84,88.09,57.371"/>
	<path fill="#FFFFFF" d="M205.051,61.521c-0.039-0.396-0.049-0.815-0.127-1.221c-1.1-5.63-7.823-8.194-12.594-4.81
		c-3.765,2.676-4.312,7.72-1.211,11.045c2.515,2.695,6.641,3.374,9.858,1.572C203.527,66.678,204.944,64.515,205.051,61.521
		 M197.091,74.876c-6.084,0-11.626-3.921-13.345-9.453c-1.969-6.318,0.991-12.833,7.202-15.831
		c7.866-3.804,17.501,0.508,19.659,8.805c1.675,6.47-2.056,13.257-8.575,15.591C200.431,74.563,198.791,74.871,197.091,74.876"/>
	<path fill="#FFFFFF" d="M157.958,61.517c0.029-0.566-0.078-1.191-0.244-1.802c-1.475-5.439-8.33-7.545-12.835-3.945
		c-3.186,2.544-3.789,6.919-1.389,10.117c2.189,2.92,6.188,4.014,9.575,2.627C156.025,67.298,157.949,64.573,157.958,61.517
		 M150.126,74.876c-5.967,0-11.297-3.594-13.253-8.853c-2.3-6.172,0.356-12.857,6.412-16.148c6.364-3.457,14.658-1.367,18.561,4.669
		c4.59,7.104,1.265,16.45-6.915,19.453c-0.85,0.308-1.719,0.547-2.612,0.688C151.552,74.808,150.776,74.915,150.126,74.876"/>
	<path fill="#FFFFFF" d="M219.382,51.716c0.288-0.029,0.347-0.249,0.454-0.391c1.431-1.777,3.242-2.822,5.547-3.032
		c1.52-0.142,3.023-0.142,4.503,0.259c3.477,0.928,5.815,3.823,5.869,7.501c0.068,5.835,0.029,11.665,0.039,17.5
		c0,0.381-0.068,0.562-0.513,0.581c-1.704,0.073-3.413,0.181-5.112,0.312c-0.542,0.044-0.693-0.098-0.693-0.659
		c0.029-4.98,0.02-9.961,0.01-14.941c0-0.459,0.01-0.928-0.063-1.382c-0.444-2.964-2.485-4.322-5.421-3.639
		c-2.632,0.621-4.263,2.877-4.272,5.978c0,4.487-0.01,8.979,0.02,13.477c0,0.659-0.176,0.864-0.84,0.879
		c-1.631,0.044-3.262,0.161-4.893,0.288c-0.508,0.044-0.61-0.127-0.61-0.596c0.01-8.076,0.015-16.157,0-24.239
		c0-0.503,0.161-0.649,0.654-0.684c1.582-0.122,3.159-0.273,4.731-0.474c0.537-0.068,0.61,0.112,0.601,0.566
		C219.358,49.914,219.382,50.812,219.382,51.716"/>
	<path fill="#FFFFFF" d="M262.456,74.91c-6.821-0.024-12.48-4.8-13.604-11.499c-1.104-6.631,3.291-13.097,10.039-14.752
		c4.473-1.094,8.599-0.2,12.462,2.207c0.342,0.215,0.347,0.361,0.122,0.674c-0.933,1.284-1.846,2.579-2.734,3.893
		c-0.255,0.371-0.44,0.376-0.812,0.151c-1.343-0.811-2.754-1.479-4.355-1.587c-4.097-0.26-7.93,2.139-8.481,6.509
		c-0.605,4.707,3.276,8.433,6.978,8.613c2.017,0.098,3.921-0.435,5.596-1.602c0.459-0.322,0.674-0.225,0.972,0.19
		c0.904,1.221,1.827,2.412,2.774,3.594c0.259,0.332,0.22,0.503-0.078,0.762c-1.895,1.621-4.142,2.334-6.549,2.651
		C264.018,74.817,263.227,74.847,262.456,74.91"/>
	<path fill="#FFFFFF" d="M175.254,41.931c0,2.139,0.02,4.258-0.02,6.372c-0.01,0.596,0.176,0.732,0.737,0.713
		c1.465-0.034,2.93,0,4.395-0.02c0.435-0.005,0.596,0.117,0.586,0.576c-0.024,1.44-0.029,2.881,0,4.322
		c0.015,0.503-0.171,0.61-0.63,0.601c-1.494-0.024-2.979,0.01-4.473-0.02c-0.474-0.01-0.615,0.117-0.605,0.605
		c0.02,3.418-0.01,6.831,0.01,10.254c0.02,2.202,1.157,3.403,3.35,3.701c1.143,0.151,2.275,0.015,3.496-0.01
		c-0.493,1.846-0.972,3.633-1.455,5.415c-0.063,0.234-0.234,0.273-0.439,0.303c-2.295,0.283-4.541,0.2-6.68-0.752
		c-3.184-1.406-4.531-4.014-4.561-7.363c-0.049-3.784-0.029-7.568,0-11.357c0.01-0.625-0.117-0.859-0.791-0.801
		c-0.84,0.063-1.699,0.005-2.559,0.02c-0.381,0.01-0.537-0.054-0.41-0.493c0.396-1.48,0.771-2.97,1.138-4.459
		c0.093-0.396,0.254-0.615,0.688-0.537c0.024,0.005,0.049,0.005,0.068,0c0.605-0.049,1.396,0.269,1.743-0.137
		c0.293-0.352,0.103-1.123,0.103-1.699c0.01-0.688,0.02-1.372,0-2.051c-0.01-0.308,0.068-0.488,0.371-0.62
		c1.895-0.835,3.779-1.694,5.674-2.539C175.049,41.926,175.127,41.94,175.254,41.931"/>
	<path fill="#FFFFFF" d="M112.708,19.908c0-2.568,0.015-5.127-0.005-7.691c-0.01-1.191-0.065-2.393-0.139-3.579
		c-0.037-0.542,0.114-0.708,0.679-0.708c3.296,0.029,6.595,0.01,9.891,0c0.61,0,1.221-0.02,1.831-0.049
		c0.415-0.024,0.625,0.078,0.583,0.566c-0.075,0.967-0.124,1.943-0.144,2.92c-0.01,0.488-0.225,0.625-0.682,0.62
		c-1.904-0.029-3.809,0-5.71-0.059c-0.674-0.024-0.818,0.2-0.799,0.825c0.049,1.392,0.029,2.789,0.024,4.175
		c0,0.503,0.153,0.723,0.726,0.703c1.73-0.054,3.464,0,5.195-0.122c0.869-0.063,0.898-0.005,0.84,0.859
		c-0.062,0.801-0.12,1.606-0.11,2.412c0.005,0.596-0.234,0.742-0.791,0.728c-1.685-0.039-3.369-0.01-5.054-0.054
		c-0.544-0.015-0.705,0.137-0.695,0.688c0.039,1.636,0.039,3.271,0,4.907c-0.016,0.581,0.195,0.688,0.715,0.674
		c2.07-0.068,4.146-0.088,6.221-0.171c0.535-0.015,0.745,0.098,0.674,0.684c-0.109,0.967-0.186,1.943-0.19,2.92
		c0,0.635-0.254,0.762-0.835,0.757c-3.589-0.02-7.181-0.005-10.77,0.005c-1.45,0-1.445,0.01-1.445-1.47
		c0.005-3.516,0.005-7.026,0.005-10.542C112.717,19.908,112.712,19.908,112.708,19.908"/>
	<path fill="#FFFFFF" d="M97.322,20.006c0.02-3.755,0.036-7.515-0.154-11.265c-0.036-0.64,0.13-0.815,0.794-0.811
		c3.806,0.015,7.609-0.01,11.416-0.063c0.664-0.01,0.835,0.181,0.76,0.825c-0.11,0.869-0.14,1.748-0.149,2.622
		c-0.005,0.518-0.2,0.679-0.7,0.674c-1.93-0.029-3.855-0.01-5.779-0.059c-0.557-0.01-0.706,0.156-0.691,0.698
		c0.039,1.465,0.039,2.93,0.015,4.395c-0.01,0.488,0.161,0.615,0.63,0.605c1.775-0.034,3.56,0.02,5.335-0.127
		c0.601-0.049,0.906,0.054,0.806,0.781c-0.119,0.864-0.144,1.748-0.148,2.627c-0.005,0.503-0.215,0.605-0.667,0.601
		c-1.729-0.029-3.465-0.015-5.195-0.049c-0.516-0.015-0.669,0.146-0.659,0.654c0.029,1.636,0.034,3.271,0,4.907
		c-0.01,0.537,0.129,0.723,0.69,0.703c2.07-0.073,4.144-0.088,6.214-0.171c0.591-0.02,0.776,0.127,0.696,0.737
		c-0.12,0.918-0.176,1.851-0.176,2.773c-0.005,0.659-0.225,0.859-0.898,0.854c-3.567-0.029-7.127-0.01-10.691,0
		c-1.445,0-1.445,0.005-1.445-1.45C97.322,26.988,97.322,23.497,97.322,20.006"/>
	<path fill="#FFFFFF" d="M134.596,31.935c-1.929,0-3.86-0.024-5.784,0.02c-0.615,0.015-0.737-0.205-0.716-0.757
		c0.179-4.658,0.169-9.321,0.101-13.979c-0.047-2.856,0.01-5.713-0.228-8.555c-0.044-0.537,0.076-0.732,0.662-0.728
		c3.855,0.01,7.715,0.005,11.57-0.034c0.63-0.01,0.801,0.176,0.74,0.781c-0.096,0.894-0.135,1.797-0.145,2.7
		c-0.005,0.503-0.227,0.61-0.676,0.605c-1.93-0.029-3.855-0.01-5.784-0.059c-0.581-0.01-0.757,0.161-0.737,0.742
		c0.046,1.441,0.046,2.881,0.026,4.322c-0.005,0.459,0.105,0.654,0.61,0.635c1.8-0.068,3.608,0.049,5.41-0.117
		c0.794-0.073,0.836,0.02,0.76,0.854c-0.065,0.728-0.07,1.46-0.095,2.192c-0.034,0.942-0.052,0.952-1.021,0.942
		c-1.641-0.01-3.273,0-4.909-0.044c-0.525-0.01-0.654,0.166-0.645,0.664c0.029,1.636,0.034,3.271,0,4.907
		c-0.01,0.547,0.129,0.718,0.688,0.698c2.07-0.073,4.146-0.078,6.216-0.171c0.659-0.029,0.786,0.186,0.721,0.786
		c-0.101,0.894-0.14,1.797-0.166,2.7c-0.015,0.61-0.169,0.908-0.884,0.879c-1.905-0.054-3.812-0.015-5.716-0.015V31.935z"/>
	<path fill="#FFFFFF" d="M91.344,100.845c0.164,0.186,0.425,0.513,0.711,0.811c1.279,1.357,2.844,1.88,4.644,1.357
		c1.064-0.312,1.812-1.064,1.966-2.231c0.156-1.187-0.415-2.017-1.399-2.598c-1.035-0.61-2.19-0.938-3.311-1.349
		c-1.284-0.474-2.557-0.981-3.574-1.929c-2.861-2.666-2.332-8.081,0.998-10.342c3.34-2.271,8.287-1.753,11.102,1.143
		c0.364,0.376,0.488,0.64,0.063,1.079c-0.708,0.737-1.364,1.528-2.004,2.329c-0.276,0.352-0.415,0.288-0.716,0.029
		c-1.179-1.025-2.448-1.865-4.129-1.709c-1.55,0.146-2.495,1.147-2.521,2.695c-0.01,0.742,0.305,1.313,0.915,1.729
		c0.776,0.537,1.675,0.776,2.552,1.064c0.74,0.249,1.489,0.474,2.21,0.762c3.19,1.284,4.719,3.761,4.47,7.193
		c-0.246,3.418-2.546,5.859-6.196,6.45c-3.345,0.542-6.209-0.439-8.53-2.944c-0.34-0.361-0.444-0.615-0.005-0.996
		C89.528,102.573,90.419,101.704,91.344,100.845"/>
	<path fill="#FFFFFF" d="M152.832,97.939c0.005,0.19-0.049,0.537,0.176,0.674c0.254,0.151,0.479-0.151,0.698-0.283
		c2.217-1.328,4.419-2.672,6.636-4.01c0.762-0.459,0.762-0.566-0.015-1.016c-0.21-0.117-0.435-0.22-0.664-0.298
		C156.455,91.859,152.866,94.413,152.832,97.939 M157.792,89.169c3.32-0.234,7.013,1.919,8.468,4.922
		c0.215,0.444-0.054,0.532-0.322,0.698c-3.564,2.213-7.125,4.42-10.685,6.637c-0.684,0.42-0.693,0.527-0.112,1.113
		c0.737,0.742,1.66,0.986,2.661,1.025c1.992,0.088,3.722-0.649,5.333-1.709c0.42-0.269,0.571-0.244,0.771,0.22
		c0.405,0.918,0.879,1.797,1.328,2.686c0.127,0.249,0.254,0.454-0.088,0.669c-3.477,2.188-8.326,2.979-12.179,0.503
		c-3.11-2.007-4.793-5.62-4.155-9.033c0.698-3.771,3.555-6.7,7.319-7.481C156.679,89.306,157.236,89.252,157.792,89.169"/>
	<path fill="#FFFFFF" d="M119.605,98.32c-0.005-2.877-2.534-5.27-5.54-5.245c-3.005,0.024-5.495,2.383-5.51,5.221
		c-0.01,2.876,2.49,5.264,5.52,5.269C117.11,103.574,119.61,101.206,119.605,98.32 M123.636,98.335c0,4.346-3.125,7.983-7.687,8.95
		c-4.338,0.918-8.96-1.46-10.711-5.522c-1.989-4.624,0.311-9.869,5.201-11.881c5.4-2.212,11.636,0.908,12.977,6.499
		C123.565,97.021,123.661,97.671,123.636,98.335"/>
	<path fill="#FFFFFF" d="M189.264,100.117c1.421-3.419,2.837-6.759,4.204-10.113c0.259-0.635,0.527-0.859,1.226-0.64
		c0.859,0.264,1.753,0.41,2.642,0.562c0.498,0.078,0.625,0.19,0.391,0.708c-1.548,3.364-3.052,6.749-4.57,10.123
		c-1.719,3.818-3.447,7.637-5.137,11.465c-0.234,0.518-0.469,0.679-1.021,0.586c-1.128-0.2-2.261-0.342-3.486-0.518
		c0.371-0.796,0.718-1.558,1.079-2.319c0.732-1.562,1.465-3.13,2.217-4.683c0.161-0.337,0.161-0.591-0.02-0.947
		c-2.363-4.614-4.708-9.244-7.062-13.868c-0.054-0.107-0.098-0.225-0.176-0.405c1.279-0.273,2.529-0.527,3.78-0.801
		c0.42-0.098,0.537,0.186,0.684,0.479c1.528,3.101,3.057,6.206,4.59,9.308C188.781,99.39,188.878,99.775,189.264,100.117"/>
	<path fill="#FFFFFF" d="M245.799,61.253c0,3.999-0.02,8.003,0.024,12.002c0,0.718-0.234,0.884-0.903,0.908
		c-1.606,0.044-3.208,0.156-4.814,0.283c-0.513,0.044-0.605-0.137-0.605-0.596c0.015-8.081,0.015-16.157,0-24.229
		c0-0.503,0.142-0.659,0.649-0.698c1.606-0.107,3.213-0.234,4.805-0.449c0.776-0.103,0.869,0.176,0.859,0.845
		C245.785,53.293,245.799,57.273,245.799,61.253"/>
	<path fill="#FFFFFF" d="M88.237,19.918c0.041-3.779,0.095-7.559-0.101-11.333c-0.024-0.459,0.105-0.63,0.62-0.625
		c1.561,0.02,3.12-0.02,4.681-0.078c0.515-0.015,0.666,0.127,0.649,0.659c-0.145,5.494-0.169,10.977-0.054,16.47
		c0.039,2.095,0.075,4.189,0.139,6.284c0.01,0.449-0.119,0.596-0.578,0.596c-1.561,0-3.12,0.024-4.681,0.088
		c-0.576,0.024-0.69-0.195-0.686-0.718C88.247,27.477,88.237,23.697,88.237,19.918"/>
	<path fill="#FFFFFF" d="M133.908,89.179c2.443-0.024,4.514,0.591,6.416,1.792c0.244,0.156,0.278,0.264,0.11,0.503
		c-0.621,0.845-1.236,1.694-1.812,2.568c-0.264,0.4-0.469,0.181-0.715,0.034c-1.675-0.996-3.431-1.313-5.315-0.649
		c-2.5,0.884-3.89,3.326-3.359,5.929c0.516,2.529,3.025,4.414,5.566,4.204c1.094-0.098,2.104-0.415,3.003-1.03
		c0.337-0.229,0.525-0.205,0.762,0.122c0.545,0.752,1.094,1.504,1.7,2.202c0.329,0.391,0.234,0.605-0.12,0.879
		c-1.15,0.879-2.471,1.353-3.885,1.572c-3.786,0.591-7.056-0.42-9.456-3.467c-4.206-5.322-1.274-13.053,5.416-14.42
		C132.838,89.291,133.468,89.237,133.908,89.179"/>
	<path fill="#FFFFFF" d="M174.253,84.818c0,1.479,0.024,2.837-0.01,4.204c-0.015,0.542,0.132,0.728,0.688,0.698
		c0.879-0.044,1.758,0.01,2.637-0.02c0.425-0.015,0.61,0.073,0.591,0.552c-0.044,0.903-0.029,1.807-0.005,2.71
		c0.005,0.356-0.117,0.464-0.459,0.459c-0.957-0.02-1.904,0.01-2.856-0.015c-0.444-0.01-0.596,0.146-0.591,0.591
		c0.015,2.344-0.02,4.684,0.015,7.032c0.024,1.484,0.781,2.261,2.261,2.471c0.635,0.088,1.27,0.103,1.899,0.034
		c0.425-0.049,0.522,0.083,0.4,0.483c-0.288,0.981-0.552,1.968-0.811,2.959c-0.063,0.234-0.142,0.376-0.42,0.41
		c-1.685,0.21-3.325,0.093-4.849-0.698c-1.846-0.957-2.695-2.573-2.729-4.59c-0.054-2.637-0.034-5.278,0-7.911
		c0.005-0.591-0.132-0.83-0.762-0.786c-0.601,0.044-1.47,0.21-1.753-0.107c-0.317-0.347,0.195-1.108,0.303-1.699
		c0.039-0.161,0.088-0.327,0.132-0.493c0.317-1.299,0.317-1.318,1.597-1.382c0.42-0.02,0.483-0.195,0.474-0.537
		c-0.015-0.659,0.01-1.323-0.015-1.982c-0.01-0.327,0.083-0.527,0.41-0.674C171.651,85.99,172.891,85.429,174.253,84.818"/>
	<path fill="#FFFFFF" d="M142.453,98.467c0-2.711,0.01-5.421-0.01-8.131c0-0.435,0.062-0.64,0.574-0.664
		c1.047-0.039,2.092-0.166,3.132-0.278c0.374-0.044,0.513,0.063,0.513,0.464c-0.01,5.537-0.01,11.085-0.005,16.632
		c0,0.278-0.039,0.444-0.383,0.459c-1.146,0.059-2.29,0.132-3.431,0.234c-0.524,0.039-0.386-0.327-0.386-0.586
		c-0.01-2.271-0.005-4.541-0.005-6.812V98.467z"/>
	<path fill="#FFFFFF" d="M247.015,42.316c-0.122,0.127-0.205,0.244-0.312,0.342c-1.182,1.167-2.373,2.319-3.54,3.496
		c-0.269,0.269-0.435,0.371-0.747,0.039c-1.162-1.182-2.344-2.349-3.545-3.491c-0.352-0.332-0.283-0.503,0.02-0.796
		c1.177-1.138,2.334-2.29,3.486-3.457c0.273-0.278,0.439-0.332,0.742-0.024c1.162,1.182,2.358,2.334,3.54,3.501
		C246.771,42.043,246.883,42.17,247.015,42.316"/>
	<path fill="#FFFFFF" d="M147.495,85.062c-0.093,0.103-0.179,0.22-0.278,0.312c-0.762,0.757-1.536,1.499-2.28,2.271
		c-0.267,0.273-0.41,0.205-0.64-0.024c-0.73-0.747-1.479-1.484-2.236-2.207c-0.259-0.249-0.244-0.415,0.005-0.649
		c0.776-0.742,1.54-1.499,2.295-2.261c0.227-0.229,0.356-0.22,0.581,0.005c0.749,0.767,1.521,1.509,2.285,2.266
		C147.311,84.857,147.389,84.95,147.495,85.062"/>
	<path fill="#FFFFFF" d="M43.808,48.947c-0.08-0.063-0.156-0.132-0.236-0.2c0.051-0.049,0.1-0.098,0.151-0.146
		c0.049,0.088,0.1,0.181,0.153,0.273C43.852,48.898,43.828,48.923,43.808,48.947"/>
	<path fill="#FFFFFF" d="M58.831,48.723c0.054-0.088,0.115-0.186,0.171-0.273c0.049,0.059,0.101,0.112,0.149,0.171
		c-0.071,0.068-0.14,0.132-0.215,0.205C58.907,48.786,58.865,48.752,58.831,48.723"/>
	<path fill="#FFFFFF" d="M46.723,47.458c-0.029,0.015-0.054,0.029-0.085,0.039c-0.005,0-0.029-0.049-0.024-0.063
		c0.015-0.034,0.039-0.059,0.061-0.088C46.689,47.38,46.708,47.419,46.723,47.458"/>
	<path fill="#FFFFFF" d="M39.907,53.865c0.073,0.044,0.148,0.088,0.22,0.137c-0.115,0.098-0.21,0.044-0.306-0.039
		C39.85,53.929,39.879,53.899,39.907,53.865"/>
	<path fill="#FFFFFF" d="M62.771,53.982c-0.09,0.073-0.183,0.117-0.293,0.024c0.073-0.034,0.145-0.073,0.22-0.107
		C62.722,53.929,62.747,53.953,62.771,53.982"/>
	<path fill="#FFFFFF" d="M41.499,66.258c-0.068,0.073-0.135,0.146-0.205,0.22c-0.054-0.049-0.11-0.098-0.159-0.151
		c0.091-0.054,0.181-0.107,0.269-0.161C41.435,66.199,41.469,66.229,41.499,66.258"/>
	<path fill="#FFFFFF" d="M46.575,70.018c0.036-0.073,0.065-0.151,0.1-0.225c0.101,0.112,0.057,0.2-0.034,0.283
		C46.621,70.057,46.601,70.037,46.575,70.018"/>
	<path fill="#FFFFFF" d="M43.572,68.602c0.063-0.063,0.109-0.239,0.229-0.117c0.09,0.083-0.01,0.195-0.101,0.264
		C43.66,68.704,43.616,68.655,43.572,68.602"/>
	<path fill="#FFFFFF" d="M58.936,48.825c-0.029,0.059-0.063,0.132-0.135,0.073c-0.024-0.015,0.015-0.117,0.029-0.176
		C58.868,48.752,58.902,48.786,58.936,48.825"/>
	<path fill="#FFFFFF" d="M43.875,48.874c0.015,0.059,0.061,0.146,0.051,0.151c-0.08,0.049-0.1-0.02-0.122-0.073
		C43.831,48.923,43.85,48.898,43.875,48.874"/>
	<path fill="#FFFFFF" d="M61.233,51.052c-0.017,0.029-0.036,0.059-0.051,0.083c-0.015-0.015-0.044-0.034-0.039-0.044
		c0.005-0.029,0.024-0.063,0.044-0.093C61.197,51.013,61.211,51.027,61.233,51.052"/>
	<path fill="#FFFFFF" d="M41.51,51.096c0.024,0.044,0.057,0.083,0.081,0.127c-0.076,0.034-0.11-0.01-0.13-0.073
		C41.476,51.13,41.496,51.115,41.51,51.096"/>
	<path fill="#FFFFFF" d="M41.406,66.165c0.061-0.015,0.156-0.059,0.171-0.039c0.061,0.073-0.02,0.103-0.076,0.132
		C41.466,66.229,41.437,66.194,41.406,66.165"/>
	<path fill="#FFFFFF" d="M61.072,66.263c-0.034-0.044-0.109-0.112-0.1-0.132c0.061-0.112,0.137-0.039,0.205,0
		C61.143,66.175,61.109,66.219,61.072,66.263"/>
</g>
</svg>
