<?xml version="1.0" encoding="utf-8"?>
<!-- Generator: Adobe Illustrator 16.0.0, SVG Export Plug-In . SVG Version: 6.00 Build 0)  -->
<!DOCTYPE svg PUBLIC "-//W3C//DTD SVG 1.1//EN" "http://www.w3.org/Graphics/SVG/1.1/DTD/svg11.dtd">
<svg version="1.1" id="Layer_1" xmlns="http://www.w3.org/2000/svg" xmlns:xlink="http://www.w3.org/1999/xlink" x="0px" y="0px"
	 width="190.283px" height="102.784px" viewBox="0 0 190.283 102.784" enable-background="new 0 0 190.283 102.784"
	 xml:space="preserve">
<path fill="#97CCFF" d="M173.063,5.193c0-0.736,0.137-1.423,0.412-2.061c0.272-0.637,0.649-1.188,1.124-1.646
	c0.476-0.463,1.026-0.823,1.652-1.09C176.879,0.13,177.549,0,178.256,0c0.708,0,1.374,0.13,2.002,0.396
	c0.628,0.267,1.18,0.627,1.655,1.09c0.476,0.458,0.849,1.008,1.125,1.646c0.275,0.638,0.412,1.325,0.412,2.061
	c0,0.745-0.136,1.431-0.412,2.062c-0.275,0.635-0.649,1.183-1.125,1.64c-0.475,0.464-1.026,0.824-1.655,1.09s-1.295,0.4-2.002,0.4
	c-0.707,0-1.377-0.134-2.005-0.4c-0.626-0.266-1.176-0.626-1.652-1.09c-0.475-0.458-0.852-1.005-1.124-1.64
	C173.2,6.624,173.063,5.938,173.063,5.193 M173.986,5.193c0,0.632,0.11,1.217,0.333,1.759c0.226,0.539,0.527,1.005,0.909,1.401
	c0.38,0.395,0.833,0.708,1.354,0.937c0.519,0.226,1.081,0.342,1.675,0.342c0.595,0,1.153-0.117,1.669-0.342
	c0.513-0.229,0.965-0.542,1.35-0.937c0.389-0.396,0.696-0.862,0.917-1.401c0.223-0.542,0.336-1.127,0.336-1.759
	c0-0.624-0.113-1.209-0.336-1.754c-0.221-0.543-0.528-1.013-0.917-1.41c-0.385-0.395-0.837-0.708-1.35-0.933
	c-0.516-0.229-1.075-0.345-1.669-0.345c-0.594,0-1.156,0.115-1.675,0.345c-0.521,0.225-0.973,0.538-1.354,0.933
	c-0.382,0.397-0.683,0.867-0.909,1.41C174.096,3.983,173.986,4.569,173.986,5.193 M176.274,2.147h2.289
	c1.415,0,2.121,0.579,2.121,1.732c0,0.548-0.153,0.951-0.46,1.207c-0.305,0.257-0.69,0.407-1.145,0.453l1.744,2.681h-0.991
	l-1.646-2.61h-0.992v2.61h-0.921V2.147z M177.196,4.857h0.95c0.203,0,0.403-0.006,0.6-0.02c0.194-0.016,0.366-0.053,0.517-0.119
	c0.147-0.064,0.267-0.168,0.361-0.308c0.093-0.139,0.142-0.33,0.142-0.573c0-0.203-0.043-0.369-0.127-0.496
	c-0.084-0.125-0.192-0.22-0.322-0.287c-0.13-0.064-0.275-0.104-0.432-0.125c-0.159-0.017-0.318-0.026-0.475-0.026h-1.214V4.857z"/>
<polyline fill="#97CCFF" points="6.736,85.003 2.13,85.003 2.13,82.668 14.017,82.668 14.017,85.003 9.411,85.003 9.411,97.691 
	6.736,97.691 6.736,85.003 "/>
<path fill="#97CCFF" d="M21.124,87.21c0.664,0,1.235,0.116,1.708,0.35c0.477,0.232,0.862,0.542,1.169,0.922
	c0.303,0.382,0.527,0.821,0.667,1.318c0.142,0.494,0.213,1.002,0.213,1.526v6.367h-2.548v-5.603c0-0.298-0.018-0.606-0.063-0.924
	c-0.042-0.32-0.131-0.607-0.263-0.867c-0.137-0.264-0.326-0.479-0.575-0.648c-0.248-0.171-0.577-0.255-0.987-0.255
	c-0.41,0-0.762,0.077-1.062,0.232c-0.295,0.156-0.544,0.366-0.741,0.628c-0.197,0.261-0.348,0.551-0.446,0.881
	c-0.099,0.323-0.15,0.655-0.15,0.996v5.56H15.5V81.652h2.545v7.277h0.042c0.102-0.213,0.246-0.418,0.438-0.625
	c0.19-0.206,0.415-0.393,0.667-0.554c0.257-0.161,0.547-0.293,0.87-0.392C20.388,87.261,20.741,87.21,21.124,87.21"/>
<path fill="#97CCFF" d="M37.039,92.727v0.342c0,0.114-0.006,0.224-0.021,0.338h-7.744c0.026,0.368,0.122,0.706,0.287,1.005
	c0.162,0.308,0.377,0.567,0.646,0.789c0.27,0.219,0.571,0.393,0.912,0.518c0.338,0.129,0.691,0.192,1.06,0.192
	c0.637,0,1.175-0.117,1.614-0.351c0.438-0.232,0.799-0.556,1.083-0.966l1.696,1.36c-1.004,1.355-2.461,2.033-4.37,2.033
	c-0.792,0-1.522-0.122-2.186-0.367c-0.667-0.248-1.242-0.599-1.729-1.053c-0.487-0.452-0.871-1.008-1.145-1.665
	c-0.278-0.656-0.414-1.403-0.414-2.238c0-0.819,0.135-1.567,0.414-2.24c0.274-0.673,0.652-1.245,1.133-1.717
	c0.481-0.476,1.05-0.844,1.71-1.104c0.655-0.263,1.367-0.395,2.129-0.395c0.709,0,1.361,0.119,1.966,0.35
	c0.601,0.236,1.118,0.581,1.559,1.041c0.436,0.461,0.78,1.031,1.028,1.721C36.916,91.004,37.039,91.806,37.039,92.727
	 M34.493,91.582c0-0.326-0.048-0.638-0.138-0.934c-0.092-0.297-0.239-0.56-0.438-0.786c-0.196-0.225-0.447-0.404-0.749-0.539
	c-0.305-0.135-0.661-0.203-1.074-0.203c-0.763,0-1.412,0.23-1.941,0.69c-0.528,0.46-0.822,1.047-0.879,1.771H34.493z"/>
<g>
	<path fill="#97CCFF" d="M43.786,90.137c0-1.199,0.204-2.288,0.604-3.257c0.404-0.966,0.963-1.792,1.678-2.471
		c0.712-0.68,1.562-1.202,2.545-1.57c0.985-0.367,2.055-0.55,3.215-0.55c1.173,0,2.255,0.183,3.245,0.55
		c0.99,0.368,1.845,0.891,2.567,1.57c0.724,0.679,1.286,1.505,1.69,2.471c0.401,0.969,0.604,2.058,0.604,3.257
		c0,1.175-0.203,2.247-0.604,3.216c-0.404,0.969-0.966,1.804-1.69,2.506c-0.722,0.7-1.577,1.244-2.567,1.631
		c-0.99,0.391-2.072,0.586-3.245,0.586c-1.16,0-2.23-0.195-3.215-0.586c-0.984-0.387-1.833-0.931-2.545-1.631
		c-0.715-0.702-1.274-1.537-1.678-2.506C43.99,92.384,43.786,91.312,43.786,90.137 M46.693,90.137c0,0.808,0.123,1.547,0.371,2.22
		c0.249,0.673,0.603,1.257,1.063,1.75c0.457,0.496,1.004,0.882,1.633,1.157c0.627,0.275,1.325,0.416,2.09,0.416
		c0.766,0,1.463-0.141,2.1-0.416s1.185-0.661,1.645-1.157c0.461-0.493,0.814-1.077,1.062-1.75c0.246-0.673,0.372-1.412,0.372-2.22
		c0-0.777-0.126-1.498-0.372-2.165c-0.248-0.664-0.598-1.242-1.049-1.738c-0.452-0.493-0.999-0.885-1.635-1.166
		c-0.636-0.282-1.344-0.425-2.122-0.425s-1.483,0.143-2.111,0.425c-0.627,0.281-1.173,0.673-1.624,1.166
		c-0.452,0.496-0.802,1.074-1.051,1.738C46.816,88.639,46.693,89.359,46.693,90.137"/>
	<path fill="#97CCFF" d="M64.305,87.507v1.424h0.065c0.125-0.201,0.293-0.401,0.496-0.608c0.207-0.203,0.458-0.385,0.754-0.55
		c0.299-0.161,0.634-0.297,1.008-0.404c0.377-0.104,0.795-0.157,1.263-0.157c0.723,0,1.388,0.137,1.995,0.416
		c0.609,0.271,1.133,0.651,1.57,1.132c0.44,0.482,0.777,1.047,1.019,1.699c0.241,0.648,0.36,1.35,0.36,2.101
		c0,0.748-0.117,1.452-0.35,2.107c-0.233,0.662-0.565,1.232-0.996,1.72c-0.433,0.488-0.957,0.881-1.571,1.17
		c-0.615,0.287-1.312,0.434-2.09,0.434c-0.72,0-1.381-0.149-1.982-0.449c-0.603-0.293-1.065-0.695-1.391-1.207h-0.043v6.451h-2.549
		V87.507H64.305 M70.249,92.559c0-0.398-0.061-0.791-0.18-1.179c-0.124-0.389-0.303-0.739-0.542-1.05
		c-0.242-0.312-0.543-0.562-0.913-0.754c-0.37-0.192-0.801-0.287-1.294-0.287c-0.466,0-0.885,0.098-1.253,0.296
		c-0.368,0.2-0.682,0.454-0.942,0.766c-0.264,0.312-0.46,0.664-0.596,1.062c-0.135,0.395-0.204,0.788-0.204,1.187
		s0.069,0.791,0.204,1.179c0.135,0.389,0.332,0.738,0.596,1.05c0.26,0.312,0.574,0.562,0.942,0.754
		c0.369,0.191,0.787,0.288,1.253,0.288c0.493,0,0.924-0.1,1.294-0.301c0.369-0.196,0.67-0.453,0.913-0.762
		c0.239-0.312,0.418-0.668,0.542-1.062C70.188,93.348,70.249,92.952,70.249,92.559"/>
</g>
<path fill="#97CCFF" d="M74.046,89.544v-2.037h1.783v-2.949h2.503v2.949h2.545v2.037h-2.545v4.731c0,0.454,0.081,0.827,0.245,1.127
	c0.162,0.296,0.527,0.445,1.091,0.445c0.171,0,0.354-0.02,0.55-0.053c0.201-0.036,0.374-0.09,0.533-0.162l0.084,1.995
	c-0.227,0.087-0.497,0.152-0.805,0.203c-0.312,0.048-0.61,0.075-0.895,0.075c-0.675,0-1.229-0.095-1.654-0.287
	c-0.423-0.191-0.759-0.452-1.007-0.787c-0.245-0.331-0.416-0.715-0.509-1.146s-0.138-0.894-0.138-1.391v-4.752H74.046"/>
<path fill="#97CCFF" d="M82.62,84.049c0-0.408,0.149-0.769,0.454-1.073c0.306-0.304,0.692-0.454,1.158-0.454
	c0.467,0,0.858,0.145,1.176,0.433c0.32,0.291,0.479,0.656,0.479,1.095s-0.159,0.803-0.479,1.093
	c-0.317,0.289-0.708,0.435-1.176,0.435c-0.466,0-0.852-0.153-1.158-0.459C82.77,84.816,82.62,84.456,82.62,84.049 M82.979,87.508
	h2.545v10.185h-2.545V87.508z"/>
<path fill="#97CCFF" d="M95.052,90.329c-0.2-0.281-0.497-0.517-0.891-0.712c-0.395-0.188-0.798-0.287-1.208-0.287
	c-0.468,0-0.881,0.099-1.233,0.287c-0.353,0.195-0.646,0.442-0.88,0.754c-0.233,0.311-0.407,0.662-0.52,1.05
	c-0.114,0.392-0.17,0.783-0.17,1.182c0,0.395,0.06,0.787,0.178,1.176c0.123,0.389,0.303,0.738,0.542,1.05
	c0.243,0.311,0.541,0.562,0.904,0.754c0.362,0.19,0.779,0.287,1.262,0.287c0.397,0,0.792-0.078,1.187-0.234
	c0.397-0.158,0.715-0.382,0.954-0.679l1.593,1.612c-0.424,0.451-0.965,0.805-1.624,1.05c-0.658,0.248-1.37,0.37-2.132,0.37
	c-0.751,0-1.459-0.119-2.132-0.358c-0.673-0.238-1.259-0.596-1.762-1.062c-0.502-0.467-0.897-1.031-1.188-1.696
	c-0.289-0.667-0.436-1.424-0.436-2.27c0-0.822,0.146-1.563,0.436-2.231c0.291-0.664,0.682-1.229,1.176-1.699
	c0.497-0.464,1.074-0.825,1.732-1.08c0.658-0.253,1.361-0.382,2.113-0.382c0.748,0,1.473,0.143,2.173,0.425
	c0.701,0.282,1.257,0.673,1.667,1.166L95.052,90.329"/>
<path fill="#97CCFF" d="M104.982,96.399h-0.062c-0.257,0.451-0.667,0.822-1.229,1.112c-0.568,0.291-1.215,0.437-1.933,0.437
	c-0.413,0-0.838-0.053-1.286-0.162c-0.446-0.104-0.856-0.28-1.229-0.528c-0.377-0.248-0.685-0.575-0.933-0.977
	c-0.249-0.402-0.372-0.902-0.372-1.494c0-0.763,0.216-1.373,0.647-1.824c0.43-0.455,0.987-0.803,1.665-1.044
	c0.679-0.236,1.433-0.398,2.262-0.477c0.826-0.077,1.636-0.116,2.428-0.116v-0.255c0-0.637-0.23-1.105-0.691-1.411
	c-0.461-0.302-1.008-0.454-1.642-0.454c-0.539,0-1.056,0.114-1.552,0.338c-0.496,0.228-0.903,0.502-1.229,0.828l-1.316-1.549
	c0.581-0.536,1.25-0.939,2.007-1.209c0.753-0.269,1.522-0.403,2.3-0.403c0.906,0,1.651,0.126,2.24,0.38
	c0.586,0.258,1.049,0.59,1.388,0.999c0.342,0.41,0.577,0.87,0.713,1.379c0.134,0.511,0.199,1.02,0.199,1.528v6.197h-2.375V96.399
	 M104.94,93.046h-0.574c-0.41,0-0.843,0.018-1.295,0.055c-0.451,0.032-0.87,0.11-1.25,0.229c-0.382,0.123-0.699,0.294-0.957,0.512
	c-0.251,0.219-0.379,0.521-0.379,0.9c0,0.242,0.054,0.442,0.158,0.607c0.104,0.161,0.246,0.292,0.413,0.392
	c0.171,0.099,0.362,0.171,0.575,0.212c0.212,0.043,0.424,0.063,0.636,0.063c0.874,0,1.54-0.234,1.996-0.701
	c0.454-0.466,0.678-1.104,0.678-1.91V93.046z"/>
<rect x="110.162" y="81.65" fill="#97CCFF" width="2.547" height="16.042"/>
<path fill="#97CCFF" d="M128.471,85.81c-0.285-0.367-0.679-0.676-1.199-0.924c-0.518-0.248-1.036-0.37-1.56-0.37
	c-0.311,0-0.621,0.038-0.932,0.116s-0.595,0.197-0.85,0.361c-0.254,0.165-0.463,0.375-0.625,0.638
	c-0.161,0.26-0.245,0.575-0.245,0.941c0,0.342,0.071,0.631,0.211,0.871c0.141,0.242,0.338,0.445,0.587,0.616
	c0.246,0.17,0.544,0.316,0.9,0.445c0.353,0.125,0.741,0.254,1.167,0.38c0.478,0.155,0.981,0.332,1.499,0.532
	c0.514,0.197,0.987,0.461,1.417,0.784c0.433,0.329,0.786,0.738,1.062,1.231c0.274,0.497,0.415,1.11,0.415,1.846
	c0,0.805-0.15,1.512-0.446,2.111c-0.298,0.602-0.694,1.101-1.191,1.496c-0.497,0.397-1.074,0.694-1.736,0.891
	c-0.667,0.198-1.368,0.3-2.101,0.3c-0.978,0-1.933-0.183-2.868-0.542c-0.934-0.36-1.697-0.896-2.292-1.603l1.911-1.782
	c0.369,0.508,0.859,0.911,1.475,1.211c0.617,0.296,1.221,0.442,1.812,0.442c0.312,0,0.632-0.038,0.958-0.116s0.619-0.21,0.879-0.393
	c0.264-0.185,0.474-0.416,0.638-0.69c0.161-0.272,0.245-0.616,0.245-1.026c0-0.396-0.095-0.727-0.278-0.986
	c-0.186-0.264-0.435-0.487-0.742-0.68c-0.311-0.193-0.68-0.358-1.104-0.499c-0.425-0.144-0.87-0.29-1.337-0.445
	c-0.451-0.143-0.907-0.314-1.36-0.509c-0.449-0.201-0.856-0.46-1.217-0.786c-0.362-0.326-0.655-0.725-0.88-1.196
	c-0.227-0.477-0.34-1.068-0.34-1.773c0-0.767,0.162-1.421,0.478-1.975c0.317-0.551,0.733-1.008,1.253-1.37
	c0.514-0.362,1.1-0.628,1.758-0.804c0.658-0.177,1.325-0.267,2.007-0.267c0.763,0,1.537,0.134,2.321,0.403
	c0.786,0.27,1.469,0.673,2.048,1.209L128.471,85.81"/>
<path fill="#97CCFF" d="M131.739,92.559c0-0.808,0.145-1.541,0.437-2.199c0.287-0.658,0.683-1.217,1.179-1.687
	c0.493-0.467,1.08-0.825,1.759-1.083c0.679-0.254,1.4-0.379,2.162-0.379c0.766,0,1.49,0.125,2.169,0.379
	c0.676,0.258,1.265,0.616,1.762,1.083c0.494,0.47,0.888,1.028,1.176,1.687c0.29,0.658,0.433,1.392,0.433,2.199
	c0,0.807-0.143,1.539-0.433,2.206c-0.288,0.665-0.682,1.233-1.176,1.708c-0.497,0.477-1.086,0.844-1.762,1.113
	c-0.679,0.27-1.403,0.403-2.169,0.403c-0.762,0-1.483-0.134-2.162-0.403c-0.679-0.27-1.266-0.637-1.759-1.113
	c-0.496-0.475-0.892-1.043-1.179-1.708C131.883,94.098,131.739,93.365,131.739,92.559 M134.33,92.559
	c0,0.394,0.059,0.789,0.18,1.187c0.118,0.395,0.301,0.751,0.541,1.062c0.239,0.309,0.544,0.565,0.913,0.762
	c0.368,0.201,0.808,0.301,1.312,0.301c0.512,0,0.952-0.1,1.319-0.301c0.368-0.196,0.67-0.453,0.912-0.762
	c0.24-0.312,0.419-0.668,0.543-1.062c0.118-0.397,0.179-0.793,0.179-1.187c0-0.398-0.061-0.791-0.179-1.179
	c-0.124-0.389-0.303-0.739-0.543-1.05c-0.242-0.312-0.543-0.562-0.912-0.754c-0.368-0.192-0.807-0.287-1.319-0.287
	c-0.504,0-0.944,0.095-1.312,0.287c-0.368,0.191-0.673,0.442-0.913,0.754c-0.239,0.311-0.422,0.661-0.541,1.05
	C134.389,91.768,134.33,92.16,134.33,92.559"/>
<path fill="#97CCFF" d="M151.707,90.329c-0.198-0.281-0.494-0.517-0.892-0.712c-0.397-0.188-0.8-0.287-1.209-0.287
	c-0.466,0-0.879,0.099-1.232,0.287c-0.353,0.195-0.646,0.442-0.88,0.754c-0.233,0.311-0.409,0.662-0.521,1.05
	c-0.113,0.392-0.17,0.783-0.17,1.182c0,0.395,0.061,0.787,0.18,1.176c0.123,0.389,0.301,0.738,0.542,1.05
	c0.239,0.311,0.541,0.562,0.903,0.754c0.358,0.19,0.78,0.287,1.262,0.287c0.398,0,0.796-0.078,1.188-0.234
	c0.394-0.158,0.714-0.382,0.954-0.679l1.594,1.612c-0.425,0.451-0.966,0.805-1.624,1.05c-0.658,0.248-1.371,0.37-2.133,0.37
	c-0.751,0-1.463-0.119-2.134-0.358c-0.672-0.238-1.258-0.596-1.761-1.062c-0.506-0.467-0.9-1.031-1.188-1.696
	c-0.29-0.667-0.437-1.424-0.437-2.27c0-0.822,0.147-1.563,0.437-2.231c0.288-0.664,0.679-1.229,1.176-1.699
	c0.497-0.464,1.074-0.825,1.731-1.08c0.659-0.253,1.361-0.382,2.112-0.382c0.748,0,1.473,0.143,2.175,0.425
	c0.7,0.282,1.256,0.673,1.666,1.166L151.707,90.329"/>
<path fill="#97CCFF" d="M154.996,84.049c0-0.408,0.15-0.769,0.455-1.073c0.305-0.304,0.688-0.454,1.158-0.454
	c0.466,0,0.859,0.145,1.179,0.433c0.316,0.291,0.475,0.656,0.475,1.095s-0.158,0.803-0.475,1.093
	c-0.32,0.289-0.713,0.435-1.179,0.435c-0.47,0-0.853-0.153-1.158-0.459C155.146,84.816,154.996,84.456,154.996,84.049
	 M155.355,87.508h2.545v10.185h-2.545V87.508z"/>
<path fill="#97CCFF" d="M170.19,92.727v0.342c0,0.114-0.009,0.224-0.021,0.338h-7.744c0.024,0.368,0.12,0.706,0.283,1.005
	c0.165,0.308,0.381,0.567,0.649,0.789c0.266,0.219,0.572,0.393,0.912,0.518c0.336,0.129,0.692,0.192,1.061,0.192
	c0.637,0,1.171-0.117,1.611-0.351c0.437-0.232,0.798-0.556,1.083-0.966l1.695,1.36c-1.004,1.355-2.461,2.033-4.37,2.033
	c-0.792,0-1.519-0.122-2.183-0.367c-0.664-0.248-1.245-0.599-1.732-1.053c-0.487-0.452-0.871-1.008-1.146-1.665
	c-0.275-0.656-0.413-1.403-0.413-2.238c0-0.819,0.138-1.567,0.413-2.24c0.274-0.673,0.655-1.245,1.136-1.717
	c0.481-0.476,1.05-0.844,1.708-1.104c0.657-0.263,1.367-0.395,2.129-0.395c0.709,0,1.364,0.119,1.966,0.35
	c0.6,0.236,1.121,0.581,1.558,1.041c0.438,0.461,0.782,1.031,1.028,1.721C170.064,91.004,170.19,91.806,170.19,92.727
	 M167.642,91.582c0-0.326-0.045-0.638-0.138-0.934c-0.09-0.297-0.239-0.56-0.436-0.786c-0.198-0.225-0.45-0.404-0.751-0.539
	c-0.306-0.135-0.661-0.203-1.07-0.203c-0.766,0-1.413,0.23-1.945,0.69c-0.529,0.46-0.823,1.047-0.876,1.771H167.642z"/>
<g>
	<path fill="#97CCFF" d="M171.186,89.544v-2.037h1.782v-2.949h2.504v2.949h2.548v2.037h-2.548v4.731
		c0,0.454,0.084,0.827,0.242,1.127c0.165,0.296,0.529,0.445,1.094,0.445c0.171,0,0.354-0.02,0.554-0.053
		c0.196-0.036,0.37-0.09,0.529-0.162l0.084,1.995c-0.224,0.087-0.494,0.152-0.804,0.203c-0.311,0.048-0.61,0.075-0.892,0.075
		c-0.679,0-1.232-0.095-1.657-0.287c-0.425-0.191-0.76-0.452-1.008-0.787c-0.246-0.331-0.416-0.715-0.509-1.146
		c-0.089-0.431-0.137-0.894-0.137-1.391v-4.752H171.186"/>
	<path fill="#97CCFF" d="M179.399,87.508h2.824l2.841,7.406h0.042l2.527-7.406h2.65l-4.814,12.37
		c-0.183,0.467-0.381,0.88-0.595,1.241c-0.21,0.362-0.467,0.664-0.764,0.912c-0.295,0.248-0.648,0.437-1.052,0.562
		c-0.401,0.131-0.886,0.189-1.454,0.189c-0.209,0-0.426-0.006-0.647-0.03c-0.218-0.017-0.438-0.06-0.666-0.116l0.212-2.207
		c0.17,0.06,0.335,0.096,0.496,0.116c0.162,0.021,0.317,0.034,0.458,0.034c0.269,0,0.496-0.034,0.678-0.094
		c0.187-0.068,0.342-0.168,0.467-0.299c0.129-0.135,0.239-0.3,0.337-0.5c0.1-0.197,0.208-0.431,0.32-0.699l0.512-1.295
		L179.399,87.508"/>
</g>
<g>
	<path fill="#97CCFF" d="M62.46,62.357c-6.993,6.802-16.094,10.537-25.865,10.537c-9.772,0-19.065-3.735-25.962-10.537
		C3.64,55.557,0,46.741,0,36.972c0-9.771,3.64-18.585,10.634-25.483c6.993-6.801,16.094-10.44,25.962-10.44
		c9.867,0,18.872,3.639,25.865,10.44c6.994,6.898,10.729,15.808,10.729,25.483C73.189,46.741,69.454,55.557,62.46,62.357
		 M54.222,18.77c-4.694-4.885-11.017-7.472-17.626-7.472c-6.61,0-12.933,2.587-17.723,7.472c-4.791,4.886-7.282,11.305-7.282,18.202
		c0,6.897,2.491,13.219,7.282,18.105c4.79,4.887,11.017,7.472,17.723,7.472s12.837-2.585,17.626-7.472
		c4.789-4.886,7.376-11.208,7.376-18.105C61.598,30.074,59.011,23.655,54.222,18.77z"/>
</g>
<path fill="#97CCFF" d="M85.851,53.256c1.629,6.132,6.227,9.389,13.221,9.389c6.707,0,10.825-4.023,10.825-10.154
	c0-6.706-5.077-8.334-12.167-11.782c-12.167-5.94-18.872-10.539-18.872-20.885c0-11.017,8.143-18.775,20.596-18.775
	c10.156,0,17.149,4.119,19.735,11.303l-8.718,4.502c-2.682-4.214-5.844-6.227-10.155-6.227c-6.035,0-9.771,3.449-9.771,8.622
	c0,6.611,5.364,8.623,13.027,12.168c12.071,5.556,17.722,10.441,17.722,20.308c0,12.742-8.525,21.171-22.704,21.171
	c-11.688,0-19.351-5.555-21.65-15.519L85.851,53.256"/>
<polyline fill="#97CCFF" points="157.142,21.261 135.587,71.555 123.899,71.555 157.045,0.377 190.192,71.555 178.408,71.555 
	157.142,21.261 "/>
<polyline fill="#97CCFF" points="168.928,52.461 149.503,43.142 148.919,60.355 168.928,52.461 "/>
</svg>
