<?xml version="1.0" encoding="utf-8"?>
<!-- Generator: Adobe Illustrator 16.0.0, SVG Export Plug-In . SVG Version: 6.00 Build 0)  -->
<!DOCTYPE svg PUBLIC "-//W3C//DTD SVG 1.1//EN" "http://www.w3.org/Graphics/SVG/1.1/DTD/svg11.dtd">
<svg version="1.1" id="Layer_1" xmlns="http://www.w3.org/2000/svg" xmlns:xlink="http://www.w3.org/1999/xlink" x="0px" y="0px"
	 width="393.866px" height="106.979px" viewBox="0 0 393.866 106.979" enable-background="new 0 0 393.866 106.979"
	 xml:space="preserve">
<g>
	<path fill="#FFFFFF" d="M145.724,31.845c7.124,0,12.753,2.773,15.476,7.407l-6.326,4.517c-1.384-2.046-4.24-4.658-8.93-4.658
		c-4.214,0-7.1,2.109-7.1,4.912c0,2.631,2.194,4.188,6.521,5.346l4.878,1.309c7.766,2.134,11.621,5.903,11.621,12.031
		c0,7.822-6.904,12.729-16.499,12.729c-7.07,0-12.895-2.437-15.946-7.568l6.545-4.658c1.387,2.08,4.355,4.854,9.289,4.854
		c4.521,0,7.957-2.056,7.957-5.049c0-2.607-2.356-4.38-6.821-5.654l-5.325-1.392c-7.18-1.963-10.925-5.684-10.925-11.84
		C130.138,37.475,136.769,31.845,145.724,31.845"/>
	<path fill="#FFFFFF" d="M188.149,39.394c-6.27,0-9.041,5.82-9.399,10.839c-0.366,1.992-0.366,5.376,0,7.153
		c0.493,4.683,3.488,10.649,9.729,10.649c6.545,0,9.846-6.655,9.846-14.78C198.324,45.854,195.188,39.394,188.149,39.394
		 M190.645,75.354c-5.405,0-9.15-2.329-11.731-5.991l-0.529,5.215h-7.57V17.177h8.571v20.02c2.549-3.301,6.13-5.381,11.149-5.381
		c10.119,0,16.442,8.906,16.442,21.439C206.977,66.038,200.573,75.354,190.645,75.354"/>
	<path fill="#FFFFFF" d="M226.718,39.53v35.053h-8.569V39.53h-6.572v-7.07h6.572v-3.057c0-8.433,5.879-13.008,13.754-13.008
		c1.753,0,3.247,0.254,4.302,0.557v7.046c-0.889-0.142-1.309-0.249-3.081-0.249c-2.69,0-6.405,1.304-6.405,5.654v3.057h9.037
		l-0.083,7.07H226.718z"/>
	<path fill="#FFFFFF" d="M269.279,53.475c0-9.345-3.936-14.394-10.419-14.394c-6.24,0-10.488,5.605-10.488,14.394
		c0,8.735,3.911,14.561,10.488,14.561C265.344,68.035,269.279,62.933,269.279,53.475 M239.72,53.475
		c0-13.339,8.125-21.659,19.141-21.659c11.112,0,19.237,7.739,19.237,21.659c0,14.199-8.125,21.904-19.237,21.904
		C247.845,75.379,239.72,67.317,239.72,53.475"/>
	<path fill="#FFFFFF" d="M301.363,75.076c-5.99,0-11.923-3.462-11.923-11.421V39.53h-6.353v-7.075h6.353v-9.536h8.569v9.536h8.319
		v7.075h-8.319v22.431c0,5.156,3.134,5.547,5.795,5.547c1.196,0,1.772-0.107,2.798-0.22v7.1
		C305.133,74.881,304.024,75.076,301.363,75.076"/>
	<path fill="#FFFFFF" d="M341.514,53.475c0-9.345-3.936-14.394-10.424-14.394c-6.24,0-10.483,5.605-10.483,14.394
		c0,8.735,3.906,14.561,10.483,14.561C337.578,68.035,341.514,62.933,341.514,53.475 M311.954,53.475
		c0-13.339,8.125-21.659,19.136-21.659c11.117,0,19.242,7.739,19.242,21.659c0,14.199-8.125,21.904-19.242,21.904
		C320.079,75.379,311.954,67.317,311.954,53.475"/>
	<path fill="#FFFFFF" d="M367.607,74.578h-8.569V32.455h8.101l0.137,6.157h0.439c2.139-3.911,6.327-6.797,12.206-6.797
		c7.876,0,13.945,4.829,13.945,16.083v26.68h-8.569V48.343c0-5.595-3.599-8.954-8.286-8.954c-4.858,0-9.403,3.882-9.403,11.093
		V74.578z"/>
	<path fill="#FFFFFF" d="M82.358,95.778L61.785,60.252h-16.74l-12.7,21.875c1.155,0.897,2.366,1.674,3.626,2.431l0.82,0.444
		c1.265,0.708,2.573,1.318,3.923,1.865l12.7-22.001l20.495,35.502c-6.274,2.749-13.205,4.312-20.495,4.312
		c-26.913,0-48.969-20.752-50.997-47.133h41.148l8.369-14.54L39.239,21c-1.354,0.542-2.663,1.162-3.931,1.87l-0.808,0.464
		c-1.268,0.757-2.476,1.577-3.631,2.485l12.695,21.981l-40.99,0.005c2.83-25.57,24.509-45.467,50.839-45.467
		c7.896,0,15.375,1.792,22.055,4.985l-20.58,35.683l8.371,14.54h25.388c0.227-1.353,0.342-3.228,0.347-4.873
		c0-1.636-0.12-3.271-0.347-4.854l-25.388-0.01l20.492-35.497c12.627,9.316,20.811,24.346,20.811,41.234
		C104.562,71.053,95.769,86.555,82.358,95.778 M53.489,0C23.949,0,0,23.949,0,53.489s23.949,53.49,53.489,53.49
		c29.545,0,53.487-23.95,53.487-53.49S83.034,0,53.489,0"/>
</g>
</svg>
